<svg width="168" height="92" viewBox="0 0 168 92" xmlns="http://www.w3.org/2000/svg">
<ellipse cx="163.706" cy="88.3812" rx="3.55882" ry="3.53525" transform="rotate(-180 163.706 88.3812)" fill="currentColor" />
<ellipse cx="128.118" cy="88.3812" rx="3.55882" ry="3.53525" transform="rotate(-180 128.118 88.3812)" fill="currentColor" />
<ellipse cx="92.53" cy="88.3812" rx="3.55882" ry="3.53525" transform="rotate(-180 92.53 88.3812)" fill="currentColor" />
<ellipse cx="56.9412" cy="88.3812" rx="3.55882" ry="3.53525" transform="rotate(-180 56.9412 88.3812)" fill="currentColor" />
<ellipse cx="21.3533" cy="88.3812" rx="3.55882" ry="3.53525" transform="rotate(-180 21.3533 88.3812)" fill="currentColor" />
<ellipse cx="145.912" cy="67.1698" rx="3.55882" ry="3.53525" transform="rotate(-180 145.912 67.1698)" fill="currentColor" />
<ellipse cx="110.324" cy="67.1698" rx="3.55882" ry="3.53525" transform="rotate(-180 110.324 67.1698)" fill="currentColor" />
<ellipse cx="74.7351" cy="67.1698" rx="3.55882" ry="3.53525" transform="rotate(-180 74.7351 67.1698)" fill="currentColor" />
<ellipse cx="39.1472" cy="67.1698" rx="3.55882" ry="3.53525" transform="rotate(-180 39.1472 67.1698)" fill="currentColor" />
<ellipse cx="3.55836" cy="67.1698" rx="3.55882" ry="3.53525" transform="rotate(-180 3.55836 67.1698)" fill="currentColor" />
<ellipse cx="163.706" cy="45.958" rx="3.55882" ry="3.53525" transform="rotate(-180 163.706 45.958)" fill="currentColor" />
<ellipse cx="128.118" cy="45.958" rx="3.55882" ry="3.53525" transform="rotate(-180 128.118 45.958)" fill="currentColor" />
<ellipse cx="92.53" cy="45.958" rx="3.55882" ry="3.53525" transform="rotate(-180 92.53 45.958)" fill="currentColor" />
<ellipse cx="56.9412" cy="45.958" rx="3.55882" ry="3.53525" transform="rotate(-180 56.9412 45.958)" fill="currentColor" />
<ellipse cx="21.3533" cy="45.9579" rx="3.55882" ry="3.53525" transform="rotate(-180 21.3533 45.9579)" fill="currentColor" />
<ellipse cx="145.912" cy="24.7466" rx="3.55882" ry="3.53525" transform="rotate(-180 145.912 24.7466)" fill="currentColor" />
<ellipse cx="110.324" cy="24.7466" rx="3.55882" ry="3.53525" transform="rotate(-180 110.324 24.7466)" fill="currentColor" />
<ellipse cx="74.7351" cy="24.7466" rx="3.55882" ry="3.53525" transform="rotate(-180 74.7351 24.7466)" fill="currentColor" />
<ellipse cx="39.1472" cy="24.7466" rx="3.55882" ry="3.53525" transform="rotate(-180 39.1472 24.7466)" fill="currentColor" />
<ellipse cx="3.55836" cy="24.7466" rx="3.55882" ry="3.53525" transform="rotate(-180 3.55836 24.7466)" fill="currentColor" />
<ellipse cx="163.706" cy="3.53518" rx="3.55882" ry="3.53525" transform="rotate(-180 163.706 3.53518)" fill="currentColor" />
<ellipse cx="128.118" cy="3.53518" rx="3.55882" ry="3.53525" transform="rotate(-180 128.118 3.53518)" fill="currentColor" />
<ellipse cx="92.53" cy="3.53518" rx="3.55882" ry="3.53525" transform="rotate(-180 92.53 3.53518)" fill="currentColor" />
<ellipse cx="56.9412" cy="3.53518" rx="3.55882" ry="3.53525" transform="rotate(-180 56.9412 3.53518)" fill="currentColor" />
<ellipse cx="21.3533" cy="3.53518" rx="3.55882" ry="3.53525" transform="rotate(-180 21.3533 3.53518)" fill="currentColor" />
</svg>
