<svg width="100%"  viewBox="0 0 202 130" fill="none" xmlns="http://www.w3.org/2000/svg">
<rect width="202" height="130" fill="white"/>
<path d="M5.20739 5.54545H1.51705V23H5.20739V5.54545ZM11.8061 15.4318C11.8146 13.7443 12.8203 12.7557 14.2862 12.7557C15.7436 12.7557 16.6214 13.7102 16.6129 15.3125V23H20.2436V14.6648C20.2436 11.6136 18.4538 9.73864 15.7266 9.73864C13.7834 9.73864 12.3771 10.6932 11.7891 12.2188H11.6357V9.90909H8.17543V23H11.8061V15.4318ZM30.0682 9.90909H27.6051V6.77273H23.9744V9.90909H22.1847V12.6364H23.9744V19.429C23.9574 21.9858 25.7045 23.2557 28.3381 23.1534C29.2756 23.1108 29.9403 22.9233 30.3068 22.8125L29.7358 20.1023C29.5568 20.1449 29.1733 20.2216 28.8324 20.2216C28.108 20.2216 27.5795 19.9489 27.6051 18.9432V12.6364H30.0682V9.90909ZM38.3395 23.2557C41.5866 23.2557 43.7599 21.679 44.2713 19.25L40.9219 19.0284C40.5554 20.0256 39.6094 20.5455 38.4077 20.5455C36.5923 20.5455 35.4418 19.3438 35.4418 17.392V17.3835H44.3565V16.3864C44.3565 11.9375 41.6634 9.73864 38.2031 9.73864C34.3509 9.73864 31.8537 12.4744 31.8537 16.5142C31.8537 20.6648 34.3168 23.2557 38.3395 23.2557ZM35.4418 15.1335C35.5099 13.642 36.652 12.4489 38.2628 12.4489C39.831 12.4489 40.9219 13.5739 40.9389 15.1335H35.4418ZM46.777 23H50.4077V15.5938C50.4162 13.9915 51.5753 12.892 53.0412 12.892C53.5355 12.892 53.9361 13.0284 54.277 13.1989L55.3679 10.1989C54.8906 9.90909 54.277 9.72159 53.5781 9.72159C52.1037 9.72159 50.9105 10.5739 50.4332 12.1932H50.2969V9.90909H46.777V23ZM73.4957 5.54545V16.9574C73.4957 18.8239 71.9872 19.9574 69.9247 19.9574C67.8878 19.9574 66.3793 18.8239 66.3793 16.9574V5.54545H62.6889V17.0852C62.6889 21.0398 65.6889 23.2472 69.9247 23.2472C74.1435 23.2472 77.1605 21.0398 77.1605 17.0852V5.54545H73.4957ZM83.8871 5.54545H80.1967V23H83.8871V5.54545ZM92.478 23H99.9354C103.856 23 105.944 20.9545 105.944 18.1761C105.944 15.5938 104.094 14.0341 102.109 13.9403V13.7699C103.924 13.3608 105.262 12.0739 105.262 10.0199C105.262 7.40341 103.319 5.54545 99.4666 5.54545H92.478V23ZM96.1683 19.983V15.3466H99.2621C101.035 15.3466 102.134 16.3693 102.134 17.8097C102.134 19.1222 101.239 19.983 99.1768 19.983H96.1683ZM96.1683 12.8494V8.52841H98.9723C100.609 8.52841 101.538 9.37216 101.538 10.6335C101.538 12.0142 100.413 12.8494 98.9041 12.8494H96.1683ZM114.234 23.2557C118.206 23.2557 120.678 20.5369 120.678 16.5057C120.678 12.4489 118.206 9.73864 114.234 9.73864C110.254 9.73864 107.791 12.4489 107.791 16.5057C107.791 20.5369 110.254 23.2557 114.234 23.2557ZM114.251 20.4432C112.419 20.4432 111.482 18.7642 111.482 16.4801C111.482 14.196 112.419 12.5085 114.251 12.5085C116.05 12.5085 116.987 14.196 116.987 16.4801C116.987 18.7642 116.05 20.4432 114.251 20.4432ZM126.72 5.54545H123.089V23H126.72V5.54545ZM141.91 23V5.54545H138.279V12.108H138.168C137.683 11.0426 136.634 9.73864 134.444 9.73864C131.572 9.73864 129.143 11.9716 129.143 16.4716C129.143 20.8523 131.469 23.2131 134.452 23.2131C136.566 23.2131 137.665 21.9943 138.168 20.9034H138.33V23H141.91ZM138.356 16.4545C138.356 18.7898 137.35 20.3239 135.603 20.3239C133.822 20.3239 132.85 18.7386 132.85 16.4545C132.85 14.1875 133.805 12.6278 135.603 12.6278C137.367 12.6278 138.356 14.1193 138.356 16.4545Z" fill="black"/>
<path d="M4.88352 37.5455H1.72159V55H4.88352V37.5455ZM11.2564 47.3295C11.2564 45.4375 12.3984 44.3466 14.0263 44.3466C15.62 44.3466 16.5746 45.3949 16.5746 47.142V55H19.6598V46.6648C19.6683 43.5284 17.8786 41.7386 15.1768 41.7386C13.2166 41.7386 11.87 42.6761 11.2734 44.1335H11.12V41.9091H8.17116V55H11.2564V47.3295ZM29.3331 41.9091H26.7507V38.7727H23.6655V41.9091H21.8075V44.2955H23.6655V51.5483C23.6484 54.0199 25.4382 55.2301 27.7564 55.1534C28.6342 55.1364 29.2393 54.9659 29.5717 54.8466L29.0518 52.4432C28.8814 52.4773 28.532 52.5625 28.1484 52.5625C27.3729 52.5625 26.7422 52.2812 26.7507 51.0455V44.2955H29.3331V41.9091ZM37.696 55.2557C40.7386 55.2557 42.8438 53.7642 43.3892 51.4886L40.5 51.1648C40.0824 52.2727 39.0682 52.8523 37.7301 52.8523C35.7358 52.8523 34.4148 51.5398 34.3892 49.2983H43.5085V48.3523C43.5085 43.7585 40.7472 41.7386 37.5256 41.7386C33.7756 41.7386 31.3295 44.4915 31.3295 48.5312C31.3295 52.6392 33.7415 55.2557 37.696 55.2557ZM34.3977 47.2188C34.5 45.5483 35.7273 44.142 37.5682 44.142C39.3494 44.142 40.5426 45.4375 40.5511 47.2188H34.3977ZM46.1399 55H49.2251V47.304C49.2251 45.6506 50.4695 44.483 52.0803 44.483C52.5831 44.483 52.9666 44.6023 53.299 44.7557L54.2536 42.1989C53.7933 41.9091 53.2053 41.7216 52.4979 41.7216C50.9893 41.7216 49.745 42.5739 49.2678 44.0909H49.1314V41.9091H46.1399V55ZM73.1783 37.5455V49.0085C73.1783 51.1648 71.4482 52.4176 69.2493 52.4176C67.0589 52.4176 65.3288 51.1648 65.3288 49.0085V37.5455H62.1669V49.0852C62.1669 53.0398 65.201 55.2642 69.2493 55.2642C73.2805 55.2642 76.3317 53.0398 76.3317 49.0852V37.5455H73.1783ZM82.9304 37.5455H79.7685V55H82.9304V37.5455ZM101.793 42.3438H104.836C104.776 39.3949 102.262 37.3068 98.5462 37.3068C94.8814 37.3068 92.1286 39.3693 92.1371 42.4545C92.1371 44.9602 93.9183 46.4006 96.7905 47.142L98.7763 47.6534C100.66 48.1307 101.904 48.7188 101.913 50.0739C101.904 51.5653 100.489 52.5625 98.4268 52.5625C96.4496 52.5625 94.9155 51.6761 94.7876 49.8438H91.6768C91.8047 53.3125 94.3871 55.2642 98.4524 55.2642C102.637 55.2642 105.066 53.1761 105.075 50.0994C105.066 47.0739 102.569 45.6932 99.9439 45.071L98.3075 44.6619C96.8757 44.321 95.3246 43.7159 95.3416 42.2585C95.3501 40.946 96.5263 39.983 98.5036 39.983C100.387 39.983 101.631 40.8608 101.793 42.3438ZM113.587 55.2557C116.629 55.2557 118.734 53.7642 119.28 51.4886L116.391 51.1648C115.973 52.2727 114.959 52.8523 113.621 52.8523C111.626 52.8523 110.305 51.5398 110.28 49.2983H119.399V48.3523C119.399 43.7585 116.638 41.7386 113.416 41.7386C109.666 41.7386 107.22 44.4915 107.22 48.5312C107.22 52.6392 109.632 55.2557 113.587 55.2557ZM110.288 47.2188C110.391 45.5483 111.618 44.142 113.459 44.142C115.24 44.142 116.433 45.4375 116.442 47.2188H110.288ZM122.031 55H125.116V47.0398C125.116 45.429 126.19 44.3381 127.519 44.3381C128.823 44.3381 129.718 45.2159 129.718 46.5625V55H132.744V46.8352C132.744 45.3608 133.621 44.3381 135.113 44.3381C136.357 44.3381 137.346 45.071 137.346 46.6903V55H140.44V46.2131C140.44 43.2898 138.752 41.7386 136.349 41.7386C134.448 41.7386 132.999 42.6761 132.42 44.1335H132.283C131.781 42.6506 130.511 41.7386 128.746 41.7386C126.991 41.7386 125.678 42.642 125.133 44.1335H124.979V41.9091H122.031V55ZM143.57 55H146.655V41.9091H143.57V55ZM145.121 40.1534C146.075 40.1534 146.902 39.4205 146.902 38.483C146.902 37.5369 146.075 36.804 145.121 36.804C144.158 36.804 143.331 37.5369 143.331 38.483C143.331 39.4205 144.158 40.1534 145.121 40.1534ZM149.827 55H152.862V52.9375H153.04C153.526 53.892 154.54 55.2301 156.79 55.2301C159.876 55.2301 162.185 52.7841 162.185 48.4716C162.185 44.108 159.808 41.7386 156.782 41.7386C154.472 41.7386 153.509 43.1278 153.04 44.0739H152.913V37.5455H149.827V55ZM152.853 48.4545C152.853 45.9148 153.944 44.2699 155.93 44.2699C157.984 44.2699 159.04 46.017 159.04 48.4545C159.04 50.9091 157.967 52.6989 155.93 52.6989C153.961 52.6989 152.853 50.9943 152.853 48.4545ZM170.563 55.2557C174.398 55.2557 176.836 52.554 176.836 48.5057C176.836 44.4489 174.398 41.7386 170.563 41.7386C166.737 41.7386 164.29 44.4489 164.29 48.5057C164.29 52.554 166.737 55.2557 170.563 55.2557ZM170.58 52.7841C168.458 52.7841 167.418 50.892 167.418 48.4972C167.418 46.1023 168.458 44.1847 170.58 44.1847C172.668 44.1847 173.708 46.1023 173.708 48.4972C173.708 50.892 172.668 52.7841 170.58 52.7841ZM182.561 37.5455H179.476V55H182.561V37.5455ZM197.555 55V37.5455H194.469V44.0739H194.342C193.873 43.1278 192.91 41.7386 190.6 41.7386C187.575 41.7386 185.197 44.108 185.197 48.4716C185.197 52.7841 187.506 55.2301 190.592 55.2301C192.842 55.2301 193.856 53.892 194.342 52.9375H194.521V55H197.555ZM194.529 48.4545C194.529 50.9943 193.421 52.6989 191.452 52.6989C189.415 52.6989 188.342 50.9091 188.342 48.4545C188.342 46.017 189.398 44.2699 191.452 44.2699C193.438 44.2699 194.529 45.9148 194.529 48.4545Z" fill="black"/>
<path d="M4.22727 101.545H2.11364V119H4.22727V101.545ZM10.2038 111.125C10.2038 108.841 11.6186 107.545 13.5447 107.545C15.4112 107.545 16.5447 108.764 16.5447 110.818V119H18.5561V110.682C18.5561 107.341 16.7749 105.739 14.1243 105.739C12.147 105.739 10.9197 106.625 10.3061 107.955H10.1357V105.909H8.19247V119H10.2038V111.125ZM27.9247 105.909H25.1293V102.773H23.1179V105.909H21.1406V107.614H23.1179V115.795C23.1179 118.08 24.9588 119.17 26.6634 119.17C27.4134 119.17 27.8906 119.034 28.1634 118.932L27.7543 117.125C27.5838 117.159 27.3111 117.227 26.8679 117.227C25.9815 117.227 25.1293 116.955 25.1293 115.25V107.614H27.9247V105.909ZM36.4389 119.273C39.098 119.273 41.0412 117.943 41.6548 115.966L39.7116 115.42C39.2003 116.784 38.0156 117.466 36.4389 117.466C34.0781 117.466 32.4503 115.94 32.3565 113.136H41.8594V112.284C41.8594 107.409 38.9616 105.739 36.2344 105.739C32.6889 105.739 30.3366 108.534 30.3366 112.557C30.3366 116.58 32.6548 119.273 36.4389 119.273ZM32.3565 111.398C32.4929 109.361 33.9332 107.545 36.2344 107.545C38.4162 107.545 39.8139 109.182 39.8139 111.398H32.3565ZM44.919 119H46.9304V110.716C46.9304 108.952 48.3281 107.648 50.2372 107.648C50.7401 107.648 51.1151 107.741 51.3963 107.886L52.0781 106.182C51.669 105.892 51.1321 105.705 50.4077 105.705C48.8224 105.705 47.4673 106.591 46.9986 107.886H46.8622V105.909H44.919V119ZM72.6072 101.545V113.102C72.6072 115.83 70.4254 117.33 67.9368 117.33C65.4482 117.33 63.2663 115.83 63.2663 113.102V101.545H61.1527V113.102C61.1527 117.023 64.255 119.307 67.9368 119.307C71.6186 119.307 74.7209 117.023 74.7209 113.102V101.545H72.6072ZM81.0554 101.545H78.9418V119H81.0554V101.545ZM92.0433 119H94.157V112.182H98.4183L102.1 119H104.555L100.6 111.773C102.816 110.955 103.873 109.114 103.873 106.864C103.873 103.727 101.827 101.545 98.3161 101.545H92.0433V119ZM94.157 110.273V103.42H98.2138C100.532 103.42 101.793 104.716 101.793 106.898C101.793 108.977 100.6 110.273 97.9751 110.273H94.157ZM112.47 119.273C115.129 119.273 117.072 117.943 117.686 115.966L115.743 115.42C115.232 116.784 114.047 117.466 112.47 117.466C110.109 117.466 108.482 115.94 108.388 113.136H117.891V112.284C117.891 107.409 114.993 105.739 112.266 105.739C108.72 105.739 106.368 108.534 106.368 112.557C106.368 116.58 108.686 119.273 112.47 119.273ZM108.388 111.398C108.524 109.361 109.964 107.545 112.266 107.545C114.447 107.545 115.845 109.182 115.845 111.398H108.388ZM126.166 123.909C129.2 123.909 131.893 122.477 131.893 119.102V105.909H129.95V107.989H129.746C129.303 107.307 128.484 105.739 125.928 105.739C122.621 105.739 120.337 108.364 120.337 112.386C120.337 116.477 122.723 118.795 125.893 118.795C128.45 118.795 129.268 117.295 129.712 116.58H129.882V118.898C129.916 121.08 128.178 122.102 126.166 122.102C123.916 122.102 122.996 120.807 122.484 120.159L120.882 121.284C121.7 122.682 123.371 123.909 126.166 123.909ZM126.166 116.989C123.643 116.989 122.348 115.08 122.348 112.352C122.348 109.693 123.609 107.545 126.166 107.545C128.621 107.545 129.916 109.523 129.916 112.352C129.916 115.25 128.587 116.989 126.166 116.989ZM143.825 113.648C143.825 116.102 141.95 117.227 140.45 117.227C138.78 117.227 137.587 116 137.587 114.091V105.909H135.575V114.227C135.575 117.568 137.348 119.17 139.803 119.17C141.78 119.17 143.075 118.114 143.689 116.784H143.825V119H145.837V105.909H143.825V113.648ZM151.532 101.545H149.521V119H151.532V101.545ZM159.068 119.307C161.352 119.307 162.545 118.08 162.955 117.227H163.057V119H165.068V110.375C165.068 106.216 161.898 105.739 160.227 105.739C158.25 105.739 156 106.42 154.977 108.807L156.886 109.489C157.33 108.534 158.378 107.511 160.295 107.511C162.162 107.511 163.057 108.509 163.057 110.205C163.057 111.176 162.068 111.125 159.682 111.432C157.253 111.747 154.602 112.284 154.602 115.284C154.602 117.841 156.58 119.307 159.068 119.307ZM159.375 117.5C157.773 117.5 156.614 116.784 156.614 115.386C156.614 113.852 158.011 113.375 159.58 113.17C160.432 113.068 162.716 112.83 163.057 112.42V114.261C163.057 115.898 161.761 117.5 159.375 117.5ZM168.739 119H170.751V110.716C170.751 108.952 172.148 107.648 174.058 107.648C174.56 107.648 174.935 107.741 175.217 107.886L175.898 106.182C175.489 105.892 174.952 105.705 174.228 105.705C172.643 105.705 171.288 106.591 170.819 107.886H170.683V105.909H168.739V119Z" fill="black"/>
<path d="M4.55114 69.5455H1.91761V87H4.55114V69.5455ZM10.7301 79.2273C10.7301 77.1392 12.0085 75.946 13.7812 75.946C15.5114 75.946 16.5597 77.0795 16.5597 78.9801V87H19.108V78.6733C19.108 75.4347 17.3267 73.7386 14.6506 73.7386C12.6818 73.7386 11.3949 74.6506 10.7898 76.0398H10.6278V73.9091H8.18182V87H10.7301V79.2273ZM28.6364 73.9091H25.9517V70.7727H23.4034V73.9091H21.4858V75.9545H23.4034V83.6761C23.3949 86.0455 25.2102 87.196 27.2216 87.1619C28.0312 87.1534 28.5767 87 28.875 86.8892L28.4148 84.7841C28.2443 84.8182 27.929 84.8949 27.5199 84.8949C26.6932 84.8949 25.9432 84.6222 25.9517 83.1477V75.9545H28.6364V73.9091ZM37.0675 87.2642C39.9226 87.2642 41.9425 85.858 42.522 83.7273L40.1101 83.2926C39.6413 84.5284 38.5419 85.1591 37.0845 85.1591C34.9112 85.1591 33.4368 83.7443 33.3686 81.2216H42.6839V80.3182C42.6839 75.5881 39.8544 73.7386 36.88 73.7386C33.2322 73.7386 30.8374 76.517 30.8374 80.5398C30.8374 84.6051 33.1982 87.2642 37.0675 87.2642ZM33.3771 79.3125C33.4879 77.4545 34.826 75.8438 36.9055 75.8438C38.8828 75.8438 40.1783 77.3097 40.1783 79.3125H33.3771ZM45.5412 87H48.0895V79.0057C48.0895 77.3011 49.4105 76.0653 51.1747 76.0653C51.669 76.0653 52.0526 76.1676 52.3594 76.321L53.1776 74.1903C52.7429 73.9006 52.1804 73.7131 51.4645 73.7131C49.9134 73.7131 48.6179 74.5824 48.1406 75.9886H48.0043V73.9091H45.5412V87ZM72.8928 69.5455V81.0511C72.8928 83.4972 70.9411 84.8693 68.5888 84.8693C66.2536 84.8693 64.2933 83.4972 64.2933 81.0511V69.5455H61.6598V81.0938C61.6598 85.0312 64.728 87.2898 68.5888 87.2898C72.4496 87.2898 75.5263 85.0312 75.5263 81.0938V69.5455H72.8928ZM81.9886 69.5455H79.3551V87H81.9886V69.5455ZM92.1754 69.5455V87H94.6811V74.3608H94.843L99.9908 86.9744H102.07L107.218 74.3693H107.38V87H109.886V69.5455H106.69L101.133 83.1136H100.928L95.3714 69.5455H92.1754ZM119.169 87.2642C122.024 87.2642 124.044 85.858 124.624 83.7273L122.212 83.2926C121.743 84.5284 120.643 85.1591 119.186 85.1591C117.013 85.1591 115.538 83.7443 115.47 81.2216H124.786V80.3182C124.786 75.5881 121.956 73.7386 118.982 73.7386C115.334 73.7386 112.939 76.517 112.939 80.5398C112.939 84.6051 115.3 87.2642 119.169 87.2642ZM115.479 79.3125C115.589 77.4545 116.928 75.8438 119.007 75.8438C120.984 75.8438 122.28 77.3097 122.28 79.3125H115.479ZM139.029 87V69.5455H136.481V76.0312H136.327C135.876 75.2216 134.998 73.7386 132.569 73.7386C129.407 73.7386 127.072 76.2358 127.072 80.4801C127.072 84.7159 129.373 87.2557 132.543 87.2557C134.93 87.2557 135.867 85.7983 136.327 84.9631H136.54V87H139.029ZM136.532 80.4545C136.532 83.2074 135.305 85.0824 133.114 85.0824C130.839 85.0824 129.646 83.0795 129.646 80.4545C129.646 77.8551 130.805 75.9034 133.114 75.9034C135.339 75.9034 136.532 77.7188 136.532 80.4545ZM142.455 87H145.004V73.9091H142.455V87ZM143.742 71.9574C144.612 71.9574 145.353 71.2841 145.353 70.4403C145.353 69.5966 144.612 68.9148 143.742 68.9148C142.864 68.9148 142.131 69.5966 142.131 70.4403C142.131 71.2841 142.864 71.9574 143.742 71.9574ZM156.724 81.571C156.733 83.7955 155.08 84.8523 153.648 84.8523C152.071 84.8523 150.98 83.7102 150.98 81.929V73.9091H148.432V82.2358C148.432 85.483 150.213 87.1705 152.727 87.1705C154.696 87.1705 156.034 86.1307 156.639 84.733H156.776V87H159.281V73.9091H156.724V81.571ZM162.705 87H165.254V78.929C165.254 77.1648 166.489 75.9375 167.938 75.9375C169.353 75.9375 170.333 76.875 170.333 78.2983V87H172.873V78.6562C172.873 77.0795 173.836 75.9375 175.498 75.9375C176.844 75.9375 177.952 76.6875 177.952 78.4602V87H180.501V78.2216C180.501 75.2301 178.83 73.7386 176.461 73.7386C174.577 73.7386 173.163 74.642 172.532 76.0398H172.396C171.825 74.608 170.623 73.7386 168.876 73.7386C167.146 73.7386 165.859 74.5994 165.313 76.0398H165.151V73.9091H162.705V87Z" fill="black"/>
</svg>
