<svg width="100%"  viewBox="0 0 256 130" fill="none" xmlns="http://www.w3.org/2000/svg">
<g clip-path="url(#clip0)">
<rect width="256" height="130" fill="white"/>
<path d="M2.76172 18.1719C2.86719 21.3594 5.55078 23.293 9.58203 23.293C13.8125 23.293 16.4023 21.1953 16.4023 17.8906C16.4023 15.3242 14.8438 13.8828 11.2695 13.168L9.47656 12.8047C7.48438 12.4062 6.66406 11.7617 6.66406 10.7188C6.66406 9.47656 7.83594 8.65625 9.58203 8.65625C11.3633 8.65625 12.6172 9.52344 12.7344 10.9648H16.0742C16.0156 7.85938 13.5312 5.79688 9.58203 5.79688C5.82031 5.79688 3.125 7.84766 3.125 10.9414C3.125 13.4609 4.77734 15.0781 8.15234 15.7461L9.93359 16.0977C12.0547 16.5312 12.8516 17.1641 12.8516 18.2773C12.8516 19.5195 11.5625 20.4336 9.67578 20.4336C7.75391 20.4336 6.32422 19.5898 6.10156 18.1719H2.76172ZM23.1289 20.7266C21.9688 20.7266 21.1953 20.1406 21.1953 19.2031C21.1953 18.3125 21.9219 17.7383 23.1992 17.6445L25.8477 17.4805V18.3945C25.8477 19.7539 24.6172 20.7266 23.1289 20.7266ZM22.0039 23.1992C23.5742 23.1992 25.1328 22.4141 25.8359 21.0781H25.9062V23H29.2109V14.3633C29.2109 11.832 27.1133 10.168 23.8906 10.168C20.5625 10.168 18.4883 11.8438 18.3594 14.2812H21.4883C21.6523 13.3555 22.4609 12.7227 23.7383 12.7227C25.0273 12.7227 25.8477 13.4023 25.8477 14.5742V15.4062L22.6836 15.5938C19.5547 15.7812 17.7969 17.1055 17.7969 19.3906C17.7969 21.6523 19.6133 23.1992 22.0039 23.1992ZM31.4258 23H34.8477V15.793C34.8477 14.1641 35.8203 13.0391 37.3555 13.0391C38.8906 13.0391 39.6641 13.9766 39.6641 15.6172V23H43.0859V14.9023C43.0859 11.9609 41.5156 10.2031 38.7266 10.2031C36.793 10.2031 35.4688 11.1172 34.8008 12.6758H34.7305V10.4375H31.4258V23ZM53.8438 23V16.3438H60.7227V13.543H53.8438V9.00781H61.3789V6.08984H50.3047V23H53.8438ZM63.1836 23H66.6055V15.9805C66.6055 14.2109 67.5898 13.1797 69.2773 13.1797C69.7695 13.1797 70.2383 13.2617 70.5195 13.3789V10.3672C70.2852 10.2969 69.9453 10.2383 69.5469 10.2383C68.0703 10.2383 67.0039 11.1055 66.5586 12.6992H66.4883V10.4375H63.1836V23ZM76.4727 20.7266C75.3125 20.7266 74.5391 20.1406 74.5391 19.2031C74.5391 18.3125 75.2656 17.7383 76.543 17.6445L79.1914 17.4805V18.3945C79.1914 19.7539 77.9609 20.7266 76.4727 20.7266ZM75.3477 23.1992C76.918 23.1992 78.4766 22.4141 79.1797 21.0781H79.25V23H82.5547V14.3633C82.5547 11.832 80.457 10.168 77.2344 10.168C73.9062 10.168 71.832 11.8438 71.7031 14.2812H74.832C74.9961 13.3555 75.8047 12.7227 77.082 12.7227C78.3711 12.7227 79.1914 13.4023 79.1914 14.5742V15.4062L76.0273 15.5938C72.8984 15.7812 71.1406 17.1055 71.1406 19.3906C71.1406 21.6523 72.957 23.1992 75.3477 23.1992ZM84.7695 23H88.1914V15.793C88.1914 14.1641 89.1641 13.0391 90.6992 13.0391C92.2344 13.0391 93.0078 13.9766 93.0078 15.6172V23H96.4297V14.9023C96.4297 11.9609 94.8594 10.2031 92.0703 10.2031C90.1367 10.2031 88.8125 11.1172 88.1445 12.6758H88.0742V10.4375H84.7695V23ZM110.012 15.1133C109.859 12.2656 107.703 10.168 104.305 10.168C100.543 10.168 98.1406 12.6758 98.1406 16.707C98.1406 20.8086 100.543 23.2695 104.328 23.2695C107.633 23.2695 109.848 21.3594 110.023 18.3945H106.836C106.625 19.7656 105.734 20.5859 104.363 20.5859C102.664 20.5859 101.609 19.1797 101.609 16.707C101.609 14.2812 102.664 12.8516 104.352 12.8516C105.758 12.8516 106.637 13.7891 106.836 15.1133H110.012ZM111.734 23H115.156V10.4375H111.734V23ZM113.434 8.73828C114.43 8.73828 115.215 7.94141 115.215 6.98047C115.215 6.00781 114.43 5.22266 113.434 5.22266C112.438 5.22266 111.652 6.00781 111.652 6.98047C111.652 7.94141 112.438 8.73828 113.434 8.73828ZM117.23 14.1289C117.23 16.0156 118.461 17.2344 120.887 17.75L123.031 18.1953C124.262 18.4766 124.695 18.8516 124.695 19.5195C124.695 20.3398 123.898 20.8672 122.609 20.8672C121.25 20.8672 120.465 20.2812 120.254 19.1797H116.914C117.137 21.6523 119.141 23.2695 122.609 23.2695C125.844 23.2695 128.105 21.6406 128.105 19.168C128.105 17.3281 127.027 16.2969 124.402 15.7461L122.258 15.2891C120.992 15.0195 120.523 14.5859 120.523 13.9414C120.523 13.1094 121.309 12.5703 122.492 12.5703C123.758 12.5703 124.52 13.2617 124.625 14.2812H127.777C127.707 11.8203 125.715 10.168 122.492 10.168C119.293 10.168 117.23 11.7383 117.23 14.1289ZM141.207 15.1133C141.055 12.2656 138.898 10.168 135.5 10.168C131.738 10.168 129.336 12.6758 129.336 16.707C129.336 20.8086 131.738 23.2695 135.523 23.2695C138.828 23.2695 141.043 21.3594 141.219 18.3945H138.031C137.82 19.7656 136.93 20.5859 135.559 20.5859C133.859 20.5859 132.805 19.1797 132.805 16.707C132.805 14.2812 133.859 12.8516 135.547 12.8516C136.953 12.8516 137.832 13.7891 138.031 15.1133H141.207ZM148.637 23.2695C152.434 23.2695 154.859 20.8438 154.859 16.707C154.859 12.6289 152.398 10.168 148.637 10.168C144.875 10.168 142.414 12.6406 142.414 16.707C142.414 20.832 144.84 23.2695 148.637 23.2695ZM148.637 20.6562C146.949 20.6562 145.883 19.2383 145.883 16.7188C145.883 14.2227 146.973 12.7812 148.637 12.7812C150.301 12.7812 151.379 14.2227 151.379 16.7188C151.379 19.2383 150.312 20.6562 148.637 20.6562ZM169.168 23C172.777 23 175.016 21.1367 175.016 18.1602C175.016 15.9219 173.328 14.2461 171.031 14.0703V13.9766C172.824 13.707 174.207 12.1602 174.207 10.3086C174.207 7.71875 172.215 6.08984 169.039 6.08984H161.68V23H169.168ZM165.219 8.72656H168.125C169.777 8.72656 170.727 9.5 170.727 10.8594C170.727 12.2891 169.648 13.1211 167.762 13.1211H165.219V8.72656ZM165.219 20.3633V15.4531H168.184C170.27 15.4531 171.406 16.2969 171.406 17.8789C171.406 19.4961 170.305 20.3633 168.266 20.3633H165.219ZM182.504 23.2695C186.301 23.2695 188.727 20.8438 188.727 16.707C188.727 12.6289 186.266 10.168 182.504 10.168C178.742 10.168 176.281 12.6406 176.281 16.707C176.281 20.832 178.707 23.2695 182.504 23.2695ZM182.504 20.6562C180.816 20.6562 179.75 19.2383 179.75 16.7188C179.75 14.2227 180.84 12.7812 182.504 12.7812C184.168 12.7812 185.246 14.2227 185.246 16.7188C185.246 19.2383 184.18 20.6562 182.504 20.6562ZM190.578 23H194V6.08984H190.578V23ZM200.973 23.1992C202.824 23.1992 204.277 22.2266 204.887 20.8438H204.945V23H208.32V6.08984H204.898V12.5938H204.828C204.219 11.1992 202.812 10.2383 200.996 10.2383C197.844 10.2383 195.852 12.7109 195.852 16.6953C195.852 20.7148 197.832 23.1992 200.973 23.1992ZM202.133 12.9805C203.832 12.9805 204.922 14.4336 204.922 16.7188C204.922 19.0156 203.832 20.4453 202.133 20.4453C200.41 20.4453 199.355 19.0273 199.355 16.7188C199.355 14.4219 200.41 12.9805 202.133 12.9805Z" fill="black"/>
<path d="M2.78516 50.2773C2.92578 53.3711 5.51562 55.2812 9.42969 55.2812C13.4961 55.2812 16.0391 53.2422 16.0391 50.0078C16.0391 47.5 14.5508 46.0703 10.9883 45.332L9.16016 44.957C7.05078 44.5117 6.20703 43.7734 6.20703 42.625C6.20703 41.207 7.54297 40.3164 9.41797 40.3164C11.3516 40.3164 12.6875 41.2773 12.8281 42.8711H15.7227C15.6523 39.8477 13.1797 37.8086 9.44141 37.8086C5.77344 37.8086 3.16016 39.8242 3.16016 42.8008C3.16016 45.2734 4.74219 46.8672 8.12891 47.5586L9.94531 47.9336C12.1484 48.3906 12.9922 49.1406 12.9922 50.3594C12.9922 51.7656 11.5742 52.7734 9.53516 52.7734C7.42578 52.7734 5.90234 51.8359 5.67969 50.2773H2.78516ZM22.543 52.9961C21.2773 52.9961 20.4336 52.3516 20.4336 51.332C20.4336 50.3477 21.2422 49.7148 22.6484 49.6211L25.5195 49.4453V50.3945C25.5195 51.8945 24.1953 52.9961 22.543 52.9961ZM21.6641 55.1992C23.2578 55.1992 24.8164 54.3672 25.5312 53.0195H25.5898V55H28.4023V46.4453C28.4023 43.9492 26.3984 42.3203 23.3164 42.3203C20.1523 42.3203 18.1719 43.9844 18.043 46.3047H20.75C20.9375 45.2734 21.8164 44.6055 23.1992 44.6055C24.6406 44.6055 25.5195 45.3555 25.5195 46.6562V47.5469L22.2383 47.7344C19.2148 47.9219 17.5156 49.2461 17.5156 51.4492C17.5156 53.6875 19.2617 55.1992 21.6641 55.1992ZM30.7578 55H33.6758V47.8047C33.6758 46.0234 34.7422 44.8164 36.418 44.8164C38.082 44.8164 38.9023 45.8008 38.9023 47.5586V55H41.8203V46.9727C41.8203 44.1016 40.2617 42.3438 37.5195 42.3438C35.6094 42.3438 34.2852 43.2344 33.6172 44.7109H33.5586V42.5781H30.7578V55ZM52.2852 55V48.0977H59.375V45.6367H52.2852V40.6445H60.043V38.0898H49.2617V55H52.2852ZM61.9531 55H64.8711V47.7695C64.8711 46.0234 65.8672 44.957 67.5195 44.957C68.0117 44.957 68.457 45.0273 68.7031 45.1211V42.4844C68.4922 42.4375 68.1641 42.3672 67.7891 42.3672C66.3242 42.3672 65.2344 43.2344 64.8125 44.7461H64.7539V42.5781H61.9531V55ZM74.457 52.9961C73.1914 52.9961 72.3477 52.3516 72.3477 51.332C72.3477 50.3477 73.1562 49.7148 74.5625 49.6211L77.4336 49.4453V50.3945C77.4336 51.8945 76.1094 52.9961 74.457 52.9961ZM73.5781 55.1992C75.1719 55.1992 76.7305 54.3672 77.4453 53.0195H77.5039V55H80.3164V46.4453C80.3164 43.9492 78.3125 42.3203 75.2305 42.3203C72.0664 42.3203 70.0859 43.9844 69.957 46.3047H72.6641C72.8516 45.2734 73.7305 44.6055 75.1133 44.6055C76.5547 44.6055 77.4336 45.3555 77.4336 46.6562V47.5469L74.1523 47.7344C71.1289 47.9219 69.4297 49.2461 69.4297 51.4492C69.4297 53.6875 71.1758 55.1992 73.5781 55.1992ZM82.6719 55H85.5898V47.8047C85.5898 46.0234 86.6562 44.8164 88.332 44.8164C89.9961 44.8164 90.8164 45.8008 90.8164 47.5586V55H93.7344V46.9727C93.7344 44.1016 92.1758 42.3438 89.4336 42.3438C87.5234 42.3438 86.1992 43.2344 85.5312 44.7109H85.4727V42.5781H82.6719V55ZM107.023 47.0078C106.824 44.3945 104.797 42.3203 101.516 42.3203C97.9062 42.3203 95.5625 44.8164 95.5625 48.7891C95.5625 52.8203 97.9062 55.2461 101.539 55.2461C104.656 55.2461 106.801 53.418 107.035 50.6406H104.281C104.012 52.0469 103.051 52.8906 101.574 52.8906C99.7227 52.8906 98.5273 51.3906 98.5273 48.7891C98.5273 46.2344 99.7109 44.6875 101.551 44.6875C103.109 44.6875 104.035 45.6836 104.27 47.0078H107.023ZM108.852 55H111.77V42.5781H108.852V55ZM110.293 40.7031C111.195 40.7031 111.898 39.9883 111.898 39.1211C111.898 38.2422 111.195 37.5391 110.293 37.5391C109.414 37.5391 108.699 38.2422 108.699 39.1211C108.699 39.9883 109.414 40.7031 110.293 40.7031ZM113.996 46.1406C113.996 47.9805 115.191 49.1523 117.57 49.6797L119.633 50.1367C120.934 50.4297 121.379 50.8516 121.379 51.6016C121.379 52.5273 120.5 53.1133 119.082 53.1133C117.605 53.1133 116.773 52.5039 116.551 51.2969H113.68C113.914 53.6992 115.836 55.2461 119.082 55.2461C122.129 55.2461 124.285 53.6641 124.285 51.3203C124.285 49.5156 123.289 48.5195 120.711 47.9453L118.648 47.4883C117.348 47.1953 116.832 46.7031 116.832 45.9883C116.832 45.0742 117.688 44.4648 118.977 44.4648C120.324 44.4648 121.156 45.1797 121.273 46.3047H123.992C123.922 43.9492 122 42.3203 118.977 42.3203C115.977 42.3203 113.996 43.8672 113.996 46.1406ZM137.094 47.0078C136.895 44.3945 134.867 42.3203 131.586 42.3203C127.977 42.3203 125.633 44.8164 125.633 48.7891C125.633 52.8203 127.977 55.2461 131.609 55.2461C134.727 55.2461 136.871 53.418 137.105 50.6406H134.352C134.082 52.0469 133.121 52.8906 131.645 52.8906C129.793 52.8906 128.598 51.3906 128.598 48.7891C128.598 46.2344 129.781 44.6875 131.621 44.6875C133.18 44.6875 134.105 45.6836 134.34 47.0078H137.094ZM144.348 55.2461C147.992 55.2461 150.359 52.8203 150.359 48.7891C150.359 44.7695 147.969 42.3203 144.348 42.3203C140.727 42.3203 138.336 44.7812 138.336 48.7891C138.336 52.8203 140.703 55.2461 144.348 55.2461ZM144.348 52.9375C142.496 52.9375 141.301 51.4375 141.301 48.7891C141.301 46.1523 142.508 44.6406 144.348 44.6406C146.199 44.6406 147.395 46.1523 147.395 48.7891C147.395 51.4375 146.199 52.9375 144.348 52.9375ZM156.629 50.2773C156.77 53.3711 159.359 55.2812 163.273 55.2812C167.34 55.2812 169.883 53.2422 169.883 50.0078C169.883 47.5 168.395 46.0703 164.832 45.332L163.004 44.957C160.895 44.5117 160.051 43.7734 160.051 42.625C160.051 41.207 161.387 40.3164 163.262 40.3164C165.195 40.3164 166.531 41.2773 166.672 42.8711H169.566C169.496 39.8477 167.023 37.8086 163.285 37.8086C159.617 37.8086 157.004 39.8242 157.004 42.8008C157.004 45.2734 158.586 46.8672 161.973 47.5586L163.789 47.9336C165.992 48.3906 166.836 49.1406 166.836 50.3594C166.836 51.7656 165.418 52.7734 163.379 52.7734C161.27 52.7734 159.746 51.8359 159.523 50.2773H156.629ZM177.207 44.582C178.883 44.582 180.008 45.8125 180.066 47.5703H174.266C174.383 45.8359 175.566 44.582 177.207 44.582ZM180.078 51.2852C179.762 52.3164 178.73 52.9961 177.371 52.9961C175.461 52.9961 174.242 51.6602 174.242 49.668V49.4922H182.926V48.543C182.926 44.7695 180.723 42.3203 177.195 42.3203C173.609 42.3203 171.336 44.9102 171.336 48.8359C171.336 52.7969 173.586 55.2461 177.312 55.2461C180.254 55.2461 182.434 53.6289 182.809 51.2852H180.078ZM184.812 55H187.73V47.3945C187.73 45.8945 188.715 44.8047 190.121 44.8047C191.48 44.8047 192.324 45.6602 192.324 47.043V55H195.16V47.3242C195.16 45.8359 196.121 44.8047 197.527 44.8047C198.957 44.8047 199.754 45.6719 199.754 47.1953V55H202.672V46.4805C202.672 43.9961 201.066 42.3438 198.617 42.3438C196.824 42.3438 195.348 43.3047 194.75 44.8398H194.68C194.223 43.2461 192.969 42.3438 191.211 42.3438C189.523 42.3438 188.211 43.293 187.672 44.7344H187.613V42.5781H184.812V55ZM205.086 55H208.004V42.5781H205.086V55ZM206.527 40.7031C207.43 40.7031 208.133 39.9883 208.133 39.1211C208.133 38.2422 207.43 37.5391 206.527 37.5391C205.648 37.5391 204.934 38.2422 204.934 39.1211C204.934 39.9883 205.648 40.7031 206.527 40.7031ZM217.402 55.1992C220.543 55.1992 222.523 52.7617 222.523 48.7891C222.523 44.8164 220.531 42.3672 217.402 42.3672C215.645 42.3672 214.227 43.2578 213.523 44.7109H213.453V38.0898H210.535V55H213.395V52.8789H213.453C214.18 54.3203 215.574 55.1992 217.402 55.1992ZM216.5 44.7695C218.363 44.7695 219.535 46.3281 219.535 48.7891C219.535 51.2617 218.375 52.8086 216.5 52.8086C214.695 52.8086 213.441 51.2266 213.441 48.7891C213.441 46.375 214.695 44.7695 216.5 44.7695ZM229.918 55.2461C233.562 55.2461 235.93 52.8203 235.93 48.7891C235.93 44.7695 233.539 42.3203 229.918 42.3203C226.297 42.3203 223.906 44.7812 223.906 48.7891C223.906 52.8203 226.273 55.2461 229.918 55.2461ZM229.918 52.9375C228.066 52.9375 226.871 51.4375 226.871 48.7891C226.871 46.1523 228.078 44.6406 229.918 44.6406C231.77 44.6406 232.965 46.1523 232.965 48.7891C232.965 51.4375 231.77 52.9375 229.918 52.9375ZM237.887 55H240.805V38.0898H237.887V55ZM247.93 55.1992C249.746 55.1992 251.176 54.2734 251.855 52.8789H251.902V55H254.762V38.0898H251.844V44.6641H251.773C251.117 43.293 249.711 42.3672 247.93 42.3672C244.801 42.3672 242.773 44.8516 242.773 48.7773C242.773 52.7266 244.801 55.1992 247.93 55.1992ZM248.809 44.7695C250.648 44.7695 251.855 46.3516 251.855 48.7891C251.855 51.25 250.648 52.8086 248.809 52.8086C246.922 52.8086 245.762 51.2617 245.762 48.7891C245.762 46.3281 246.934 44.7695 248.809 44.7695Z" fill="black"/>
<path d="M2.75 114.488C2.92578 117.348 5.39844 119.27 9.00781 119.27C12.6758 119.27 15.0898 117.336 15.0898 114.336C15.0898 111.992 13.6953 110.668 10.2148 109.883L8.375 109.461C5.86719 108.898 4.82422 107.926 4.82422 106.391C4.82422 104.469 6.64062 103.273 8.92578 103.273C11.3281 103.273 13.0039 104.562 13.168 106.496H14.7734C14.6797 103.777 12.2539 101.82 8.96094 101.82C5.64453 101.82 3.18359 103.73 3.18359 106.461C3.18359 108.793 4.58984 110.234 7.95312 110.984L9.79297 111.395C12.3945 111.992 13.4492 112.953 13.4492 114.547C13.4492 116.469 11.6328 117.816 9.08984 117.816C6.44141 117.816 4.55469 116.516 4.35547 114.488H2.75ZM21.1133 117.863C19.4609 117.863 18.3242 116.949 18.3242 115.625C18.3242 114.277 19.3906 113.445 21.3125 113.316L24.9219 113.07V114.418C24.9219 116.352 23.2461 117.863 21.1133 117.863ZM20.7969 119.199C22.6133 119.199 24.2773 118.191 24.957 116.68H24.9922V119H26.4688V110.656C26.4688 108.172 24.7227 106.613 21.9453 106.613C19.168 106.613 17.375 108.16 17.1992 110.34H18.6992C18.9688 108.863 20.1172 107.984 21.9102 107.984C23.8086 107.984 24.9219 109.039 24.9219 110.797V111.852L21.125 112.086C18.3125 112.273 16.7539 113.539 16.7539 115.625C16.7539 117.758 18.3945 119.199 20.7969 119.199ZM29.0703 119H30.6172V111.781C30.6172 109.52 32.0352 107.996 34.1445 107.996C36.1836 107.996 37.3555 109.215 37.3555 111.348V119H38.9023V111.102C38.9023 108.336 37.2617 106.613 34.5898 106.613C32.6211 106.613 31.1914 107.586 30.5703 109.062H30.5352V106.812H29.0703V119ZM48.2773 119V111.324H56.0352V109.895H48.2773V103.543H56.7148V102.09H46.6836V119H48.2773ZM58.8828 119H60.4297V111.406C60.4297 109.438 61.5312 108.09 63.2656 108.09C63.793 108.09 64.2266 108.172 64.4258 108.266V106.742C64.2383 106.695 63.875 106.613 63.4648 106.613C61.9648 106.613 60.8281 107.492 60.3828 108.98H60.3477V106.812H58.8828V119ZM69.6523 117.863C68 117.863 66.8633 116.949 66.8633 115.625C66.8633 114.277 67.9297 113.445 69.8516 113.316L73.4609 113.07V114.418C73.4609 116.352 71.7852 117.863 69.6523 117.863ZM69.3359 119.199C71.1523 119.199 72.8164 118.191 73.4961 116.68H73.5312V119H75.0078V110.656C75.0078 108.172 73.2617 106.613 70.4844 106.613C67.707 106.613 65.9141 108.16 65.7383 110.34H67.2383C67.5078 108.863 68.6562 107.984 70.4492 107.984C72.3477 107.984 73.4609 109.039 73.4609 110.797V111.852L69.6641 112.086C66.8516 112.273 65.293 113.539 65.293 115.625C65.293 117.758 66.9336 119.199 69.3359 119.199ZM77.6094 119H79.1562V111.781C79.1562 109.52 80.5742 107.996 82.6836 107.996C84.7227 107.996 85.8945 109.215 85.8945 111.348V119H87.4414V111.102C87.4414 108.336 85.8008 106.613 83.1289 106.613C81.1602 106.613 79.7305 107.586 79.1094 109.062H79.0742V106.812H77.6094V119ZM99.9688 110.668C99.6641 108.488 97.8242 106.613 94.9531 106.613C91.6367 106.613 89.4453 109.062 89.4453 112.906C89.4453 116.809 91.6367 119.199 94.9648 119.199C97.6602 119.199 99.6406 117.559 99.9805 115.227H98.4453C98.0938 116.809 96.8164 117.828 94.9766 117.828C92.5977 117.828 91.0273 115.965 91.0273 112.906C91.0273 109.895 92.5859 107.984 94.9648 107.984C96.8867 107.984 98.1172 109.168 98.4453 110.668H99.9688ZM102.02 119H103.566V106.812H102.02V119ZM102.793 104.281C103.367 104.281 103.836 103.824 103.836 103.25C103.836 102.676 103.367 102.219 102.793 102.219C102.219 102.219 101.75 102.676 101.75 103.25C101.75 103.824 102.219 104.281 102.793 104.281ZM106.098 110.07C106.098 111.758 107.188 112.777 109.508 113.316L111.336 113.75C112.977 114.148 113.574 114.734 113.574 115.789C113.574 117.066 112.367 117.922 110.539 117.922C108.711 117.922 107.527 117.043 107.293 115.508H105.746C105.957 117.734 107.785 119.199 110.539 119.199C113.199 119.199 115.133 117.734 115.133 115.672C115.133 113.949 114.219 113.012 111.781 112.426L109.941 111.992C108.324 111.605 107.633 110.984 107.633 109.988C107.633 108.77 108.77 107.891 110.434 107.891C112.121 107.891 113.223 108.816 113.422 110.34H114.91C114.77 108.125 113.035 106.613 110.434 106.613C107.891 106.613 106.098 108.055 106.098 110.07ZM127.133 110.668C126.828 108.488 124.988 106.613 122.117 106.613C118.801 106.613 116.609 109.062 116.609 112.906C116.609 116.809 118.801 119.199 122.129 119.199C124.824 119.199 126.805 117.559 127.145 115.227H125.609C125.258 116.809 123.98 117.828 122.141 117.828C119.762 117.828 118.191 115.965 118.191 112.906C118.191 109.895 119.75 107.984 122.129 107.984C124.051 107.984 125.281 109.168 125.609 110.668H127.133ZM134.023 119.199C137.34 119.199 139.578 116.773 139.578 112.906C139.578 109.027 137.34 106.613 134.023 106.613C130.719 106.613 128.469 109.027 128.469 112.906C128.469 116.773 130.707 119.199 134.023 119.199ZM134.023 117.828C131.633 117.828 130.051 116 130.051 112.906C130.051 109.812 131.633 107.984 134.023 107.984C136.414 107.984 138.008 109.812 138.008 112.906C138.008 116 136.414 117.828 134.023 117.828ZM156.875 117.547H148.402V102.09H146.809V119H156.875V117.547ZM158.996 119H160.543V106.812H158.996V119ZM159.77 104.281C160.344 104.281 160.812 103.824 160.812 103.25C160.812 102.676 160.344 102.219 159.77 102.219C159.195 102.219 158.727 102.676 158.727 103.25C158.727 103.824 159.195 104.281 159.77 104.281ZM168.137 117.746C165.84 117.746 164.305 115.824 164.305 112.883C164.305 109.918 165.84 107.984 168.137 107.984C170.48 107.984 172.062 109.953 172.062 112.871C172.062 115.789 170.48 117.746 168.137 117.746ZM168.289 123.512C171.547 123.512 173.621 121.637 173.621 118.801V106.812H172.145V109.391H172.109C171.395 107.727 169.836 106.613 167.891 106.613C164.773 106.613 162.711 109.086 162.711 112.871C162.711 116.645 164.773 119.117 167.855 119.117C169.801 119.117 171.371 117.98 172.027 116.41H172.062V118.859C172.062 120.852 170.645 122.176 168.359 122.176C166.59 122.176 165.289 121.32 164.891 120.125H163.285C163.625 122.047 165.629 123.512 168.289 123.512ZM176.41 119H177.969V111.828C177.969 109.531 179.387 107.996 181.578 107.996C183.641 107.996 184.824 109.273 184.824 111.383V119H186.383V111.125C186.383 108.395 184.695 106.613 182.023 106.613C180.078 106.613 178.625 107.562 178.004 109.062H177.969V102.09H176.41V119ZM189.652 103.766V106.812H187.836V108.102H189.652V116C189.652 118.203 190.473 119.07 192.512 119.07C192.84 119.07 193.496 119.035 193.66 119V117.676C193.566 117.699 192.98 117.723 192.816 117.723C191.691 117.723 191.199 117.184 191.199 115.93V108.102H193.602V106.812H191.199V103.766H189.652Z" fill="black"/>
<path d="M2.82031 82.4648C3.01953 85.3828 5.48047 87.2812 9.17188 87.2812C12.957 87.2812 15.418 85.3242 15.418 82.1953C15.418 79.8047 14.0234 78.3984 10.4961 77.625L8.62109 77.2148C6.3125 76.7109 5.41016 75.7969 5.41016 74.4609C5.41016 72.7383 7.03906 71.707 9.14844 71.707C11.3516 71.707 12.8164 72.8438 13.0039 74.6953H15.1133C15.0195 71.8242 12.582 69.8086 9.20703 69.8086C5.70312 69.8086 3.24219 71.7656 3.24219 74.5547C3.24219 76.957 4.70703 78.4922 8.09375 79.2305L9.96875 79.6406C12.3125 80.1562 13.25 81.0938 13.25 82.5117C13.25 84.1758 11.5859 85.3828 9.28906 85.3828C6.86328 85.3828 5.17578 84.2812 4.92969 82.4648H2.82031ZM21.5938 85.4766C20.1289 85.4766 19.1562 84.7148 19.1562 83.5547C19.1562 82.4062 20.0938 81.6797 21.7344 81.5742L24.9922 81.375V82.3711C24.9922 84.1289 23.5156 85.4766 21.5938 85.4766ZM21.1367 87.2109C22.7773 87.2109 24.3242 86.2969 25.0508 84.9023H25.0977V87H27.0312V78.5742C27.0312 76.1484 25.2266 74.6016 22.3672 74.6016C19.4844 74.6016 17.6797 76.2188 17.5391 78.3281H19.5078C19.7656 77.1328 20.75 76.3945 22.3203 76.3945C24.0078 76.3945 24.9922 77.2852 24.9922 78.7734V79.793L21.5 79.9922C18.6875 80.1562 17.082 81.4688 17.082 83.5547C17.082 85.7461 18.7109 87.2109 21.1367 87.2109ZM29.6211 87H31.6602V79.8281C31.6602 77.7656 32.9141 76.4062 34.8359 76.4062C36.7109 76.4062 37.6367 77.4844 37.6367 79.4531V87H39.6758V79.0898C39.6758 76.3242 38.1289 74.6016 35.457 74.6016C33.5703 74.6016 32.2695 75.4453 31.5898 76.7578H31.543V74.8125H29.6211V87ZM49.625 87V79.6758H57.1133V77.8008H49.625V71.9883H57.7812V70.0898H47.5156V87H49.625ZM59.8789 87H61.918V79.4062C61.918 77.6836 62.9492 76.5469 64.5312 76.5469C65.0234 76.5469 65.457 76.6055 65.6211 76.6641V74.6836C65.457 74.6602 65.1523 74.6016 64.8008 74.6016C63.3711 74.6016 62.2461 75.457 61.8477 76.8047H61.8008V74.8125H59.8789V87ZM71.0703 85.4766C69.6055 85.4766 68.6328 84.7148 68.6328 83.5547C68.6328 82.4062 69.5703 81.6797 71.2109 81.5742L74.4688 81.375V82.3711C74.4688 84.1289 72.9922 85.4766 71.0703 85.4766ZM70.6133 87.2109C72.2539 87.2109 73.8008 86.2969 74.5273 84.9023H74.5742V87H76.5078V78.5742C76.5078 76.1484 74.7031 74.6016 71.8438 74.6016C68.9609 74.6016 67.1562 76.2188 67.0156 78.3281H68.9844C69.2422 77.1328 70.2266 76.3945 71.7969 76.3945C73.4844 76.3945 74.4688 77.2852 74.4688 78.7734V79.793L70.9766 79.9922C68.1641 80.1562 66.5586 81.4688 66.5586 83.5547C66.5586 85.7461 68.1875 87.2109 70.6133 87.2109ZM79.0977 87H81.1367V79.8281C81.1367 77.7656 82.3906 76.4062 84.3125 76.4062C86.1875 76.4062 87.1133 77.4844 87.1133 79.4531V87H89.1523V79.0898C89.1523 76.3242 87.6055 74.6016 84.9336 74.6016C83.0469 74.6016 81.7461 75.4453 81.0664 76.7578H81.0195V74.8125H79.0977V87ZM101.879 78.8086C101.621 76.6172 99.8047 74.6016 96.7578 74.6016C93.3945 74.6016 91.1562 77.0625 91.1562 80.9062C91.1562 84.832 93.4062 87.2109 96.7812 87.2109C99.5469 87.2109 101.586 85.5 101.902 83.0742H99.8984C99.5469 84.5391 98.457 85.418 96.793 85.418C94.6836 85.418 93.2305 83.7422 93.2305 80.9062C93.2305 78.1406 94.6602 76.3945 96.7695 76.3945C98.5625 76.3945 99.5938 77.4844 99.8867 78.8086H101.879ZM103.883 87H105.922V74.8125H103.883V87ZM104.902 72.6445C105.617 72.6445 106.18 72.0703 106.18 71.3672C106.18 70.6523 105.617 70.0898 104.902 70.0898C104.199 70.0898 103.625 70.6523 103.625 71.3672C103.625 72.0703 104.199 72.6445 104.902 72.6445ZM108.465 78.1758C108.465 79.9336 109.578 81 111.875 81.5508L113.809 82.0195C115.203 82.3594 115.684 82.8633 115.684 83.7422C115.684 84.8438 114.664 85.5469 113.012 85.5469C111.359 85.5469 110.422 84.8789 110.176 83.4844H108.137C108.371 85.7695 110.152 87.2109 113.012 87.2109C115.73 87.2109 117.734 85.7109 117.734 83.5898C117.734 81.8438 116.844 80.8828 114.383 80.2852L112.449 79.8164C111.09 79.4883 110.469 78.9141 110.469 78.0703C110.469 77.0039 111.453 76.2656 112.941 76.2656C114.441 76.2656 115.379 77.0508 115.531 78.3281H117.477C117.395 76.1719 115.613 74.6016 112.941 74.6016C110.305 74.6016 108.465 76.0898 108.465 78.1758ZM129.98 78.8086C129.723 76.6172 127.906 74.6016 124.859 74.6016C121.496 74.6016 119.258 77.0625 119.258 80.9062C119.258 84.832 121.508 87.2109 124.883 87.2109C127.648 87.2109 129.688 85.5 130.004 83.0742H128C127.648 84.5391 126.559 85.418 124.895 85.418C122.785 85.418 121.332 83.7422 121.332 80.9062C121.332 78.1406 122.762 76.3945 124.871 76.3945C126.664 76.3945 127.695 77.4844 127.988 78.8086H129.98ZM136.93 87.2109C140.293 87.2109 142.566 84.7852 142.566 80.9062C142.566 77.0156 140.293 74.6016 136.93 74.6016C133.555 74.6016 131.281 77.0156 131.281 80.9062C131.281 84.7852 133.555 87.2109 136.93 87.2109ZM136.93 85.418C134.773 85.418 133.355 83.7773 133.355 80.9062C133.355 78.0352 134.773 76.3945 136.93 76.3945C139.086 76.3945 140.492 78.0352 140.492 80.9062C140.492 83.7773 139.086 85.418 136.93 85.418ZM151.977 71.9648H155.926C158.105 71.9648 159.418 73.1719 159.418 75.1992C159.418 77.2734 158.188 78.4453 156.02 78.4453H151.977V71.9648ZM151.977 80.3086H156.02L159.641 87H162.113L158.199 79.9805C160.32 79.3125 161.598 77.4844 161.598 75.1289C161.598 72.082 159.465 70.0898 156.207 70.0898H149.867V87H151.977V80.3086ZM168.828 76.3711C170.75 76.3711 172.027 77.8242 172.074 79.8633H165.453C165.582 77.8359 166.918 76.3711 168.828 76.3711ZM172.027 83.5078C171.688 84.6562 170.551 85.4414 169.004 85.4414C166.812 85.4414 165.441 83.9062 165.441 81.5742V81.457H174.184V80.6836C174.184 76.9922 172.156 74.6016 168.863 74.6016C165.5 74.6016 163.344 77.168 163.344 80.9531C163.344 84.7852 165.465 87.2109 168.957 87.2109C171.617 87.2109 173.68 85.6406 174.031 83.5078H172.027ZM181.203 85.3008C179.105 85.3008 177.734 83.5898 177.734 80.8594C177.734 78.1289 179.105 76.3945 181.203 76.3945C183.324 76.3945 184.742 78.1758 184.742 80.8594C184.742 83.543 183.324 85.3008 181.203 85.3008ZM181.273 91.5938C184.637 91.5938 186.781 89.6602 186.781 86.7539V74.8125H184.836V76.8633H184.801C183.992 75.4453 182.562 74.6016 180.84 74.6016C177.688 74.6016 175.648 77.0391 175.648 80.8594C175.648 84.6445 177.688 87.0938 180.793 87.0938C182.504 87.0938 183.945 86.2266 184.695 84.9023H184.742V86.8242C184.742 88.6406 183.465 89.8594 181.355 89.8594C179.832 89.8594 178.625 89.1211 178.227 88.0078H176.129C176.469 90.082 178.59 91.5938 181.273 91.5938ZM199.449 74.8125H197.41V81.9727C197.41 84.0469 196.215 85.4062 194.234 85.4062C192.348 85.4062 191.422 84.3398 191.422 82.3594V74.8125H189.383V82.7227C189.383 85.4883 190.941 87.2109 193.602 87.2109C195.477 87.2109 196.742 86.4258 197.469 85.0195H197.516V87H199.449V74.8125ZM202.203 87H204.242V70.0898H202.203V87ZM211.016 85.4766C209.551 85.4766 208.578 84.7148 208.578 83.5547C208.578 82.4062 209.516 81.6797 211.156 81.5742L214.414 81.375V82.3711C214.414 84.1289 212.938 85.4766 211.016 85.4766ZM210.559 87.2109C212.199 87.2109 213.746 86.2969 214.473 84.9023H214.52V87H216.453V78.5742C216.453 76.1484 214.648 74.6016 211.789 74.6016C208.906 74.6016 207.102 76.2188 206.961 78.3281H208.93C209.188 77.1328 210.172 76.3945 211.742 76.3945C213.43 76.3945 214.414 77.2852 214.414 78.7734V79.793L210.922 79.9922C208.109 80.1562 206.504 81.4688 206.504 83.5547C206.504 85.7461 208.133 87.2109 210.559 87.2109ZM219.043 87H221.082V79.4062C221.082 77.6836 222.113 76.5469 223.695 76.5469C224.188 76.5469 224.621 76.6055 224.785 76.6641V74.6836C224.621 74.6602 224.316 74.6016 223.965 74.6016C222.535 74.6016 221.41 75.457 221.012 76.8047H220.965V74.8125H219.043V87Z" fill="black"/>
</g>
<defs>
<clipPath id="clip0">
<rect width="256" height="130" fill="white"/>
</clipPath>
</defs>
</svg>
