<svg width="469" height="340" viewBox="0 0 469 340" fill="none" xmlns="http://www.w3.org/2000/svg">
<path d="M421.758 187.623C494.497 233.664 425.34 350.985 342.959 242.338C260.578 133.69 242.372 270.422 171.033 231.592C76.7127 180.253 213 73.9 134 66C41.6859 56.7686 26.962 141.48 53 171" stroke="#C8E1FF"/>
<rect x="93" y="296" width="59" height="32" transform="rotate(-180 93 296)" fill="#044289"/>
<rect x="308" y="13" width="76" height="40" fill="#005CC5"/>
<rect x="361" y="69" width="56" height="32" fill="#044289"/>
<rect x="403" y="13" width="48" height="40" fill="#005CC5"/>
<rect x="109" y="264" width="38" height="32" fill="#044289"/>
<path fill-rule="evenodd" clip-rule="evenodd" d="M164.491 86.7679H162.501C161.801 86.7679 161.471 86.4879 161.471 85.7979L161.501 84.7679C161.501 83.4979 160.331 80.7679 159.501 80.7679C159.001 80.7679 158.421 81.2679 158.501 81.7679C158.751 83.3479 158.841 84.5479 157.611 85.9079C156.591 87.0379 155.841 87.7879 154.481 87.7879V93.7879L156.151 94.7879H162.481C163.211 94.7879 164.431 94.4779 164.481 93.7879L164.501 93.7679L165.501 87.7679C165.471 87.1279 165.121 86.7679 164.501 86.7679H164.491Z" fill="#1B1F23"/>
<path fill-rule="evenodd" clip-rule="evenodd" d="M166.461 87.9579L165.491 93.9079C165.321 95.2879 163.611 95.7879 162.481 95.7879H156.171C155.971 95.7879 155.791 95.7379 155.641 95.6479L154.201 94.7879H152.481C151.421 94.7879 150.481 93.8479 150.481 92.7879V88.7879C150.481 87.7279 151.421 86.7679 152.481 86.7879H154.481C155.391 86.7879 155.871 86.3379 156.871 85.2379C157.781 84.2379 157.751 83.4379 157.501 81.9679C157.421 81.4679 157.561 80.9679 157.921 80.5479C158.311 80.0779 158.901 79.7879 159.481 79.7879C161.311 79.7879 162.481 83.4979 162.481 84.7979L162.461 85.7779H162.481H164.501C165.661 85.7779 166.451 86.5779 166.481 87.7479C166.481 87.8579 166.461 87.9579 166.461 87.9579ZM164.491 86.7679H162.501C161.801 86.7679 161.471 86.4879 161.471 85.7979L161.501 84.7679C161.501 83.4979 160.331 80.7679 159.501 80.7679C159.001 80.7679 158.421 81.2679 158.501 81.7679C158.751 83.3479 158.841 84.5479 157.611 85.9079C156.591 87.0379 155.841 87.7879 154.481 87.7879V93.7879L156.151 94.7879H162.481C163.211 94.7879 164.431 94.4779 164.481 93.7879L164.501 93.7679L165.501 87.7679C165.471 87.1279 165.121 86.7679 164.501 86.7679H164.491Z" fill="#79B8FF"/>
<ellipse cx="239.566" cy="208.056" rx="58.5025" ry="59.0995" fill="#1B1F23"/>
<path fill-rule="evenodd" clip-rule="evenodd" d="M240.15 144.181C205.518 144.181 177.481 172.393 177.481 207.214C177.481 235.112 195.421 258.673 220.328 267.024C223.458 267.575 224.642 265.682 224.642 264.027C224.642 262.535 224.567 257.569 224.567 252.291C208.822 255.212 204.745 248.429 203.499 244.88C202.788 243.062 199.734 237.47 197.079 235.978C194.884 234.799 191.755 231.877 197.004 231.802C201.94 231.727 205.468 236.366 206.64 238.26C212.275 247.789 221.288 245.118 224.891 243.463C225.44 239.363 227.085 236.605 228.88 235.037C214.931 233.457 200.37 228.028 200.37 203.916C200.37 197.057 202.801 191.39 206.79 186.976C206.167 185.396 203.973 178.938 207.413 170.274C207.413 170.274 212.662 168.619 224.654 176.732C229.666 175.315 235.002 174.6 240.325 174.6C245.648 174.6 250.983 175.315 255.995 176.732C267.975 168.531 273.236 170.274 273.236 170.274C276.689 178.938 274.495 185.408 273.859 186.976C277.849 191.39 280.28 196.982 280.28 203.916C280.28 228.103 265.632 233.47 251.682 235.037C253.95 237.006 255.908 240.792 255.908 246.698C255.908 255.124 255.833 261.908 255.833 264.039C255.833 265.695 257.005 267.663 260.146 267.036C284.905 258.685 302.844 235.05 302.844 207.226C302.819 172.393 274.769 144.181 240.15 144.181Z" fill="#2188FF"/>
<path fill-rule="evenodd" clip-rule="evenodd" d="M60.9048 165.926C54.038 165.926 48.4763 171.296 48.4763 177.926C48.4763 184.556 54.038 189.926 60.9048 189.926C67.7716 189.926 73.3334 184.556 73.3334 177.926C73.3334 171.296 67.7716 165.926 60.9048 165.926V165.926ZM68.3775 185.141C67.3987 186.086 66.2646 186.806 65.0062 187.316C63.7168 187.856 62.3341 188.111 60.9048 188.111C59.4755 188.111 58.0928 187.856 56.8034 187.316C55.545 186.806 54.3953 186.071 53.4321 185.141C52.4689 184.211 51.7077 183.101 51.1794 181.886C50.6202 180.641 50.3561 179.306 50.3561 177.926C50.3561 176.546 50.6202 175.211 51.1794 173.966C51.7077 172.751 52.4689 171.641 53.4321 170.711C54.3953 169.781 55.545 169.046 56.8034 168.536C58.0928 167.996 59.4755 167.741 60.9048 167.741C62.3341 167.741 63.7168 167.996 65.0062 168.536C66.2646 169.046 67.4143 169.781 68.3775 170.711C69.3407 171.641 70.1019 172.751 70.6302 173.966C71.1894 175.211 71.4536 176.546 71.4536 177.926C71.4536 179.306 71.1894 180.641 70.6302 181.886C70.1019 183.101 69.3407 184.211 68.3775 185.141V185.141ZM54.6905 176.126V175.241C54.6905 174.251 55.5139 173.456 56.5548 173.456H57.4714C58.4968 173.456 59.3202 174.251 59.3202 175.241V176.126C59.3202 177.131 58.4968 177.926 57.4714 177.926H56.5548C55.5139 177.926 54.6905 177.131 54.6905 176.126V176.126ZM62.4584 176.126V175.241C62.4584 174.251 63.2818 173.456 64.3227 173.456H65.2393C66.2647 173.456 67.0881 174.251 67.0881 175.241V176.126C67.0881 177.131 66.2647 177.926 65.2393 177.926H64.3227C63.2818 177.926 62.4584 177.131 62.4584 176.126V176.126ZM68.6727 180.926C67.5541 183.746 64.1518 185.426 60.9048 185.426C57.6579 185.426 54.2555 183.731 53.137 180.926C52.9195 180.341 53.4943 179.426 54.1623 179.426H67.5075C68.1445 179.426 68.8902 180.341 68.6727 180.926V180.926Z" fill="#79B8FF"/>
<path d="M57 25C65 25 65 41 73 41C81 41 81 25 89 25C97 25 97 41 105 41C113 41 113 25 121 25C129 25 129 41 137 41" stroke="#C8E1FF" stroke-linecap="round" stroke-linejoin="round"/>
<path fill-rule="evenodd" clip-rule="evenodd" d="M420.791 171.538C418.408 171.538 416.64 172.588 415.387 174.038C414.135 175.488 413.471 176.338 413.422 176.538C413.373 176.338 412.735 175.488 411.457 174.038C410.18 172.588 408.584 171.538 406.054 171.538C402.045 171.753 398.799 174.87 398.685 179.038C398.685 180.338 398.906 182.838 400.331 185.713C401.756 188.588 406.078 193.063 413.422 199.038C420.742 193.063 425.138 188.613 426.538 185.713C427.938 182.813 428.159 180.288 428.159 179.038C428.044 174.814 424.864 171.757 420.791 171.538Z" fill="#79B8FF"/>
<path d="M319 87C315 87 315 79 311 79C307 79 307 87 303 87C299 87 299 79 295 79C291 79 291 87 287 87C283 87 283 79 279 79" stroke="#2188FF" stroke-width="2" stroke-linecap="round" stroke-linejoin="round"/>
<circle cx="377" cy="311" r="4" stroke="#2188FF" stroke-width="2"/>
<path d="M359 298L353 308.392H341L335 298L341 287.608H353L359 298Z" stroke="#C8E1FF" stroke-linecap="round" stroke-linejoin="round"/>
<path d="M38.5174 59.363L47.5738 43.0491L57.1738 59.6768L38.5174 59.363Z" stroke="#2188FF" stroke-width="2" stroke-linejoin="round"/>
<path d="M97 260.685L108.998 248.686L120.993 260.688L108.995 272.686L97 260.685Z" stroke="#C8E1FF" stroke-linejoin="round"/>
</svg>
