<svg width="100%"  viewBox="0 0 345 222" fill="none" xmlns="http://www.w3.org/2000/svg">
<rect width="345" height="221.667" fill="white"/>
<path d="M1.91406 41.9258V35.6758C3.04688 36.6263 4.27734 37.3424 5.60547 37.8242C6.93359 38.293 8.27474 38.5273 9.62891 38.5273C10.4232 38.5273 11.1133 38.4557 11.6992 38.3125C12.2982 38.1693 12.793 37.974 13.1836 37.7266C13.5872 37.4661 13.8867 37.1667 14.082 36.8281C14.2773 36.4766 14.375 36.099 14.375 35.6953C14.375 35.1484 14.2188 34.6602 13.9062 34.2305C13.5938 33.8008 13.1641 33.4036 12.6172 33.0391C12.0833 32.6745 11.4453 32.3229 10.7031 31.9844C9.96094 31.6458 9.16016 31.3008 8.30078 30.9492C6.11328 30.0378 4.47917 28.9245 3.39844 27.6094C2.33073 26.2943 1.79688 24.7057 1.79688 22.8438C1.79688 21.3854 2.08984 20.1354 2.67578 19.0938C3.26172 18.0391 4.05599 17.1732 5.05859 16.4961C6.07422 15.819 7.24609 15.3242 8.57422 15.0117C9.90234 14.6862 11.3086 14.5234 12.793 14.5234C14.2513 14.5234 15.5404 14.6146 16.6602 14.7969C17.793 14.9661 18.8346 15.2331 19.7852 15.5977V21.4375C19.3164 21.112 18.8021 20.8255 18.2422 20.5781C17.6953 20.3307 17.1289 20.1289 16.543 19.9727C15.957 19.8034 15.3711 19.6797 14.7852 19.6016C14.2122 19.5234 13.6654 19.4844 13.1445 19.4844C12.4284 19.4844 11.7773 19.556 11.1914 19.6992C10.6055 19.8294 10.1107 20.0182 9.70703 20.2656C9.30339 20.513 8.99089 20.8125 8.76953 21.1641C8.54818 21.5026 8.4375 21.8867 8.4375 22.3164C8.4375 22.7852 8.5612 23.2083 8.80859 23.5859C9.05599 23.9505 9.40755 24.3021 9.86328 24.6406C10.319 24.9661 10.8724 25.2917 11.5234 25.6172C12.1745 25.9297 12.9102 26.2552 13.7305 26.5938C14.8503 27.0625 15.8529 27.5638 16.7383 28.0977C17.6367 28.6185 18.4049 29.2109 19.043 29.875C19.681 30.5391 20.1693 31.3008 20.5078 32.1602C20.8464 33.0065 21.0156 33.9961 21.0156 35.1289C21.0156 36.6914 20.7161 38.0065 20.1172 39.0742C19.5312 40.1289 18.7305 40.9883 17.7148 41.6523C16.6992 42.3034 15.5143 42.7721 14.1602 43.0586C12.819 43.3451 11.3997 43.4883 9.90234 43.4883C8.36589 43.4883 6.90104 43.3581 5.50781 43.0977C4.1276 42.8372 2.92969 42.4466 1.91406 41.9258Z" fill="black"/>
<path d="M42.9883 34.7578H29.9414C30.1497 37.6615 31.9792 39.1133 35.4297 39.1133C37.6302 39.1133 39.5638 38.5924 41.2305 37.5508V42.0039C39.3815 42.9935 36.9792 43.4883 34.0234 43.4883C30.7943 43.4883 28.2878 42.5964 26.5039 40.8125C24.7201 39.0156 23.8281 36.5156 23.8281 33.3125C23.8281 29.9922 24.7917 27.362 26.7188 25.4219C28.6458 23.4818 31.0156 22.5117 33.8281 22.5117C36.7448 22.5117 38.9974 23.3776 40.5859 25.1094C42.1875 26.8411 42.9883 29.1914 42.9883 32.1602V34.7578ZM37.2656 30.9688C37.2656 28.1042 36.1068 26.6719 33.7891 26.6719C32.7995 26.6719 31.9401 27.082 31.2109 27.9023C30.4948 28.7227 30.0586 29.7448 29.9023 30.9688H37.2656Z" fill="black"/>
<path d="M66.2695 40.7148C66.2695 44.4258 65.1953 47.2969 63.0469 49.3281C60.8984 51.3724 57.7865 52.3945 53.7109 52.3945C51.0156 52.3945 48.8802 52.0104 47.3047 51.2422V46.0469C49.362 47.2448 51.4388 47.8438 53.5352 47.8438C55.6185 47.8438 57.2331 47.2904 58.3789 46.1836C59.5247 45.0898 60.0977 43.599 60.0977 41.7109V40.1289H60.0195C58.6133 42.3685 56.5365 43.4883 53.7891 43.4883C51.237 43.4883 49.2122 42.5898 47.7148 40.793C46.2174 38.9961 45.4688 36.5872 45.4688 33.5664C45.4688 30.181 46.3021 27.4922 47.9688 25.5C49.6354 23.5078 51.8294 22.5117 54.5508 22.5117C56.9857 22.5117 58.8086 23.4492 60.0195 25.3242H60.0977V23H66.2695V40.7148ZM60.1758 33.3906V31.8086C60.1758 30.5456 59.7982 29.4714 59.043 28.5859C58.3008 27.6875 57.3307 27.2383 56.1328 27.2383C54.7656 27.2383 53.6914 27.7721 52.9102 28.8398C52.1289 29.9076 51.7383 31.4115 51.7383 33.3516C51.7383 35.0182 52.1094 36.3398 52.8516 37.3164C53.5938 38.2799 54.6094 38.7617 55.8984 38.7617C57.1745 38.7617 58.2031 38.2734 58.9844 37.2969C59.7786 36.3073 60.1758 35.0052 60.1758 33.3906Z" fill="black"/>
<path d="M80.957 43.4883C77.6237 43.4883 75 42.5573 73.0859 40.6953C71.1849 38.8203 70.2344 36.2812 70.2344 33.0781C70.2344 29.7708 71.224 27.1862 73.2031 25.3242C75.1823 23.4492 77.8581 22.5117 81.2305 22.5117C84.5508 22.5117 87.1549 23.4492 89.043 25.3242C90.931 27.1862 91.875 29.6536 91.875 32.7266C91.875 36.0469 90.8984 38.6706 88.9453 40.5977C87.0052 42.5247 84.3424 43.4883 80.957 43.4883ZM81.1133 27.2383C79.6549 27.2383 78.5221 27.7396 77.7148 28.7422C76.9076 29.7448 76.5039 31.1641 76.5039 33C76.5039 36.8411 78.0534 38.7617 81.1523 38.7617C84.1081 38.7617 85.5859 36.7891 85.5859 32.8438C85.5859 29.1068 84.0951 27.2383 81.1133 27.2383Z" fill="black"/>
<path d="M113.848 34.7578H100.801C101.009 37.6615 102.839 39.1133 106.289 39.1133C108.49 39.1133 110.423 38.5924 112.09 37.5508V42.0039C110.241 42.9935 107.839 43.4883 104.883 43.4883C101.654 43.4883 99.1471 42.5964 97.3633 40.8125C95.5794 39.0156 94.6875 36.5156 94.6875 33.3125C94.6875 29.9922 95.651 27.362 97.5781 25.4219C99.5052 23.4818 101.875 22.5117 104.688 22.5117C107.604 22.5117 109.857 23.3776 111.445 25.1094C113.047 26.8411 113.848 29.1914 113.848 32.1602V34.7578ZM108.125 30.9688C108.125 28.1042 106.966 26.6719 104.648 26.6719C103.659 26.6719 102.799 27.082 102.07 27.9023C101.354 28.7227 100.918 29.7448 100.762 30.9688H108.125Z" fill="black"/>
<path d="M152.012 30.8711C152.012 39.2826 148.092 43.4883 140.254 43.4883C132.65 43.4883 128.848 39.3802 128.848 31.1641V14.9922H135.176V31.2422C135.176 35.7734 136.947 38.0391 140.488 38.0391C143.965 38.0391 145.703 35.8516 145.703 31.4766V14.9922H152.012V30.8711Z" fill="black"/>
<path d="M164.434 43H158.125V14.9922H164.434V43Z" fill="black"/>
<path d="M181.875 43V14.9922H192.07C195.195 14.9922 197.598 15.5651 199.277 16.7109C200.957 17.8568 201.797 19.4714 201.797 21.5547C201.797 23.0651 201.283 24.3867 200.254 25.5195C199.238 26.6523 197.936 27.4401 196.348 27.8828V27.9609C198.34 28.2083 199.928 28.944 201.113 30.168C202.311 31.3919 202.91 32.8828 202.91 34.6406C202.91 37.2057 201.992 39.2435 200.156 40.7539C198.32 42.2513 195.814 43 192.637 43H181.875ZM188.184 19.6406V26.2812H190.957C192.259 26.2812 193.281 25.9688 194.023 25.3438C194.779 24.7057 195.156 23.8333 195.156 22.7266C195.156 20.6693 193.62 19.6406 190.547 19.6406H188.184ZM188.184 30.9688V38.3516H191.602C193.06 38.3516 194.199 38.013 195.02 37.3359C195.853 36.6589 196.27 35.7344 196.27 34.5625C196.27 33.4427 195.859 32.5638 195.039 31.9258C194.232 31.2878 193.099 30.9688 191.641 30.9688H188.184Z" fill="black"/>
<path d="M216.465 43.4883C213.132 43.4883 210.508 42.5573 208.594 40.6953C206.693 38.8203 205.742 36.2812 205.742 33.0781C205.742 29.7708 206.732 27.1862 208.711 25.3242C210.69 23.4492 213.366 22.5117 216.738 22.5117C220.059 22.5117 222.663 23.4492 224.551 25.3242C226.439 27.1862 227.383 29.6536 227.383 32.7266C227.383 36.0469 226.406 38.6706 224.453 40.5977C222.513 42.5247 219.85 43.4883 216.465 43.4883ZM216.621 27.2383C215.163 27.2383 214.03 27.7396 213.223 28.7422C212.415 29.7448 212.012 31.1641 212.012 33C212.012 36.8411 213.561 38.7617 216.66 38.7617C219.616 38.7617 221.094 36.7891 221.094 32.8438C221.094 29.1068 219.603 27.2383 216.621 27.2383Z" fill="black"/>
<path d="M237.559 43H231.387V13.3906H237.559V43Z" fill="black"/>
<path d="M262.324 43H256.152V40.2461H256.074C254.668 42.4076 252.604 43.4883 249.883 43.4883C247.383 43.4883 245.371 42.6094 243.848 40.8516C242.324 39.0807 241.562 36.6133 241.562 33.4492C241.562 30.1419 242.402 27.4922 244.082 25.5C245.762 23.5078 247.962 22.5117 250.684 22.5117C253.262 22.5117 255.059 23.4362 256.074 25.2852H256.152V13.3906H262.324V43ZM256.27 33.2734V31.7695C256.27 30.4674 255.892 29.3867 255.137 28.5273C254.382 27.668 253.398 27.2383 252.188 27.2383C250.82 27.2383 249.753 27.7786 248.984 28.8594C248.216 29.9271 247.832 31.3984 247.832 33.2734C247.832 35.0312 248.203 36.3854 248.945 37.3359C249.688 38.2865 250.716 38.7617 252.031 38.7617C253.281 38.7617 254.297 38.2604 255.078 37.2578C255.872 36.2552 256.27 34.9271 256.27 33.2734Z" fill="black"/>
<path d="M2.16797 95.22V90.4349C2.59766 90.8255 3.10547 91.1771 3.69141 91.4896C4.29036 91.8021 4.92188 92.069 5.58594 92.2903C6.25 92.4987 6.91406 92.6614 7.57812 92.7786C8.24219 92.8958 8.85417 92.9544 9.41406 92.9544C11.3672 92.9544 12.819 92.6289 13.7695 91.9778C14.7331 91.3268 15.2148 90.3828 15.2148 89.1458C15.2148 88.4818 15.0521 87.9088 14.7266 87.4271C14.4141 86.9323 13.9714 86.4831 13.3984 86.0794C12.8255 85.6758 12.1484 85.2916 11.3672 84.9271C10.599 84.5495 9.77214 84.1588 8.88672 83.7552C7.9362 83.2474 7.05078 82.7331 6.23047 82.2122C5.41016 81.6914 4.69401 81.1185 4.08203 80.4935C3.48307 79.8554 3.00781 79.1393 2.65625 78.345C2.31771 77.5508 2.14844 76.6198 2.14844 75.5521C2.14844 74.237 2.44141 73.0976 3.02734 72.1341C3.6263 71.1575 4.40755 70.3568 5.37109 69.7318C6.34766 69.0937 7.45443 68.625 8.69141 68.3255C9.92839 68.013 11.1914 67.8568 12.4805 67.8568C15.4102 67.8568 17.5456 68.1888 18.8867 68.8528V73.4427C17.2982 72.2969 15.2539 71.7239 12.7539 71.7239C12.0638 71.7239 11.3737 71.789 10.6836 71.9193C10.0065 72.0495 9.39453 72.2643 8.84766 72.5638C8.3138 72.8633 7.8776 73.2474 7.53906 73.7161C7.20052 74.1849 7.03125 74.7513 7.03125 75.4153C7.03125 76.0403 7.16146 76.5807 7.42188 77.0364C7.68229 77.4922 8.0599 77.9088 8.55469 78.2864C9.0625 78.664 9.67448 79.0351 10.3906 79.3997C11.1198 79.7513 11.9596 80.1354 12.9102 80.5521C13.8867 81.0599 14.8047 81.5937 15.6641 82.1536C16.5365 82.7135 17.2982 83.332 17.9492 84.0091C18.6133 84.6862 19.1341 85.4414 19.5117 86.2747C19.9023 87.095 20.0977 88.0325 20.0977 89.0872C20.0977 90.5065 19.8112 91.7044 19.2383 92.681C18.6654 93.6575 17.8906 94.4518 16.9141 95.0638C15.9505 95.6758 14.8372 96.1185 13.5742 96.3919C12.3112 96.6653 10.9766 96.8021 9.57031 96.8021C9.10156 96.8021 8.52214 96.763 7.83203 96.6849C7.15495 96.6198 6.45833 96.5156 5.74219 96.3724C5.02604 96.2422 4.34896 96.0794 3.71094 95.8841C3.07292 95.6888 2.55859 95.4674 2.16797 95.22Z" fill="black"/>
<path d="M41.6797 87.5638H28.0469C28.099 89.4127 28.6654 90.8385 29.7461 91.8411C30.8398 92.8437 32.3372 93.345 34.2383 93.345C36.3737 93.345 38.3333 92.707 40.1172 91.431V95.0833C38.2943 96.2291 35.8854 96.8021 32.8906 96.8021C29.9479 96.8021 27.6367 95.8971 25.957 94.0872C24.2904 92.2643 23.457 89.7057 23.457 86.4114C23.457 83.2995 24.375 80.7669 26.2109 78.8138C28.0599 76.8476 30.3516 75.8646 33.0859 75.8646C35.8203 75.8646 37.9362 76.7435 39.4336 78.5013C40.931 80.2591 41.6797 82.7005 41.6797 85.8255V87.5638ZM37.3047 84.3607C37.2917 82.7331 36.9076 81.47 36.1523 80.5716C35.3971 79.6601 34.3555 79.2044 33.0273 79.2044C31.7253 79.2044 30.6185 79.6797 29.707 80.6302C28.8086 81.5807 28.2552 82.8242 28.0469 84.3607H37.3047Z" fill="black"/>
<path d="M64.1992 94.7318C64.1992 102.076 60.5078 105.747 53.125 105.747C50.5208 105.747 48.2487 105.311 46.3086 104.439V100.298C48.4961 101.548 50.5729 102.173 52.5391 102.173C57.2917 102.173 59.668 99.8359 59.668 95.1614V92.9739H59.5898C58.0924 95.526 55.8398 96.8021 52.832 96.8021C50.3971 96.8021 48.431 95.9166 46.9336 94.1458C45.4492 92.362 44.707 89.9726 44.707 86.9778C44.707 83.5794 45.5078 80.8776 47.1094 78.8724C48.7109 76.8672 50.9115 75.8646 53.7109 75.8646C56.3542 75.8646 58.3138 76.9453 59.5898 79.1068H59.668V76.3333H64.1992V94.7318ZM59.707 87.1732V84.5755C59.707 83.1693 59.2383 81.9713 58.3008 80.9818C57.3763 79.9791 56.2174 79.4778 54.8242 79.4778C53.1055 79.4778 51.7578 80.1159 50.7812 81.3919C49.8177 82.6549 49.3359 84.4258 49.3359 86.7044C49.3359 88.6706 49.7982 90.2461 50.7227 91.431C51.6602 92.6028 52.8971 93.1888 54.4336 93.1888C55.9961 93.1888 57.2656 92.6289 58.2422 91.5091C59.2188 90.3763 59.707 88.931 59.707 87.1732Z" fill="black"/>
<path d="M78.9648 96.8021C75.8789 96.8021 73.4115 95.8711 71.5625 94.0091C69.7266 92.1341 68.8086 89.6536 68.8086 86.5677C68.8086 83.2083 69.7656 80.5846 71.6797 78.6966C73.6068 76.8086 76.1979 75.8646 79.4531 75.8646C82.5781 75.8646 85.013 76.7825 86.7578 78.6185C88.5026 80.4544 89.375 83 89.375 86.2552C89.375 89.4453 88.431 92.0039 86.543 93.931C84.668 95.845 82.1419 96.8021 78.9648 96.8021ZM79.1797 79.4778C77.4089 79.4778 76.0091 80.0963 74.9805 81.3333C73.9518 82.5703 73.4375 84.276 73.4375 86.4505C73.4375 88.5469 73.9583 90.2005 75 91.4114C76.0417 92.6094 77.4349 93.2083 79.1797 93.2083C80.9635 93.2083 82.3307 92.6159 83.2812 91.431C84.2448 90.2461 84.7266 88.5599 84.7266 86.3724C84.7266 84.1719 84.2448 82.4726 83.2812 81.2747C82.3307 80.0768 80.9635 79.4778 79.1797 79.4778Z" fill="black"/>
<path d="M110.938 87.5638H97.3047C97.3568 89.4127 97.9232 90.8385 99.0039 91.8411C100.098 92.8437 101.595 93.345 103.496 93.345C105.632 93.345 107.591 92.707 109.375 91.431V95.0833C107.552 96.2291 105.143 96.8021 102.148 96.8021C99.2057 96.8021 96.8945 95.8971 95.2148 94.0872C93.5482 92.2643 92.7148 89.7057 92.7148 86.4114C92.7148 83.2995 93.6328 80.7669 95.4688 78.8138C97.3177 76.8476 99.6094 75.8646 102.344 75.8646C105.078 75.8646 107.194 76.7435 108.691 78.5013C110.189 80.2591 110.938 82.7005 110.938 85.8255V87.5638ZM106.562 84.3607C106.549 82.7331 106.165 81.47 105.41 80.5716C104.655 79.6601 103.613 79.2044 102.285 79.2044C100.983 79.2044 99.8763 79.6797 98.9648 80.6302C98.0664 81.5807 97.513 82.8242 97.3047 84.3607H106.562Z" fill="black"/>
<path d="M148.32 85.0052C148.32 92.8698 144.596 96.8021 137.148 96.8021C130.013 96.8021 126.445 93.0195 126.445 85.4544V68.3255H131.094V84.4974C131.094 89.9922 133.229 92.7396 137.5 92.7396C141.615 92.7396 143.672 90.0898 143.672 84.7903V68.3255H148.32V85.0052Z" fill="black"/>
<path d="M159.668 96.3333H154.883V68.3255H159.668V96.3333Z" fill="black"/>
<path d="M176.309 95.22V90.4349C176.738 90.8255 177.246 91.1771 177.832 91.4896C178.431 91.8021 179.062 92.069 179.727 92.2903C180.391 92.4987 181.055 92.6614 181.719 92.7786C182.383 92.8958 182.995 92.9544 183.555 92.9544C185.508 92.9544 186.96 92.6289 187.91 91.9778C188.874 91.3268 189.355 90.3828 189.355 89.1458C189.355 88.4818 189.193 87.9088 188.867 87.4271C188.555 86.9323 188.112 86.4831 187.539 86.0794C186.966 85.6758 186.289 85.2916 185.508 84.9271C184.74 84.5495 183.913 84.1588 183.027 83.7552C182.077 83.2474 181.191 82.7331 180.371 82.2122C179.551 81.6914 178.835 81.1185 178.223 80.4935C177.624 79.8554 177.148 79.1393 176.797 78.345C176.458 77.5508 176.289 76.6198 176.289 75.5521C176.289 74.237 176.582 73.0976 177.168 72.1341C177.767 71.1575 178.548 70.3568 179.512 69.7318C180.488 69.0937 181.595 68.625 182.832 68.3255C184.069 68.013 185.332 67.8568 186.621 67.8568C189.551 67.8568 191.686 68.1888 193.027 68.8528V73.4427C191.439 72.2969 189.395 71.7239 186.895 71.7239C186.204 71.7239 185.514 71.789 184.824 71.9193C184.147 72.0495 183.535 72.2643 182.988 72.5638C182.454 72.8633 182.018 73.2474 181.68 73.7161C181.341 74.1849 181.172 74.7513 181.172 75.4153C181.172 76.0403 181.302 76.5807 181.562 77.0364C181.823 77.4922 182.201 77.9088 182.695 78.2864C183.203 78.664 183.815 79.0351 184.531 79.3997C185.26 79.7513 186.1 80.1354 187.051 80.5521C188.027 81.0599 188.945 81.5937 189.805 82.1536C190.677 82.7135 191.439 83.332 192.09 84.0091C192.754 84.6862 193.275 85.4414 193.652 86.2747C194.043 87.095 194.238 88.0325 194.238 89.0872C194.238 90.5065 193.952 91.7044 193.379 92.681C192.806 93.6575 192.031 94.4518 191.055 95.0638C190.091 95.6758 188.978 96.1185 187.715 96.3919C186.452 96.6653 185.117 96.8021 183.711 96.8021C183.242 96.8021 182.663 96.763 181.973 96.6849C181.296 96.6198 180.599 96.5156 179.883 96.3724C179.167 96.2422 178.49 96.0794 177.852 95.8841C177.214 95.6888 176.699 95.4674 176.309 95.22Z" fill="black"/>
<path d="M215.82 87.5638H202.188C202.24 89.4127 202.806 90.8385 203.887 91.8411C204.98 92.8437 206.478 93.345 208.379 93.345C210.514 93.345 212.474 92.707 214.258 91.431V95.0833C212.435 96.2291 210.026 96.8021 207.031 96.8021C204.089 96.8021 201.777 95.8971 200.098 94.0872C198.431 92.2643 197.598 89.7057 197.598 86.4114C197.598 83.2995 198.516 80.7669 200.352 78.8138C202.201 76.8476 204.492 75.8646 207.227 75.8646C209.961 75.8646 212.077 76.7435 213.574 78.5013C215.072 80.2591 215.82 82.7005 215.82 85.8255V87.5638ZM211.445 84.3607C211.432 82.7331 211.048 81.47 210.293 80.5716C209.538 79.6601 208.496 79.2044 207.168 79.2044C205.866 79.2044 204.759 79.6797 203.848 80.6302C202.949 81.5807 202.396 82.8242 202.188 84.3607H211.445Z" fill="black"/>
<path d="M250.039 96.3333H245.508V85.4349C245.508 83.3385 245.208 81.8216 244.609 80.8841C244.023 79.9466 243.027 79.4778 241.621 79.4778C240.436 79.4778 239.427 80.0703 238.594 81.2552C237.773 82.4401 237.363 83.8594 237.363 85.513V96.3333H232.812V85.0638C232.812 81.3398 231.497 79.4778 228.867 79.4778C227.643 79.4778 226.634 80.0377 225.84 81.1575C225.059 82.2773 224.668 83.7291 224.668 85.513V96.3333H220.137V76.3333H224.668V79.4974H224.746C226.191 77.0755 228.294 75.8646 231.055 75.8646C232.435 75.8646 233.639 76.2487 234.668 77.0169C235.71 77.7721 236.419 78.7682 236.797 80.0052C238.281 77.2448 240.495 75.8646 243.438 75.8646C247.839 75.8646 250.039 78.5794 250.039 84.0091V96.3333Z" fill="black"/>
<path d="M257.852 72.1341C257.109 72.1341 256.471 71.8932 255.938 71.4114C255.417 70.9297 255.156 70.3177 255.156 69.5755C255.156 68.8333 255.417 68.2148 255.938 67.72C256.471 67.2252 257.109 66.9778 257.852 66.9778C258.62 66.9778 259.271 67.2252 259.805 67.72C260.339 68.2148 260.605 68.8333 260.605 69.5755C260.605 70.2786 260.339 70.8841 259.805 71.3919C259.271 71.8867 258.62 72.1341 257.852 72.1341ZM260.098 96.3333H255.566V76.3333H260.098V96.3333Z" fill="black"/>
<path d="M270.645 93.4427H270.566V96.3333H266.035V66.7239H270.566V79.8489H270.645C272.194 77.1927 274.46 75.8646 277.441 75.8646C279.967 75.8646 281.94 76.763 283.359 78.5599C284.792 80.3437 285.508 82.7396 285.508 85.7474C285.508 89.0937 284.707 91.776 283.105 93.7943C281.504 95.7995 279.316 96.8021 276.543 96.8021C273.939 96.8021 271.973 95.6823 270.645 93.4427ZM270.527 85.4935V87.9739C270.527 89.4323 270.99 90.6693 271.914 91.6849C272.852 92.7005 274.036 93.2083 275.469 93.2083C277.148 93.2083 278.464 92.5573 279.414 91.2552C280.378 89.9401 280.859 88.1107 280.859 85.7669C280.859 83.8008 280.41 82.2643 279.512 81.1575C278.626 80.0377 277.422 79.4778 275.898 79.4778C274.284 79.4778 272.982 80.0508 271.992 81.1966C271.016 82.3424 270.527 83.7747 270.527 85.4935Z" fill="black"/>
<path d="M299.004 96.8021C295.918 96.8021 293.451 95.8711 291.602 94.0091C289.766 92.1341 288.848 89.6536 288.848 86.5677C288.848 83.2083 289.805 80.5846 291.719 78.6966C293.646 76.8086 296.237 75.8646 299.492 75.8646C302.617 75.8646 305.052 76.7825 306.797 78.6185C308.542 80.4544 309.414 83 309.414 86.2552C309.414 89.4453 308.47 92.0039 306.582 93.931C304.707 95.845 302.181 96.8021 299.004 96.8021ZM299.219 79.4778C297.448 79.4778 296.048 80.0963 295.02 81.3333C293.991 82.5703 293.477 84.276 293.477 86.4505C293.477 88.5469 293.997 90.2005 295.039 91.4114C296.081 92.6094 297.474 93.2083 299.219 93.2083C301.003 93.2083 302.37 92.6159 303.32 91.431C304.284 90.2461 304.766 88.5599 304.766 86.3724C304.766 84.1719 304.284 82.4726 303.32 81.2747C302.37 80.0768 301.003 79.4778 299.219 79.4778Z" fill="black"/>
<path d="M318.594 96.3333H314.043V66.7239H318.594V96.3333Z" fill="black"/>
<path d="M342.695 96.3333H338.164V92.9349H338.086C336.628 95.513 334.382 96.8021 331.348 96.8021C328.887 96.8021 326.914 95.9101 325.43 94.1263C323.958 92.3294 323.223 89.888 323.223 86.8021C323.223 83.4948 324.036 80.845 325.664 78.8528C327.305 76.8607 329.486 75.8646 332.207 75.8646C334.902 75.8646 336.862 76.9453 338.086 79.1068H338.164V66.7239H342.695V96.3333ZM338.223 87.1927V84.5755C338.223 83.1562 337.76 81.9518 336.836 80.9622C335.911 79.9726 334.733 79.4778 333.301 79.4778C331.608 79.4778 330.273 80.1094 329.297 81.3724C328.333 82.6354 327.852 84.3867 327.852 86.6263C327.852 88.6575 328.314 90.2656 329.238 91.4505C330.176 92.6224 331.432 93.2083 333.008 93.2083C334.557 93.2083 335.814 92.6419 336.777 91.5091C337.741 90.3633 338.223 88.9245 338.223 87.1927Z" fill="black"/>
<path d="M2.71484 202.004V199.797C4.72005 201.073 6.7513 201.711 8.80859 201.711C10.9961 201.711 12.6562 201.262 13.7891 200.363C14.9219 199.452 15.4883 198.182 15.4883 196.555C15.4883 195.122 15.1042 193.983 14.3359 193.137C13.5807 192.277 11.9336 191.112 9.39453 189.641C6.55599 187.987 4.75911 186.607 4.00391 185.5C3.2487 184.38 2.87109 183.091 2.87109 181.633C2.87109 179.654 3.63932 177.974 5.17578 176.594C6.71224 175.214 8.76302 174.523 11.3281 174.523C12.9948 174.523 14.6615 174.803 16.3281 175.363V177.395C14.6875 176.652 12.9362 176.281 11.0742 176.281C9.17318 176.281 7.66276 176.763 6.54297 177.727C5.4362 178.69 4.88281 179.914 4.88281 181.398C4.88281 182.831 5.26042 183.97 6.01562 184.816C6.78385 185.663 8.43099 186.815 10.957 188.273C13.5742 189.758 15.3125 191.079 16.1719 192.238C17.0443 193.384 17.4805 194.706 17.4805 196.203C17.4805 198.352 16.7318 200.103 15.2344 201.457C13.75 202.811 11.6471 203.488 8.92578 203.488C7.96224 203.488 6.84896 203.339 5.58594 203.039C4.33594 202.74 3.37891 202.395 2.71484 202.004Z" fill="black"/>
<path d="M23.5156 193.078C23.5156 195.826 24.1471 197.974 25.4102 199.523C26.6862 201.073 28.431 201.848 30.6445 201.848C32.8841 201.848 35.0716 201.021 37.207 199.367V201.281C35.1367 202.753 32.8255 203.488 30.2734 203.488C27.6953 203.488 25.612 202.564 24.0234 200.715C22.4349 198.866 21.6406 196.255 21.6406 192.883C21.6406 189.966 22.4674 187.512 24.1211 185.52C25.7878 183.514 27.9492 182.512 30.6055 182.512C33.0924 182.512 35 183.384 36.3281 185.129C37.6562 186.874 38.3203 189.257 38.3203 192.277V193.078H23.5156ZM36.4453 191.438C36.3672 189.133 35.8138 187.342 34.7852 186.066C33.7565 184.79 32.3372 184.152 30.5273 184.152C28.6523 184.152 27.0964 184.784 25.8594 186.047C24.6354 187.297 23.8802 189.094 23.5938 191.438H36.4453Z" fill="black"/>
<path d="M59.2773 201.516C59.2773 205.279 58.457 208.033 56.8164 209.777C55.1758 211.522 52.6237 212.395 49.1602 212.395C47.2331 212.395 45.2474 211.887 43.2031 210.871V208.996C45.3125 210.168 47.3112 210.754 49.1992 210.754C54.7201 210.754 57.4805 207.837 57.4805 202.004V199.406H57.4023C55.8268 202.128 53.4245 203.488 50.1953 203.488C47.7344 203.488 45.7227 202.596 44.1602 200.812C42.6107 199.029 41.8359 196.542 41.8359 193.352C41.8359 190.161 42.6758 187.557 44.3555 185.539C46.0352 183.521 48.2487 182.512 50.9961 182.512C53.9388 182.512 56.0742 183.729 57.4023 186.164H57.4805V183H59.2773V201.516ZM57.4805 190.676C57.4805 188.905 56.8815 187.375 55.6836 186.086C54.4987 184.797 52.9492 184.152 51.0352 184.152C48.8346 184.152 47.0638 184.979 45.7227 186.633C44.3815 188.286 43.7109 190.474 43.7109 193.195C43.7109 195.93 44.3229 198.059 45.5469 199.582C46.7839 201.092 48.4115 201.848 50.4297 201.848C52.5781 201.848 54.2904 201.151 55.5664 199.758C56.8424 198.365 57.4805 196.659 57.4805 194.641V190.676Z" fill="black"/>
<path d="M73.7305 203.488C70.8138 203.488 68.5026 202.531 66.7969 200.617C65.1042 198.69 64.2578 196.19 64.2578 193.117C64.2578 189.797 65.1432 187.199 66.9141 185.324C68.6979 183.449 71.0417 182.512 73.9453 182.512C76.7969 182.512 79.0495 183.443 80.7031 185.305C82.3568 187.167 83.1836 189.745 83.1836 193.039C83.1836 196.151 82.3372 198.671 80.6445 200.598C78.9648 202.525 76.6602 203.488 73.7305 203.488ZM73.8672 184.152C71.5104 184.152 69.6289 184.947 68.2227 186.535C66.8294 188.124 66.1328 190.331 66.1328 193.156C66.1328 195.773 66.8164 197.876 68.1836 199.465C69.5508 201.053 71.4193 201.848 73.7891 201.848C76.1979 201.848 78.0534 201.066 79.3555 199.504C80.6576 197.941 81.3086 195.773 81.3086 193C81.3086 190.148 80.6576 187.961 79.3555 186.438C78.0664 184.914 76.237 184.152 73.8672 184.152Z" fill="black"/>
<path d="M88.5938 193.078C88.5938 195.826 89.2253 197.974 90.4883 199.523C91.7643 201.073 93.5091 201.848 95.7227 201.848C97.9622 201.848 100.15 201.021 102.285 199.367V201.281C100.215 202.753 97.9036 203.488 95.3516 203.488C92.7734 203.488 90.6901 202.564 89.1016 200.715C87.513 198.866 86.7188 196.255 86.7188 192.883C86.7188 189.966 87.5456 187.512 89.1992 185.52C90.8659 183.514 93.0273 182.512 95.6836 182.512C98.1706 182.512 100.078 183.384 101.406 185.129C102.734 186.874 103.398 189.257 103.398 192.277V193.078H88.5938ZM101.523 191.438C101.445 189.133 100.892 187.342 99.8633 186.066C98.8346 184.79 97.4154 184.152 95.6055 184.152C93.7305 184.152 92.1745 184.784 90.9375 186.047C89.7135 187.297 88.9583 189.094 88.6719 191.438H101.523Z" fill="black"/>
<path d="M138.809 191.809C138.809 199.595 135.488 203.488 128.848 203.488C122.533 203.488 119.375 199.738 119.375 192.238V174.992H121.289V191.965C121.289 198.462 123.932 201.711 129.219 201.711C134.336 201.711 136.895 198.553 136.895 192.238V174.992H138.809V191.809Z" fill="black"/>
<path d="M145.664 203V174.992H147.598V203H145.664Z" fill="black"/>
<path d="M165.781 203V174.992H167.715V201.242H178.945V203H165.781Z" fill="black"/>
<path d="M184.59 177.961C184.199 177.961 183.854 177.818 183.555 177.531C183.255 177.245 183.105 176.88 183.105 176.438C183.105 176.008 183.255 175.663 183.555 175.402C183.867 175.129 184.212 174.992 184.59 174.992C184.993 174.992 185.345 175.122 185.645 175.383C185.957 175.643 186.113 175.995 186.113 176.438C186.113 176.854 185.964 177.212 185.664 177.512C185.365 177.811 185.007 177.961 184.59 177.961ZM183.711 203V183H185.508V203H183.711Z" fill="black"/>
<path d="M207.91 201.516C207.91 205.279 207.09 208.033 205.449 209.777C203.809 211.522 201.257 212.395 197.793 212.395C195.866 212.395 193.88 211.887 191.836 210.871V208.996C193.945 210.168 195.944 210.754 197.832 210.754C203.353 210.754 206.113 207.837 206.113 202.004V199.406H206.035C204.46 202.128 202.057 203.488 198.828 203.488C196.367 203.488 194.355 202.596 192.793 200.812C191.243 199.029 190.469 196.542 190.469 193.352C190.469 190.161 191.309 187.557 192.988 185.539C194.668 183.521 196.882 182.512 199.629 182.512C202.572 182.512 204.707 183.729 206.035 186.164H206.113V183H207.91V201.516ZM206.113 190.676C206.113 188.905 205.514 187.375 204.316 186.086C203.132 184.797 201.582 184.152 199.668 184.152C197.467 184.152 195.697 184.979 194.355 186.633C193.014 188.286 192.344 190.474 192.344 193.195C192.344 195.93 192.956 198.059 194.18 199.582C195.417 201.092 197.044 201.848 199.062 201.848C201.211 201.848 202.923 201.151 204.199 199.758C205.475 198.365 206.113 196.659 206.113 194.641V190.676Z" fill="black"/>
<path d="M227.93 203V191.008C227.93 188.638 227.5 186.906 226.641 185.812C225.781 184.706 224.44 184.152 222.617 184.152C220.898 184.152 219.388 184.823 218.086 186.164C216.784 187.505 216.133 189.426 216.133 191.926V203H214.336V173.391H216.133V186.594H216.211C217.786 183.872 220.078 182.512 223.086 182.512C225.247 182.512 226.895 183.208 228.027 184.602C229.16 185.995 229.727 187.993 229.727 190.598V203H227.93Z" fill="black"/>
<path d="M243.652 202.727C242.715 203.169 241.836 203.391 241.016 203.391C238.06 203.391 236.582 201.62 236.582 198.078V184.641H232.988V183H236.582V177.805C236.868 177.701 237.168 177.596 237.48 177.492C237.793 177.401 238.092 177.303 238.379 177.199V183H243.652V184.641H238.379V197.844C238.379 199.224 238.594 200.227 239.023 200.852C239.466 201.464 240.208 201.77 241.25 201.77C241.992 201.77 242.793 201.529 243.652 201.047V202.727Z" fill="black"/>
<path d="M2.36328 148.534V144.667C2.80599 145.057 3.33333 145.409 3.94531 145.721C4.57031 146.034 5.22135 146.301 5.89844 146.522C6.58854 146.73 7.27865 146.893 7.96875 147.01C8.65885 147.128 9.29688 147.186 9.88281 147.186C11.901 147.186 13.4049 146.815 14.3945 146.073C15.3971 145.318 15.8984 144.237 15.8984 142.831C15.8984 142.076 15.7292 141.418 15.3906 140.858C15.0651 140.298 14.6094 139.79 14.0234 139.335C13.4375 138.866 12.7409 138.423 11.9336 138.007C11.1393 137.577 10.2799 137.128 9.35547 136.659C8.37891 136.164 7.46745 135.663 6.62109 135.155C5.77474 134.647 5.03906 134.087 4.41406 133.475C3.78906 132.863 3.29427 132.173 2.92969 131.405C2.57812 130.624 2.40234 129.712 2.40234 128.671C2.40234 127.395 2.68229 126.288 3.24219 125.35C3.80208 124.4 4.53776 123.618 5.44922 123.007C6.36068 122.395 7.39583 121.939 8.55469 121.639C9.72656 121.34 10.918 121.19 12.1289 121.19C14.8893 121.19 16.901 121.522 18.1641 122.186V125.878C16.5104 124.732 14.388 124.159 11.7969 124.159C11.0807 124.159 10.3646 124.237 9.64844 124.393C8.93229 124.536 8.29427 124.777 7.73438 125.116C7.17448 125.454 6.71875 125.891 6.36719 126.424C6.01562 126.958 5.83984 127.609 5.83984 128.378C5.83984 129.094 5.97005 129.712 6.23047 130.233C6.50391 130.754 6.90104 131.229 7.42188 131.659C7.94271 132.089 8.57422 132.505 9.31641 132.909C10.0716 133.312 10.9375 133.755 11.9141 134.237C12.9167 134.732 13.8672 135.253 14.7656 135.799C15.6641 136.346 16.4518 136.952 17.1289 137.616C17.806 138.28 18.3398 139.016 18.7305 139.823C19.1341 140.63 19.3359 141.555 19.3359 142.596C19.3359 143.977 19.0625 145.148 18.5156 146.112C17.9818 147.062 17.2526 147.837 16.3281 148.436C15.4167 149.035 14.362 149.465 13.1641 149.725C11.9661 149.999 10.7031 150.135 9.375 150.135C8.93229 150.135 8.38542 150.096 7.73438 150.018C7.08333 149.953 6.41927 149.849 5.74219 149.706C5.0651 149.576 4.42057 149.413 3.80859 149.217C3.20964 149.009 2.72786 148.781 2.36328 148.534Z" fill="black"/>
<path d="M40.5664 140.467H26.4453C26.4974 142.694 27.0964 144.413 28.2422 145.624C29.388 146.835 30.9635 147.44 32.9688 147.44C35.2214 147.44 37.2917 146.698 39.1797 145.214V148.221C37.4219 149.497 35.0977 150.135 32.207 150.135C29.3815 150.135 27.1615 149.23 25.5469 147.421C23.9323 145.598 23.125 143.039 23.125 139.745C23.125 136.633 24.0039 134.1 25.7617 132.147C27.5326 130.181 29.7266 129.198 32.3438 129.198C34.9609 129.198 36.9857 130.044 38.418 131.737C39.8503 133.43 40.5664 135.78 40.5664 138.788V140.467ZM37.2852 137.753C37.2721 135.904 36.8229 134.465 35.9375 133.436C35.0651 132.408 33.8477 131.893 32.2852 131.893C30.7747 131.893 29.4922 132.434 28.4375 133.514C27.3828 134.595 26.7318 136.008 26.4844 137.753H37.2852Z" fill="black"/>
<path d="M62.5 148.065C62.5 155.409 58.9844 159.081 51.9531 159.081C49.4792 159.081 47.3177 158.612 45.4688 157.674V154.471C47.7214 155.721 49.8698 156.346 51.9141 156.346C56.8359 156.346 59.2969 153.729 59.2969 148.495V146.307H59.2188C57.6953 148.859 55.4036 150.135 52.3438 150.135C49.8568 150.135 47.8516 149.25 46.3281 147.479C44.8177 145.695 44.0625 143.306 44.0625 140.311C44.0625 136.913 44.8763 134.211 46.5039 132.206C48.1445 130.201 50.3841 129.198 53.2227 129.198C55.918 129.198 57.9167 130.279 59.2188 132.44H59.2969V129.667H62.5V148.065ZM59.2969 140.624V137.674C59.2969 136.086 58.7565 134.725 57.6758 133.592C56.6081 132.46 55.2734 131.893 53.6719 131.893C51.6927 131.893 50.1432 132.616 49.0234 134.061C47.9036 135.493 47.3438 137.505 47.3438 140.096C47.3438 142.323 47.8776 144.107 48.9453 145.448C50.026 146.776 51.4518 147.44 53.2227 147.44C55.0195 147.44 56.4779 146.802 57.5977 145.526C58.7305 144.25 59.2969 142.616 59.2969 140.624Z" fill="black"/>
<path d="M77.3438 150.135C74.388 150.135 72.0247 149.204 70.2539 147.342C68.4961 145.467 67.6172 142.987 67.6172 139.901C67.6172 136.542 68.5352 133.918 70.3711 132.03C72.207 130.142 74.6875 129.198 77.8125 129.198C80.7943 129.198 83.1185 130.116 84.7852 131.952C86.4648 133.788 87.3047 136.333 87.3047 139.589C87.3047 142.779 86.3997 145.337 84.5898 147.264C82.793 149.178 80.3776 150.135 77.3438 150.135ZM77.5781 131.893C75.5208 131.893 73.8932 132.596 72.6953 134.003C71.4974 135.396 70.8984 137.323 70.8984 139.784C70.8984 142.154 71.5039 144.022 72.7148 145.389C73.9258 146.757 75.5469 147.44 77.5781 147.44C79.6484 147.44 81.237 146.77 82.3438 145.428C83.4635 144.087 84.0234 142.18 84.0234 139.706C84.0234 137.206 83.4635 135.279 82.3438 133.924C81.237 132.57 79.6484 131.893 77.5781 131.893Z" fill="black"/>
<path d="M108.496 140.467H94.375C94.4271 142.694 95.026 144.413 96.1719 145.624C97.3177 146.835 98.8932 147.44 100.898 147.44C103.151 147.44 105.221 146.698 107.109 145.214V148.221C105.352 149.497 103.027 150.135 100.137 150.135C97.3112 150.135 95.0911 149.23 93.4766 147.421C91.862 145.598 91.0547 143.039 91.0547 139.745C91.0547 136.633 91.9336 134.1 93.6914 132.147C95.4622 130.181 97.6562 129.198 100.273 129.198C102.891 129.198 104.915 130.044 106.348 131.737C107.78 133.43 108.496 135.78 108.496 138.788V140.467ZM105.215 137.753C105.202 135.904 104.753 134.465 103.867 133.436C102.995 132.408 101.777 131.893 100.215 131.893C98.7044 131.893 97.4219 132.434 96.3672 133.514C95.3125 134.595 94.6615 136.008 94.4141 137.753H105.215Z" fill="black"/>
<path d="M145.254 138.339C145.254 146.203 141.706 150.135 134.609 150.135C127.812 150.135 124.414 146.353 124.414 138.788V121.659H127.695V138.573C127.695 144.315 130.117 147.186 134.961 147.186C139.635 147.186 141.973 144.413 141.973 138.866V121.659H145.254V138.339Z" fill="black"/>
<path d="M155.547 149.667H152.266V121.659H155.547V149.667Z" fill="black"/>
<path d="M193.984 149.667H190.078L185.391 141.815C184.961 141.086 184.544 140.467 184.141 139.96C183.737 139.439 183.32 139.016 182.891 138.69C182.474 138.365 182.018 138.13 181.523 137.987C181.042 137.831 180.495 137.753 179.883 137.753H177.188V149.667H173.906V121.659H182.266C183.49 121.659 184.616 121.815 185.645 122.128C186.686 122.427 187.585 122.889 188.34 123.514C189.108 124.139 189.707 124.921 190.137 125.858C190.566 126.783 190.781 127.87 190.781 129.12C190.781 130.096 190.632 130.995 190.332 131.815C190.046 132.622 189.629 133.345 189.082 133.983C188.548 134.621 187.897 135.168 187.129 135.624C186.374 136.066 185.521 136.411 184.57 136.659V136.737C185.039 136.945 185.443 137.186 185.781 137.46C186.133 137.72 186.465 138.033 186.777 138.397C187.09 138.762 187.396 139.178 187.695 139.647C188.008 140.103 188.353 140.637 188.73 141.249L193.984 149.667ZM177.188 124.628V134.784H181.641C182.461 134.784 183.216 134.66 183.906 134.413C184.609 134.165 185.215 133.814 185.723 133.358C186.23 132.889 186.628 132.323 186.914 131.659C187.201 130.982 187.344 130.227 187.344 129.393C187.344 127.896 186.855 126.73 185.879 125.897C184.915 125.051 183.516 124.628 181.68 124.628H177.188Z" fill="black"/>
<path d="M212.324 140.467H198.203C198.255 142.694 198.854 144.413 200 145.624C201.146 146.835 202.721 147.44 204.727 147.44C206.979 147.44 209.049 146.698 210.938 145.214V148.221C209.18 149.497 206.855 150.135 203.965 150.135C201.139 150.135 198.919 149.23 197.305 147.421C195.69 145.598 194.883 143.039 194.883 139.745C194.883 136.633 195.762 134.1 197.52 132.147C199.29 130.181 201.484 129.198 204.102 129.198C206.719 129.198 208.743 130.044 210.176 131.737C211.608 133.43 212.324 135.78 212.324 138.788V140.467ZM209.043 137.753C209.03 135.904 208.581 134.465 207.695 133.436C206.823 132.408 205.605 131.893 204.043 131.893C202.533 131.893 201.25 132.434 200.195 133.514C199.141 134.595 198.49 136.008 198.242 137.753H209.043Z" fill="black"/>
<path d="M234.258 148.065C234.258 155.409 230.742 159.081 223.711 159.081C221.237 159.081 219.076 158.612 217.227 157.674V154.471C219.479 155.721 221.628 156.346 223.672 156.346C228.594 156.346 231.055 153.729 231.055 148.495V146.307H230.977C229.453 148.859 227.161 150.135 224.102 150.135C221.615 150.135 219.609 149.25 218.086 147.479C216.576 145.695 215.82 143.306 215.82 140.311C215.82 136.913 216.634 134.211 218.262 132.206C219.902 130.201 222.142 129.198 224.98 129.198C227.676 129.198 229.674 130.279 230.977 132.44H231.055V129.667H234.258V148.065ZM231.055 140.624V137.674C231.055 136.086 230.514 134.725 229.434 133.592C228.366 132.46 227.031 131.893 225.43 131.893C223.451 131.893 221.901 132.616 220.781 134.061C219.661 135.493 219.102 137.505 219.102 140.096C219.102 142.323 219.635 144.107 220.703 145.448C221.784 146.776 223.21 147.44 224.98 147.44C226.777 147.44 228.236 146.802 229.355 145.526C230.488 144.25 231.055 142.616 231.055 140.624Z" fill="black"/>
<path d="M256.914 149.667H253.711V146.503H253.633C252.305 148.924 250.247 150.135 247.461 150.135C242.695 150.135 240.312 147.297 240.312 141.62V129.667H243.496V141.112C243.496 145.331 245.111 147.44 248.34 147.44C249.902 147.44 251.185 146.867 252.188 145.721C253.203 144.562 253.711 143.052 253.711 141.19V129.667H256.914V149.667Z" fill="black"/>
<path d="M266.602 149.667H263.398V120.057H266.602V149.667Z" fill="black"/>
<path d="M287.402 149.667H284.199V146.542H284.121C282.728 148.937 280.677 150.135 277.969 150.135C275.977 150.135 274.414 149.608 273.281 148.553C272.161 147.499 271.602 146.099 271.602 144.354C271.602 140.617 273.802 138.443 278.203 137.831L284.199 136.991C284.199 133.592 282.826 131.893 280.078 131.893C277.669 131.893 275.495 132.714 273.555 134.354V131.073C275.521 129.823 277.786 129.198 280.352 129.198C285.052 129.198 287.402 131.685 287.402 136.659V149.667ZM284.199 139.549L279.375 140.214C277.891 140.422 276.771 140.793 276.016 141.327C275.26 141.848 274.883 142.779 274.883 144.12C274.883 145.096 275.228 145.897 275.918 146.522C276.621 147.134 277.552 147.44 278.711 147.44C280.299 147.44 281.608 146.887 282.637 145.78C283.678 144.66 284.199 143.247 284.199 141.542V139.549Z" fill="black"/>
<path d="M303.867 132.909C303.307 132.479 302.5 132.264 301.445 132.264C300.078 132.264 298.932 132.909 298.008 134.198C297.096 135.487 296.641 137.245 296.641 139.471V149.667H293.438V129.667H296.641V133.788H296.719C297.174 132.382 297.871 131.288 298.809 130.507C299.746 129.712 300.794 129.315 301.953 129.315C302.786 129.315 303.424 129.406 303.867 129.589V132.909Z" fill="black"/>
</svg>
