<svg width="100%"  viewBox="0 0 207 133" fill="none" xmlns="http://www.w3.org/2000/svg">
<rect width="207" height="133" fill="white"/>
<path d="M1.14844 25.3555V21.6055C1.82812 22.1758 2.56641 22.6055 3.36328 22.8945C4.16016 23.1758 4.96484 23.3164 5.77734 23.3164C6.25391 23.3164 6.66797 23.2734 7.01953 23.1875C7.37891 23.1016 7.67578 22.9844 7.91016 22.8359C8.15234 22.6797 8.33203 22.5 8.44922 22.2969C8.56641 22.0859 8.625 21.8594 8.625 21.6172C8.625 21.2891 8.53125 20.9961 8.34375 20.7383C8.15625 20.4805 7.89844 20.2422 7.57031 20.0234C7.25 19.8047 6.86719 19.5938 6.42188 19.3906C5.97656 19.1875 5.49609 18.9805 4.98047 18.7695C3.66797 18.2227 2.6875 17.5547 2.03906 16.7656C1.39844 15.9766 1.07812 15.0234 1.07812 13.9062C1.07812 13.0312 1.25391 12.2812 1.60547 11.6562C1.95703 11.0234 2.43359 10.5039 3.03516 10.0977C3.64453 9.69141 4.34766 9.39453 5.14453 9.20703C5.94141 9.01172 6.78516 8.91406 7.67578 8.91406C8.55078 8.91406 9.32422 8.96875 9.99609 9.07812C10.6758 9.17969 11.3008 9.33984 11.8711 9.55859V13.0625C11.5898 12.8672 11.2812 12.6953 10.9453 12.5469C10.6172 12.3984 10.2773 12.2773 9.92578 12.1836C9.57422 12.082 9.22266 12.0078 8.87109 11.9609C8.52734 11.9141 8.19922 11.8906 7.88672 11.8906C7.45703 11.8906 7.06641 11.9336 6.71484 12.0195C6.36328 12.0977 6.06641 12.2109 5.82422 12.3594C5.58203 12.5078 5.39453 12.6875 5.26172 12.8984C5.12891 13.1016 5.0625 13.332 5.0625 13.5898C5.0625 13.8711 5.13672 14.125 5.28516 14.3516C5.43359 14.5703 5.64453 14.7812 5.91797 14.9844C6.19141 15.1797 6.52344 15.375 6.91406 15.5703C7.30469 15.7578 7.74609 15.9531 8.23828 16.1562C8.91016 16.4375 9.51172 16.7383 10.043 17.0586C10.582 17.3711 11.043 17.7266 11.4258 18.125C11.8086 18.5234 12.1016 18.9805 12.3047 19.4961C12.5078 20.0039 12.6094 20.5977 12.6094 21.2773C12.6094 22.2148 12.4297 23.0039 12.0703 23.6445C11.7188 24.2773 11.2383 24.793 10.6289 25.1914C10.0195 25.582 9.30859 25.8633 8.49609 26.0352C7.69141 26.207 6.83984 26.293 5.94141 26.293C5.01953 26.293 4.14062 26.2148 3.30469 26.0586C2.47656 25.9023 1.75781 25.668 1.14844 25.3555ZM25.793 21.0547H17.9648C18.0898 22.7969 19.1875 23.668 21.2578 23.668C22.5781 23.668 23.7383 23.3555 24.7383 22.7305V25.4023C23.6289 25.9961 22.1875 26.293 20.4141 26.293C18.4766 26.293 16.9727 25.7578 15.9023 24.6875C14.832 23.6094 14.2969 22.1094 14.2969 20.1875C14.2969 18.1953 14.875 16.6172 16.0312 15.4531C17.1875 14.2891 18.6094 13.707 20.2969 13.707C22.0469 13.707 23.3984 14.2266 24.3516 15.2656C25.3125 16.3047 25.793 17.7148 25.793 19.4961V21.0547ZM22.3594 18.7812C22.3594 17.0625 21.6641 16.2031 20.2734 16.2031C19.6797 16.2031 19.1641 16.4492 18.7266 16.9414C18.2969 17.4336 18.0352 18.0469 17.9414 18.7812H22.3594ZM39.7617 24.6289C39.7617 26.8555 39.1172 28.5781 37.8281 29.7969C36.5391 31.0234 34.6719 31.6367 32.2266 31.6367C30.6094 31.6367 29.3281 31.4062 28.3828 30.9453V27.8281C29.6172 28.5469 30.8633 28.9062 32.1211 28.9062C33.3711 28.9062 34.3398 28.5742 35.0273 27.9102C35.7148 27.2539 36.0586 26.3594 36.0586 25.2266V24.2773H36.0117C35.168 25.6211 33.9219 26.293 32.2734 26.293C30.7422 26.293 29.5273 25.7539 28.6289 24.6758C27.7305 23.5977 27.2812 22.1523 27.2812 20.3398C27.2812 18.3086 27.7812 16.6953 28.7812 15.5C29.7812 14.3047 31.0977 13.707 32.7305 13.707C34.1914 13.707 35.2852 14.2695 36.0117 15.3945H36.0586V14H39.7617V24.6289ZM36.1055 20.2344V19.2852C36.1055 18.5273 35.8789 17.8828 35.4258 17.3516C34.9805 16.8125 34.3984 16.543 33.6797 16.543C32.8594 16.543 32.2148 16.8633 31.7461 17.5039C31.2773 18.1445 31.043 19.0469 31.043 20.2109C31.043 21.2109 31.2656 22.0039 31.7109 22.5898C32.1562 23.168 32.7656 23.457 33.5391 23.457C34.3047 23.457 34.9219 23.1641 35.3906 22.5781C35.8672 21.9844 36.1055 21.2031 36.1055 20.2344ZM48.5742 26.293C46.5742 26.293 45 25.7344 43.8516 24.6172C42.7109 23.4922 42.1406 21.9688 42.1406 20.0469C42.1406 18.0625 42.7344 16.5117 43.9219 15.3945C45.1094 14.2695 46.7148 13.707 48.7383 13.707C50.7305 13.707 52.293 14.2695 53.4258 15.3945C54.5586 16.5117 55.125 17.9922 55.125 19.8359C55.125 21.8281 54.5391 23.4023 53.3672 24.5586C52.2031 25.7148 50.6055 26.293 48.5742 26.293ZM48.668 16.543C47.793 16.543 47.1133 16.8438 46.6289 17.4453C46.1445 18.0469 45.9023 18.8984 45.9023 20C45.9023 22.3047 46.832 23.457 48.6914 23.457C50.4648 23.457 51.3516 22.2734 51.3516 19.9062C51.3516 17.6641 50.457 16.543 48.668 16.543ZM68.3086 21.0547H60.4805C60.6055 22.7969 61.7031 23.668 63.7734 23.668C65.0938 23.668 66.2539 23.3555 67.2539 22.7305V25.4023C66.1445 25.9961 64.7031 26.293 62.9297 26.293C60.9922 26.293 59.4883 25.7578 58.418 24.6875C57.3477 23.6094 56.8125 22.1094 56.8125 20.1875C56.8125 18.1953 57.3906 16.6172 58.5469 15.4531C59.7031 14.2891 61.125 13.707 62.8125 13.707C64.5625 13.707 65.9141 14.2266 66.8672 15.2656C67.8281 16.3047 68.3086 17.7148 68.3086 19.4961V21.0547ZM64.875 18.7812C64.875 17.0625 64.1797 16.2031 62.7891 16.2031C62.1953 16.2031 61.6797 16.4492 61.2422 16.9414C60.8125 17.4336 60.5508 18.0469 60.457 18.7812H64.875ZM91.207 18.7227C91.207 23.7695 88.8555 26.293 84.1523 26.293C79.5898 26.293 77.3086 23.8281 77.3086 18.8984V9.19531H81.1055V18.9453C81.1055 21.6641 82.168 23.0234 84.293 23.0234C86.3789 23.0234 87.4219 21.7109 87.4219 19.0859V9.19531H91.207V18.7227ZM98.6602 26H94.875V9.19531H98.6602V26ZM109.125 26V9.19531H115.242C117.117 9.19531 118.559 9.53906 119.566 10.2266C120.574 10.9141 121.078 11.8828 121.078 13.1328C121.078 14.0391 120.77 14.832 120.152 15.5117C119.543 16.1914 118.762 16.6641 117.809 16.9297V16.9766C119.004 17.125 119.957 17.5664 120.668 18.3008C121.387 19.0352 121.746 19.9297 121.746 20.9844C121.746 22.5234 121.195 23.7461 120.094 24.6523C118.992 25.5508 117.488 26 115.582 26H109.125ZM112.91 11.9844V15.9688H114.574C115.355 15.9688 115.969 15.7812 116.414 15.4062C116.867 15.0234 117.094 14.5 117.094 13.8359C117.094 12.6016 116.172 11.9844 114.328 11.9844H112.91ZM112.91 18.7812V23.2109H114.961C115.836 23.2109 116.52 23.0078 117.012 22.6016C117.512 22.1953 117.762 21.6406 117.762 20.9375C117.762 20.2656 117.516 19.7383 117.023 19.3555C116.539 18.9727 115.859 18.7812 114.984 18.7812H112.91ZM129.879 26.293C127.879 26.293 126.305 25.7344 125.156 24.6172C124.016 23.4922 123.445 21.9688 123.445 20.0469C123.445 18.0625 124.039 16.5117 125.227 15.3945C126.414 14.2695 128.02 13.707 130.043 13.707C132.035 13.707 133.598 14.2695 134.73 15.3945C135.863 16.5117 136.43 17.9922 136.43 19.8359C136.43 21.8281 135.844 23.4023 134.672 24.5586C133.508 25.7148 131.91 26.293 129.879 26.293ZM129.973 16.543C129.098 16.543 128.418 16.8438 127.934 17.4453C127.449 18.0469 127.207 18.8984 127.207 20C127.207 22.3047 128.137 23.457 129.996 23.457C131.77 23.457 132.656 22.2734 132.656 19.9062C132.656 17.6641 131.762 16.543 129.973 16.543ZM142.535 26H138.832V8.23438H142.535V26ZM157.395 26H153.691V24.3477H153.645C152.801 25.6445 151.562 26.293 149.93 26.293C148.43 26.293 147.223 25.7656 146.309 24.7109C145.395 23.6484 144.938 22.168 144.938 20.2695C144.938 18.2852 145.441 16.6953 146.449 15.5C147.457 14.3047 148.777 13.707 150.41 13.707C151.957 13.707 153.035 14.2617 153.645 15.3711H153.691V8.23438H157.395V26ZM153.762 20.1641V19.2617C153.762 18.4805 153.535 17.832 153.082 17.3164C152.629 16.8008 152.039 16.543 151.312 16.543C150.492 16.543 149.852 16.8672 149.391 17.5156C148.93 18.1562 148.699 19.0391 148.699 20.1641C148.699 21.2188 148.922 22.0312 149.367 22.6016C149.812 23.1719 150.43 23.457 151.219 23.457C151.969 23.457 152.578 23.1562 153.047 22.5547C153.523 21.9531 153.762 21.1562 153.762 20.1641Z" fill="black"/>
<path d="M1.30078 57.332V54.4609C1.55859 54.6953 1.86328 54.9062 2.21484 55.0938C2.57422 55.2812 2.95312 55.4414 3.35156 55.5742C3.75 55.6992 4.14844 55.7969 4.54688 55.8672C4.94531 55.9375 5.3125 55.9727 5.64844 55.9727C6.82031 55.9727 7.69141 55.7773 8.26172 55.3867C8.83984 54.9961 9.12891 54.4297 9.12891 53.6875C9.12891 53.2891 9.03125 52.9453 8.83594 52.6562C8.64844 52.3594 8.38281 52.0898 8.03906 51.8477C7.69531 51.6055 7.28906 51.375 6.82031 51.1562C6.35938 50.9297 5.86328 50.6953 5.33203 50.4531C4.76172 50.1484 4.23047 49.8398 3.73828 49.5273C3.24609 49.2148 2.81641 48.8711 2.44922 48.4961C2.08984 48.1133 1.80469 47.6836 1.59375 47.207C1.39062 46.7305 1.28906 46.1719 1.28906 45.5312C1.28906 44.7422 1.46484 44.0586 1.81641 43.4805C2.17578 42.8945 2.64453 42.4141 3.22266 42.0391C3.80859 41.6562 4.47266 41.375 5.21484 41.1953C5.95703 41.0078 6.71484 40.9141 7.48828 40.9141C9.24609 40.9141 10.5273 41.1133 11.332 41.5117V44.2656C10.3789 43.5781 9.15234 43.2344 7.65234 43.2344C7.23828 43.2344 6.82422 43.2734 6.41016 43.3516C6.00391 43.4297 5.63672 43.5586 5.30859 43.7383C4.98828 43.918 4.72656 44.1484 4.52344 44.4297C4.32031 44.7109 4.21875 45.0508 4.21875 45.4492C4.21875 45.8242 4.29688 46.1484 4.45312 46.4219C4.60938 46.6953 4.83594 46.9453 5.13281 47.1719C5.4375 47.3984 5.80469 47.6211 6.23438 47.8398C6.67188 48.0508 7.17578 48.2812 7.74609 48.5312C8.33203 48.8359 8.88281 49.1562 9.39844 49.4922C9.92188 49.8281 10.3789 50.1992 10.7695 50.6055C11.168 51.0117 11.4805 51.4648 11.707 51.9648C11.9414 52.457 12.0586 53.0195 12.0586 53.6523C12.0586 54.5039 11.8867 55.2227 11.543 55.8086C11.1992 56.3945 10.7344 56.8711 10.1484 57.2383C9.57031 57.6055 8.90234 57.8711 8.14453 58.0352C7.38672 58.1992 6.58594 58.2812 5.74219 58.2812C5.46094 58.2812 5.11328 58.2578 4.69922 58.2109C4.29297 58.1719 3.875 58.1094 3.44531 58.0234C3.01562 57.9453 2.60938 57.8477 2.22656 57.7305C1.84375 57.6133 1.53516 57.4805 1.30078 57.332ZM25.0078 52.7383H16.8281C16.8594 53.8477 17.1992 54.7031 17.8477 55.3047C18.5039 55.9062 19.4023 56.207 20.543 56.207C21.8242 56.207 23 55.8242 24.0703 55.0586V57.25C22.9766 57.9375 21.5312 58.2812 19.7344 58.2812C17.9688 58.2812 16.582 57.7383 15.5742 56.6523C14.5742 55.5586 14.0742 54.0234 14.0742 52.0469C14.0742 50.1797 14.625 48.6602 15.7266 47.4883C16.8359 46.3086 18.2109 45.7188 19.8516 45.7188C21.4922 45.7188 22.7617 46.2461 23.6602 47.3008C24.5586 48.3555 25.0078 49.8203 25.0078 51.6953V52.7383ZM22.3828 50.8164C22.375 49.8398 22.1445 49.082 21.6914 48.543C21.2383 47.9961 20.6133 47.7227 19.8164 47.7227C19.0352 47.7227 18.3711 48.0078 17.8242 48.5781C17.2852 49.1484 16.9531 49.8945 16.8281 50.8164H22.3828ZM38.5195 57.0391C38.5195 61.4453 36.3047 63.6484 31.875 63.6484C30.3125 63.6484 28.9492 63.3867 27.7852 62.8633V60.3789C29.0977 61.1289 30.3438 61.5039 31.5234 61.5039C34.375 61.5039 35.8008 60.1016 35.8008 57.2969V55.9844H35.7539C34.8555 57.5156 33.5039 58.2812 31.6992 58.2812C30.2383 58.2812 29.0586 57.75 28.1602 56.6875C27.2695 55.6172 26.8242 54.1836 26.8242 52.3867C26.8242 50.3477 27.3047 48.7266 28.2656 47.5234C29.2266 46.3203 30.5469 45.7188 32.2266 45.7188C33.8125 45.7188 34.9883 46.3672 35.7539 47.6641H35.8008V46H38.5195V57.0391ZM35.8242 52.5039V50.9453C35.8242 50.1016 35.543 49.3828 34.9805 48.7891C34.4258 48.1875 33.7305 47.8867 32.8945 47.8867C31.8633 47.8867 31.0547 48.2695 30.4688 49.0352C29.8906 49.793 29.6016 50.8555 29.6016 52.2227C29.6016 53.4023 29.8789 54.3477 30.4336 55.0586C30.9961 55.7617 31.7383 56.1133 32.6602 56.1133C33.5977 56.1133 34.3594 55.7773 34.9453 55.1055C35.5312 54.4258 35.8242 53.5586 35.8242 52.5039ZM47.3789 58.2812C45.5273 58.2812 44.0469 57.7227 42.9375 56.6055C41.8359 55.4805 41.2852 53.9922 41.2852 52.1406C41.2852 50.125 41.8594 48.5508 43.0078 47.418C44.1641 46.2852 45.7188 45.7188 47.6719 45.7188C49.5469 45.7188 51.0078 46.2695 52.0547 47.3711C53.1016 48.4727 53.625 50 53.625 51.9531C53.625 53.8672 53.0586 55.4023 51.9258 56.5586C50.8008 57.707 49.2852 58.2812 47.3789 58.2812ZM47.5078 47.8867C46.4453 47.8867 45.6055 48.2578 44.9883 49C44.3711 49.7422 44.0625 50.7656 44.0625 52.0703C44.0625 53.3281 44.375 54.3203 45 55.0469C45.625 55.7656 46.4609 56.125 47.5078 56.125C48.5781 56.125 49.3984 55.7695 49.9688 55.0586C50.5469 54.3477 50.8359 53.3359 50.8359 52.0234C50.8359 50.7031 50.5469 49.6836 49.9688 48.9648C49.3984 48.2461 48.5781 47.8867 47.5078 47.8867ZM66.5625 52.7383H58.3828C58.4141 53.8477 58.7539 54.7031 59.4023 55.3047C60.0586 55.9062 60.957 56.207 62.0977 56.207C63.3789 56.207 64.5547 55.8242 65.625 55.0586V57.25C64.5312 57.9375 63.0859 58.2812 61.2891 58.2812C59.5234 58.2812 58.1367 57.7383 57.1289 56.6523C56.1289 55.5586 55.6289 54.0234 55.6289 52.0469C55.6289 50.1797 56.1797 48.6602 57.2812 47.4883C58.3906 46.3086 59.7656 45.7188 61.4062 45.7188C63.0469 45.7188 64.3164 46.2461 65.2148 47.3008C66.1133 48.3555 66.5625 49.8203 66.5625 51.6953V52.7383ZM63.9375 50.8164C63.9297 49.8398 63.6992 49.082 63.2461 48.543C62.793 47.9961 62.168 47.7227 61.3711 47.7227C60.5898 47.7227 59.9258 48.0078 59.3789 48.5781C58.8398 49.1484 58.5078 49.8945 58.3828 50.8164H63.9375ZM88.9922 51.2031C88.9922 55.9219 86.7578 58.2812 82.2891 58.2812C78.0078 58.2812 75.8672 56.0117 75.8672 51.4727V41.1953H78.6562V50.8984C78.6562 54.1953 79.9375 55.8438 82.5 55.8438C84.9688 55.8438 86.2031 54.2539 86.2031 51.0742V41.1953H88.9922V51.2031ZM95.8008 58H92.9297V41.1953H95.8008V58ZM105.785 57.332V54.4609C106.043 54.6953 106.348 54.9062 106.699 55.0938C107.059 55.2812 107.438 55.4414 107.836 55.5742C108.234 55.6992 108.633 55.7969 109.031 55.8672C109.43 55.9375 109.797 55.9727 110.133 55.9727C111.305 55.9727 112.176 55.7773 112.746 55.3867C113.324 54.9961 113.613 54.4297 113.613 53.6875C113.613 53.2891 113.516 52.9453 113.32 52.6562C113.133 52.3594 112.867 52.0898 112.523 51.8477C112.18 51.6055 111.773 51.375 111.305 51.1562C110.844 50.9297 110.348 50.6953 109.816 50.4531C109.246 50.1484 108.715 49.8398 108.223 49.5273C107.73 49.2148 107.301 48.8711 106.934 48.4961C106.574 48.1133 106.289 47.6836 106.078 47.207C105.875 46.7305 105.773 46.1719 105.773 45.5312C105.773 44.7422 105.949 44.0586 106.301 43.4805C106.66 42.8945 107.129 42.4141 107.707 42.0391C108.293 41.6562 108.957 41.375 109.699 41.1953C110.441 41.0078 111.199 40.9141 111.973 40.9141C113.73 40.9141 115.012 41.1133 115.816 41.5117V44.2656C114.863 43.5781 113.637 43.2344 112.137 43.2344C111.723 43.2344 111.309 43.2734 110.895 43.3516C110.488 43.4297 110.121 43.5586 109.793 43.7383C109.473 43.918 109.211 44.1484 109.008 44.4297C108.805 44.7109 108.703 45.0508 108.703 45.4492C108.703 45.8242 108.781 46.1484 108.938 46.4219C109.094 46.6953 109.32 46.9453 109.617 47.1719C109.922 47.3984 110.289 47.6211 110.719 47.8398C111.156 48.0508 111.66 48.2812 112.23 48.5312C112.816 48.8359 113.367 49.1562 113.883 49.4922C114.406 49.8281 114.863 50.1992 115.254 50.6055C115.652 51.0117 115.965 51.4648 116.191 51.9648C116.426 52.457 116.543 53.0195 116.543 53.6523C116.543 54.5039 116.371 55.2227 116.027 55.8086C115.684 56.3945 115.219 56.8711 114.633 57.2383C114.055 57.6055 113.387 57.8711 112.629 58.0352C111.871 58.1992 111.07 58.2812 110.227 58.2812C109.945 58.2812 109.598 58.2578 109.184 58.2109C108.777 58.1719 108.359 58.1094 107.93 58.0234C107.5 57.9453 107.094 57.8477 106.711 57.7305C106.328 57.6133 106.02 57.4805 105.785 57.332ZM129.492 52.7383H121.312C121.344 53.8477 121.684 54.7031 122.332 55.3047C122.988 55.9062 123.887 56.207 125.027 56.207C126.309 56.207 127.484 55.8242 128.555 55.0586V57.25C127.461 57.9375 126.016 58.2812 124.219 58.2812C122.453 58.2812 121.066 57.7383 120.059 56.6523C119.059 55.5586 118.559 54.0234 118.559 52.0469C118.559 50.1797 119.109 48.6602 120.211 47.4883C121.32 46.3086 122.695 45.7188 124.336 45.7188C125.977 45.7188 127.246 46.2461 128.145 47.3008C129.043 48.3555 129.492 49.8203 129.492 51.6953V52.7383ZM126.867 50.8164C126.859 49.8398 126.629 49.082 126.176 48.543C125.723 47.9961 125.098 47.7227 124.301 47.7227C123.52 47.7227 122.855 48.0078 122.309 48.5781C121.77 49.1484 121.438 49.8945 121.312 50.8164H126.867ZM150.023 58H147.305V51.4609C147.305 50.2031 147.125 49.293 146.766 48.7305C146.414 48.168 145.816 47.8867 144.973 47.8867C144.262 47.8867 143.656 48.2422 143.156 48.9531C142.664 49.6641 142.418 50.5156 142.418 51.5078V58H139.688V51.2383C139.688 49.0039 138.898 47.8867 137.32 47.8867C136.586 47.8867 135.98 48.2227 135.504 48.8945C135.035 49.5664 134.801 50.4375 134.801 51.5078V58H132.082V46H134.801V47.8984H134.848C135.715 46.4453 136.977 45.7188 138.633 45.7188C139.461 45.7188 140.184 45.9492 140.801 46.4102C141.426 46.8633 141.852 47.4609 142.078 48.2031C142.969 46.5469 144.297 45.7188 146.062 45.7188C148.703 45.7188 150.023 47.3477 150.023 50.6055V58ZM154.711 43.4805C154.266 43.4805 153.883 43.3359 153.562 43.0469C153.25 42.7578 153.094 42.3906 153.094 41.9453C153.094 41.5 153.25 41.1289 153.562 40.832C153.883 40.5352 154.266 40.3867 154.711 40.3867C155.172 40.3867 155.562 40.5352 155.883 40.832C156.203 41.1289 156.363 41.5 156.363 41.9453C156.363 42.3672 156.203 42.7305 155.883 43.0352C155.562 43.332 155.172 43.4805 154.711 43.4805ZM156.059 58H153.34V46H156.059V58ZM162.387 56.2656H162.34V58H159.621V40.2344H162.34V48.1094H162.387C163.316 46.5156 164.676 45.7188 166.465 45.7188C167.98 45.7188 169.164 46.2578 170.016 47.3359C170.875 48.4062 171.305 49.8438 171.305 51.6484C171.305 53.6562 170.824 55.2656 169.863 56.4766C168.902 57.6797 167.59 58.2812 165.926 58.2812C164.363 58.2812 163.184 57.6094 162.387 56.2656ZM162.316 51.4961V52.9844C162.316 53.8594 162.594 54.6016 163.148 55.2109C163.711 55.8203 164.422 56.125 165.281 56.125C166.289 56.125 167.078 55.7344 167.648 54.9531C168.227 54.1641 168.516 53.0664 168.516 51.6602C168.516 50.4805 168.246 49.5586 167.707 48.8945C167.176 48.2227 166.453 47.8867 165.539 47.8867C164.57 47.8867 163.789 48.2305 163.195 48.918C162.609 49.6055 162.316 50.4648 162.316 51.4961ZM179.402 58.2812C177.551 58.2812 176.07 57.7227 174.961 56.6055C173.859 55.4805 173.309 53.9922 173.309 52.1406C173.309 50.125 173.883 48.5508 175.031 47.418C176.188 46.2852 177.742 45.7188 179.695 45.7188C181.57 45.7188 183.031 46.2695 184.078 47.3711C185.125 48.4727 185.648 50 185.648 51.9531C185.648 53.8672 185.082 55.4023 183.949 56.5586C182.824 57.707 181.309 58.2812 179.402 58.2812ZM179.531 47.8867C178.469 47.8867 177.629 48.2578 177.012 49C176.395 49.7422 176.086 50.7656 176.086 52.0703C176.086 53.3281 176.398 54.3203 177.023 55.0469C177.648 55.7656 178.484 56.125 179.531 56.125C180.602 56.125 181.422 55.7695 181.992 55.0586C182.57 54.3477 182.859 53.3359 182.859 52.0234C182.859 50.7031 182.57 49.6836 181.992 48.9648C181.422 48.2461 180.602 47.8867 179.531 47.8867ZM191.156 58H188.426V40.2344H191.156V58ZM205.617 58H202.898V55.9609H202.852C201.977 57.5078 200.629 58.2812 198.809 58.2812C197.332 58.2812 196.148 57.7461 195.258 56.6758C194.375 55.5977 193.934 54.1328 193.934 52.2812C193.934 50.2969 194.422 48.707 195.398 47.5117C196.383 46.3164 197.691 45.7188 199.324 45.7188C200.941 45.7188 202.117 46.3672 202.852 47.6641H202.898V40.2344H205.617V58ZM202.934 52.5156V50.9453C202.934 50.0938 202.656 49.3711 202.102 48.7773C201.547 48.1836 200.84 47.8867 199.98 47.8867C198.965 47.8867 198.164 48.2656 197.578 49.0234C197 49.7812 196.711 50.832 196.711 52.1758C196.711 53.3945 196.988 54.3594 197.543 55.0703C198.105 55.7734 198.859 56.125 199.805 56.125C200.734 56.125 201.488 55.7852 202.066 55.1055C202.645 54.418 202.934 53.5547 202.934 52.5156Z" fill="black"/>
<path d="M1.62891 121.402V120.078C2.83203 120.844 4.05078 121.227 5.28516 121.227C6.59766 121.227 7.59375 120.957 8.27344 120.418C8.95312 119.871 9.29297 119.109 9.29297 118.133C9.29297 117.273 9.0625 116.59 8.60156 116.082C8.14844 115.566 7.16016 114.867 5.63672 113.984C3.93359 112.992 2.85547 112.164 2.40234 111.5C1.94922 110.828 1.72266 110.055 1.72266 109.18C1.72266 107.992 2.18359 106.984 3.10547 106.156C4.02734 105.328 5.25781 104.914 6.79688 104.914C7.79688 104.914 8.79688 105.082 9.79688 105.418V106.637C8.8125 106.191 7.76172 105.969 6.64453 105.969C5.50391 105.969 4.59766 106.258 3.92578 106.836C3.26172 107.414 2.92969 108.148 2.92969 109.039C2.92969 109.898 3.15625 110.582 3.60938 111.09C4.07031 111.598 5.05859 112.289 6.57422 113.164C8.14453 114.055 9.1875 114.848 9.70312 115.543C10.2266 116.23 10.4883 117.023 10.4883 117.922C10.4883 119.211 10.0391 120.262 9.14062 121.074C8.25 121.887 6.98828 122.293 5.35547 122.293C4.77734 122.293 4.10938 122.203 3.35156 122.023C2.60156 121.844 2.02734 121.637 1.62891 121.402ZM14.1094 116.047C14.1094 117.695 14.4883 118.984 15.2461 119.914C16.0117 120.844 17.0586 121.309 18.3867 121.309C19.7305 121.309 21.043 120.812 22.3242 119.82V120.969C21.082 121.852 19.6953 122.293 18.1641 122.293C16.6172 122.293 15.3672 121.738 14.4141 120.629C13.4609 119.52 12.9844 117.953 12.9844 115.93C12.9844 114.18 13.4805 112.707 14.4727 111.512C15.4727 110.309 16.7695 109.707 18.3633 109.707C19.8555 109.707 21 110.23 21.7969 111.277C22.5938 112.324 22.9922 113.754 22.9922 115.566V116.047H14.1094ZM21.8672 115.062C21.8203 113.68 21.4883 112.605 20.8711 111.84C20.2539 111.074 19.4023 110.691 18.3164 110.691C17.1914 110.691 16.2578 111.07 15.5156 111.828C14.7812 112.578 14.3281 113.656 14.1562 115.062H21.8672ZM35.5664 121.109C35.5664 123.367 35.0742 125.02 34.0898 126.066C33.1055 127.113 31.5742 127.637 29.4961 127.637C28.3398 127.637 27.1484 127.332 25.9219 126.723V125.598C27.1875 126.301 28.3867 126.652 29.5195 126.652C32.832 126.652 34.4883 124.902 34.4883 121.402V119.844H34.4414C33.4961 121.477 32.0547 122.293 30.1172 122.293C28.6406 122.293 27.4336 121.758 26.4961 120.688C25.5664 119.617 25.1016 118.125 25.1016 116.211C25.1016 114.297 25.6055 112.734 26.6133 111.523C27.6211 110.312 28.9492 109.707 30.5977 109.707C32.3633 109.707 33.6445 110.438 34.4414 111.898H34.4883V110H35.5664V121.109ZM34.4883 114.605C34.4883 113.543 34.1289 112.625 33.4102 111.852C32.6992 111.078 31.7695 110.691 30.6211 110.691C29.3008 110.691 28.2383 111.188 27.4336 112.18C26.6289 113.172 26.2266 114.484 26.2266 116.117C26.2266 117.758 26.5938 119.035 27.3281 119.949C28.0703 120.855 29.0469 121.309 30.2578 121.309C31.5469 121.309 32.5742 120.891 33.3398 120.055C34.1055 119.219 34.4883 118.195 34.4883 116.984V114.605ZM44.2383 122.293C42.4883 122.293 41.1016 121.719 40.0781 120.57C39.0625 119.414 38.5547 117.914 38.5547 116.07C38.5547 114.078 39.0859 112.52 40.1484 111.395C41.2188 110.27 42.625 109.707 44.3672 109.707C46.0781 109.707 47.4297 110.266 48.4219 111.383C49.4141 112.5 49.9102 114.047 49.9102 116.023C49.9102 117.891 49.4023 119.402 48.3867 120.559C47.3789 121.715 45.9961 122.293 44.2383 122.293ZM44.3203 110.691C42.9062 110.691 41.7773 111.168 40.9336 112.121C40.0977 113.074 39.6797 114.398 39.6797 116.094C39.6797 117.664 40.0898 118.926 40.9102 119.879C41.7305 120.832 42.8516 121.309 44.2734 121.309C45.7188 121.309 46.832 120.84 47.6133 119.902C48.3945 118.965 48.7852 117.664 48.7852 116C48.7852 114.289 48.3945 112.977 47.6133 112.062C46.8398 111.148 45.7422 110.691 44.3203 110.691ZM53.1562 116.047C53.1562 117.695 53.5352 118.984 54.293 119.914C55.0586 120.844 56.1055 121.309 57.4336 121.309C58.7773 121.309 60.0898 120.812 61.3711 119.82V120.969C60.1289 121.852 58.7422 122.293 57.2109 122.293C55.6641 122.293 54.4141 121.738 53.4609 120.629C52.5078 119.52 52.0312 117.953 52.0312 115.93C52.0312 114.18 52.5273 112.707 53.5195 111.512C54.5195 110.309 55.8164 109.707 57.4102 109.707C58.9023 109.707 60.0469 110.23 60.8438 111.277C61.6406 112.324 62.0391 113.754 62.0391 115.566V116.047H53.1562ZM60.9141 115.062C60.8672 113.68 60.5352 112.605 59.918 111.84C59.3008 111.074 58.4492 110.691 57.3633 110.691C56.2383 110.691 55.3047 111.07 54.5625 111.828C53.8281 112.578 53.375 113.656 53.2031 115.062H60.9141ZM83.2852 115.285C83.2852 119.957 81.293 122.293 77.3086 122.293C73.5195 122.293 71.625 120.043 71.625 115.543V105.195H72.7734V115.379C72.7734 119.277 74.3594 121.227 77.5312 121.227C80.6016 121.227 82.1367 119.332 82.1367 115.543V105.195H83.2852V115.285ZM87.3984 122V105.195H88.5586V122H87.3984ZM99.4688 122V105.195H100.629V120.945H107.367V122H99.4688ZM110.754 106.977C110.52 106.977 110.312 106.891 110.133 106.719C109.953 106.547 109.863 106.328 109.863 106.062C109.863 105.805 109.953 105.598 110.133 105.441C110.32 105.277 110.527 105.195 110.754 105.195C110.996 105.195 111.207 105.273 111.387 105.43C111.574 105.586 111.668 105.797 111.668 106.062C111.668 106.312 111.578 106.527 111.398 106.707C111.219 106.887 111.004 106.977 110.754 106.977ZM110.227 122V110H111.305V122H110.227ZM124.746 121.109C124.746 123.367 124.254 125.02 123.27 126.066C122.285 127.113 120.754 127.637 118.676 127.637C117.52 127.637 116.328 127.332 115.102 126.723V125.598C116.367 126.301 117.566 126.652 118.699 126.652C122.012 126.652 123.668 124.902 123.668 121.402V119.844H123.621C122.676 121.477 121.234 122.293 119.297 122.293C117.82 122.293 116.613 121.758 115.676 120.688C114.746 119.617 114.281 118.125 114.281 116.211C114.281 114.297 114.785 112.734 115.793 111.523C116.801 110.312 118.129 109.707 119.777 109.707C121.543 109.707 122.824 110.438 123.621 111.898H123.668V110H124.746V121.109ZM123.668 114.605C123.668 113.543 123.309 112.625 122.59 111.852C121.879 111.078 120.949 110.691 119.801 110.691C118.48 110.691 117.418 111.188 116.613 112.18C115.809 113.172 115.406 114.484 115.406 116.117C115.406 117.758 115.773 119.035 116.508 119.949C117.25 120.855 118.227 121.309 119.438 121.309C120.727 121.309 121.754 120.891 122.52 120.055C123.285 119.219 123.668 118.195 123.668 116.984V114.605ZM136.758 122V114.805C136.758 113.383 136.5 112.344 135.984 111.688C135.469 111.023 134.664 110.691 133.57 110.691C132.539 110.691 131.633 111.094 130.852 111.898C130.07 112.703 129.68 113.855 129.68 115.355V122H128.602V104.234H129.68V112.156H129.727C130.672 110.523 132.047 109.707 133.852 109.707C135.148 109.707 136.137 110.125 136.816 110.961C137.496 111.797 137.836 112.996 137.836 114.559V122H136.758ZM146.191 121.836C145.629 122.102 145.102 122.234 144.609 122.234C142.836 122.234 141.949 121.172 141.949 119.047V110.984H139.793V110H141.949V106.883C142.121 106.82 142.301 106.758 142.488 106.695C142.676 106.641 142.855 106.582 143.027 106.52V110H146.191V110.984H143.027V118.906C143.027 119.734 143.156 120.336 143.414 120.711C143.68 121.078 144.125 121.262 144.75 121.262C145.195 121.262 145.676 121.117 146.191 120.828V121.836Z" fill="black"/>
<path d="M1.41797 89.3203V87C1.68359 87.2344 2 87.4453 2.36719 87.6328C2.74219 87.8203 3.13281 87.9805 3.53906 88.1133C3.95312 88.2383 4.36719 88.3359 4.78125 88.4062C5.19531 88.4766 5.57812 88.5117 5.92969 88.5117C7.14062 88.5117 8.04297 88.2891 8.63672 87.8438C9.23828 87.3906 9.53906 86.7422 9.53906 85.8984C9.53906 85.4453 9.4375 85.0508 9.23438 84.7148C9.03906 84.3789 8.76562 84.0742 8.41406 83.8008C8.0625 83.5195 7.64453 83.2539 7.16016 83.0039C6.68359 82.7461 6.16797 82.4766 5.61328 82.1953C5.02734 81.8984 4.48047 81.5977 3.97266 81.293C3.46484 80.9883 3.02344 80.6523 2.64844 80.2852C2.27344 79.918 1.97656 79.5039 1.75781 79.043C1.54688 78.5742 1.44141 78.0273 1.44141 77.4023C1.44141 76.6367 1.60938 75.9727 1.94531 75.4102C2.28125 74.8398 2.72266 74.3711 3.26953 74.0039C3.81641 73.6367 4.4375 73.3633 5.13281 73.1836C5.83594 73.0039 6.55078 72.9141 7.27734 72.9141C8.93359 72.9141 10.1406 73.1133 10.8984 73.5117V75.7266C9.90625 75.0391 8.63281 74.6953 7.07812 74.6953C6.64844 74.6953 6.21875 74.7422 5.78906 74.8359C5.35938 74.9219 4.97656 75.0664 4.64062 75.2695C4.30469 75.4727 4.03125 75.7344 3.82031 76.0547C3.60938 76.375 3.50391 76.7656 3.50391 77.2266C3.50391 77.6562 3.58203 78.0273 3.73828 78.3398C3.90234 78.6523 4.14062 78.9375 4.45312 79.1953C4.76562 79.4531 5.14453 79.7031 5.58984 79.9453C6.04297 80.1875 6.5625 80.4531 7.14844 80.7422C7.75 81.0391 8.32031 81.3516 8.85938 81.6797C9.39844 82.0078 9.87109 82.3711 10.2773 82.7695C10.6836 83.168 11.0039 83.6094 11.2383 84.0938C11.4805 84.5781 11.6016 85.1328 11.6016 85.7578C11.6016 86.5859 11.4375 87.2891 11.1094 87.8672C10.7891 88.4375 10.3516 88.9023 9.79688 89.2617C9.25 89.6211 8.61719 89.8789 7.89844 90.0352C7.17969 90.1992 6.42188 90.2812 5.625 90.2812C5.35938 90.2812 5.03125 90.2578 4.64062 90.2109C4.25 90.1719 3.85156 90.1094 3.44531 90.0234C3.03906 89.9453 2.65234 89.8477 2.28516 89.7305C1.92578 89.6055 1.63672 89.4688 1.41797 89.3203ZM24.3398 84.4805H15.8672C15.8984 85.8164 16.2578 86.8477 16.9453 87.5742C17.6328 88.3008 18.5781 88.6641 19.7812 88.6641C21.1328 88.6641 22.375 88.2188 23.5078 87.3281V89.1328C22.4531 89.8984 21.0586 90.2812 19.3242 90.2812C17.6289 90.2812 16.2969 89.7383 15.3281 88.6523C14.3594 87.5586 13.875 86.0234 13.875 84.0469C13.875 82.1797 14.4023 80.6602 15.457 79.4883C16.5195 78.3086 17.8359 77.7188 19.4062 77.7188C20.9766 77.7188 22.1914 78.2266 23.0508 79.2422C23.9102 80.2578 24.3398 81.668 24.3398 83.4727V84.4805ZM22.3711 82.8516C22.3633 81.7422 22.0938 80.8789 21.5625 80.2617C21.0391 79.6445 20.3086 79.3359 19.3711 79.3359C18.4648 79.3359 17.6953 79.6602 17.0625 80.3086C16.4297 80.957 16.0391 81.8047 15.8906 82.8516H22.3711ZM37.5 89.0391C37.5 93.4453 35.3906 95.6484 31.1719 95.6484C29.6875 95.6484 28.3906 95.3672 27.2812 94.8047V92.8828C28.6328 93.6328 29.9219 94.0078 31.1484 94.0078C34.1016 94.0078 35.5781 92.4375 35.5781 89.2969V87.9844H35.5312C34.6172 89.5156 33.2422 90.2812 31.4062 90.2812C29.9141 90.2812 28.7109 89.75 27.7969 88.6875C26.8906 87.6172 26.4375 86.1836 26.4375 84.3867C26.4375 82.3477 26.9258 80.7266 27.9023 79.5234C28.8867 78.3203 30.2305 77.7188 31.9336 77.7188C33.5508 77.7188 34.75 78.3672 35.5312 79.6641H35.5781V78H37.5V89.0391ZM35.5781 84.5742V82.8047C35.5781 81.8516 35.2539 81.0352 34.6055 80.3555C33.9648 79.6758 33.1641 79.3359 32.2031 79.3359C31.0156 79.3359 30.0859 79.7695 29.4141 80.6367C28.7422 81.4961 28.4062 82.7031 28.4062 84.2578C28.4062 85.5938 28.7266 86.6641 29.3672 87.4688C30.0156 88.2656 30.8711 88.6641 31.9336 88.6641C33.0117 88.6641 33.8867 88.2812 34.5586 87.5156C35.2383 86.75 35.5781 85.7695 35.5781 84.5742ZM46.4062 90.2812C44.6328 90.2812 43.2148 89.7227 42.1523 88.6055C41.0977 87.4805 40.5703 85.9922 40.5703 84.1406C40.5703 82.125 41.1211 80.5508 42.2227 79.418C43.3242 78.2852 44.8125 77.7188 46.6875 77.7188C48.4766 77.7188 49.8711 78.2695 50.8711 79.3711C51.8789 80.4727 52.3828 82 52.3828 83.9531C52.3828 85.8672 51.8398 87.4023 50.7539 88.5586C49.6758 89.707 48.2266 90.2812 46.4062 90.2812ZM46.5469 79.3359C45.3125 79.3359 44.3359 79.7578 43.6172 80.6016C42.8984 81.4375 42.5391 82.5938 42.5391 84.0703C42.5391 85.4922 42.9023 86.6133 43.6289 87.4336C44.3555 88.2539 45.3281 88.6641 46.5469 88.6641C47.7891 88.6641 48.7422 88.2617 49.4062 87.457C50.0781 86.6523 50.4141 85.5078 50.4141 84.0234C50.4141 82.5234 50.0781 81.3672 49.4062 80.5547C48.7422 79.7422 47.7891 79.3359 46.5469 79.3359ZM65.0977 84.4805H56.625C56.6562 85.8164 57.0156 86.8477 57.7031 87.5742C58.3906 88.3008 59.3359 88.6641 60.5391 88.6641C61.8906 88.6641 63.1328 88.2188 64.2656 87.3281V89.1328C63.2109 89.8984 61.8164 90.2812 60.082 90.2812C58.3867 90.2812 57.0547 89.7383 56.0859 88.6523C55.1172 87.5586 54.6328 86.0234 54.6328 84.0469C54.6328 82.1797 55.1602 80.6602 56.2148 79.4883C57.2773 78.3086 58.5938 77.7188 60.1641 77.7188C61.7344 77.7188 62.9492 78.2266 63.8086 79.2422C64.668 80.2578 65.0977 81.668 65.0977 83.4727V84.4805ZM63.1289 82.8516C63.1211 81.7422 62.8516 80.8789 62.3203 80.2617C61.7969 79.6445 61.0664 79.3359 60.1289 79.3359C59.2227 79.3359 58.4531 79.6602 57.8203 80.3086C57.1875 80.957 56.7969 81.8047 56.6484 82.8516H63.1289ZM87.1523 83.2031C87.1523 87.9219 85.0234 90.2812 80.7656 90.2812C76.6875 90.2812 74.6484 88.0117 74.6484 83.4727V73.1953H76.6172V83.3438C76.6172 86.7891 78.0703 88.5117 80.9766 88.5117C83.7812 88.5117 85.1836 86.8477 85.1836 83.5195V73.1953H87.1523V83.2031ZM93.3281 90H91.3594V73.1953H93.3281V90ZM116.391 90H114.047L111.234 85.2891C110.977 84.8516 110.727 84.4805 110.484 84.1758C110.242 83.8633 109.992 83.6094 109.734 83.4141C109.484 83.2188 109.211 83.0781 108.914 82.9922C108.625 82.8984 108.297 82.8516 107.93 82.8516H106.312V90H104.344V73.1953H109.359C110.094 73.1953 110.77 73.2891 111.387 73.4766C112.012 73.6562 112.551 73.9336 113.004 74.3086C113.465 74.6836 113.824 75.1523 114.082 75.7148C114.34 76.2695 114.469 76.9219 114.469 77.6719C114.469 78.2578 114.379 78.7969 114.199 79.2891C114.027 79.7734 113.777 80.207 113.449 80.5898C113.129 80.9727 112.738 81.3008 112.277 81.5742C111.824 81.8398 111.312 82.0469 110.742 82.1953V82.2422C111.023 82.3672 111.266 82.5117 111.469 82.6758C111.68 82.832 111.879 83.0195 112.066 83.2383C112.254 83.457 112.438 83.707 112.617 83.9883C112.805 84.2617 113.012 84.582 113.238 84.9492L116.391 90ZM106.312 74.9766V81.0703H108.984C109.477 81.0703 109.93 80.9961 110.344 80.8477C110.766 80.6992 111.129 80.4883 111.434 80.2148C111.738 79.9336 111.977 79.5938 112.148 79.1953C112.32 78.7891 112.406 78.3359 112.406 77.8359C112.406 76.9375 112.113 76.2383 111.527 75.7383C110.949 75.2305 110.109 74.9766 109.008 74.9766H106.312ZM127.395 84.4805H118.922C118.953 85.8164 119.312 86.8477 120 87.5742C120.688 88.3008 121.633 88.6641 122.836 88.6641C124.188 88.6641 125.43 88.2188 126.562 87.3281V89.1328C125.508 89.8984 124.113 90.2812 122.379 90.2812C120.684 90.2812 119.352 89.7383 118.383 88.6523C117.414 87.5586 116.93 86.0234 116.93 84.0469C116.93 82.1797 117.457 80.6602 118.512 79.4883C119.574 78.3086 120.891 77.7188 122.461 77.7188C124.031 77.7188 125.246 78.2266 126.105 79.2422C126.965 80.2578 127.395 81.668 127.395 83.4727V84.4805ZM125.426 82.8516C125.418 81.7422 125.148 80.8789 124.617 80.2617C124.094 79.6445 123.363 79.3359 122.426 79.3359C121.52 79.3359 120.75 79.6602 120.117 80.3086C119.484 80.957 119.094 81.8047 118.945 82.8516H125.426ZM140.555 89.0391C140.555 93.4453 138.445 95.6484 134.227 95.6484C132.742 95.6484 131.445 95.3672 130.336 94.8047V92.8828C131.688 93.6328 132.977 94.0078 134.203 94.0078C137.156 94.0078 138.633 92.4375 138.633 89.2969V87.9844H138.586C137.672 89.5156 136.297 90.2812 134.461 90.2812C132.969 90.2812 131.766 89.75 130.852 88.6875C129.945 87.6172 129.492 86.1836 129.492 84.3867C129.492 82.3477 129.98 80.7266 130.957 79.5234C131.941 78.3203 133.285 77.7188 134.988 77.7188C136.605 77.7188 137.805 78.3672 138.586 79.6641H138.633V78H140.555V89.0391ZM138.633 84.5742V82.8047C138.633 81.8516 138.309 81.0352 137.66 80.3555C137.02 79.6758 136.219 79.3359 135.258 79.3359C134.07 79.3359 133.141 79.7695 132.469 80.6367C131.797 81.4961 131.461 82.7031 131.461 84.2578C131.461 85.5938 131.781 86.6641 132.422 87.4688C133.07 88.2656 133.926 88.6641 134.988 88.6641C136.066 88.6641 136.941 88.2812 137.613 87.5156C138.293 86.75 138.633 85.7695 138.633 84.5742ZM154.148 90H152.227V88.1016H152.18C151.383 89.5547 150.148 90.2812 148.477 90.2812C145.617 90.2812 144.188 88.5781 144.188 85.1719V78H146.098V84.8672C146.098 87.3984 147.066 88.6641 149.004 88.6641C149.941 88.6641 150.711 88.3203 151.312 87.6328C151.922 86.9375 152.227 86.0312 152.227 84.9141V78H154.148V90ZM159.961 90H158.039V72.2344H159.961V90ZM172.441 90H170.52V88.125H170.473C169.637 89.5625 168.406 90.2812 166.781 90.2812C165.586 90.2812 164.648 89.9648 163.969 89.332C163.297 88.6992 162.961 87.8594 162.961 86.8125C162.961 84.5703 164.281 83.2656 166.922 82.8984L170.52 82.3945C170.52 80.3555 169.695 79.3359 168.047 79.3359C166.602 79.3359 165.297 79.8281 164.133 80.8125V78.8438C165.312 78.0938 166.672 77.7188 168.211 77.7188C171.031 77.7188 172.441 79.2109 172.441 82.1953V90ZM170.52 83.9297L167.625 84.3281C166.734 84.4531 166.062 84.6758 165.609 84.9961C165.156 85.3086 164.93 85.8672 164.93 86.6719C164.93 87.2578 165.137 87.7383 165.551 88.1133C165.973 88.4805 166.531 88.6641 167.227 88.6641C168.18 88.6641 168.965 88.332 169.582 87.668C170.207 86.9961 170.52 86.1484 170.52 85.125V83.9297ZM182.32 79.9453C181.984 79.6875 181.5 79.5586 180.867 79.5586C180.047 79.5586 179.359 79.9453 178.805 80.7188C178.258 81.4922 177.984 82.5469 177.984 83.8828V90H176.062V78H177.984V80.4727H178.031C178.305 79.6289 178.723 78.9727 179.285 78.5039C179.848 78.0273 180.477 77.7891 181.172 77.7891C181.672 77.7891 182.055 77.8438 182.32 77.9531V79.9453Z" fill="black"/>
</svg>
