<svg width="350" height="150" viewBox="0 0 350 150" fill="none" xmlns="http://www.w3.org/2000/svg">
<rect width="350" height="150" fill="white"/>
<path d="M49.1484 36.3555V32.6055C49.8281 33.1758 50.5664 33.6055 51.3633 33.8945C52.1602 34.1758 52.9648 34.3164 53.7773 34.3164C54.2539 34.3164 54.668 34.2734 55.0195 34.1875C55.3789 34.1016 55.6758 33.9844 55.9102 33.8359C56.1523 33.6797 56.332 33.5 56.4492 33.2969C56.5664 33.0859 56.625 32.8594 56.625 32.6172C56.625 32.2891 56.5312 31.9961 56.3438 31.7383C56.1562 31.4805 55.8984 31.2422 55.5703 31.0234C55.25 30.8047 54.8672 30.5938 54.4219 30.3906C53.9766 30.1875 53.4961 29.9805 52.9805 29.7695C51.668 29.2227 50.6875 28.5547 50.0391 27.7656C49.3984 26.9766 49.0781 26.0234 49.0781 24.9062C49.0781 24.0312 49.2539 23.2812 49.6055 22.6562C49.957 22.0234 50.4336 21.5039 51.0352 21.0977C51.6445 20.6914 52.3477 20.3945 53.1445 20.207C53.9414 20.0117 54.7852 19.9141 55.6758 19.9141C56.5508 19.9141 57.3242 19.9688 57.9961 20.0781C58.6758 20.1797 59.3008 20.3398 59.8711 20.5586V24.0625C59.5898 23.8672 59.2812 23.6953 58.9453 23.5469C58.6172 23.3984 58.2773 23.2773 57.9258 23.1836C57.5742 23.082 57.2227 23.0078 56.8711 22.9609C56.5273 22.9141 56.1992 22.8906 55.8867 22.8906C55.457 22.8906 55.0664 22.9336 54.7148 23.0195C54.3633 23.0977 54.0664 23.2109 53.8242 23.3594C53.582 23.5078 53.3945 23.6875 53.2617 23.8984C53.1289 24.1016 53.0625 24.332 53.0625 24.5898C53.0625 24.8711 53.1367 25.125 53.2852 25.3516C53.4336 25.5703 53.6445 25.7812 53.918 25.9844C54.1914 26.1797 54.5234 26.375 54.9141 26.5703C55.3047 26.7578 55.7461 26.9531 56.2383 27.1562C56.9102 27.4375 57.5117 27.7383 58.043 28.0586C58.582 28.3711 59.043 28.7266 59.4258 29.125C59.8086 29.5234 60.1016 29.9805 60.3047 30.4961C60.5078 31.0039 60.6094 31.5977 60.6094 32.2773C60.6094 33.2148 60.4297 34.0039 60.0703 34.6445C59.7188 35.2773 59.2383 35.793 58.6289 36.1914C58.0195 36.582 57.3086 36.8633 56.4961 37.0352C55.6914 37.207 54.8398 37.293 53.9414 37.293C53.0195 37.293 52.1406 37.2148 51.3047 37.0586C50.4766 36.9023 49.7578 36.668 49.1484 36.3555ZM73.793 32.0547H65.9648C66.0898 33.7969 67.1875 34.668 69.2578 34.668C70.5781 34.668 71.7383 34.3555 72.7383 33.7305V36.4023C71.6289 36.9961 70.1875 37.293 68.4141 37.293C66.4766 37.293 64.9727 36.7578 63.9023 35.6875C62.832 34.6094 62.2969 33.1094 62.2969 31.1875C62.2969 29.1953 62.875 27.6172 64.0312 26.4531C65.1875 25.2891 66.6094 24.707 68.2969 24.707C70.0469 24.707 71.3984 25.2266 72.3516 26.2656C73.3125 27.3047 73.793 28.7148 73.793 30.4961V32.0547ZM70.3594 29.7812C70.3594 28.0625 69.6641 27.2031 68.2734 27.2031C67.6797 27.2031 67.1641 27.4492 66.7266 27.9414C66.2969 28.4336 66.0352 29.0469 65.9414 29.7812H70.3594ZM87.7617 35.6289C87.7617 37.8555 87.1172 39.5781 85.8281 40.7969C84.5391 42.0234 82.6719 42.6367 80.2266 42.6367C78.6094 42.6367 77.3281 42.4062 76.3828 41.9453V38.8281C77.6172 39.5469 78.8633 39.9062 80.1211 39.9062C81.3711 39.9062 82.3398 39.5742 83.0273 38.9102C83.7148 38.2539 84.0586 37.3594 84.0586 36.2266V35.2773H84.0117C83.168 36.6211 81.9219 37.293 80.2734 37.293C78.7422 37.293 77.5273 36.7539 76.6289 35.6758C75.7305 34.5977 75.2812 33.1523 75.2812 31.3398C75.2812 29.3086 75.7812 27.6953 76.7812 26.5C77.7812 25.3047 79.0977 24.707 80.7305 24.707C82.1914 24.707 83.2852 25.2695 84.0117 26.3945H84.0586V25H87.7617V35.6289ZM84.1055 31.2344V30.2852C84.1055 29.5273 83.8789 28.8828 83.4258 28.3516C82.9805 27.8125 82.3984 27.543 81.6797 27.543C80.8594 27.543 80.2148 27.8633 79.7461 28.5039C79.2773 29.1445 79.043 30.0469 79.043 31.2109C79.043 32.2109 79.2656 33.0039 79.7109 33.5898C80.1562 34.168 80.7656 34.457 81.5391 34.457C82.3047 34.457 82.9219 34.1641 83.3906 33.5781C83.8672 32.9844 84.1055 32.2031 84.1055 31.2344ZM96.5742 37.293C94.5742 37.293 93 36.7344 91.8516 35.6172C90.7109 34.4922 90.1406 32.9688 90.1406 31.0469C90.1406 29.0625 90.7344 27.5117 91.9219 26.3945C93.1094 25.2695 94.7148 24.707 96.7383 24.707C98.7305 24.707 100.293 25.2695 101.426 26.3945C102.559 27.5117 103.125 28.9922 103.125 30.8359C103.125 32.8281 102.539 34.4023 101.367 35.5586C100.203 36.7148 98.6055 37.293 96.5742 37.293ZM96.668 27.543C95.793 27.543 95.1133 27.8438 94.6289 28.4453C94.1445 29.0469 93.9023 29.8984 93.9023 31C93.9023 33.3047 94.832 34.457 96.6914 34.457C98.4648 34.457 99.3516 33.2734 99.3516 30.9062C99.3516 28.6641 98.457 27.543 96.668 27.543ZM116.309 32.0547H108.48C108.605 33.7969 109.703 34.668 111.773 34.668C113.094 34.668 114.254 34.3555 115.254 33.7305V36.4023C114.145 36.9961 112.703 37.293 110.93 37.293C108.992 37.293 107.488 36.7578 106.418 35.6875C105.348 34.6094 104.812 33.1094 104.812 31.1875C104.812 29.1953 105.391 27.6172 106.547 26.4531C107.703 25.2891 109.125 24.707 110.812 24.707C112.562 24.707 113.914 25.2266 114.867 26.2656C115.828 27.3047 116.309 28.7148 116.309 30.4961V32.0547ZM112.875 29.7812C112.875 28.0625 112.18 27.2031 110.789 27.2031C110.195 27.2031 109.68 27.4492 109.242 27.9414C108.812 28.4336 108.551 29.0469 108.457 29.7812H112.875ZM139.207 29.7227C139.207 34.7695 136.855 37.293 132.152 37.293C127.59 37.293 125.309 34.8281 125.309 29.8984V20.1953H129.105V29.9453C129.105 32.6641 130.168 34.0234 132.293 34.0234C134.379 34.0234 135.422 32.7109 135.422 30.0859V20.1953H139.207V29.7227ZM146.66 37H142.875V20.1953H146.66V37ZM157.125 37V20.1953H163.242C165.117 20.1953 166.559 20.5391 167.566 21.2266C168.574 21.9141 169.078 22.8828 169.078 24.1328C169.078 25.0391 168.77 25.832 168.152 26.5117C167.543 27.1914 166.762 27.6641 165.809 27.9297V27.9766C167.004 28.125 167.957 28.5664 168.668 29.3008C169.387 30.0352 169.746 30.9297 169.746 31.9844C169.746 33.5234 169.195 34.7461 168.094 35.6523C166.992 36.5508 165.488 37 163.582 37H157.125ZM160.91 22.9844V26.9688H162.574C163.355 26.9688 163.969 26.7812 164.414 26.4062C164.867 26.0234 165.094 25.5 165.094 24.8359C165.094 23.6016 164.172 22.9844 162.328 22.9844H160.91ZM160.91 29.7812V34.2109H162.961C163.836 34.2109 164.52 34.0078 165.012 33.6016C165.512 33.1953 165.762 32.6406 165.762 31.9375C165.762 31.2656 165.516 30.7383 165.023 30.3555C164.539 29.9727 163.859 29.7812 162.984 29.7812H160.91ZM177.879 37.293C175.879 37.293 174.305 36.7344 173.156 35.6172C172.016 34.4922 171.445 32.9688 171.445 31.0469C171.445 29.0625 172.039 27.5117 173.227 26.3945C174.414 25.2695 176.02 24.707 178.043 24.707C180.035 24.707 181.598 25.2695 182.73 26.3945C183.863 27.5117 184.43 28.9922 184.43 30.8359C184.43 32.8281 183.844 34.4023 182.672 35.5586C181.508 36.7148 179.91 37.293 177.879 37.293ZM177.973 27.543C177.098 27.543 176.418 27.8438 175.934 28.4453C175.449 29.0469 175.207 29.8984 175.207 31C175.207 33.3047 176.137 34.457 177.996 34.457C179.77 34.457 180.656 33.2734 180.656 30.9062C180.656 28.6641 179.762 27.543 177.973 27.543ZM190.535 37H186.832V19.2344H190.535V37ZM205.395 37H201.691V35.3477H201.645C200.801 36.6445 199.562 37.293 197.93 37.293C196.43 37.293 195.223 36.7656 194.309 35.7109C193.395 34.6484 192.938 33.168 192.938 31.2695C192.938 29.2852 193.441 27.6953 194.449 26.5C195.457 25.3047 196.777 24.707 198.41 24.707C199.957 24.707 201.035 25.2617 201.645 26.3711H201.691V19.2344H205.395V37ZM201.762 31.1641V30.2617C201.762 29.4805 201.535 28.832 201.082 28.3164C200.629 27.8008 200.039 27.543 199.312 27.543C198.492 27.543 197.852 27.8672 197.391 28.5156C196.93 29.1562 196.699 30.0391 196.699 31.1641C196.699 32.2188 196.922 33.0312 197.367 33.6016C197.812 34.1719 198.43 34.457 199.219 34.457C199.969 34.457 200.578 34.1562 201.047 33.5547C201.523 32.9531 201.762 32.1562 201.762 31.1641Z" fill="black"/>
<path d="M49.3008 68.332V65.4609C49.5586 65.6953 49.8633 65.9062 50.2148 66.0938C50.5742 66.2812 50.9531 66.4414 51.3516 66.5742C51.75 66.6992 52.1484 66.7969 52.5469 66.8672C52.9453 66.9375 53.3125 66.9727 53.6484 66.9727C54.8203 66.9727 55.6914 66.7773 56.2617 66.3867C56.8398 65.9961 57.1289 65.4297 57.1289 64.6875C57.1289 64.2891 57.0312 63.9453 56.8359 63.6562C56.6484 63.3594 56.3828 63.0898 56.0391 62.8477C55.6953 62.6055 55.2891 62.375 54.8203 62.1562C54.3594 61.9297 53.8633 61.6953 53.332 61.4531C52.7617 61.1484 52.2305 60.8398 51.7383 60.5273C51.2461 60.2148 50.8164 59.8711 50.4492 59.4961C50.0898 59.1133 49.8047 58.6836 49.5938 58.207C49.3906 57.7305 49.2891 57.1719 49.2891 56.5312C49.2891 55.7422 49.4648 55.0586 49.8164 54.4805C50.1758 53.8945 50.6445 53.4141 51.2227 53.0391C51.8086 52.6562 52.4727 52.375 53.2148 52.1953C53.957 52.0078 54.7148 51.9141 55.4883 51.9141C57.2461 51.9141 58.5273 52.1133 59.332 52.5117V55.2656C58.3789 54.5781 57.1523 54.2344 55.6523 54.2344C55.2383 54.2344 54.8242 54.2734 54.4102 54.3516C54.0039 54.4297 53.6367 54.5586 53.3086 54.7383C52.9883 54.918 52.7266 55.1484 52.5234 55.4297C52.3203 55.7109 52.2188 56.0508 52.2188 56.4492C52.2188 56.8242 52.2969 57.1484 52.4531 57.4219C52.6094 57.6953 52.8359 57.9453 53.1328 58.1719C53.4375 58.3984 53.8047 58.6211 54.2344 58.8398C54.6719 59.0508 55.1758 59.2812 55.7461 59.5312C56.332 59.8359 56.8828 60.1562 57.3984 60.4922C57.9219 60.8281 58.3789 61.1992 58.7695 61.6055C59.168 62.0117 59.4805 62.4648 59.707 62.9648C59.9414 63.457 60.0586 64.0195 60.0586 64.6523C60.0586 65.5039 59.8867 66.2227 59.543 66.8086C59.1992 67.3945 58.7344 67.8711 58.1484 68.2383C57.5703 68.6055 56.9023 68.8711 56.1445 69.0352C55.3867 69.1992 54.5859 69.2812 53.7422 69.2812C53.4609 69.2812 53.1133 69.2578 52.6992 69.2109C52.293 69.1719 51.875 69.1094 51.4453 69.0234C51.0156 68.9453 50.6094 68.8477 50.2266 68.7305C49.8438 68.6133 49.5352 68.4805 49.3008 68.332ZM73.0078 63.7383H64.8281C64.8594 64.8477 65.1992 65.7031 65.8477 66.3047C66.5039 66.9062 67.4023 67.207 68.543 67.207C69.8242 67.207 71 66.8242 72.0703 66.0586V68.25C70.9766 68.9375 69.5312 69.2812 67.7344 69.2812C65.9688 69.2812 64.582 68.7383 63.5742 67.6523C62.5742 66.5586 62.0742 65.0234 62.0742 63.0469C62.0742 61.1797 62.625 59.6602 63.7266 58.4883C64.8359 57.3086 66.2109 56.7188 67.8516 56.7188C69.4922 56.7188 70.7617 57.2461 71.6602 58.3008C72.5586 59.3555 73.0078 60.8203 73.0078 62.6953V63.7383ZM70.3828 61.8164C70.375 60.8398 70.1445 60.082 69.6914 59.543C69.2383 58.9961 68.6133 58.7227 67.8164 58.7227C67.0352 58.7227 66.3711 59.0078 65.8242 59.5781C65.2852 60.1484 64.9531 60.8945 64.8281 61.8164H70.3828ZM86.5195 68.0391C86.5195 72.4453 84.3047 74.6484 79.875 74.6484C78.3125 74.6484 76.9492 74.3867 75.7852 73.8633V71.3789C77.0977 72.1289 78.3438 72.5039 79.5234 72.5039C82.375 72.5039 83.8008 71.1016 83.8008 68.2969V66.9844H83.7539C82.8555 68.5156 81.5039 69.2812 79.6992 69.2812C78.2383 69.2812 77.0586 68.75 76.1602 67.6875C75.2695 66.6172 74.8242 65.1836 74.8242 63.3867C74.8242 61.3477 75.3047 59.7266 76.2656 58.5234C77.2266 57.3203 78.5469 56.7188 80.2266 56.7188C81.8125 56.7188 82.9883 57.3672 83.7539 58.6641H83.8008V57H86.5195V68.0391ZM83.8242 63.5039V61.9453C83.8242 61.1016 83.543 60.3828 82.9805 59.7891C82.4258 59.1875 81.7305 58.8867 80.8945 58.8867C79.8633 58.8867 79.0547 59.2695 78.4688 60.0352C77.8906 60.793 77.6016 61.8555 77.6016 63.2227C77.6016 64.4023 77.8789 65.3477 78.4336 66.0586C78.9961 66.7617 79.7383 67.1133 80.6602 67.1133C81.5977 67.1133 82.3594 66.7773 82.9453 66.1055C83.5312 65.4258 83.8242 64.5586 83.8242 63.5039ZM95.3789 69.2812C93.5273 69.2812 92.0469 68.7227 90.9375 67.6055C89.8359 66.4805 89.2852 64.9922 89.2852 63.1406C89.2852 61.125 89.8594 59.5508 91.0078 58.418C92.1641 57.2852 93.7188 56.7188 95.6719 56.7188C97.5469 56.7188 99.0078 57.2695 100.055 58.3711C101.102 59.4727 101.625 61 101.625 62.9531C101.625 64.8672 101.059 66.4023 99.9258 67.5586C98.8008 68.707 97.2852 69.2812 95.3789 69.2812ZM95.5078 58.8867C94.4453 58.8867 93.6055 59.2578 92.9883 60C92.3711 60.7422 92.0625 61.7656 92.0625 63.0703C92.0625 64.3281 92.375 65.3203 93 66.0469C93.625 66.7656 94.4609 67.125 95.5078 67.125C96.5781 67.125 97.3984 66.7695 97.9688 66.0586C98.5469 65.3477 98.8359 64.3359 98.8359 63.0234C98.8359 61.7031 98.5469 60.6836 97.9688 59.9648C97.3984 59.2461 96.5781 58.8867 95.5078 58.8867ZM114.562 63.7383H106.383C106.414 64.8477 106.754 65.7031 107.402 66.3047C108.059 66.9062 108.957 67.207 110.098 67.207C111.379 67.207 112.555 66.8242 113.625 66.0586V68.25C112.531 68.9375 111.086 69.2812 109.289 69.2812C107.523 69.2812 106.137 68.7383 105.129 67.6523C104.129 66.5586 103.629 65.0234 103.629 63.0469C103.629 61.1797 104.18 59.6602 105.281 58.4883C106.391 57.3086 107.766 56.7188 109.406 56.7188C111.047 56.7188 112.316 57.2461 113.215 58.3008C114.113 59.3555 114.562 60.8203 114.562 62.6953V63.7383ZM111.938 61.8164C111.93 60.8398 111.699 60.082 111.246 59.543C110.793 58.9961 110.168 58.7227 109.371 58.7227C108.59 58.7227 107.926 59.0078 107.379 59.5781C106.84 60.1484 106.508 60.8945 106.383 61.8164H111.938ZM136.992 62.2031C136.992 66.9219 134.758 69.2812 130.289 69.2812C126.008 69.2812 123.867 67.0117 123.867 62.4727V52.1953H126.656V61.8984C126.656 65.1953 127.938 66.8438 130.5 66.8438C132.969 66.8438 134.203 65.2539 134.203 62.0742V52.1953H136.992V62.2031ZM143.801 69H140.93V52.1953H143.801V69ZM153.785 68.332V65.4609C154.043 65.6953 154.348 65.9062 154.699 66.0938C155.059 66.2812 155.438 66.4414 155.836 66.5742C156.234 66.6992 156.633 66.7969 157.031 66.8672C157.43 66.9375 157.797 66.9727 158.133 66.9727C159.305 66.9727 160.176 66.7773 160.746 66.3867C161.324 65.9961 161.613 65.4297 161.613 64.6875C161.613 64.2891 161.516 63.9453 161.32 63.6562C161.133 63.3594 160.867 63.0898 160.523 62.8477C160.18 62.6055 159.773 62.375 159.305 62.1562C158.844 61.9297 158.348 61.6953 157.816 61.4531C157.246 61.1484 156.715 60.8398 156.223 60.5273C155.73 60.2148 155.301 59.8711 154.934 59.4961C154.574 59.1133 154.289 58.6836 154.078 58.207C153.875 57.7305 153.773 57.1719 153.773 56.5312C153.773 55.7422 153.949 55.0586 154.301 54.4805C154.66 53.8945 155.129 53.4141 155.707 53.0391C156.293 52.6562 156.957 52.375 157.699 52.1953C158.441 52.0078 159.199 51.9141 159.973 51.9141C161.73 51.9141 163.012 52.1133 163.816 52.5117V55.2656C162.863 54.5781 161.637 54.2344 160.137 54.2344C159.723 54.2344 159.309 54.2734 158.895 54.3516C158.488 54.4297 158.121 54.5586 157.793 54.7383C157.473 54.918 157.211 55.1484 157.008 55.4297C156.805 55.7109 156.703 56.0508 156.703 56.4492C156.703 56.8242 156.781 57.1484 156.938 57.4219C157.094 57.6953 157.32 57.9453 157.617 58.1719C157.922 58.3984 158.289 58.6211 158.719 58.8398C159.156 59.0508 159.66 59.2812 160.23 59.5312C160.816 59.8359 161.367 60.1562 161.883 60.4922C162.406 60.8281 162.863 61.1992 163.254 61.6055C163.652 62.0117 163.965 62.4648 164.191 62.9648C164.426 63.457 164.543 64.0195 164.543 64.6523C164.543 65.5039 164.371 66.2227 164.027 66.8086C163.684 67.3945 163.219 67.8711 162.633 68.2383C162.055 68.6055 161.387 68.8711 160.629 69.0352C159.871 69.1992 159.07 69.2812 158.227 69.2812C157.945 69.2812 157.598 69.2578 157.184 69.2109C156.777 69.1719 156.359 69.1094 155.93 69.0234C155.5 68.9453 155.094 68.8477 154.711 68.7305C154.328 68.6133 154.02 68.4805 153.785 68.332ZM177.492 63.7383H169.312C169.344 64.8477 169.684 65.7031 170.332 66.3047C170.988 66.9062 171.887 67.207 173.027 67.207C174.309 67.207 175.484 66.8242 176.555 66.0586V68.25C175.461 68.9375 174.016 69.2812 172.219 69.2812C170.453 69.2812 169.066 68.7383 168.059 67.6523C167.059 66.5586 166.559 65.0234 166.559 63.0469C166.559 61.1797 167.109 59.6602 168.211 58.4883C169.32 57.3086 170.695 56.7188 172.336 56.7188C173.977 56.7188 175.246 57.2461 176.145 58.3008C177.043 59.3555 177.492 60.8203 177.492 62.6953V63.7383ZM174.867 61.8164C174.859 60.8398 174.629 60.082 174.176 59.543C173.723 58.9961 173.098 58.7227 172.301 58.7227C171.52 58.7227 170.855 59.0078 170.309 59.5781C169.77 60.1484 169.438 60.8945 169.312 61.8164H174.867ZM198.023 69H195.305V62.4609C195.305 61.2031 195.125 60.293 194.766 59.7305C194.414 59.168 193.816 58.8867 192.973 58.8867C192.262 58.8867 191.656 59.2422 191.156 59.9531C190.664 60.6641 190.418 61.5156 190.418 62.5078V69H187.688V62.2383C187.688 60.0039 186.898 58.8867 185.32 58.8867C184.586 58.8867 183.98 59.2227 183.504 59.8945C183.035 60.5664 182.801 61.4375 182.801 62.5078V69H180.082V57H182.801V58.8984H182.848C183.715 57.4453 184.977 56.7188 186.633 56.7188C187.461 56.7188 188.184 56.9492 188.801 57.4102C189.426 57.8633 189.852 58.4609 190.078 59.2031C190.969 57.5469 192.297 56.7188 194.062 56.7188C196.703 56.7188 198.023 58.3477 198.023 61.6055V69ZM202.711 54.4805C202.266 54.4805 201.883 54.3359 201.562 54.0469C201.25 53.7578 201.094 53.3906 201.094 52.9453C201.094 52.5 201.25 52.1289 201.562 51.832C201.883 51.5352 202.266 51.3867 202.711 51.3867C203.172 51.3867 203.562 51.5352 203.883 51.832C204.203 52.1289 204.363 52.5 204.363 52.9453C204.363 53.3672 204.203 53.7305 203.883 54.0352C203.562 54.332 203.172 54.4805 202.711 54.4805ZM204.059 69H201.34V57H204.059V69ZM210.387 67.2656H210.34V69H207.621V51.2344H210.34V59.1094H210.387C211.316 57.5156 212.676 56.7188 214.465 56.7188C215.98 56.7188 217.164 57.2578 218.016 58.3359C218.875 59.4062 219.305 60.8438 219.305 62.6484C219.305 64.6562 218.824 66.2656 217.863 67.4766C216.902 68.6797 215.59 69.2812 213.926 69.2812C212.363 69.2812 211.184 68.6094 210.387 67.2656ZM210.316 62.4961V63.9844C210.316 64.8594 210.594 65.6016 211.148 66.2109C211.711 66.8203 212.422 67.125 213.281 67.125C214.289 67.125 215.078 66.7344 215.648 65.9531C216.227 65.1641 216.516 64.0664 216.516 62.6602C216.516 61.4805 216.246 60.5586 215.707 59.8945C215.176 59.2227 214.453 58.8867 213.539 58.8867C212.57 58.8867 211.789 59.2305 211.195 59.918C210.609 60.6055 210.316 61.4648 210.316 62.4961ZM227.402 69.2812C225.551 69.2812 224.07 68.7227 222.961 67.6055C221.859 66.4805 221.309 64.9922 221.309 63.1406C221.309 61.125 221.883 59.5508 223.031 58.418C224.188 57.2852 225.742 56.7188 227.695 56.7188C229.57 56.7188 231.031 57.2695 232.078 58.3711C233.125 59.4727 233.648 61 233.648 62.9531C233.648 64.8672 233.082 66.4023 231.949 67.5586C230.824 68.707 229.309 69.2812 227.402 69.2812ZM227.531 58.8867C226.469 58.8867 225.629 59.2578 225.012 60C224.395 60.7422 224.086 61.7656 224.086 63.0703C224.086 64.3281 224.398 65.3203 225.023 66.0469C225.648 66.7656 226.484 67.125 227.531 67.125C228.602 67.125 229.422 66.7695 229.992 66.0586C230.57 65.3477 230.859 64.3359 230.859 63.0234C230.859 61.7031 230.57 60.6836 229.992 59.9648C229.422 59.2461 228.602 58.8867 227.531 58.8867ZM239.156 69H236.426V51.2344H239.156V69ZM253.617 69H250.898V66.9609H250.852C249.977 68.5078 248.629 69.2812 246.809 69.2812C245.332 69.2812 244.148 68.7461 243.258 67.6758C242.375 66.5977 241.934 65.1328 241.934 63.2812C241.934 61.2969 242.422 59.707 243.398 58.5117C244.383 57.3164 245.691 56.7188 247.324 56.7188C248.941 56.7188 250.117 57.3672 250.852 58.6641H250.898V51.2344H253.617V69ZM250.934 63.5156V61.9453C250.934 61.0938 250.656 60.3711 250.102 59.7773C249.547 59.1836 248.84 58.8867 247.98 58.8867C246.965 58.8867 246.164 59.2656 245.578 60.0234C245 60.7812 244.711 61.832 244.711 63.1758C244.711 64.3945 244.988 65.3594 245.543 66.0703C246.105 66.7734 246.859 67.125 247.805 67.125C248.734 67.125 249.488 66.7852 250.066 66.1055C250.645 65.418 250.934 64.5547 250.934 63.5156Z" fill="black"/>
<path d="M49.6289 132.402V131.078C50.832 131.844 52.0508 132.227 53.2852 132.227C54.5977 132.227 55.5938 131.957 56.2734 131.418C56.9531 130.871 57.293 130.109 57.293 129.133C57.293 128.273 57.0625 127.59 56.6016 127.082C56.1484 126.566 55.1602 125.867 53.6367 124.984C51.9336 123.992 50.8555 123.164 50.4023 122.5C49.9492 121.828 49.7227 121.055 49.7227 120.18C49.7227 118.992 50.1836 117.984 51.1055 117.156C52.0273 116.328 53.2578 115.914 54.7969 115.914C55.7969 115.914 56.7969 116.082 57.7969 116.418V117.637C56.8125 117.191 55.7617 116.969 54.6445 116.969C53.5039 116.969 52.5977 117.258 51.9258 117.836C51.2617 118.414 50.9297 119.148 50.9297 120.039C50.9297 120.898 51.1562 121.582 51.6094 122.09C52.0703 122.598 53.0586 123.289 54.5742 124.164C56.1445 125.055 57.1875 125.848 57.7031 126.543C58.2266 127.23 58.4883 128.023 58.4883 128.922C58.4883 130.211 58.0391 131.262 57.1406 132.074C56.25 132.887 54.9883 133.293 53.3555 133.293C52.7773 133.293 52.1094 133.203 51.3516 133.023C50.6016 132.844 50.0273 132.637 49.6289 132.402ZM62.1094 127.047C62.1094 128.695 62.4883 129.984 63.2461 130.914C64.0117 131.844 65.0586 132.309 66.3867 132.309C67.7305 132.309 69.043 131.812 70.3242 130.82V131.969C69.082 132.852 67.6953 133.293 66.1641 133.293C64.6172 133.293 63.3672 132.738 62.4141 131.629C61.4609 130.52 60.9844 128.953 60.9844 126.93C60.9844 125.18 61.4805 123.707 62.4727 122.512C63.4727 121.309 64.7695 120.707 66.3633 120.707C67.8555 120.707 69 121.23 69.7969 122.277C70.5938 123.324 70.9922 124.754 70.9922 126.566V127.047H62.1094ZM69.8672 126.062C69.8203 124.68 69.4883 123.605 68.8711 122.84C68.2539 122.074 67.4023 121.691 66.3164 121.691C65.1914 121.691 64.2578 122.07 63.5156 122.828C62.7812 123.578 62.3281 124.656 62.1562 126.062H69.8672ZM83.5664 132.109C83.5664 134.367 83.0742 136.02 82.0898 137.066C81.1055 138.113 79.5742 138.637 77.4961 138.637C76.3398 138.637 75.1484 138.332 73.9219 137.723V136.598C75.1875 137.301 76.3867 137.652 77.5195 137.652C80.832 137.652 82.4883 135.902 82.4883 132.402V130.844H82.4414C81.4961 132.477 80.0547 133.293 78.1172 133.293C76.6406 133.293 75.4336 132.758 74.4961 131.688C73.5664 130.617 73.1016 129.125 73.1016 127.211C73.1016 125.297 73.6055 123.734 74.6133 122.523C75.6211 121.312 76.9492 120.707 78.5977 120.707C80.3633 120.707 81.6445 121.438 82.4414 122.898H82.4883V121H83.5664V132.109ZM82.4883 125.605C82.4883 124.543 82.1289 123.625 81.4102 122.852C80.6992 122.078 79.7695 121.691 78.6211 121.691C77.3008 121.691 76.2383 122.188 75.4336 123.18C74.6289 124.172 74.2266 125.484 74.2266 127.117C74.2266 128.758 74.5938 130.035 75.3281 130.949C76.0703 131.855 77.0469 132.309 78.2578 132.309C79.5469 132.309 80.5742 131.891 81.3398 131.055C82.1055 130.219 82.4883 129.195 82.4883 127.984V125.605ZM92.2383 133.293C90.4883 133.293 89.1016 132.719 88.0781 131.57C87.0625 130.414 86.5547 128.914 86.5547 127.07C86.5547 125.078 87.0859 123.52 88.1484 122.395C89.2188 121.27 90.625 120.707 92.3672 120.707C94.0781 120.707 95.4297 121.266 96.4219 122.383C97.4141 123.5 97.9102 125.047 97.9102 127.023C97.9102 128.891 97.4023 130.402 96.3867 131.559C95.3789 132.715 93.9961 133.293 92.2383 133.293ZM92.3203 121.691C90.9062 121.691 89.7773 122.168 88.9336 123.121C88.0977 124.074 87.6797 125.398 87.6797 127.094C87.6797 128.664 88.0898 129.926 88.9102 130.879C89.7305 131.832 90.8516 132.309 92.2734 132.309C93.7188 132.309 94.832 131.84 95.6133 130.902C96.3945 129.965 96.7852 128.664 96.7852 127C96.7852 125.289 96.3945 123.977 95.6133 123.062C94.8398 122.148 93.7422 121.691 92.3203 121.691ZM101.156 127.047C101.156 128.695 101.535 129.984 102.293 130.914C103.059 131.844 104.105 132.309 105.434 132.309C106.777 132.309 108.09 131.812 109.371 130.82V131.969C108.129 132.852 106.742 133.293 105.211 133.293C103.664 133.293 102.414 132.738 101.461 131.629C100.508 130.52 100.031 128.953 100.031 126.93C100.031 125.18 100.527 123.707 101.52 122.512C102.52 121.309 103.816 120.707 105.41 120.707C106.902 120.707 108.047 121.23 108.844 122.277C109.641 123.324 110.039 124.754 110.039 126.566V127.047H101.156ZM108.914 126.062C108.867 124.68 108.535 123.605 107.918 122.84C107.301 122.074 106.449 121.691 105.363 121.691C104.238 121.691 103.305 122.07 102.562 122.828C101.828 123.578 101.375 124.656 101.203 126.062H108.914ZM131.285 126.285C131.285 130.957 129.293 133.293 125.309 133.293C121.52 133.293 119.625 131.043 119.625 126.543V116.195H120.773V126.379C120.773 130.277 122.359 132.227 125.531 132.227C128.602 132.227 130.137 130.332 130.137 126.543V116.195H131.285V126.285ZM135.398 133V116.195H136.559V133H135.398ZM147.469 133V116.195H148.629V131.945H155.367V133H147.469ZM158.754 117.977C158.52 117.977 158.312 117.891 158.133 117.719C157.953 117.547 157.863 117.328 157.863 117.062C157.863 116.805 157.953 116.598 158.133 116.441C158.32 116.277 158.527 116.195 158.754 116.195C158.996 116.195 159.207 116.273 159.387 116.43C159.574 116.586 159.668 116.797 159.668 117.062C159.668 117.312 159.578 117.527 159.398 117.707C159.219 117.887 159.004 117.977 158.754 117.977ZM158.227 133V121H159.305V133H158.227ZM172.746 132.109C172.746 134.367 172.254 136.02 171.27 137.066C170.285 138.113 168.754 138.637 166.676 138.637C165.52 138.637 164.328 138.332 163.102 137.723V136.598C164.367 137.301 165.566 137.652 166.699 137.652C170.012 137.652 171.668 135.902 171.668 132.402V130.844H171.621C170.676 132.477 169.234 133.293 167.297 133.293C165.82 133.293 164.613 132.758 163.676 131.688C162.746 130.617 162.281 129.125 162.281 127.211C162.281 125.297 162.785 123.734 163.793 122.523C164.801 121.312 166.129 120.707 167.777 120.707C169.543 120.707 170.824 121.438 171.621 122.898H171.668V121H172.746V132.109ZM171.668 125.605C171.668 124.543 171.309 123.625 170.59 122.852C169.879 122.078 168.949 121.691 167.801 121.691C166.48 121.691 165.418 122.188 164.613 123.18C163.809 124.172 163.406 125.484 163.406 127.117C163.406 128.758 163.773 130.035 164.508 130.949C165.25 131.855 166.227 132.309 167.438 132.309C168.727 132.309 169.754 131.891 170.52 131.055C171.285 130.219 171.668 129.195 171.668 127.984V125.605ZM184.758 133V125.805C184.758 124.383 184.5 123.344 183.984 122.688C183.469 122.023 182.664 121.691 181.57 121.691C180.539 121.691 179.633 122.094 178.852 122.898C178.07 123.703 177.68 124.855 177.68 126.355V133H176.602V115.234H177.68V123.156H177.727C178.672 121.523 180.047 120.707 181.852 120.707C183.148 120.707 184.137 121.125 184.816 121.961C185.496 122.797 185.836 123.996 185.836 125.559V133H184.758ZM194.191 132.836C193.629 133.102 193.102 133.234 192.609 133.234C190.836 133.234 189.949 132.172 189.949 130.047V121.984H187.793V121H189.949V117.883C190.121 117.82 190.301 117.758 190.488 117.695C190.676 117.641 190.855 117.582 191.027 117.52V121H194.191V121.984H191.027V129.906C191.027 130.734 191.156 131.336 191.414 131.711C191.68 132.078 192.125 132.262 192.75 132.262C193.195 132.262 193.676 132.117 194.191 131.828V132.836Z" fill="black"/>
<path d="M49.418 100.32V98C49.6836 98.2344 50 98.4453 50.3672 98.6328C50.7422 98.8203 51.1328 98.9805 51.5391 99.1133C51.9531 99.2383 52.3672 99.3359 52.7812 99.4062C53.1953 99.4766 53.5781 99.5117 53.9297 99.5117C55.1406 99.5117 56.043 99.2891 56.6367 98.8438C57.2383 98.3906 57.5391 97.7422 57.5391 96.8984C57.5391 96.4453 57.4375 96.0508 57.2344 95.7148C57.0391 95.3789 56.7656 95.0742 56.4141 94.8008C56.0625 94.5195 55.6445 94.2539 55.1602 94.0039C54.6836 93.7461 54.168 93.4766 53.6133 93.1953C53.0273 92.8984 52.4805 92.5977 51.9727 92.293C51.4648 91.9883 51.0234 91.6523 50.6484 91.2852C50.2734 90.918 49.9766 90.5039 49.7578 90.043C49.5469 89.5742 49.4414 89.0273 49.4414 88.4023C49.4414 87.6367 49.6094 86.9727 49.9453 86.4102C50.2812 85.8398 50.7227 85.3711 51.2695 85.0039C51.8164 84.6367 52.4375 84.3633 53.1328 84.1836C53.8359 84.0039 54.5508 83.9141 55.2773 83.9141C56.9336 83.9141 58.1406 84.1133 58.8984 84.5117V86.7266C57.9062 86.0391 56.6328 85.6953 55.0781 85.6953C54.6484 85.6953 54.2188 85.7422 53.7891 85.8359C53.3594 85.9219 52.9766 86.0664 52.6406 86.2695C52.3047 86.4727 52.0312 86.7344 51.8203 87.0547C51.6094 87.375 51.5039 87.7656 51.5039 88.2266C51.5039 88.6562 51.582 89.0273 51.7383 89.3398C51.9023 89.6523 52.1406 89.9375 52.4531 90.1953C52.7656 90.4531 53.1445 90.7031 53.5898 90.9453C54.043 91.1875 54.5625 91.4531 55.1484 91.7422C55.75 92.0391 56.3203 92.3516 56.8594 92.6797C57.3984 93.0078 57.8711 93.3711 58.2773 93.7695C58.6836 94.168 59.0039 94.6094 59.2383 95.0938C59.4805 95.5781 59.6016 96.1328 59.6016 96.7578C59.6016 97.5859 59.4375 98.2891 59.1094 98.8672C58.7891 99.4375 58.3516 99.9023 57.7969 100.262C57.25 100.621 56.6172 100.879 55.8984 101.035C55.1797 101.199 54.4219 101.281 53.625 101.281C53.3594 101.281 53.0312 101.258 52.6406 101.211C52.25 101.172 51.8516 101.109 51.4453 101.023C51.0391 100.945 50.6523 100.848 50.2852 100.73C49.9258 100.605 49.6367 100.469 49.418 100.32ZM72.3398 95.4805H63.8672C63.8984 96.8164 64.2578 97.8477 64.9453 98.5742C65.6328 99.3008 66.5781 99.6641 67.7812 99.6641C69.1328 99.6641 70.375 99.2188 71.5078 98.3281V100.133C70.4531 100.898 69.0586 101.281 67.3242 101.281C65.6289 101.281 64.2969 100.738 63.3281 99.6523C62.3594 98.5586 61.875 97.0234 61.875 95.0469C61.875 93.1797 62.4023 91.6602 63.457 90.4883C64.5195 89.3086 65.8359 88.7188 67.4062 88.7188C68.9766 88.7188 70.1914 89.2266 71.0508 90.2422C71.9102 91.2578 72.3398 92.668 72.3398 94.4727V95.4805ZM70.3711 93.8516C70.3633 92.7422 70.0938 91.8789 69.5625 91.2617C69.0391 90.6445 68.3086 90.3359 67.3711 90.3359C66.4648 90.3359 65.6953 90.6602 65.0625 91.3086C64.4297 91.957 64.0391 92.8047 63.8906 93.8516H70.3711ZM85.5 100.039C85.5 104.445 83.3906 106.648 79.1719 106.648C77.6875 106.648 76.3906 106.367 75.2812 105.805V103.883C76.6328 104.633 77.9219 105.008 79.1484 105.008C82.1016 105.008 83.5781 103.438 83.5781 100.297V98.9844H83.5312C82.6172 100.516 81.2422 101.281 79.4062 101.281C77.9141 101.281 76.7109 100.75 75.7969 99.6875C74.8906 98.6172 74.4375 97.1836 74.4375 95.3867C74.4375 93.3477 74.9258 91.7266 75.9023 90.5234C76.8867 89.3203 78.2305 88.7188 79.9336 88.7188C81.5508 88.7188 82.75 89.3672 83.5312 90.6641H83.5781V89H85.5V100.039ZM83.5781 95.5742V93.8047C83.5781 92.8516 83.2539 92.0352 82.6055 91.3555C81.9648 90.6758 81.1641 90.3359 80.2031 90.3359C79.0156 90.3359 78.0859 90.7695 77.4141 91.6367C76.7422 92.4961 76.4062 93.7031 76.4062 95.2578C76.4062 96.5938 76.7266 97.6641 77.3672 98.4688C78.0156 99.2656 78.8711 99.6641 79.9336 99.6641C81.0117 99.6641 81.8867 99.2812 82.5586 98.5156C83.2383 97.75 83.5781 96.7695 83.5781 95.5742ZM94.4062 101.281C92.6328 101.281 91.2148 100.723 90.1523 99.6055C89.0977 98.4805 88.5703 96.9922 88.5703 95.1406C88.5703 93.125 89.1211 91.5508 90.2227 90.418C91.3242 89.2852 92.8125 88.7188 94.6875 88.7188C96.4766 88.7188 97.8711 89.2695 98.8711 90.3711C99.8789 91.4727 100.383 93 100.383 94.9531C100.383 96.8672 99.8398 98.4023 98.7539 99.5586C97.6758 100.707 96.2266 101.281 94.4062 101.281ZM94.5469 90.3359C93.3125 90.3359 92.3359 90.7578 91.6172 91.6016C90.8984 92.4375 90.5391 93.5938 90.5391 95.0703C90.5391 96.4922 90.9023 97.6133 91.6289 98.4336C92.3555 99.2539 93.3281 99.6641 94.5469 99.6641C95.7891 99.6641 96.7422 99.2617 97.4062 98.457C98.0781 97.6523 98.4141 96.5078 98.4141 95.0234C98.4141 93.5234 98.0781 92.3672 97.4062 91.5547C96.7422 90.7422 95.7891 90.3359 94.5469 90.3359ZM113.098 95.4805H104.625C104.656 96.8164 105.016 97.8477 105.703 98.5742C106.391 99.3008 107.336 99.6641 108.539 99.6641C109.891 99.6641 111.133 99.2188 112.266 98.3281V100.133C111.211 100.898 109.816 101.281 108.082 101.281C106.387 101.281 105.055 100.738 104.086 99.6523C103.117 98.5586 102.633 97.0234 102.633 95.0469C102.633 93.1797 103.16 91.6602 104.215 90.4883C105.277 89.3086 106.594 88.7188 108.164 88.7188C109.734 88.7188 110.949 89.2266 111.809 90.2422C112.668 91.2578 113.098 92.668 113.098 94.4727V95.4805ZM111.129 93.8516C111.121 92.7422 110.852 91.8789 110.32 91.2617C109.797 90.6445 109.066 90.3359 108.129 90.3359C107.223 90.3359 106.453 90.6602 105.82 91.3086C105.188 91.957 104.797 92.8047 104.648 93.8516H111.129ZM135.152 94.2031C135.152 98.9219 133.023 101.281 128.766 101.281C124.688 101.281 122.648 99.0117 122.648 94.4727V84.1953H124.617V94.3438C124.617 97.7891 126.07 99.5117 128.977 99.5117C131.781 99.5117 133.184 97.8477 133.184 94.5195V84.1953H135.152V94.2031ZM141.328 101H139.359V84.1953H141.328V101ZM164.391 101H162.047L159.234 96.2891C158.977 95.8516 158.727 95.4805 158.484 95.1758C158.242 94.8633 157.992 94.6094 157.734 94.4141C157.484 94.2188 157.211 94.0781 156.914 93.9922C156.625 93.8984 156.297 93.8516 155.93 93.8516H154.312V101H152.344V84.1953H157.359C158.094 84.1953 158.77 84.2891 159.387 84.4766C160.012 84.6562 160.551 84.9336 161.004 85.3086C161.465 85.6836 161.824 86.1523 162.082 86.7148C162.34 87.2695 162.469 87.9219 162.469 88.6719C162.469 89.2578 162.379 89.7969 162.199 90.2891C162.027 90.7734 161.777 91.207 161.449 91.5898C161.129 91.9727 160.738 92.3008 160.277 92.5742C159.824 92.8398 159.312 93.0469 158.742 93.1953V93.2422C159.023 93.3672 159.266 93.5117 159.469 93.6758C159.68 93.832 159.879 94.0195 160.066 94.2383C160.254 94.457 160.438 94.707 160.617 94.9883C160.805 95.2617 161.012 95.582 161.238 95.9492L164.391 101ZM154.312 85.9766V92.0703H156.984C157.477 92.0703 157.93 91.9961 158.344 91.8477C158.766 91.6992 159.129 91.4883 159.434 91.2148C159.738 90.9336 159.977 90.5938 160.148 90.1953C160.32 89.7891 160.406 89.3359 160.406 88.8359C160.406 87.9375 160.113 87.2383 159.527 86.7383C158.949 86.2305 158.109 85.9766 157.008 85.9766H154.312ZM175.395 95.4805H166.922C166.953 96.8164 167.312 97.8477 168 98.5742C168.688 99.3008 169.633 99.6641 170.836 99.6641C172.188 99.6641 173.43 99.2188 174.562 98.3281V100.133C173.508 100.898 172.113 101.281 170.379 101.281C168.684 101.281 167.352 100.738 166.383 99.6523C165.414 98.5586 164.93 97.0234 164.93 95.0469C164.93 93.1797 165.457 91.6602 166.512 90.4883C167.574 89.3086 168.891 88.7188 170.461 88.7188C172.031 88.7188 173.246 89.2266 174.105 90.2422C174.965 91.2578 175.395 92.668 175.395 94.4727V95.4805ZM173.426 93.8516C173.418 92.7422 173.148 91.8789 172.617 91.2617C172.094 90.6445 171.363 90.3359 170.426 90.3359C169.52 90.3359 168.75 90.6602 168.117 91.3086C167.484 91.957 167.094 92.8047 166.945 93.8516H173.426ZM188.555 100.039C188.555 104.445 186.445 106.648 182.227 106.648C180.742 106.648 179.445 106.367 178.336 105.805V103.883C179.688 104.633 180.977 105.008 182.203 105.008C185.156 105.008 186.633 103.438 186.633 100.297V98.9844H186.586C185.672 100.516 184.297 101.281 182.461 101.281C180.969 101.281 179.766 100.75 178.852 99.6875C177.945 98.6172 177.492 97.1836 177.492 95.3867C177.492 93.3477 177.98 91.7266 178.957 90.5234C179.941 89.3203 181.285 88.7188 182.988 88.7188C184.605 88.7188 185.805 89.3672 186.586 90.6641H186.633V89H188.555V100.039ZM186.633 95.5742V93.8047C186.633 92.8516 186.309 92.0352 185.66 91.3555C185.02 90.6758 184.219 90.3359 183.258 90.3359C182.07 90.3359 181.141 90.7695 180.469 91.6367C179.797 92.4961 179.461 93.7031 179.461 95.2578C179.461 96.5938 179.781 97.6641 180.422 98.4688C181.07 99.2656 181.926 99.6641 182.988 99.6641C184.066 99.6641 184.941 99.2812 185.613 98.5156C186.293 97.75 186.633 96.7695 186.633 95.5742ZM202.148 101H200.227V99.1016H200.18C199.383 100.555 198.148 101.281 196.477 101.281C193.617 101.281 192.188 99.5781 192.188 96.1719V89H194.098V95.8672C194.098 98.3984 195.066 99.6641 197.004 99.6641C197.941 99.6641 198.711 99.3203 199.312 98.6328C199.922 97.9375 200.227 97.0312 200.227 95.9141V89H202.148V101ZM207.961 101H206.039V83.2344H207.961V101ZM220.441 101H218.52V99.125H218.473C217.637 100.562 216.406 101.281 214.781 101.281C213.586 101.281 212.648 100.965 211.969 100.332C211.297 99.6992 210.961 98.8594 210.961 97.8125C210.961 95.5703 212.281 94.2656 214.922 93.8984L218.52 93.3945C218.52 91.3555 217.695 90.3359 216.047 90.3359C214.602 90.3359 213.297 90.8281 212.133 91.8125V89.8438C213.312 89.0938 214.672 88.7188 216.211 88.7188C219.031 88.7188 220.441 90.2109 220.441 93.1953V101ZM218.52 94.9297L215.625 95.3281C214.734 95.4531 214.062 95.6758 213.609 95.9961C213.156 96.3086 212.93 96.8672 212.93 97.6719C212.93 98.2578 213.137 98.7383 213.551 99.1133C213.973 99.4805 214.531 99.6641 215.227 99.6641C216.18 99.6641 216.965 99.332 217.582 98.668C218.207 97.9961 218.52 97.1484 218.52 96.125V94.9297ZM230.32 90.9453C229.984 90.6875 229.5 90.5586 228.867 90.5586C228.047 90.5586 227.359 90.9453 226.805 91.7188C226.258 92.4922 225.984 93.5469 225.984 94.8828V101H224.062V89H225.984V91.4727H226.031C226.305 90.6289 226.723 89.9727 227.285 89.5039C227.848 89.0273 228.477 88.7891 229.172 88.7891C229.672 88.7891 230.055 88.8438 230.32 88.9531V90.9453Z" fill="black"/>
</svg>
