<svg width="350" height="150" viewBox="0 0 350 150" fill="none" xmlns="http://www.w3.org/2000/svg">
<rect width="350" height="150" fill="white"/>
<path d="M48.7617 29.1719C48.8672 32.3594 51.5508 34.293 55.582 34.293C59.8125 34.293 62.4023 32.1953 62.4023 28.8906C62.4023 26.3242 60.8438 24.8828 57.2695 24.168L55.4766 23.8047C53.4844 23.4062 52.6641 22.7617 52.6641 21.7188C52.6641 20.4766 53.8359 19.6562 55.582 19.6562C57.3633 19.6562 58.6172 20.5234 58.7344 21.9648H62.0742C62.0156 18.8594 59.5312 16.7969 55.582 16.7969C51.8203 16.7969 49.125 18.8477 49.125 21.9414C49.125 24.4609 50.7773 26.0781 54.1523 26.7461L55.9336 27.0977C58.0547 27.5312 58.8516 28.1641 58.8516 29.2773C58.8516 30.5195 57.5625 31.4336 55.6758 31.4336C53.7539 31.4336 52.3242 30.5898 52.1016 29.1719H48.7617ZM69.1289 31.7266C67.9688 31.7266 67.1953 31.1406 67.1953 30.2031C67.1953 29.3125 67.9219 28.7383 69.1992 28.6445L71.8477 28.4805V29.3945C71.8477 30.7539 70.6172 31.7266 69.1289 31.7266ZM68.0039 34.1992C69.5742 34.1992 71.1328 33.4141 71.8359 32.0781H71.9062V34H75.2109V25.3633C75.2109 22.832 73.1133 21.168 69.8906 21.168C66.5625 21.168 64.4883 22.8438 64.3594 25.2812H67.4883C67.6523 24.3555 68.4609 23.7227 69.7383 23.7227C71.0273 23.7227 71.8477 24.4023 71.8477 25.5742V26.4062L68.6836 26.5938C65.5547 26.7812 63.7969 28.1055 63.7969 30.3906C63.7969 32.6523 65.6133 34.1992 68.0039 34.1992ZM77.4258 34H80.8477V26.793C80.8477 25.1641 81.8203 24.0391 83.3555 24.0391C84.8906 24.0391 85.6641 24.9766 85.6641 26.6172V34H89.0859V25.9023C89.0859 22.9609 87.5156 21.2031 84.7266 21.2031C82.793 21.2031 81.4688 22.1172 80.8008 23.6758H80.7305V21.4375H77.4258V34ZM99.8438 34V27.3438H106.723V24.543H99.8438V20.0078H107.379V17.0898H96.3047V34H99.8438ZM109.184 34H112.605V26.9805C112.605 25.2109 113.59 24.1797 115.277 24.1797C115.77 24.1797 116.238 24.2617 116.52 24.3789V21.3672C116.285 21.2969 115.945 21.2383 115.547 21.2383C114.07 21.2383 113.004 22.1055 112.559 23.6992H112.488V21.4375H109.184V34ZM122.473 31.7266C121.312 31.7266 120.539 31.1406 120.539 30.2031C120.539 29.3125 121.266 28.7383 122.543 28.6445L125.191 28.4805V29.3945C125.191 30.7539 123.961 31.7266 122.473 31.7266ZM121.348 34.1992C122.918 34.1992 124.477 33.4141 125.18 32.0781H125.25V34H128.555V25.3633C128.555 22.832 126.457 21.168 123.234 21.168C119.906 21.168 117.832 22.8438 117.703 25.2812H120.832C120.996 24.3555 121.805 23.7227 123.082 23.7227C124.371 23.7227 125.191 24.4023 125.191 25.5742V26.4062L122.027 26.5938C118.898 26.7812 117.141 28.1055 117.141 30.3906C117.141 32.6523 118.957 34.1992 121.348 34.1992ZM130.77 34H134.191V26.793C134.191 25.1641 135.164 24.0391 136.699 24.0391C138.234 24.0391 139.008 24.9766 139.008 26.6172V34H142.43V25.9023C142.43 22.9609 140.859 21.2031 138.07 21.2031C136.137 21.2031 134.812 22.1172 134.145 23.6758H134.074V21.4375H130.77V34ZM156.012 26.1133C155.859 23.2656 153.703 21.168 150.305 21.168C146.543 21.168 144.141 23.6758 144.141 27.707C144.141 31.8086 146.543 34.2695 150.328 34.2695C153.633 34.2695 155.848 32.3594 156.023 29.3945H152.836C152.625 30.7656 151.734 31.5859 150.363 31.5859C148.664 31.5859 147.609 30.1797 147.609 27.707C147.609 25.2812 148.664 23.8516 150.352 23.8516C151.758 23.8516 152.637 24.7891 152.836 26.1133H156.012ZM157.734 34H161.156V21.4375H157.734V34ZM159.434 19.7383C160.43 19.7383 161.215 18.9414 161.215 17.9805C161.215 17.0078 160.43 16.2227 159.434 16.2227C158.438 16.2227 157.652 17.0078 157.652 17.9805C157.652 18.9414 158.438 19.7383 159.434 19.7383ZM163.23 25.1289C163.23 27.0156 164.461 28.2344 166.887 28.75L169.031 29.1953C170.262 29.4766 170.695 29.8516 170.695 30.5195C170.695 31.3398 169.898 31.8672 168.609 31.8672C167.25 31.8672 166.465 31.2812 166.254 30.1797H162.914C163.137 32.6523 165.141 34.2695 168.609 34.2695C171.844 34.2695 174.105 32.6406 174.105 30.168C174.105 28.3281 173.027 27.2969 170.402 26.7461L168.258 26.2891C166.992 26.0195 166.523 25.5859 166.523 24.9414C166.523 24.1094 167.309 23.5703 168.492 23.5703C169.758 23.5703 170.52 24.2617 170.625 25.2812H173.777C173.707 22.8203 171.715 21.168 168.492 21.168C165.293 21.168 163.23 22.7383 163.23 25.1289ZM187.207 26.1133C187.055 23.2656 184.898 21.168 181.5 21.168C177.738 21.168 175.336 23.6758 175.336 27.707C175.336 31.8086 177.738 34.2695 181.523 34.2695C184.828 34.2695 187.043 32.3594 187.219 29.3945H184.031C183.82 30.7656 182.93 31.5859 181.559 31.5859C179.859 31.5859 178.805 30.1797 178.805 27.707C178.805 25.2812 179.859 23.8516 181.547 23.8516C182.953 23.8516 183.832 24.7891 184.031 26.1133H187.207ZM194.637 34.2695C198.434 34.2695 200.859 31.8438 200.859 27.707C200.859 23.6289 198.398 21.168 194.637 21.168C190.875 21.168 188.414 23.6406 188.414 27.707C188.414 31.832 190.84 34.2695 194.637 34.2695ZM194.637 31.6562C192.949 31.6562 191.883 30.2383 191.883 27.7188C191.883 25.2227 192.973 23.7812 194.637 23.7812C196.301 23.7812 197.379 25.2227 197.379 27.7188C197.379 30.2383 196.312 31.6562 194.637 31.6562ZM215.168 34C218.777 34 221.016 32.1367 221.016 29.1602C221.016 26.9219 219.328 25.2461 217.031 25.0703V24.9766C218.824 24.707 220.207 23.1602 220.207 21.3086C220.207 18.7188 218.215 17.0898 215.039 17.0898H207.68V34H215.168ZM211.219 19.7266H214.125C215.777 19.7266 216.727 20.5 216.727 21.8594C216.727 23.2891 215.648 24.1211 213.762 24.1211H211.219V19.7266ZM211.219 31.3633V26.4531H214.184C216.27 26.4531 217.406 27.2969 217.406 28.8789C217.406 30.4961 216.305 31.3633 214.266 31.3633H211.219ZM228.504 34.2695C232.301 34.2695 234.727 31.8438 234.727 27.707C234.727 23.6289 232.266 21.168 228.504 21.168C224.742 21.168 222.281 23.6406 222.281 27.707C222.281 31.832 224.707 34.2695 228.504 34.2695ZM228.504 31.6562C226.816 31.6562 225.75 30.2383 225.75 27.7188C225.75 25.2227 226.84 23.7812 228.504 23.7812C230.168 23.7812 231.246 25.2227 231.246 27.7188C231.246 30.2383 230.18 31.6562 228.504 31.6562ZM236.578 34H240V17.0898H236.578V34ZM246.973 34.1992C248.824 34.1992 250.277 33.2266 250.887 31.8438H250.945V34H254.32V17.0898H250.898V23.5938H250.828C250.219 22.1992 248.812 21.2383 246.996 21.2383C243.844 21.2383 241.852 23.7109 241.852 27.6953C241.852 31.7148 243.832 34.1992 246.973 34.1992ZM248.133 23.9805C249.832 23.9805 250.922 25.4336 250.922 27.7188C250.922 30.0156 249.832 31.4453 248.133 31.4453C246.41 31.4453 245.355 30.0273 245.355 27.7188C245.355 25.4219 246.41 23.9805 248.133 23.9805Z" fill="black"/>
<path d="M48.7852 61.2773C48.9258 64.3711 51.5156 66.2812 55.4297 66.2812C59.4961 66.2812 62.0391 64.2422 62.0391 61.0078C62.0391 58.5 60.5508 57.0703 56.9883 56.332L55.1602 55.957C53.0508 55.5117 52.207 54.7734 52.207 53.625C52.207 52.207 53.543 51.3164 55.418 51.3164C57.3516 51.3164 58.6875 52.2773 58.8281 53.8711H61.7227C61.6523 50.8477 59.1797 48.8086 55.4414 48.8086C51.7734 48.8086 49.1602 50.8242 49.1602 53.8008C49.1602 56.2734 50.7422 57.8672 54.1289 58.5586L55.9453 58.9336C58.1484 59.3906 58.9922 60.1406 58.9922 61.3594C58.9922 62.7656 57.5742 63.7734 55.5352 63.7734C53.4258 63.7734 51.9023 62.8359 51.6797 61.2773H48.7852ZM68.543 63.9961C67.2773 63.9961 66.4336 63.3516 66.4336 62.332C66.4336 61.3477 67.2422 60.7148 68.6484 60.6211L71.5195 60.4453V61.3945C71.5195 62.8945 70.1953 63.9961 68.543 63.9961ZM67.6641 66.1992C69.2578 66.1992 70.8164 65.3672 71.5312 64.0195H71.5898V66H74.4023V57.4453C74.4023 54.9492 72.3984 53.3203 69.3164 53.3203C66.1523 53.3203 64.1719 54.9844 64.043 57.3047H66.75C66.9375 56.2734 67.8164 55.6055 69.1992 55.6055C70.6406 55.6055 71.5195 56.3555 71.5195 57.6562V58.5469L68.2383 58.7344C65.2148 58.9219 63.5156 60.2461 63.5156 62.4492C63.5156 64.6875 65.2617 66.1992 67.6641 66.1992ZM76.7578 66H79.6758V58.8047C79.6758 57.0234 80.7422 55.8164 82.418 55.8164C84.082 55.8164 84.9023 56.8008 84.9023 58.5586V66H87.8203V57.9727C87.8203 55.1016 86.2617 53.3438 83.5195 53.3438C81.6094 53.3438 80.2852 54.2344 79.6172 55.7109H79.5586V53.5781H76.7578V66ZM98.2852 66V59.0977H105.375V56.6367H98.2852V51.6445H106.043V49.0898H95.2617V66H98.2852ZM107.953 66H110.871V58.7695C110.871 57.0234 111.867 55.957 113.52 55.957C114.012 55.957 114.457 56.0273 114.703 56.1211V53.4844C114.492 53.4375 114.164 53.3672 113.789 53.3672C112.324 53.3672 111.234 54.2344 110.812 55.7461H110.754V53.5781H107.953V66ZM120.457 63.9961C119.191 63.9961 118.348 63.3516 118.348 62.332C118.348 61.3477 119.156 60.7148 120.562 60.6211L123.434 60.4453V61.3945C123.434 62.8945 122.109 63.9961 120.457 63.9961ZM119.578 66.1992C121.172 66.1992 122.73 65.3672 123.445 64.0195H123.504V66H126.316V57.4453C126.316 54.9492 124.312 53.3203 121.23 53.3203C118.066 53.3203 116.086 54.9844 115.957 57.3047H118.664C118.852 56.2734 119.73 55.6055 121.113 55.6055C122.555 55.6055 123.434 56.3555 123.434 57.6562V58.5469L120.152 58.7344C117.129 58.9219 115.43 60.2461 115.43 62.4492C115.43 64.6875 117.176 66.1992 119.578 66.1992ZM128.672 66H131.59V58.8047C131.59 57.0234 132.656 55.8164 134.332 55.8164C135.996 55.8164 136.816 56.8008 136.816 58.5586V66H139.734V57.9727C139.734 55.1016 138.176 53.3438 135.434 53.3438C133.523 53.3438 132.199 54.2344 131.531 55.7109H131.473V53.5781H128.672V66ZM153.023 58.0078C152.824 55.3945 150.797 53.3203 147.516 53.3203C143.906 53.3203 141.562 55.8164 141.562 59.7891C141.562 63.8203 143.906 66.2461 147.539 66.2461C150.656 66.2461 152.801 64.418 153.035 61.6406H150.281C150.012 63.0469 149.051 63.8906 147.574 63.8906C145.723 63.8906 144.527 62.3906 144.527 59.7891C144.527 57.2344 145.711 55.6875 147.551 55.6875C149.109 55.6875 150.035 56.6836 150.27 58.0078H153.023ZM154.852 66H157.77V53.5781H154.852V66ZM156.293 51.7031C157.195 51.7031 157.898 50.9883 157.898 50.1211C157.898 49.2422 157.195 48.5391 156.293 48.5391C155.414 48.5391 154.699 49.2422 154.699 50.1211C154.699 50.9883 155.414 51.7031 156.293 51.7031ZM159.996 57.1406C159.996 58.9805 161.191 60.1523 163.57 60.6797L165.633 61.1367C166.934 61.4297 167.379 61.8516 167.379 62.6016C167.379 63.5273 166.5 64.1133 165.082 64.1133C163.605 64.1133 162.773 63.5039 162.551 62.2969H159.68C159.914 64.6992 161.836 66.2461 165.082 66.2461C168.129 66.2461 170.285 64.6641 170.285 62.3203C170.285 60.5156 169.289 59.5195 166.711 58.9453L164.648 58.4883C163.348 58.1953 162.832 57.7031 162.832 56.9883C162.832 56.0742 163.688 55.4648 164.977 55.4648C166.324 55.4648 167.156 56.1797 167.273 57.3047H169.992C169.922 54.9492 168 53.3203 164.977 53.3203C161.977 53.3203 159.996 54.8672 159.996 57.1406ZM183.094 58.0078C182.895 55.3945 180.867 53.3203 177.586 53.3203C173.977 53.3203 171.633 55.8164 171.633 59.7891C171.633 63.8203 173.977 66.2461 177.609 66.2461C180.727 66.2461 182.871 64.418 183.105 61.6406H180.352C180.082 63.0469 179.121 63.8906 177.645 63.8906C175.793 63.8906 174.598 62.3906 174.598 59.7891C174.598 57.2344 175.781 55.6875 177.621 55.6875C179.18 55.6875 180.105 56.6836 180.34 58.0078H183.094ZM190.348 66.2461C193.992 66.2461 196.359 63.8203 196.359 59.7891C196.359 55.7695 193.969 53.3203 190.348 53.3203C186.727 53.3203 184.336 55.7812 184.336 59.7891C184.336 63.8203 186.703 66.2461 190.348 66.2461ZM190.348 63.9375C188.496 63.9375 187.301 62.4375 187.301 59.7891C187.301 57.1523 188.508 55.6406 190.348 55.6406C192.199 55.6406 193.395 57.1523 193.395 59.7891C193.395 62.4375 192.199 63.9375 190.348 63.9375ZM202.629 61.2773C202.77 64.3711 205.359 66.2812 209.273 66.2812C213.34 66.2812 215.883 64.2422 215.883 61.0078C215.883 58.5 214.395 57.0703 210.832 56.332L209.004 55.957C206.895 55.5117 206.051 54.7734 206.051 53.625C206.051 52.207 207.387 51.3164 209.262 51.3164C211.195 51.3164 212.531 52.2773 212.672 53.8711H215.566C215.496 50.8477 213.023 48.8086 209.285 48.8086C205.617 48.8086 203.004 50.8242 203.004 53.8008C203.004 56.2734 204.586 57.8672 207.973 58.5586L209.789 58.9336C211.992 59.3906 212.836 60.1406 212.836 61.3594C212.836 62.7656 211.418 63.7734 209.379 63.7734C207.27 63.7734 205.746 62.8359 205.523 61.2773H202.629ZM223.207 55.582C224.883 55.582 226.008 56.8125 226.066 58.5703H220.266C220.383 56.8359 221.566 55.582 223.207 55.582ZM226.078 62.2852C225.762 63.3164 224.73 63.9961 223.371 63.9961C221.461 63.9961 220.242 62.6602 220.242 60.668V60.4922H228.926V59.543C228.926 55.7695 226.723 53.3203 223.195 53.3203C219.609 53.3203 217.336 55.9102 217.336 59.8359C217.336 63.7969 219.586 66.2461 223.312 66.2461C226.254 66.2461 228.434 64.6289 228.809 62.2852H226.078ZM230.812 66H233.73V58.3945C233.73 56.8945 234.715 55.8047 236.121 55.8047C237.48 55.8047 238.324 56.6602 238.324 58.043V66H241.16V58.3242C241.16 56.8359 242.121 55.8047 243.527 55.8047C244.957 55.8047 245.754 56.6719 245.754 58.1953V66H248.672V57.4805C248.672 54.9961 247.066 53.3438 244.617 53.3438C242.824 53.3438 241.348 54.3047 240.75 55.8398H240.68C240.223 54.2461 238.969 53.3438 237.211 53.3438C235.523 53.3438 234.211 54.293 233.672 55.7344H233.613V53.5781H230.812V66ZM251.086 66H254.004V53.5781H251.086V66ZM252.527 51.7031C253.43 51.7031 254.133 50.9883 254.133 50.1211C254.133 49.2422 253.43 48.5391 252.527 48.5391C251.648 48.5391 250.934 49.2422 250.934 50.1211C250.934 50.9883 251.648 51.7031 252.527 51.7031ZM263.402 66.1992C266.543 66.1992 268.523 63.7617 268.523 59.7891C268.523 55.8164 266.531 53.3672 263.402 53.3672C261.645 53.3672 260.227 54.2578 259.523 55.7109H259.453V49.0898H256.535V66H259.395V63.8789H259.453C260.18 65.3203 261.574 66.1992 263.402 66.1992ZM262.5 55.7695C264.363 55.7695 265.535 57.3281 265.535 59.7891C265.535 62.2617 264.375 63.8086 262.5 63.8086C260.695 63.8086 259.441 62.2266 259.441 59.7891C259.441 57.375 260.695 55.7695 262.5 55.7695ZM275.918 66.2461C279.562 66.2461 281.93 63.8203 281.93 59.7891C281.93 55.7695 279.539 53.3203 275.918 53.3203C272.297 53.3203 269.906 55.7812 269.906 59.7891C269.906 63.8203 272.273 66.2461 275.918 66.2461ZM275.918 63.9375C274.066 63.9375 272.871 62.4375 272.871 59.7891C272.871 57.1523 274.078 55.6406 275.918 55.6406C277.77 55.6406 278.965 57.1523 278.965 59.7891C278.965 62.4375 277.77 63.9375 275.918 63.9375ZM283.887 66H286.805V49.0898H283.887V66ZM293.93 66.1992C295.746 66.1992 297.176 65.2734 297.855 63.8789H297.902V66H300.762V49.0898H297.844V55.6641H297.773C297.117 54.293 295.711 53.3672 293.93 53.3672C290.801 53.3672 288.773 55.8516 288.773 59.7773C288.773 63.7266 290.801 66.1992 293.93 66.1992ZM294.809 55.7695C296.648 55.7695 297.855 57.3516 297.855 59.7891C297.855 62.25 296.648 63.8086 294.809 63.8086C292.922 63.8086 291.762 62.2617 291.762 59.7891C291.762 57.3281 292.934 55.7695 294.809 55.7695Z" fill="black"/>
<path d="M48.75 125.488C48.9258 128.348 51.3984 130.27 55.0078 130.27C58.6758 130.27 61.0898 128.336 61.0898 125.336C61.0898 122.992 59.6953 121.668 56.2148 120.883L54.375 120.461C51.8672 119.898 50.8242 118.926 50.8242 117.391C50.8242 115.469 52.6406 114.273 54.9258 114.273C57.3281 114.273 59.0039 115.562 59.168 117.496H60.7734C60.6797 114.777 58.2539 112.82 54.9609 112.82C51.6445 112.82 49.1836 114.73 49.1836 117.461C49.1836 119.793 50.5898 121.234 53.9531 121.984L55.793 122.395C58.3945 122.992 59.4492 123.953 59.4492 125.547C59.4492 127.469 57.6328 128.816 55.0898 128.816C52.4414 128.816 50.5547 127.516 50.3555 125.488H48.75ZM67.1133 128.863C65.4609 128.863 64.3242 127.949 64.3242 126.625C64.3242 125.277 65.3906 124.445 67.3125 124.316L70.9219 124.07V125.418C70.9219 127.352 69.2461 128.863 67.1133 128.863ZM66.7969 130.199C68.6133 130.199 70.2773 129.191 70.957 127.68H70.9922V130H72.4688V121.656C72.4688 119.172 70.7227 117.613 67.9453 117.613C65.168 117.613 63.375 119.16 63.1992 121.34H64.6992C64.9688 119.863 66.1172 118.984 67.9102 118.984C69.8086 118.984 70.9219 120.039 70.9219 121.797V122.852L67.125 123.086C64.3125 123.273 62.7539 124.539 62.7539 126.625C62.7539 128.758 64.3945 130.199 66.7969 130.199ZM75.0703 130H76.6172V122.781C76.6172 120.52 78.0352 118.996 80.1445 118.996C82.1836 118.996 83.3555 120.215 83.3555 122.348V130H84.9023V122.102C84.9023 119.336 83.2617 117.613 80.5898 117.613C78.6211 117.613 77.1914 118.586 76.5703 120.062H76.5352V117.812H75.0703V130ZM94.2773 130V122.324H102.035V120.895H94.2773V114.543H102.715V113.09H92.6836V130H94.2773ZM104.883 130H106.43V122.406C106.43 120.438 107.531 119.09 109.266 119.09C109.793 119.09 110.227 119.172 110.426 119.266V117.742C110.238 117.695 109.875 117.613 109.465 117.613C107.965 117.613 106.828 118.492 106.383 119.98H106.348V117.812H104.883V130ZM115.652 128.863C114 128.863 112.863 127.949 112.863 126.625C112.863 125.277 113.93 124.445 115.852 124.316L119.461 124.07V125.418C119.461 127.352 117.785 128.863 115.652 128.863ZM115.336 130.199C117.152 130.199 118.816 129.191 119.496 127.68H119.531V130H121.008V121.656C121.008 119.172 119.262 117.613 116.484 117.613C113.707 117.613 111.914 119.16 111.738 121.34H113.238C113.508 119.863 114.656 118.984 116.449 118.984C118.348 118.984 119.461 120.039 119.461 121.797V122.852L115.664 123.086C112.852 123.273 111.293 124.539 111.293 126.625C111.293 128.758 112.934 130.199 115.336 130.199ZM123.609 130H125.156V122.781C125.156 120.52 126.574 118.996 128.684 118.996C130.723 118.996 131.895 120.215 131.895 122.348V130H133.441V122.102C133.441 119.336 131.801 117.613 129.129 117.613C127.16 117.613 125.73 118.586 125.109 120.062H125.074V117.812H123.609V130ZM145.969 121.668C145.664 119.488 143.824 117.613 140.953 117.613C137.637 117.613 135.445 120.062 135.445 123.906C135.445 127.809 137.637 130.199 140.965 130.199C143.66 130.199 145.641 128.559 145.98 126.227H144.445C144.094 127.809 142.816 128.828 140.977 128.828C138.598 128.828 137.027 126.965 137.027 123.906C137.027 120.895 138.586 118.984 140.965 118.984C142.887 118.984 144.117 120.168 144.445 121.668H145.969ZM148.02 130H149.566V117.812H148.02V130ZM148.793 115.281C149.367 115.281 149.836 114.824 149.836 114.25C149.836 113.676 149.367 113.219 148.793 113.219C148.219 113.219 147.75 113.676 147.75 114.25C147.75 114.824 148.219 115.281 148.793 115.281ZM152.098 121.07C152.098 122.758 153.188 123.777 155.508 124.316L157.336 124.75C158.977 125.148 159.574 125.734 159.574 126.789C159.574 128.066 158.367 128.922 156.539 128.922C154.711 128.922 153.527 128.043 153.293 126.508H151.746C151.957 128.734 153.785 130.199 156.539 130.199C159.199 130.199 161.133 128.734 161.133 126.672C161.133 124.949 160.219 124.012 157.781 123.426L155.941 122.992C154.324 122.605 153.633 121.984 153.633 120.988C153.633 119.77 154.77 118.891 156.434 118.891C158.121 118.891 159.223 119.816 159.422 121.34H160.91C160.77 119.125 159.035 117.613 156.434 117.613C153.891 117.613 152.098 119.055 152.098 121.07ZM173.133 121.668C172.828 119.488 170.988 117.613 168.117 117.613C164.801 117.613 162.609 120.062 162.609 123.906C162.609 127.809 164.801 130.199 168.129 130.199C170.824 130.199 172.805 128.559 173.145 126.227H171.609C171.258 127.809 169.98 128.828 168.141 128.828C165.762 128.828 164.191 126.965 164.191 123.906C164.191 120.895 165.75 118.984 168.129 118.984C170.051 118.984 171.281 120.168 171.609 121.668H173.133ZM180.023 130.199C183.34 130.199 185.578 127.773 185.578 123.906C185.578 120.027 183.34 117.613 180.023 117.613C176.719 117.613 174.469 120.027 174.469 123.906C174.469 127.773 176.707 130.199 180.023 130.199ZM180.023 128.828C177.633 128.828 176.051 127 176.051 123.906C176.051 120.812 177.633 118.984 180.023 118.984C182.414 118.984 184.008 120.812 184.008 123.906C184.008 127 182.414 128.828 180.023 128.828ZM202.875 128.547H194.402V113.09H192.809V130H202.875V128.547ZM204.996 130H206.543V117.812H204.996V130ZM205.77 115.281C206.344 115.281 206.812 114.824 206.812 114.25C206.812 113.676 206.344 113.219 205.77 113.219C205.195 113.219 204.727 113.676 204.727 114.25C204.727 114.824 205.195 115.281 205.77 115.281ZM214.137 128.746C211.84 128.746 210.305 126.824 210.305 123.883C210.305 120.918 211.84 118.984 214.137 118.984C216.48 118.984 218.062 120.953 218.062 123.871C218.062 126.789 216.48 128.746 214.137 128.746ZM214.289 134.512C217.547 134.512 219.621 132.637 219.621 129.801V117.812H218.145V120.391H218.109C217.395 118.727 215.836 117.613 213.891 117.613C210.773 117.613 208.711 120.086 208.711 123.871C208.711 127.645 210.773 130.117 213.855 130.117C215.801 130.117 217.371 128.98 218.027 127.41H218.062V129.859C218.062 131.852 216.645 133.176 214.359 133.176C212.59 133.176 211.289 132.32 210.891 131.125H209.285C209.625 133.047 211.629 134.512 214.289 134.512ZM222.41 130H223.969V122.828C223.969 120.531 225.387 118.996 227.578 118.996C229.641 118.996 230.824 120.273 230.824 122.383V130H232.383V122.125C232.383 119.395 230.695 117.613 228.023 117.613C226.078 117.613 224.625 118.562 224.004 120.062H223.969V113.09H222.41V130ZM235.652 114.766V117.812H233.836V119.102H235.652V127C235.652 129.203 236.473 130.07 238.512 130.07C238.84 130.07 239.496 130.035 239.66 130V128.676C239.566 128.699 238.98 128.723 238.816 128.723C237.691 128.723 237.199 128.184 237.199 126.93V119.102H239.602V117.812H237.199V114.766H235.652Z" fill="black"/>
<path d="M48.8203 93.4648C49.0195 96.3828 51.4805 98.2812 55.1719 98.2812C58.957 98.2812 61.418 96.3242 61.418 93.1953C61.418 90.8047 60.0234 89.3984 56.4961 88.625L54.6211 88.2148C52.3125 87.7109 51.4102 86.7969 51.4102 85.4609C51.4102 83.7383 53.0391 82.707 55.1484 82.707C57.3516 82.707 58.8164 83.8438 59.0039 85.6953H61.1133C61.0195 82.8242 58.582 80.8086 55.207 80.8086C51.7031 80.8086 49.2422 82.7656 49.2422 85.5547C49.2422 87.957 50.707 89.4922 54.0938 90.2305L55.9688 90.6406C58.3125 91.1562 59.25 92.0938 59.25 93.5117C59.25 95.1758 57.5859 96.3828 55.2891 96.3828C52.8633 96.3828 51.1758 95.2812 50.9297 93.4648H48.8203ZM67.5938 96.4766C66.1289 96.4766 65.1562 95.7148 65.1562 94.5547C65.1562 93.4062 66.0938 92.6797 67.7344 92.5742L70.9922 92.375V93.3711C70.9922 95.1289 69.5156 96.4766 67.5938 96.4766ZM67.1367 98.2109C68.7773 98.2109 70.3242 97.2969 71.0508 95.9023H71.0977V98H73.0312V89.5742C73.0312 87.1484 71.2266 85.6016 68.3672 85.6016C65.4844 85.6016 63.6797 87.2188 63.5391 89.3281H65.5078C65.7656 88.1328 66.75 87.3945 68.3203 87.3945C70.0078 87.3945 70.9922 88.2852 70.9922 89.7734V90.793L67.5 90.9922C64.6875 91.1562 63.082 92.4688 63.082 94.5547C63.082 96.7461 64.7109 98.2109 67.1367 98.2109ZM75.6211 98H77.6602V90.8281C77.6602 88.7656 78.9141 87.4062 80.8359 87.4062C82.7109 87.4062 83.6367 88.4844 83.6367 90.4531V98H85.6758V90.0898C85.6758 87.3242 84.1289 85.6016 81.457 85.6016C79.5703 85.6016 78.2695 86.4453 77.5898 87.7578H77.543V85.8125H75.6211V98ZM95.625 98V90.6758H103.113V88.8008H95.625V82.9883H103.781V81.0898H93.5156V98H95.625ZM105.879 98H107.918V90.4062C107.918 88.6836 108.949 87.5469 110.531 87.5469C111.023 87.5469 111.457 87.6055 111.621 87.6641V85.6836C111.457 85.6602 111.152 85.6016 110.801 85.6016C109.371 85.6016 108.246 86.457 107.848 87.8047H107.801V85.8125H105.879V98ZM117.07 96.4766C115.605 96.4766 114.633 95.7148 114.633 94.5547C114.633 93.4062 115.57 92.6797 117.211 92.5742L120.469 92.375V93.3711C120.469 95.1289 118.992 96.4766 117.07 96.4766ZM116.613 98.2109C118.254 98.2109 119.801 97.2969 120.527 95.9023H120.574V98H122.508V89.5742C122.508 87.1484 120.703 85.6016 117.844 85.6016C114.961 85.6016 113.156 87.2188 113.016 89.3281H114.984C115.242 88.1328 116.227 87.3945 117.797 87.3945C119.484 87.3945 120.469 88.2852 120.469 89.7734V90.793L116.977 90.9922C114.164 91.1562 112.559 92.4688 112.559 94.5547C112.559 96.7461 114.188 98.2109 116.613 98.2109ZM125.098 98H127.137V90.8281C127.137 88.7656 128.391 87.4062 130.312 87.4062C132.188 87.4062 133.113 88.4844 133.113 90.4531V98H135.152V90.0898C135.152 87.3242 133.605 85.6016 130.934 85.6016C129.047 85.6016 127.746 86.4453 127.066 87.7578H127.02V85.8125H125.098V98ZM147.879 89.8086C147.621 87.6172 145.805 85.6016 142.758 85.6016C139.395 85.6016 137.156 88.0625 137.156 91.9062C137.156 95.832 139.406 98.2109 142.781 98.2109C145.547 98.2109 147.586 96.5 147.902 94.0742H145.898C145.547 95.5391 144.457 96.418 142.793 96.418C140.684 96.418 139.23 94.7422 139.23 91.9062C139.23 89.1406 140.66 87.3945 142.77 87.3945C144.562 87.3945 145.594 88.4844 145.887 89.8086H147.879ZM149.883 98H151.922V85.8125H149.883V98ZM150.902 83.6445C151.617 83.6445 152.18 83.0703 152.18 82.3672C152.18 81.6523 151.617 81.0898 150.902 81.0898C150.199 81.0898 149.625 81.6523 149.625 82.3672C149.625 83.0703 150.199 83.6445 150.902 83.6445ZM154.465 89.1758C154.465 90.9336 155.578 92 157.875 92.5508L159.809 93.0195C161.203 93.3594 161.684 93.8633 161.684 94.7422C161.684 95.8438 160.664 96.5469 159.012 96.5469C157.359 96.5469 156.422 95.8789 156.176 94.4844H154.137C154.371 96.7695 156.152 98.2109 159.012 98.2109C161.73 98.2109 163.734 96.7109 163.734 94.5898C163.734 92.8438 162.844 91.8828 160.383 91.2852L158.449 90.8164C157.09 90.4883 156.469 89.9141 156.469 89.0703C156.469 88.0039 157.453 87.2656 158.941 87.2656C160.441 87.2656 161.379 88.0508 161.531 89.3281H163.477C163.395 87.1719 161.613 85.6016 158.941 85.6016C156.305 85.6016 154.465 87.0898 154.465 89.1758ZM175.98 89.8086C175.723 87.6172 173.906 85.6016 170.859 85.6016C167.496 85.6016 165.258 88.0625 165.258 91.9062C165.258 95.832 167.508 98.2109 170.883 98.2109C173.648 98.2109 175.688 96.5 176.004 94.0742H174C173.648 95.5391 172.559 96.418 170.895 96.418C168.785 96.418 167.332 94.7422 167.332 91.9062C167.332 89.1406 168.762 87.3945 170.871 87.3945C172.664 87.3945 173.695 88.4844 173.988 89.8086H175.98ZM182.93 98.2109C186.293 98.2109 188.566 95.7852 188.566 91.9062C188.566 88.0156 186.293 85.6016 182.93 85.6016C179.555 85.6016 177.281 88.0156 177.281 91.9062C177.281 95.7852 179.555 98.2109 182.93 98.2109ZM182.93 96.418C180.773 96.418 179.355 94.7773 179.355 91.9062C179.355 89.0352 180.773 87.3945 182.93 87.3945C185.086 87.3945 186.492 89.0352 186.492 91.9062C186.492 94.7773 185.086 96.418 182.93 96.418ZM197.977 82.9648H201.926C204.105 82.9648 205.418 84.1719 205.418 86.1992C205.418 88.2734 204.188 89.4453 202.02 89.4453H197.977V82.9648ZM197.977 91.3086H202.02L205.641 98H208.113L204.199 90.9805C206.32 90.3125 207.598 88.4844 207.598 86.1289C207.598 83.082 205.465 81.0898 202.207 81.0898H195.867V98H197.977V91.3086ZM214.828 87.3711C216.75 87.3711 218.027 88.8242 218.074 90.8633H211.453C211.582 88.8359 212.918 87.3711 214.828 87.3711ZM218.027 94.5078C217.688 95.6562 216.551 96.4414 215.004 96.4414C212.812 96.4414 211.441 94.9062 211.441 92.5742V92.457H220.184V91.6836C220.184 87.9922 218.156 85.6016 214.863 85.6016C211.5 85.6016 209.344 88.168 209.344 91.9531C209.344 95.7852 211.465 98.2109 214.957 98.2109C217.617 98.2109 219.68 96.6406 220.031 94.5078H218.027ZM227.203 96.3008C225.105 96.3008 223.734 94.5898 223.734 91.8594C223.734 89.1289 225.105 87.3945 227.203 87.3945C229.324 87.3945 230.742 89.1758 230.742 91.8594C230.742 94.543 229.324 96.3008 227.203 96.3008ZM227.273 102.594C230.637 102.594 232.781 100.66 232.781 97.7539V85.8125H230.836V87.8633H230.801C229.992 86.4453 228.562 85.6016 226.84 85.6016C223.688 85.6016 221.648 88.0391 221.648 91.8594C221.648 95.6445 223.688 98.0938 226.793 98.0938C228.504 98.0938 229.945 97.2266 230.695 95.9023H230.742V97.8242C230.742 99.6406 229.465 100.859 227.355 100.859C225.832 100.859 224.625 100.121 224.227 99.0078H222.129C222.469 101.082 224.59 102.594 227.273 102.594ZM245.449 85.8125H243.41V92.9727C243.41 95.0469 242.215 96.4062 240.234 96.4062C238.348 96.4062 237.422 95.3398 237.422 93.3594V85.8125H235.383V93.7227C235.383 96.4883 236.941 98.2109 239.602 98.2109C241.477 98.2109 242.742 97.4258 243.469 96.0195H243.516V98H245.449V85.8125ZM248.203 98H250.242V81.0898H248.203V98ZM257.016 96.4766C255.551 96.4766 254.578 95.7148 254.578 94.5547C254.578 93.4062 255.516 92.6797 257.156 92.5742L260.414 92.375V93.3711C260.414 95.1289 258.938 96.4766 257.016 96.4766ZM256.559 98.2109C258.199 98.2109 259.746 97.2969 260.473 95.9023H260.52V98H262.453V89.5742C262.453 87.1484 260.648 85.6016 257.789 85.6016C254.906 85.6016 253.102 87.2188 252.961 89.3281H254.93C255.188 88.1328 256.172 87.3945 257.742 87.3945C259.43 87.3945 260.414 88.2852 260.414 89.7734V90.793L256.922 90.9922C254.109 91.1562 252.504 92.4688 252.504 94.5547C252.504 96.7461 254.133 98.2109 256.559 98.2109ZM265.043 98H267.082V90.4062C267.082 88.6836 268.113 87.5469 269.695 87.5469C270.188 87.5469 270.621 87.6055 270.785 87.6641V85.6836C270.621 85.6602 270.316 85.6016 269.965 85.6016C268.535 85.6016 267.41 86.457 267.012 87.8047H266.965V85.8125H265.043V98Z" fill="black"/>
</svg>
