<svg width = "100%" viewBox="0 0 421 198" fill="none" xmlns="http://www.w3.org/2000/svg" >
<path d="M0.602844 21.9531C0.778625 27.2656 5.25128 30.4883 11.97 30.4883C19.0208 30.4883 23.3372 26.9922 23.3372 21.4844C23.3372 17.207 20.7396 14.8047 14.7825 13.6133L11.7943 13.0078C8.47394 12.3437 7.10675 11.2695 7.10675 9.53125C7.10675 7.46093 9.05988 6.09375 11.97 6.09375C14.9388 6.09375 17.0286 7.53906 17.2239 9.9414H22.7903C22.6927 4.76562 18.5521 1.32812 11.97 1.32812C5.7005 1.32812 1.20831 4.74609 1.20831 9.90234C1.20831 14.1016 3.96222 16.7969 9.58722 17.9102L12.556 18.4961C16.0911 19.2187 17.4193 20.2734 17.4193 22.1289C17.4193 24.1992 15.2708 25.7227 12.1263 25.7227C8.92316 25.7227 6.54034 24.3164 6.16925 21.9531H0.602844Z" fill="black"/>
<path d="M34.5482 26.2109C32.6146 26.2109 31.3255 25.2344 31.3255 23.6719C31.3255 22.1875 32.5364 21.2305 34.6653 21.0742L39.0794 20.8008V22.3242C39.0794 24.5898 37.0286 26.2109 34.5482 26.2109ZM32.6732 30.332C35.2903 30.332 37.888 29.0234 39.0599 26.7969H39.1771V30H44.6849V15.6055C44.6849 11.3867 41.1888 8.61328 35.8177 8.61328C30.2708 8.61328 26.8138 11.4062 26.5989 15.4687H31.8138C32.0872 13.9258 33.4349 12.8711 35.5638 12.8711C37.7122 12.8711 39.0794 14.0039 39.0794 15.957V17.3437L33.806 17.6562C28.5911 17.9687 25.6614 20.1758 25.6614 23.9844C25.6614 27.7539 28.6888 30.332 32.6732 30.332Z" fill="black"/>
<path d="M48.3763 30H54.0794V17.9883C54.0794 15.2734 55.7005 13.3984 58.2591 13.3984C60.8177 13.3984 62.1068 14.9609 62.1068 17.6953V30H67.8099V16.5039C67.8099 11.6016 65.1927 8.67187 60.5443 8.67187C57.3216 8.67187 55.1146 10.1953 54.0013 12.793H53.8841V9.0625H48.3763V30Z" fill="black"/>
<path d="M85.7396 30V18.9062H97.2044V14.2383H85.7396V6.67968H98.2982V1.8164H79.8411V30H85.7396Z" fill="black"/>
<path d="M101.306 30H107.009V18.3008C107.009 15.3516 108.65 13.6328 111.462 13.6328C112.283 13.6328 113.064 13.7695 113.533 13.9648V8.94531C113.142 8.82812 112.576 8.73046 111.911 8.73046C109.451 8.73046 107.673 10.1758 106.931 12.832H106.814V9.0625H101.306V30Z" fill="black"/>
<path d="M123.454 26.2109C121.521 26.2109 120.232 25.2344 120.232 23.6719C120.232 22.1875 121.443 21.2305 123.572 21.0742L127.986 20.8008V22.3242C127.986 24.5898 125.935 26.2109 123.454 26.2109ZM121.579 30.332C124.197 30.332 126.794 29.0234 127.966 26.7969H128.083V30H133.591V15.6055C133.591 11.3867 130.095 8.61328 124.724 8.61328C119.177 8.61328 115.72 11.4062 115.505 15.4687H120.72C120.993 13.9258 122.341 12.8711 124.47 12.8711C126.618 12.8711 127.986 14.0039 127.986 15.957V17.3437L122.712 17.6562C117.497 17.9687 114.568 20.1758 114.568 23.9844C114.568 27.7539 117.595 30.332 121.579 30.332Z" fill="black"/>
<path d="M137.283 30H142.986V17.9883C142.986 15.2734 144.607 13.3984 147.165 13.3984C149.724 13.3984 151.013 14.9609 151.013 17.6953V30H156.716V16.5039C156.716 11.6016 154.099 8.67187 149.451 8.67187C146.228 8.67187 144.021 10.1953 142.908 12.793H142.79V9.0625H137.283V30Z" fill="black"/>
<path d="M179.353 16.8555C179.099 12.1094 175.505 8.61328 169.841 8.61328C163.572 8.61328 159.568 12.793 159.568 19.5117C159.568 26.3477 163.572 30.4492 169.88 30.4492C175.388 30.4492 179.079 27.2656 179.372 22.3242H174.06C173.708 24.6094 172.224 25.9766 169.939 25.9766C167.107 25.9766 165.349 23.6328 165.349 19.5117C165.349 15.4687 167.107 13.0859 169.919 13.0859C172.263 13.0859 173.728 14.6484 174.06 16.8555H179.353Z" fill="black"/>
<path d="M182.224 30H187.927V9.0625H182.224V30ZM185.056 6.23046C186.716 6.23046 188.025 4.90234 188.025 3.30078C188.025 1.67968 186.716 0.37109 185.056 0.37109C183.396 0.37109 182.087 1.67968 182.087 3.30078C182.087 4.90234 183.396 6.23046 185.056 6.23046Z" fill="black"/>
<path d="M191.384 15.2148C191.384 18.3594 193.435 20.3906 197.478 21.25L201.052 21.9922C203.103 22.4609 203.826 23.0859 203.826 24.1992C203.826 25.5664 202.497 26.4453 200.349 26.4453C198.083 26.4453 196.775 25.4687 196.423 23.6328H190.857C191.228 27.7539 194.568 30.4492 200.349 30.4492C205.74 30.4492 209.509 27.7344 209.509 23.6133C209.509 20.5469 207.712 18.8281 203.337 17.9102L199.763 17.1484C197.654 16.6992 196.872 15.9766 196.872 14.9023C196.872 13.5156 198.181 12.6172 200.154 12.6172C202.263 12.6172 203.533 13.7695 203.708 15.4687H208.962C208.845 11.3672 205.525 8.61328 200.154 8.61328C194.822 8.61328 191.384 11.2305 191.384 15.2148Z" fill="black"/>
<path d="M231.345 16.8555C231.091 12.1094 227.497 8.61328 221.833 8.61328C215.564 8.61328 211.56 12.793 211.56 19.5117C211.56 26.3477 215.564 30.4492 221.872 30.4492C227.38 30.4492 231.072 27.2656 231.365 22.3242H226.052C225.701 24.6094 224.216 25.9766 221.931 25.9766C219.099 25.9766 217.341 23.6328 217.341 19.5117C217.341 15.4687 219.099 13.0859 221.911 13.0859C224.255 13.0859 225.72 14.6484 226.052 16.8555H231.345Z" fill="black"/>
<path d="M243.728 30.4492C250.056 30.4492 254.099 26.4062 254.099 19.5117C254.099 12.7148 249.997 8.61328 243.728 8.61328C237.458 8.61328 233.357 12.7344 233.357 19.5117C233.357 26.3867 237.4 30.4492 243.728 30.4492ZM243.728 26.0937C240.915 26.0937 239.138 23.7305 239.138 19.5312C239.138 15.3711 240.954 12.9687 243.728 12.9687C246.501 12.9687 248.298 15.3711 248.298 19.5312C248.298 23.7305 246.521 26.0937 243.728 26.0937Z" fill="black"/>
<path d="M277.947 30C283.962 30 287.693 26.8945 287.693 21.9336C287.693 18.2031 284.88 15.4102 281.052 15.1172V14.9609C284.04 14.5117 286.345 11.9336 286.345 8.84765C286.345 4.53125 283.025 1.8164 277.732 1.8164H265.466V30H277.947ZM271.365 6.21093H276.208C278.962 6.21093 280.544 7.5 280.544 9.76562C280.544 12.1484 278.747 13.5352 275.603 13.5352H271.365V6.21093ZM271.365 25.6055V17.4219H276.306C279.783 17.4219 281.677 18.8281 281.677 21.4648C281.677 24.1602 279.841 25.6055 276.443 25.6055H271.365Z" fill="black"/>
<path d="M300.173 30.4492C306.501 30.4492 310.544 26.4062 310.544 19.5117C310.544 12.7148 306.443 8.61328 300.173 8.61328C293.904 8.61328 289.802 12.7344 289.802 19.5117C289.802 26.3867 293.845 30.4492 300.173 30.4492ZM300.173 26.0937C297.361 26.0937 295.583 23.7305 295.583 19.5312C295.583 15.3711 297.4 12.9687 300.173 12.9687C302.947 12.9687 304.743 15.3711 304.743 19.5312C304.743 23.7305 302.966 26.0937 300.173 26.0937Z" fill="black"/>
<path d="M313.63 30H319.333V1.8164H313.63V30Z" fill="black"/>
<path d="M330.954 30.332C334.04 30.332 336.462 28.7109 337.478 26.4062H337.576V30H343.201V1.8164H337.497V12.6562H337.38C336.365 10.332 334.021 8.73046 330.993 8.73046C325.74 8.73046 322.419 12.8516 322.419 19.4922C322.419 26.1914 325.72 30.332 330.954 30.332ZM332.888 13.3008C335.72 13.3008 337.536 15.7227 337.536 19.5312C337.536 23.3594 335.72 25.7422 332.888 25.7422C330.017 25.7422 328.259 23.3789 328.259 19.5312C328.259 15.7031 330.017 13.3008 332.888 13.3008Z" fill="black"/>
<path d="M0.641907 75.4622C0.876282 80.6185 5.19269 83.8021 11.7161 83.8021C18.4935 83.8021 22.7318 80.4036 22.7318 75.013C22.7318 70.8333 20.2513 68.4505 14.3138 67.22L11.2669 66.595C7.75128 65.8529 6.34503 64.6224 6.34503 62.7083C6.34503 60.345 8.57159 58.8607 11.6966 58.8607C14.9193 58.8607 17.1458 60.4622 17.3802 63.1185H22.2044C22.0872 58.0794 17.9661 54.681 11.7357 54.681C5.62238 54.681 1.26691 58.0404 1.26691 63.0013C1.26691 67.1224 3.90363 69.7786 9.54816 70.931L12.5755 71.556C16.2474 72.3177 17.6536 73.5677 17.6536 75.599C17.6536 77.9427 15.2903 79.6224 11.8919 79.6224C8.37628 79.6224 5.83722 78.0599 5.46613 75.4622H0.641907Z" fill="black"/>
<path d="M33.5716 79.9935C31.4622 79.9935 30.056 78.9193 30.056 77.22C30.056 75.5794 31.4036 74.5247 33.7474 74.3685L38.5325 74.0755V75.6575C38.5325 78.1575 36.3255 79.9935 33.5716 79.9935ZM32.1068 83.6654C34.763 83.6654 37.3607 82.2786 38.5521 80.0325H38.6497V83.3333H43.3372V69.0755C43.3372 64.9154 39.9974 62.2005 34.8607 62.2005C29.5872 62.2005 26.2864 64.974 26.0716 68.8411H30.5833C30.8958 67.1224 32.3607 66.0091 34.6653 66.0091C37.0677 66.0091 38.5325 67.2591 38.5325 69.4271V70.9115L33.0638 71.224C28.0247 71.5365 25.1927 73.7435 25.1927 77.4154C25.1927 81.1458 28.1028 83.6654 32.1068 83.6654Z" fill="black"/>
<path d="M47.263 83.3333H52.1263V71.3411C52.1263 68.3724 53.9036 66.3607 56.6966 66.3607C59.47 66.3607 60.8372 68.0013 60.8372 70.931V83.3333H65.7005V69.9544C65.7005 65.1693 63.1028 62.2396 58.5325 62.2396C55.3489 62.2396 53.1419 63.724 52.0286 66.1849H51.931V62.6302H47.263V83.3333Z" fill="black"/>
<path d="M83.1419 83.3333V71.8294H94.9583V67.7279H83.1419V59.4075H96.0716V55.1497H78.1028V83.3333H83.1419Z" fill="black"/>
<path d="M99.2552 83.3333H104.118V71.2825C104.118 68.3724 105.779 66.595 108.533 66.595C109.353 66.595 110.095 66.7122 110.505 66.8685V62.474C110.154 62.3958 109.607 62.2786 108.982 62.2786C106.54 62.2786 104.724 63.724 104.021 66.2435H103.923V62.6302H99.2552V83.3333Z" fill="black"/>
<path d="M120.095 79.9935C117.986 79.9935 116.579 78.9193 116.579 77.22C116.579 75.5794 117.927 74.5247 120.271 74.3685L125.056 74.0755V75.6575C125.056 78.1575 122.849 79.9935 120.095 79.9935ZM118.63 83.6654C121.286 83.6654 123.884 82.2786 125.076 80.0325H125.173V83.3333H129.861V69.0755C129.861 64.9154 126.521 62.2005 121.384 62.2005C116.111 62.2005 112.81 64.974 112.595 68.8411H117.107C117.419 67.1224 118.884 66.0091 121.189 66.0091C123.591 66.0091 125.056 67.2591 125.056 69.4271V70.9115L119.587 71.224C114.548 71.5365 111.716 73.7435 111.716 77.4154C111.716 81.1458 114.626 83.6654 118.63 83.6654Z" fill="black"/>
<path d="M133.786 83.3333H138.65V71.3411C138.65 68.3724 140.427 66.3607 143.22 66.3607C145.993 66.3607 147.361 68.0013 147.361 70.931V83.3333H152.224V69.9544C152.224 65.1693 149.626 62.2396 145.056 62.2396C141.872 62.2396 139.665 63.724 138.552 66.1849H138.454V62.6302H133.786V83.3333Z" fill="black"/>
<path d="M174.372 70.013C174.04 65.6575 170.661 62.2005 165.193 62.2005C159.177 62.2005 155.271 66.3607 155.271 72.9818C155.271 79.7005 159.177 83.7435 165.232 83.7435C170.427 83.7435 174.001 80.6966 174.392 76.0677H169.802C169.353 78.4115 167.751 79.8177 165.29 79.8177C162.204 79.8177 160.212 77.3177 160.212 72.9818C160.212 68.724 162.185 66.1458 165.251 66.1458C167.849 66.1458 169.392 67.806 169.783 70.013H174.372Z" fill="black"/>
<path d="M177.419 83.3333H182.283V62.6302H177.419V83.3333ZM179.822 59.5052C181.326 59.5052 182.497 58.3138 182.497 56.8685C182.497 55.4036 181.326 54.2318 179.822 54.2318C178.357 54.2318 177.165 55.4036 177.165 56.8685C177.165 58.3138 178.357 59.5052 179.822 59.5052Z" fill="black"/>
<path d="M185.993 68.5677C185.993 71.6341 187.986 73.5872 191.951 74.4661L195.388 75.2279C197.556 75.7161 198.298 76.4193 198.298 77.6693C198.298 79.2122 196.833 80.1888 194.47 80.1888C192.009 80.1888 190.622 79.1732 190.251 77.1615H185.466C185.857 81.1654 189.06 83.7435 194.47 83.7435C199.548 83.7435 203.142 81.1068 203.142 77.2005C203.142 74.1927 201.482 72.5325 197.185 71.5755L193.747 70.8138C191.579 70.3255 190.72 69.5052 190.72 68.3138C190.72 66.7904 192.146 65.7747 194.294 65.7747C196.54 65.7747 197.927 66.9661 198.122 68.8411H202.654C202.536 64.9154 199.333 62.2005 194.294 62.2005C189.294 62.2005 185.993 64.7786 185.993 68.5677Z" fill="black"/>
<path d="M224.49 70.013C224.158 65.6575 220.779 62.2005 215.31 62.2005C209.294 62.2005 205.388 66.3607 205.388 72.9818C205.388 79.7005 209.294 83.7435 215.349 83.7435C220.544 83.7435 224.118 80.6966 224.509 76.0677H219.919C219.47 78.4115 217.868 79.8177 215.408 79.8177C212.322 79.8177 210.329 77.3177 210.329 72.9818C210.329 68.724 212.302 66.1458 215.368 66.1458C217.966 66.1458 219.509 67.806 219.9 70.013H224.49Z" fill="black"/>
<path d="M236.579 83.7435C242.654 83.7435 246.599 79.7005 246.599 72.9818C246.599 66.2825 242.615 62.2005 236.579 62.2005C230.544 62.2005 226.56 66.3021 226.56 72.9818C226.56 79.7005 230.505 83.7435 236.579 83.7435ZM236.579 79.8958C233.493 79.8958 231.501 77.3958 231.501 72.9818C231.501 68.5872 233.513 66.0677 236.579 66.0677C239.665 66.0677 241.658 68.5872 241.658 72.9818C241.658 77.3958 239.665 79.8958 236.579 79.8958Z" fill="black"/>
<path d="M257.048 75.4622C257.283 80.6185 261.599 83.8021 268.122 83.8021C274.9 83.8021 279.138 80.4036 279.138 75.013C279.138 70.8333 276.658 68.4505 270.72 67.22L267.673 66.595C264.158 65.8529 262.751 64.6224 262.751 62.7083C262.751 60.345 264.978 58.8607 268.103 58.8607C271.326 58.8607 273.552 60.4622 273.786 63.1185H278.611C278.493 58.0794 274.372 54.681 268.142 54.681C262.029 54.681 257.673 58.0404 257.673 63.0013C257.673 67.1224 260.31 69.7786 265.954 70.931L268.982 71.556C272.654 72.3177 274.06 73.5677 274.06 75.599C274.06 77.9427 271.697 79.6224 268.298 79.6224C264.783 79.6224 262.243 78.0599 261.872 75.4622H257.048Z" fill="black"/>
<path d="M291.345 65.97C294.138 65.97 296.013 68.0208 296.111 70.9505H286.443C286.638 68.0599 288.611 65.97 291.345 65.97ZM296.13 77.1419C295.603 78.8607 293.884 79.9935 291.618 79.9935C288.435 79.9935 286.404 77.7669 286.404 74.4466V74.1536H300.876V72.5716C300.876 66.2825 297.204 62.2005 291.326 62.2005C285.349 62.2005 281.56 66.5169 281.56 73.0599C281.56 79.6615 285.31 83.7435 291.521 83.7435C296.423 83.7435 300.056 81.0482 300.681 77.1419H296.13Z" fill="black"/>
<path d="M304.021 83.3333H308.884V70.6575C308.884 68.1575 310.525 66.3411 312.868 66.3411C315.134 66.3411 316.54 67.7669 316.54 70.0716V83.3333H321.267V70.5404C321.267 68.0599 322.868 66.3411 325.212 66.3411C327.595 66.3411 328.923 67.7865 328.923 70.3255V83.3333H333.786V69.1341C333.786 64.9935 331.111 62.2396 327.029 62.2396C324.04 62.2396 321.579 63.8411 320.583 66.3997H320.466C319.704 63.7435 317.615 62.2396 314.685 62.2396C311.872 62.2396 309.685 63.8216 308.786 66.224H308.689V62.6302H304.021V83.3333Z" fill="black"/>
<path d="M337.81 83.3333H342.673V62.6302H337.81V83.3333ZM340.212 59.5052C341.716 59.5052 342.888 58.3138 342.888 56.8685C342.888 55.4036 341.716 54.2318 340.212 54.2318C338.747 54.2318 337.556 55.4036 337.556 56.8685C337.556 58.3138 338.747 59.5052 340.212 59.5052Z" fill="black"/>
<path d="M358.337 83.6654C363.572 83.6654 366.872 79.6029 366.872 72.9818C366.872 66.3607 363.552 62.2786 358.337 62.2786C355.408 62.2786 353.044 63.763 351.872 66.1849H351.755V55.1497H346.892V83.3333H351.658V79.7982H351.755C352.966 82.2005 355.29 83.6654 358.337 83.6654ZM356.833 66.2825C359.939 66.2825 361.892 68.8802 361.892 72.9818C361.892 77.1029 359.958 79.681 356.833 79.681C353.826 79.681 351.736 77.0443 351.736 72.9818C351.736 68.9583 353.826 66.2825 356.833 66.2825Z" fill="black"/>
<path d="M379.197 83.7435C385.271 83.7435 389.216 79.7005 389.216 72.9818C389.216 66.2825 385.232 62.2005 379.197 62.2005C373.161 62.2005 369.177 66.3021 369.177 72.9818C369.177 79.7005 373.122 83.7435 379.197 83.7435ZM379.197 79.8958C376.111 79.8958 374.118 77.3958 374.118 72.9818C374.118 68.5872 376.13 66.0677 379.197 66.0677C382.283 66.0677 384.275 68.5872 384.275 72.9818C384.275 77.3958 382.283 79.8958 379.197 79.8958Z" fill="black"/>
<path d="M392.478 83.3333H397.341V55.1497H392.478V83.3333Z" fill="black"/>
<path d="M409.216 83.6654C412.243 83.6654 414.626 82.1224 415.759 79.7982H415.837V83.3333H420.603V55.1497H415.74V66.1068H415.622C414.529 63.8216 412.185 62.2786 409.216 62.2786C404.001 62.2786 400.622 66.4193 400.622 72.9622C400.622 79.5443 404.001 83.6654 409.216 83.6654ZM410.681 66.2825C413.747 66.2825 415.759 68.9193 415.759 72.9818C415.759 77.0833 413.747 79.681 410.681 79.681C407.536 79.681 405.603 77.1029 405.603 72.9818C405.603 68.8802 407.556 66.2825 410.681 66.2825Z" fill="black"/>
<path d="M0.583313 182.48C0.876282 187.246 4.99738 190.449 11.013 190.449C17.1263 190.449 21.1497 187.227 21.1497 182.227C21.1497 178.32 18.8255 176.113 13.0247 174.805L9.95831 174.102C5.77863 173.164 4.04034 171.543 4.04034 168.984C4.04034 165.781 7.06769 163.789 10.8763 163.789C14.8802 163.789 17.6732 165.938 17.9466 169.16H20.6224C20.4661 164.629 16.4232 161.367 10.9349 161.367C5.40753 161.367 1.30597 164.551 1.30597 169.102C1.30597 172.988 3.64972 175.391 9.25519 176.641L12.3216 177.324C16.6575 178.32 18.4153 179.922 18.4153 182.578C18.4153 185.781 15.388 188.027 11.1497 188.027C6.73566 188.027 3.59113 185.859 3.25909 182.48H0.583313Z" fill="black"/>
<path d="M31.1888 188.105C28.4349 188.105 26.5403 186.582 26.5403 184.375C26.5403 182.129 28.3177 180.742 31.5208 180.527L37.5364 180.117V182.363C37.5364 185.586 34.7435 188.105 31.1888 188.105ZM30.6614 190.332C33.6888 190.332 36.4622 188.652 37.595 186.133H37.6536V190H40.1146V176.094C40.1146 171.953 37.2044 169.355 32.5755 169.355C27.9466 169.355 24.9583 171.934 24.6653 175.566H27.1653C27.6146 173.105 29.5286 171.641 32.5169 171.641C35.681 171.641 37.5364 173.398 37.5364 176.328V178.086L31.2083 178.477C26.5208 178.789 23.9232 180.898 23.9232 184.375C23.9232 187.93 26.6575 190.332 30.6614 190.332Z" fill="black"/>
<path d="M44.4505 190H47.0286V177.969C47.0286 174.199 49.3919 171.66 52.9075 171.66C56.306 171.66 58.2591 173.691 58.2591 177.246V190H60.8372V176.836C60.8372 172.227 58.1028 169.355 53.6497 169.355C50.3685 169.355 47.9857 170.977 46.9505 173.438H46.8919V169.688H44.4505V190Z" fill="black"/>
<path d="M76.4622 190V177.207H89.3919V174.824H76.4622V164.238H90.5247V161.816H73.806V190H76.4622Z" fill="black"/>
<path d="M94.138 190H96.7161V177.344C96.7161 174.062 98.5521 171.816 101.443 171.816C102.322 171.816 103.044 171.953 103.376 172.109V169.57C103.064 169.492 102.458 169.355 101.775 169.355C99.2747 169.355 97.3802 170.82 96.638 173.301H96.5794V169.688H94.138V190Z" fill="black"/>
<path d="M112.087 188.105C109.333 188.105 107.439 186.582 107.439 184.375C107.439 182.129 109.216 180.742 112.419 180.527L118.435 180.117V182.363C118.435 185.586 115.642 188.105 112.087 188.105ZM111.56 190.332C114.587 190.332 117.361 188.652 118.493 186.133H118.552V190H121.013V176.094C121.013 171.953 118.103 169.355 113.474 169.355C108.845 169.355 105.857 171.934 105.564 175.566H108.064C108.513 173.105 110.427 171.641 113.415 171.641C116.579 171.641 118.435 173.398 118.435 176.328V178.086L112.107 178.477C107.419 178.789 104.822 180.898 104.822 184.375C104.822 187.93 107.556 190.332 111.56 190.332Z" fill="black"/>
<path d="M125.349 190H127.927V177.969C127.927 174.199 130.29 171.66 133.806 171.66C137.204 171.66 139.158 173.691 139.158 177.246V190H141.736V176.836C141.736 172.227 139.001 169.355 134.548 169.355C131.267 169.355 128.884 170.977 127.849 173.438H127.79V169.688H125.349V190Z" fill="black"/>
<path d="M162.615 176.113C162.107 172.48 159.04 169.355 154.255 169.355C148.728 169.355 145.076 173.438 145.076 179.844C145.076 186.348 148.728 190.332 154.275 190.332C158.767 190.332 162.068 187.598 162.634 183.711H160.076C159.49 186.348 157.361 188.047 154.294 188.047C150.329 188.047 147.712 184.941 147.712 179.844C147.712 174.824 150.31 171.641 154.275 171.641C157.478 171.641 159.529 173.613 160.076 176.113H162.615Z" fill="black"/>
<path d="M166.033 190H168.611V169.688H166.033V190ZM167.322 165.469C168.279 165.469 169.06 164.707 169.06 163.75C169.06 162.793 168.279 162.031 167.322 162.031C166.365 162.031 165.583 162.793 165.583 163.75C165.583 164.707 166.365 165.469 167.322 165.469Z" fill="black"/>
<path d="M172.829 175.117C172.829 177.93 174.646 179.629 178.513 180.527L181.56 181.25C184.294 181.914 185.29 182.891 185.29 184.648C185.29 186.777 183.279 188.203 180.232 188.203C177.185 188.203 175.212 186.738 174.822 184.18H172.243C172.595 187.891 175.642 190.332 180.232 190.332C184.665 190.332 187.888 187.891 187.888 184.453C187.888 181.582 186.365 180.02 182.302 179.043L179.236 178.32C176.54 177.676 175.388 176.641 175.388 174.98C175.388 172.949 177.283 171.484 180.056 171.484C182.868 171.484 184.704 173.027 185.036 175.566H187.517C187.283 171.875 184.392 169.355 180.056 169.355C175.818 169.355 172.829 171.758 172.829 175.117Z" fill="black"/>
<path d="M207.888 176.113C207.38 172.48 204.314 169.355 199.529 169.355C194.001 169.355 190.349 173.438 190.349 179.844C190.349 186.348 194.001 190.332 199.548 190.332C204.04 190.332 207.341 187.598 207.908 183.711H205.349C204.763 186.348 202.634 188.047 199.568 188.047C195.603 188.047 192.986 184.941 192.986 179.844C192.986 174.824 195.583 171.641 199.548 171.641C202.751 171.641 204.802 173.613 205.349 176.113H207.888Z" fill="black"/>
<path d="M219.372 190.332C224.9 190.332 228.63 186.289 228.63 179.844C228.63 173.379 224.9 169.355 219.372 169.355C213.865 169.355 210.115 173.379 210.115 179.844C210.115 186.289 213.845 190.332 219.372 190.332ZM219.372 188.047C215.388 188.047 212.751 185 212.751 179.844C212.751 174.688 215.388 171.641 219.372 171.641C223.357 171.641 226.013 174.688 226.013 179.844C226.013 185 223.357 188.047 219.372 188.047Z" fill="black"/>
<path d="M257.458 187.578H243.337V161.816H240.681V190H257.458V187.578Z" fill="black"/>
<path d="M260.993 190H263.572V169.688H260.993V190ZM262.283 165.469C263.24 165.469 264.021 164.707 264.021 163.75C264.021 162.793 263.24 162.031 262.283 162.031C261.326 162.031 260.544 162.793 260.544 163.75C260.544 164.707 261.326 165.469 262.283 165.469Z" fill="black"/>
<path d="M276.228 187.91C272.4 187.91 269.841 184.707 269.841 179.805C269.841 174.863 272.4 171.641 276.228 171.641C280.134 171.641 282.771 174.922 282.771 179.785C282.771 184.648 280.134 187.91 276.228 187.91ZM276.482 197.52C281.911 197.52 285.368 194.395 285.368 189.668V169.688H282.908V173.984H282.849C281.658 171.211 279.06 169.355 275.818 169.355C270.622 169.355 267.185 173.477 267.185 179.785C267.185 186.074 270.622 190.195 275.759 190.195C279.001 190.195 281.618 188.301 282.712 185.684H282.771V189.766C282.771 193.086 280.408 195.293 276.599 195.293C273.65 195.293 271.482 193.867 270.818 191.875H268.142C268.708 195.078 272.048 197.52 276.482 197.52Z" fill="black"/>
<path d="M290.017 190H292.615V178.047C292.615 174.219 294.978 171.66 298.63 171.66C302.068 171.66 304.04 173.789 304.04 177.305V190H306.638V176.875C306.638 172.324 303.826 169.355 299.372 169.355C296.13 169.355 293.708 170.938 292.673 173.438H292.615V161.816H290.017V190Z" fill="black"/>
<path d="M312.087 164.609V169.688H309.06V171.836H312.087V185C312.087 188.672 313.454 190.117 316.853 190.117C317.4 190.117 318.493 190.059 318.767 190V187.793C318.611 187.832 317.634 187.871 317.361 187.871C315.486 187.871 314.665 186.973 314.665 184.883V171.836H318.669V169.688H314.665V164.609H312.087Z" fill="black"/>
<path d="M0.7005 129.108C1.03253 133.971 5.13409 137.135 11.2864 137.135C17.595 137.135 21.6966 133.874 21.6966 128.659C21.6966 124.674 19.3724 122.331 13.4935 121.042L10.3685 120.358C6.52081 119.518 5.01691 117.995 5.01691 115.768C5.01691 112.897 7.73175 111.178 11.2474 111.178C14.9193 111.178 17.3607 113.073 17.6732 116.159H21.1888C21.0325 111.374 16.97 108.014 11.345 108.014C5.50519 108.014 1.40363 111.276 1.40363 115.924C1.40363 119.928 3.84503 122.487 9.48956 123.717L12.6146 124.401C16.5208 125.26 18.0833 126.823 18.0833 129.186C18.0833 131.96 15.3099 133.971 11.4818 133.971C7.43878 133.971 4.62628 132.135 4.21613 129.108H0.7005Z" fill="black"/>
<path d="M31.9896 134.128C29.5482 134.128 27.9271 132.858 27.9271 130.924C27.9271 129.01 29.4896 127.799 32.2239 127.624L37.6536 127.292V128.952C37.6536 131.882 35.1927 134.128 31.9896 134.128ZM31.2278 137.018C33.9622 137.018 36.5403 135.495 37.7513 133.171H37.8294V136.667H41.0521V122.624C41.0521 118.581 38.0443 116.003 33.2786 116.003C28.4739 116.003 25.4661 118.698 25.2318 122.214H28.513C28.9427 120.221 30.5833 118.991 33.2005 118.991C36.013 118.991 37.6536 120.475 37.6536 122.956V124.655L31.8333 124.987C27.1458 125.26 24.47 127.448 24.47 130.924C24.47 134.577 27.1849 137.018 31.2278 137.018Z" fill="black"/>
<path d="M45.3685 136.667H48.7669V124.714C48.7669 121.276 50.8568 119.01 54.0599 119.01C57.1849 119.01 58.7278 120.807 58.7278 124.089V136.667H62.1263V123.483C62.1263 118.874 59.5482 116.003 55.095 116.003C51.9505 116.003 49.7825 117.409 48.6497 119.596H48.5716V116.354H45.3685V136.667Z" fill="black"/>
<path d="M78.7083 136.667V124.46H91.1888V121.335H78.7083V111.647H92.3021V108.483H75.1927V136.667H78.7083Z" fill="black"/>
<path d="M95.7982 136.667H99.1966V124.01C99.1966 121.139 100.915 119.245 103.552 119.245C104.372 119.245 105.095 119.342 105.368 119.44V116.139C105.095 116.1 104.587 116.003 104.001 116.003C101.618 116.003 99.7435 117.428 99.0794 119.674H99.0013V116.354H95.7982V136.667Z" fill="black"/>
<path d="M114.451 134.128C112.009 134.128 110.388 132.858 110.388 130.924C110.388 129.01 111.951 127.799 114.685 127.624L120.115 127.292V128.952C120.115 131.882 117.654 134.128 114.451 134.128ZM113.689 137.018C116.423 137.018 119.001 135.495 120.212 133.171H120.29V136.667H123.513V122.624C123.513 118.581 120.505 116.003 115.74 116.003C110.935 116.003 107.927 118.698 107.693 122.214H110.974C111.404 120.221 113.044 118.991 115.661 118.991C118.474 118.991 120.115 120.475 120.115 122.956V124.655L114.294 124.987C109.607 125.26 106.931 127.448 106.931 130.924C106.931 134.577 109.646 137.018 113.689 137.018Z" fill="black"/>
<path d="M127.829 136.667H131.228V124.714C131.228 121.276 133.318 119.01 136.521 119.01C139.646 119.01 141.189 120.807 141.189 124.089V136.667H144.587V123.483C144.587 118.874 142.009 116.003 137.556 116.003C134.411 116.003 132.243 117.409 131.111 119.596H131.033V116.354H127.829V136.667Z" fill="black"/>
<path d="M165.798 123.014C165.368 119.362 162.341 116.003 157.263 116.003C151.658 116.003 147.927 120.104 147.927 126.51C147.927 133.053 151.677 137.018 157.302 137.018C161.911 137.018 165.31 134.167 165.837 130.124H162.497C161.911 132.565 160.095 134.03 157.322 134.03C153.806 134.03 151.384 131.237 151.384 126.51C151.384 121.901 153.767 118.991 157.283 118.991C160.271 118.991 161.99 120.807 162.478 123.014H165.798Z" fill="black"/>
<path d="M169.138 136.667H172.536V116.354H169.138V136.667ZM170.837 112.741C172.029 112.741 172.966 111.784 172.966 110.612C172.966 109.421 172.029 108.483 170.837 108.483C169.665 108.483 168.708 109.421 168.708 110.612C168.708 111.784 169.665 112.741 170.837 112.741Z" fill="black"/>
<path d="M176.775 121.96C176.775 124.889 178.63 126.667 182.458 127.585L185.681 128.366C188.005 128.932 188.806 129.772 188.806 131.237C188.806 133.073 187.107 134.245 184.353 134.245C181.599 134.245 180.036 133.132 179.626 130.807H176.228C176.618 134.616 179.587 137.018 184.353 137.018C188.884 137.018 192.224 134.518 192.224 130.983C192.224 128.073 190.74 126.471 186.638 125.475L183.415 124.694C181.15 124.147 180.115 123.19 180.115 121.784C180.115 120.007 181.755 118.776 184.236 118.776C186.736 118.776 188.298 120.085 188.552 122.214H191.794C191.658 118.62 188.689 116.003 184.236 116.003C179.841 116.003 176.775 118.483 176.775 121.96Z" fill="black"/>
<path d="M212.634 123.014C212.204 119.362 209.177 116.003 204.099 116.003C198.493 116.003 194.763 120.104 194.763 126.51C194.763 133.053 198.513 137.018 204.138 137.018C208.747 137.018 212.146 134.167 212.673 130.124H209.333C208.747 132.565 206.931 134.03 204.158 134.03C200.642 134.03 198.22 131.237 198.22 126.51C198.22 121.901 200.603 118.991 204.118 118.991C207.107 118.991 208.826 120.807 209.314 123.014H212.634Z" fill="black"/>
<path d="M224.216 137.018C229.822 137.018 233.611 132.975 233.611 126.51C233.611 120.026 229.822 116.003 224.216 116.003C218.591 116.003 214.802 120.026 214.802 126.51C214.802 132.975 218.591 137.018 224.216 137.018ZM224.216 134.03C220.622 134.03 218.259 131.296 218.259 126.51C218.259 121.725 220.622 118.991 224.216 118.991C227.81 118.991 230.154 121.725 230.154 126.51C230.154 131.296 227.81 134.03 224.216 134.03Z" fill="black"/>
<path d="M249.294 111.608H255.876C259.509 111.608 261.697 113.62 261.697 116.999C261.697 120.456 259.646 122.409 256.033 122.409H249.294V111.608ZM249.294 125.514H256.033L262.068 136.667H266.189L259.665 124.967C263.201 123.854 265.329 120.807 265.329 116.882C265.329 111.803 261.775 108.483 256.345 108.483H245.779V136.667H249.294V125.514Z" fill="black"/>
<path d="M277.38 118.952C280.583 118.952 282.712 121.374 282.79 124.772H271.755C271.97 121.393 274.197 118.952 277.38 118.952ZM282.712 130.846C282.146 132.76 280.251 134.069 277.673 134.069C274.021 134.069 271.736 131.51 271.736 127.624V127.428H286.306V126.139C286.306 119.987 282.927 116.003 277.439 116.003C271.833 116.003 268.24 120.28 268.24 126.589C268.24 132.975 271.775 137.018 277.595 137.018C282.029 137.018 285.466 134.401 286.052 130.846H282.712Z" fill="black"/>
<path d="M298.005 133.835C294.509 133.835 292.224 130.983 292.224 126.432C292.224 121.882 294.509 118.991 298.005 118.991C301.54 118.991 303.904 121.96 303.904 126.432C303.904 130.905 301.54 133.835 298.005 133.835ZM298.122 144.323C303.728 144.323 307.302 141.1 307.302 136.257V116.354H304.06V119.772H304.001C302.654 117.409 300.271 116.003 297.4 116.003C292.146 116.003 288.747 120.065 288.747 126.432C288.747 132.741 292.146 136.823 297.322 136.823C300.173 136.823 302.576 135.378 303.826 133.171H303.904V136.374C303.904 139.401 301.775 141.432 298.259 141.432C295.72 141.432 293.708 140.202 293.044 138.346H289.548C290.115 141.803 293.65 144.323 298.122 144.323Z" fill="black"/>
<path d="M328.415 116.354H325.017V128.288C325.017 131.745 323.025 134.01 319.724 134.01C316.579 134.01 315.036 132.233 315.036 128.932V116.354H311.638V129.538C311.638 134.147 314.236 137.018 318.669 137.018C321.794 137.018 323.904 135.71 325.115 133.366H325.193V136.667H328.415V116.354Z" fill="black"/>
<path d="M333.005 136.667H336.404V108.483H333.005V136.667Z" fill="black"/>
<path d="M347.693 134.128C345.251 134.128 343.63 132.858 343.63 130.924C343.63 129.01 345.193 127.799 347.927 127.624L353.357 127.292V128.952C353.357 131.882 350.896 134.128 347.693 134.128ZM346.931 137.018C349.665 137.018 352.243 135.495 353.454 133.171H353.533V136.667H356.755V122.624C356.755 118.581 353.747 116.003 348.982 116.003C344.177 116.003 341.169 118.698 340.935 122.214H344.216C344.646 120.221 346.286 118.991 348.904 118.991C351.716 118.991 353.357 120.475 353.357 122.956V124.655L347.536 124.987C342.849 125.26 340.173 127.448 340.173 130.924C340.173 134.577 342.888 137.018 346.931 137.018Z" fill="black"/>
<path d="M361.072 136.667H364.47V124.01C364.47 121.139 366.189 119.245 368.826 119.245C369.646 119.245 370.368 119.342 370.642 119.44V116.139C370.368 116.1 369.861 116.003 369.275 116.003C366.892 116.003 365.017 117.428 364.353 119.674H364.275V116.354H361.072V136.667Z" fill="black"/>
</svg>
