<svg width="427" height="217" viewBox="0 0 427 217" fill="none" xmlns="http://www.w3.org/2000/svg">
<g clip-path="url(#clip0)">
<rect width="426.667" height="216.667" fill="white"/>
<path d="M4.60287 29.9531C4.77866 35.2656 9.25131 38.4883 15.9701 38.4883C23.0208 38.4883 27.3372 34.9922 27.3372 29.4844C27.3372 25.207 24.7396 22.8047 18.7826 21.6133L15.7943 21.0078C12.474 20.3437 11.1068 19.2695 11.1068 17.5312C11.1068 15.4609 13.0599 14.0937 15.9701 14.0937C18.9388 14.0937 21.0287 15.5391 21.224 17.9414H26.7904C26.6927 12.7656 22.5521 9.32812 15.9701 9.32812C9.70053 9.32812 5.20834 12.7461 5.20834 17.9023C5.20834 22.1016 7.96225 24.7969 13.5872 25.9102L16.556 26.4961C20.0912 27.2187 21.4193 28.2734 21.4193 30.1289C21.4193 32.1992 19.2708 33.7227 16.1263 33.7227C12.9232 33.7227 10.5404 32.3164 10.1693 29.9531H4.60287ZM38.5482 34.2109C36.6146 34.2109 35.3255 33.2344 35.3255 31.6719C35.3255 30.1875 36.5365 29.2305 38.6654 29.0742L43.0794 28.8008V30.3242C43.0794 32.5898 41.0287 34.2109 38.5482 34.2109ZM36.6732 38.332C39.2904 38.332 41.888 37.0234 43.0599 34.7969H43.1771V38H48.6849V23.6055C48.6849 19.3867 45.1888 16.6133 39.8177 16.6133C34.2708 16.6133 30.8138 19.4062 30.599 23.4687H35.8138C36.0872 21.9258 37.4349 20.8711 39.5638 20.8711C41.7122 20.8711 43.0794 22.0039 43.0794 23.957V25.3437L37.806 25.6562C32.5912 25.9687 29.6615 28.1758 29.6615 31.9844C29.6615 35.7539 32.6888 38.332 36.6732 38.332ZM52.3763 38H58.0794V25.9883C58.0794 23.2734 59.7005 21.3984 62.2591 21.3984C64.8177 21.3984 66.1068 22.9609 66.1068 25.6953V38H71.8099V24.5039C71.8099 19.6016 69.1927 16.6719 64.5443 16.6719C61.3216 16.6719 59.1146 18.1953 58.0013 20.793H57.8841V17.0625H52.3763V38ZM89.7396 38V26.9062H101.204V22.2383H89.7396V14.6797H102.298V9.8164H83.8412V38H89.7396ZM105.306 38H111.009V26.3008C111.009 23.3516 112.65 21.6328 115.462 21.6328C116.283 21.6328 117.064 21.7695 117.533 21.9648V16.9453C117.142 16.8281 116.576 16.7305 115.911 16.7305C113.451 16.7305 111.673 18.1758 110.931 20.832H110.814V17.0625H105.306V38ZM127.454 34.2109C125.521 34.2109 124.232 33.2344 124.232 31.6719C124.232 30.1875 125.443 29.2305 127.572 29.0742L131.986 28.8008V30.3242C131.986 32.5898 129.935 34.2109 127.454 34.2109ZM125.579 38.332C128.197 38.332 130.794 37.0234 131.966 34.7969H132.083V38H137.591V23.6055C137.591 19.3867 134.095 16.6133 128.724 16.6133C123.177 16.6133 119.72 19.4062 119.505 23.4687H124.72C124.993 21.9258 126.341 20.8711 128.47 20.8711C130.618 20.8711 131.986 22.0039 131.986 23.957V25.3437L126.712 25.6562C121.497 25.9687 118.568 28.1758 118.568 31.9844C118.568 35.7539 121.595 38.332 125.579 38.332ZM141.283 38H146.986V25.9883C146.986 23.2734 148.607 21.3984 151.165 21.3984C153.724 21.3984 155.013 22.9609 155.013 25.6953V38H160.716V24.5039C160.716 19.6016 158.099 16.6719 153.451 16.6719C150.228 16.6719 148.021 18.1953 146.908 20.793H146.79V17.0625H141.283V38ZM183.353 24.8555C183.099 20.1094 179.505 16.6133 173.841 16.6133C167.572 16.6133 163.568 20.793 163.568 27.5117C163.568 34.3477 167.572 38.4492 173.88 38.4492C179.388 38.4492 183.079 35.2656 183.372 30.3242H178.06C177.708 32.6094 176.224 33.9766 173.939 33.9766C171.107 33.9766 169.349 31.6328 169.349 27.5117C169.349 23.4687 171.107 21.0859 173.919 21.0859C176.263 21.0859 177.728 22.6484 178.06 24.8555H183.353ZM186.224 38H191.927V17.0625H186.224V38ZM189.056 14.2305C190.716 14.2305 192.025 12.9023 192.025 11.3008C192.025 9.67968 190.716 8.37109 189.056 8.37109C187.396 8.37109 186.087 9.67968 186.087 11.3008C186.087 12.9023 187.396 14.2305 189.056 14.2305ZM195.384 23.2148C195.384 26.3594 197.435 28.3906 201.478 29.25L205.052 29.9922C207.103 30.4609 207.826 31.0859 207.826 32.1992C207.826 33.5664 206.497 34.4453 204.349 34.4453C202.083 34.4453 200.775 33.4687 200.423 31.6328H194.857C195.228 35.7539 198.568 38.4492 204.349 38.4492C209.74 38.4492 213.509 35.7344 213.509 31.6133C213.509 28.5469 211.712 26.8281 207.337 25.9102L203.763 25.1484C201.654 24.6992 200.872 23.9766 200.872 22.9023C200.872 21.5156 202.181 20.6172 204.154 20.6172C206.263 20.6172 207.533 21.7695 207.708 23.4687H212.962C212.845 19.3672 209.525 16.6133 204.154 16.6133C198.822 16.6133 195.384 19.2305 195.384 23.2148ZM235.345 24.8555C235.091 20.1094 231.497 16.6133 225.833 16.6133C219.564 16.6133 215.56 20.793 215.56 27.5117C215.56 34.3477 219.564 38.4492 225.872 38.4492C231.38 38.4492 235.072 35.2656 235.365 30.3242H230.052C229.701 32.6094 228.216 33.9766 225.931 33.9766C223.099 33.9766 221.341 31.6328 221.341 27.5117C221.341 23.4687 223.099 21.0859 225.911 21.0859C228.255 21.0859 229.72 22.6484 230.052 24.8555H235.345ZM247.728 38.4492C254.056 38.4492 258.099 34.4062 258.099 27.5117C258.099 20.7148 253.997 16.6133 247.728 16.6133C241.458 16.6133 237.357 20.7344 237.357 27.5117C237.357 34.3867 241.4 38.4492 247.728 38.4492ZM247.728 34.0937C244.915 34.0937 243.138 31.7305 243.138 27.5312C243.138 23.3711 244.954 20.9687 247.728 20.9687C250.501 20.9687 252.298 23.3711 252.298 27.5312C252.298 31.7305 250.521 34.0937 247.728 34.0937ZM281.947 38C287.962 38 291.693 34.8945 291.693 29.9336C291.693 26.2031 288.88 23.4102 285.052 23.1172V22.9609C288.04 22.5117 290.345 19.9336 290.345 16.8477C290.345 12.5312 287.025 9.8164 281.732 9.8164H269.466V38H281.947ZM275.365 14.2109H280.208C282.962 14.2109 284.544 15.5 284.544 17.7656C284.544 20.1484 282.747 21.5352 279.603 21.5352H275.365V14.2109ZM275.365 33.6055V25.4219H280.306C283.783 25.4219 285.677 26.8281 285.677 29.4648C285.677 32.1602 283.841 33.6055 280.443 33.6055H275.365ZM304.173 38.4492C310.501 38.4492 314.544 34.4062 314.544 27.5117C314.544 20.7148 310.443 16.6133 304.173 16.6133C297.904 16.6133 293.802 20.7344 293.802 27.5117C293.802 34.3867 297.845 38.4492 304.173 38.4492ZM304.173 34.0937C301.361 34.0937 299.583 31.7305 299.583 27.5312C299.583 23.3711 301.4 20.9687 304.173 20.9687C306.947 20.9687 308.743 23.3711 308.743 27.5312C308.743 31.7305 306.966 34.0937 304.173 34.0937ZM317.63 38H323.333V9.8164H317.63V38ZM334.954 38.332C338.04 38.332 340.462 36.7109 341.478 34.4062H341.576V38H347.201V9.8164H341.497V20.6562H341.38C340.365 18.332 338.021 16.7305 334.993 16.7305C329.74 16.7305 326.419 20.8516 326.419 27.4922C326.419 34.1914 329.72 38.332 334.954 38.332ZM336.888 21.3008C339.72 21.3008 341.536 23.7227 341.536 27.5312C341.536 31.3594 339.72 33.7422 336.888 33.7422C334.017 33.7422 332.259 31.3789 332.259 27.5312C332.259 23.7031 334.017 21.3008 336.888 21.3008Z" fill="black"/>
<path d="M4.64194 83.4622C4.87631 88.6185 9.19272 91.8021 15.7162 91.8021C22.4935 91.8021 26.7318 88.4036 26.7318 83.013C26.7318 78.8333 24.2513 76.4505 18.3138 75.22L15.2669 74.595C11.7513 73.8529 10.3451 72.6224 10.3451 70.7083C10.3451 68.345 12.5716 66.8607 15.6966 66.8607C18.9193 66.8607 21.1458 68.4622 21.3802 71.1185H26.2044C26.0872 66.0794 21.9662 62.681 15.7357 62.681C9.62241 62.681 5.26694 66.0404 5.26694 71.0013C5.26694 75.1224 7.90366 77.7786 13.5482 78.931L16.5755 79.556C20.2474 80.3177 21.6537 81.5677 21.6537 83.599C21.6537 85.9427 19.2904 87.6224 15.8919 87.6224C12.3763 87.6224 9.83725 86.0599 9.46616 83.4622H4.64194ZM37.5716 87.9935C35.4622 87.9935 34.056 86.9193 34.056 85.22C34.056 83.5794 35.4037 82.5247 37.7474 82.3685L42.5326 82.0755V83.6575C42.5326 86.1575 40.3255 87.9935 37.5716 87.9935ZM36.1068 91.6654C38.763 91.6654 41.3607 90.2786 42.5521 88.0325H42.6497V91.3333H47.3372V77.0755C47.3372 72.9154 43.9974 70.2005 38.8607 70.2005C33.5872 70.2005 30.2865 72.974 30.0716 76.8411H34.5833C34.8958 75.1224 36.3607 74.0091 38.6654 74.0091C41.0677 74.0091 42.5326 75.2591 42.5326 77.4271V78.9115L37.0638 79.224C32.0247 79.5365 29.1927 81.7435 29.1927 85.4154C29.1927 89.1458 32.1029 91.6654 36.1068 91.6654ZM51.263 91.3333H56.1263V79.3411C56.1263 76.3724 57.9037 74.3607 60.6966 74.3607C63.4701 74.3607 64.8372 76.0013 64.8372 78.931V91.3333H69.7005V77.9544C69.7005 73.1693 67.1029 70.2396 62.5326 70.2396C59.349 70.2396 57.1419 71.724 56.0287 74.1849H55.931V70.6302H51.263V91.3333ZM87.1419 91.3333V79.8294H98.9583V75.7279H87.1419V67.4075H100.072V63.1497H82.1029V91.3333H87.1419ZM103.255 91.3333H108.118V79.2825C108.118 76.3724 109.779 74.595 112.533 74.595C113.353 74.595 114.095 74.7122 114.505 74.8685V70.474C114.154 70.3958 113.607 70.2786 112.982 70.2786C110.54 70.2786 108.724 71.724 108.021 74.2435H107.923V70.6302H103.255V91.3333ZM124.095 87.9935C121.986 87.9935 120.579 86.9193 120.579 85.22C120.579 83.5794 121.927 82.5247 124.271 82.3685L129.056 82.0755V83.6575C129.056 86.1575 126.849 87.9935 124.095 87.9935ZM122.63 91.6654C125.286 91.6654 127.884 90.2786 129.076 88.0325H129.173V91.3333H133.861V77.0755C133.861 72.9154 130.521 70.2005 125.384 70.2005C120.111 70.2005 116.81 72.974 116.595 76.8411H121.107C121.419 75.1224 122.884 74.0091 125.189 74.0091C127.591 74.0091 129.056 75.2591 129.056 77.4271V78.9115L123.587 79.224C118.548 79.5365 115.716 81.7435 115.716 85.4154C115.716 89.1458 118.626 91.6654 122.63 91.6654ZM137.786 91.3333H142.65V79.3411C142.65 76.3724 144.427 74.3607 147.22 74.3607C149.993 74.3607 151.361 76.0013 151.361 78.931V91.3333H156.224V77.9544C156.224 73.1693 153.626 70.2396 149.056 70.2396C145.872 70.2396 143.665 71.724 142.552 74.1849H142.454V70.6302H137.786V91.3333ZM178.372 78.013C178.04 73.6575 174.661 70.2005 169.193 70.2005C163.177 70.2005 159.271 74.3607 159.271 80.9818C159.271 87.7005 163.177 91.7435 169.232 91.7435C174.427 91.7435 178.001 88.6966 178.392 84.0677H173.802C173.353 86.4115 171.751 87.8177 169.29 87.8177C166.204 87.8177 164.212 85.3177 164.212 80.9818C164.212 76.724 166.185 74.1458 169.251 74.1458C171.849 74.1458 173.392 75.806 173.783 78.013H178.372ZM181.419 91.3333H186.283V70.6302H181.419V91.3333ZM183.822 67.5052C185.326 67.5052 186.497 66.3138 186.497 64.8685C186.497 63.4036 185.326 62.2318 183.822 62.2318C182.357 62.2318 181.165 63.4036 181.165 64.8685C181.165 66.3138 182.357 67.5052 183.822 67.5052ZM189.993 76.5677C189.993 79.6341 191.986 81.5872 195.951 82.4661L199.388 83.2279C201.556 83.7161 202.298 84.4193 202.298 85.6693C202.298 87.2122 200.833 88.1888 198.47 88.1888C196.009 88.1888 194.622 87.1732 194.251 85.1615H189.466C189.857 89.1654 193.06 91.7435 198.47 91.7435C203.548 91.7435 207.142 89.1068 207.142 85.2005C207.142 82.1927 205.482 80.5325 201.185 79.5755L197.747 78.8138C195.579 78.3255 194.72 77.5052 194.72 76.3138C194.72 74.7904 196.146 73.7747 198.294 73.7747C200.54 73.7747 201.927 74.9661 202.122 76.8411H206.654C206.536 72.9154 203.333 70.2005 198.294 70.2005C193.294 70.2005 189.993 72.7786 189.993 76.5677ZM228.49 78.013C228.158 73.6575 224.779 70.2005 219.31 70.2005C213.294 70.2005 209.388 74.3607 209.388 80.9818C209.388 87.7005 213.294 91.7435 219.349 91.7435C224.544 91.7435 228.118 88.6966 228.509 84.0677H223.919C223.47 86.4115 221.868 87.8177 219.408 87.8177C216.322 87.8177 214.329 85.3177 214.329 80.9818C214.329 76.724 216.302 74.1458 219.368 74.1458C221.966 74.1458 223.509 75.806 223.9 78.013H228.49ZM240.579 91.7435C246.654 91.7435 250.599 87.7005 250.599 80.9818C250.599 74.2825 246.615 70.2005 240.579 70.2005C234.544 70.2005 230.56 74.3021 230.56 80.9818C230.56 87.7005 234.505 91.7435 240.579 91.7435ZM240.579 87.8958C237.493 87.8958 235.501 85.3958 235.501 80.9818C235.501 76.5872 237.513 74.0677 240.579 74.0677C243.665 74.0677 245.658 76.5872 245.658 80.9818C245.658 85.3958 243.665 87.8958 240.579 87.8958ZM261.048 83.4622C261.283 88.6185 265.599 91.8021 272.122 91.8021C278.9 91.8021 283.138 88.4036 283.138 83.013C283.138 78.8333 280.658 76.4505 274.72 75.22L271.673 74.595C268.158 73.8529 266.751 72.6224 266.751 70.7083C266.751 68.345 268.978 66.8607 272.103 66.8607C275.326 66.8607 277.552 68.4622 277.786 71.1185H282.611C282.493 66.0794 278.372 62.681 272.142 62.681C266.029 62.681 261.673 66.0404 261.673 71.0013C261.673 75.1224 264.31 77.7786 269.954 78.931L272.982 79.556C276.654 80.3177 278.06 81.5677 278.06 83.599C278.06 85.9427 275.697 87.6224 272.298 87.6224C268.783 87.6224 266.243 86.0599 265.872 83.4622H261.048ZM295.345 73.97C298.138 73.97 300.013 76.0208 300.111 78.9505H290.443C290.638 76.0599 292.611 73.97 295.345 73.97ZM300.13 85.1419C299.603 86.8607 297.884 87.9935 295.618 87.9935C292.435 87.9935 290.404 85.7669 290.404 82.4466V82.1536H304.876V80.5716C304.876 74.2825 301.204 70.2005 295.326 70.2005C289.349 70.2005 285.56 74.5169 285.56 81.0599C285.56 87.6615 289.31 91.7435 295.521 91.7435C300.423 91.7435 304.056 89.0482 304.681 85.1419H300.13ZM308.021 91.3333H312.884V78.6575C312.884 76.1575 314.525 74.3411 316.868 74.3411C319.134 74.3411 320.54 75.7669 320.54 78.0716V91.3333H325.267V78.5404C325.267 76.0599 326.868 74.3411 329.212 74.3411C331.595 74.3411 332.923 75.7865 332.923 78.3255V91.3333H337.786V77.1341C337.786 72.9935 335.111 70.2396 331.029 70.2396C328.04 70.2396 325.579 71.8411 324.583 74.3997H324.466C323.704 71.7435 321.615 70.2396 318.685 70.2396C315.872 70.2396 313.685 71.8216 312.786 74.224H312.689V70.6302H308.021V91.3333ZM341.81 91.3333H346.673V70.6302H341.81V91.3333ZM344.212 67.5052C345.716 67.5052 346.888 66.3138 346.888 64.8685C346.888 63.4036 345.716 62.2318 344.212 62.2318C342.747 62.2318 341.556 63.4036 341.556 64.8685C341.556 66.3138 342.747 67.5052 344.212 67.5052ZM362.337 91.6654C367.572 91.6654 370.872 87.6029 370.872 80.9818C370.872 74.3607 367.552 70.2786 362.337 70.2786C359.408 70.2786 357.044 71.763 355.872 74.1849H355.755V63.1497H350.892V91.3333H355.658V87.7982H355.755C356.966 90.2005 359.29 91.6654 362.337 91.6654ZM360.833 74.2825C363.939 74.2825 365.892 76.8802 365.892 80.9818C365.892 85.1029 363.958 87.681 360.833 87.681C357.826 87.681 355.736 85.0443 355.736 80.9818C355.736 76.9583 357.826 74.2825 360.833 74.2825ZM383.197 91.7435C389.271 91.7435 393.216 87.7005 393.216 80.9818C393.216 74.2825 389.232 70.2005 383.197 70.2005C377.161 70.2005 373.177 74.3021 373.177 80.9818C373.177 87.7005 377.122 91.7435 383.197 91.7435ZM383.197 87.8958C380.111 87.8958 378.118 85.3958 378.118 80.9818C378.118 76.5872 380.13 74.0677 383.197 74.0677C386.283 74.0677 388.275 76.5872 388.275 80.9818C388.275 85.3958 386.283 87.8958 383.197 87.8958ZM396.478 91.3333H401.341V63.1497H396.478V91.3333ZM413.216 91.6654C416.243 91.6654 418.626 90.1224 419.759 87.7982H419.837V91.3333H424.603V63.1497H419.74V74.1068H419.622C418.529 71.8216 416.185 70.2786 413.216 70.2786C408.001 70.2786 404.622 74.4193 404.622 80.9622C404.622 87.5443 408.001 91.6654 413.216 91.6654ZM414.681 74.2825C417.747 74.2825 419.759 76.9193 419.759 80.9818C419.759 85.0833 417.747 87.681 414.681 87.681C411.536 87.681 409.603 85.1029 409.603 80.9818C409.603 76.8802 411.556 74.2825 414.681 74.2825Z" fill="black"/>
<path d="M4.58334 190.48C4.87631 195.246 8.99741 198.449 15.013 198.449C21.1263 198.449 25.1497 195.227 25.1497 190.227C25.1497 186.32 22.8255 184.113 17.0247 182.805L13.9583 182.102C9.77866 181.164 8.04037 179.543 8.04037 176.984C8.04037 173.781 11.0677 171.789 14.8763 171.789C18.8802 171.789 21.6732 173.938 21.9466 177.16H24.6224C24.4662 172.629 20.4232 169.367 14.9349 169.367C9.40756 169.367 5.306 172.551 5.306 177.102C5.306 180.988 7.64975 183.391 13.2552 184.641L16.3216 185.324C20.6576 186.32 22.4154 187.922 22.4154 190.578C22.4154 193.781 19.388 196.027 15.1497 196.027C10.7357 196.027 7.59116 193.859 7.25912 190.48H4.58334ZM35.1888 196.105C32.4349 196.105 30.5404 194.582 30.5404 192.375C30.5404 190.129 32.3177 188.742 35.5208 188.527L41.5365 188.117V190.363C41.5365 193.586 38.7435 196.105 35.1888 196.105ZM34.6615 198.332C37.6888 198.332 40.4622 196.652 41.5951 194.133H41.6537V198H44.1146V184.094C44.1146 179.953 41.2044 177.355 36.5755 177.355C31.9466 177.355 28.9583 179.934 28.6654 183.566H31.1654C31.6146 181.105 33.5287 179.641 36.5169 179.641C39.681 179.641 41.5365 181.398 41.5365 184.328V186.086L35.2083 186.477C30.5208 186.789 27.9232 188.898 27.9232 192.375C27.9232 195.93 30.6576 198.332 34.6615 198.332ZM48.4505 198H51.0287V185.969C51.0287 182.199 53.3919 179.66 56.9076 179.66C60.306 179.66 62.2591 181.691 62.2591 185.246V198H64.8372V184.836C64.8372 180.227 62.1029 177.355 57.6497 177.355C54.3685 177.355 51.9857 178.977 50.9505 181.438H50.8919V177.688H48.4505V198ZM80.4622 198V185.207H93.3919V182.824H80.4622V172.238H94.5247V169.816H77.806V198H80.4622ZM98.138 198H100.716V185.344C100.716 182.062 102.552 179.816 105.443 179.816C106.322 179.816 107.044 179.953 107.376 180.109V177.57C107.064 177.492 106.458 177.355 105.775 177.355C103.275 177.355 101.38 178.82 100.638 181.301H100.579V177.688H98.138V198ZM116.087 196.105C113.333 196.105 111.439 194.582 111.439 192.375C111.439 190.129 113.216 188.742 116.419 188.527L122.435 188.117V190.363C122.435 193.586 119.642 196.105 116.087 196.105ZM115.56 198.332C118.587 198.332 121.361 196.652 122.493 194.133H122.552V198H125.013V184.094C125.013 179.953 122.103 177.355 117.474 177.355C112.845 177.355 109.857 179.934 109.564 183.566H112.064C112.513 181.105 114.427 179.641 117.415 179.641C120.579 179.641 122.435 181.398 122.435 184.328V186.086L116.107 186.477C111.419 186.789 108.822 188.898 108.822 192.375C108.822 195.93 111.556 198.332 115.56 198.332ZM129.349 198H131.927V185.969C131.927 182.199 134.29 179.66 137.806 179.66C141.204 179.66 143.158 181.691 143.158 185.246V198H145.736V184.836C145.736 180.227 143.001 177.355 138.548 177.355C135.267 177.355 132.884 178.977 131.849 181.438H131.79V177.688H129.349V198ZM166.615 184.113C166.107 180.48 163.04 177.355 158.255 177.355C152.728 177.355 149.076 181.438 149.076 187.844C149.076 194.348 152.728 198.332 158.275 198.332C162.767 198.332 166.068 195.598 166.634 191.711H164.076C163.49 194.348 161.361 196.047 158.294 196.047C154.329 196.047 151.712 192.941 151.712 187.844C151.712 182.824 154.31 179.641 158.275 179.641C161.478 179.641 163.529 181.613 164.076 184.113H166.615ZM170.033 198H172.611V177.688H170.033V198ZM171.322 173.469C172.279 173.469 173.06 172.707 173.06 171.75C173.06 170.793 172.279 170.031 171.322 170.031C170.365 170.031 169.583 170.793 169.583 171.75C169.583 172.707 170.365 173.469 171.322 173.469ZM176.829 183.117C176.829 185.93 178.646 187.629 182.513 188.527L185.56 189.25C188.294 189.914 189.29 190.891 189.29 192.648C189.29 194.777 187.279 196.203 184.232 196.203C181.185 196.203 179.212 194.738 178.822 192.18H176.243C176.595 195.891 179.642 198.332 184.232 198.332C188.665 198.332 191.888 195.891 191.888 192.453C191.888 189.582 190.365 188.02 186.302 187.043L183.236 186.32C180.54 185.676 179.388 184.641 179.388 182.98C179.388 180.949 181.283 179.484 184.056 179.484C186.868 179.484 188.704 181.027 189.036 183.566H191.517C191.283 179.875 188.392 177.355 184.056 177.355C179.818 177.355 176.829 179.758 176.829 183.117ZM211.888 184.113C211.38 180.48 208.314 177.355 203.529 177.355C198.001 177.355 194.349 181.438 194.349 187.844C194.349 194.348 198.001 198.332 203.548 198.332C208.04 198.332 211.341 195.598 211.908 191.711H209.349C208.763 194.348 206.634 196.047 203.568 196.047C199.603 196.047 196.986 192.941 196.986 187.844C196.986 182.824 199.583 179.641 203.548 179.641C206.751 179.641 208.802 181.613 209.349 184.113H211.888ZM223.372 198.332C228.9 198.332 232.63 194.289 232.63 187.844C232.63 181.379 228.9 177.355 223.372 177.355C217.865 177.355 214.115 181.379 214.115 187.844C214.115 194.289 217.845 198.332 223.372 198.332ZM223.372 196.047C219.388 196.047 216.751 193 216.751 187.844C216.751 182.688 219.388 179.641 223.372 179.641C227.357 179.641 230.013 182.688 230.013 187.844C230.013 193 227.357 196.047 223.372 196.047ZM261.458 195.578H247.337V169.816H244.681V198H261.458V195.578ZM264.993 198H267.572V177.688H264.993V198ZM266.283 173.469C267.24 173.469 268.021 172.707 268.021 171.75C268.021 170.793 267.24 170.031 266.283 170.031C265.326 170.031 264.544 170.793 264.544 171.75C264.544 172.707 265.326 173.469 266.283 173.469ZM280.228 195.91C276.4 195.91 273.841 192.707 273.841 187.805C273.841 182.863 276.4 179.641 280.228 179.641C284.134 179.641 286.771 182.922 286.771 187.785C286.771 192.648 284.134 195.91 280.228 195.91ZM280.482 205.52C285.911 205.52 289.368 202.395 289.368 197.668V177.688H286.908V181.984H286.849C285.658 179.211 283.06 177.355 279.818 177.355C274.622 177.355 271.185 181.477 271.185 187.785C271.185 194.074 274.622 198.195 279.759 198.195C283.001 198.195 285.618 196.301 286.712 193.684H286.771V197.766C286.771 201.086 284.408 203.293 280.599 203.293C277.65 203.293 275.482 201.867 274.818 199.875H272.142C272.708 203.078 276.048 205.52 280.482 205.52ZM294.017 198H296.615V186.047C296.615 182.219 298.978 179.66 302.63 179.66C306.068 179.66 308.04 181.789 308.04 185.305V198H310.638V184.875C310.638 180.324 307.826 177.355 303.372 177.355C300.13 177.355 297.708 178.938 296.673 181.438H296.615V169.816H294.017V198ZM316.087 172.609V177.688H313.06V179.836H316.087V193C316.087 196.672 317.454 198.117 320.853 198.117C321.4 198.117 322.493 198.059 322.767 198V195.793C322.611 195.832 321.634 195.871 321.361 195.871C319.486 195.871 318.665 194.973 318.665 192.883V179.836H322.669V177.688H318.665V172.609H316.087Z" fill="black"/>
<path d="M4.70053 137.108C5.03256 141.971 9.13412 145.135 15.2865 145.135C21.5951 145.135 25.6966 141.874 25.6966 136.659C25.6966 132.674 23.3724 130.331 17.4935 129.042L14.3685 128.358C10.5208 127.518 9.01694 125.995 9.01694 123.768C9.01694 120.897 11.7318 119.178 15.2474 119.178C18.9193 119.178 21.3607 121.073 21.6732 124.159H25.1888C25.0326 119.374 20.9701 116.014 15.3451 116.014C9.50522 116.014 5.40366 119.276 5.40366 123.924C5.40366 127.928 7.84506 130.487 13.4896 131.717L16.6146 132.401C20.5208 133.26 22.0833 134.823 22.0833 137.186C22.0833 139.96 19.3099 141.971 15.4818 141.971C11.4388 141.971 8.62631 140.135 8.21616 137.108H4.70053ZM35.9896 142.128C33.5482 142.128 31.9271 140.858 31.9271 138.924C31.9271 137.01 33.4896 135.799 36.224 135.624L41.6537 135.292V136.952C41.6537 139.882 39.1927 142.128 35.9896 142.128ZM35.2279 145.018C37.9622 145.018 40.5404 143.495 41.7513 141.171H41.8294V144.667H45.0521V130.624C45.0521 126.581 42.0443 124.003 37.2787 124.003C32.474 124.003 29.4662 126.698 29.2318 130.214H32.513C32.9427 128.221 34.5833 126.991 37.2005 126.991C40.013 126.991 41.6537 128.475 41.6537 130.956V132.655L35.8333 132.987C31.1458 133.26 28.4701 135.448 28.4701 138.924C28.4701 142.577 31.1849 145.018 35.2279 145.018ZM49.3685 144.667H52.7669V132.714C52.7669 129.276 54.8568 127.01 58.0599 127.01C61.1849 127.01 62.7279 128.807 62.7279 132.089V144.667H66.1263V131.483C66.1263 126.874 63.5482 124.003 59.0951 124.003C55.9505 124.003 53.7826 125.409 52.6497 127.596H52.5716V124.354H49.3685V144.667ZM82.7083 144.667V132.46H95.1888V129.335H82.7083V119.647H96.3021V116.483H79.1927V144.667H82.7083ZM99.7982 144.667H103.197V132.01C103.197 129.139 104.915 127.245 107.552 127.245C108.372 127.245 109.095 127.342 109.368 127.44V124.139C109.095 124.1 108.587 124.003 108.001 124.003C105.618 124.003 103.743 125.428 103.079 127.674H103.001V124.354H99.7982V144.667ZM118.451 142.128C116.009 142.128 114.388 140.858 114.388 138.924C114.388 137.01 115.951 135.799 118.685 135.624L124.115 135.292V136.952C124.115 139.882 121.654 142.128 118.451 142.128ZM117.689 145.018C120.423 145.018 123.001 143.495 124.212 141.171H124.29V144.667H127.513V130.624C127.513 126.581 124.505 124.003 119.74 124.003C114.935 124.003 111.927 126.698 111.693 130.214H114.974C115.404 128.221 117.044 126.991 119.661 126.991C122.474 126.991 124.115 128.475 124.115 130.956V132.655L118.294 132.987C113.607 133.26 110.931 135.448 110.931 138.924C110.931 142.577 113.646 145.018 117.689 145.018ZM131.829 144.667H135.228V132.714C135.228 129.276 137.318 127.01 140.521 127.01C143.646 127.01 145.189 128.807 145.189 132.089V144.667H148.587V131.483C148.587 126.874 146.009 124.003 141.556 124.003C138.411 124.003 136.243 125.409 135.111 127.596H135.033V124.354H131.829V144.667ZM169.798 131.014C169.368 127.362 166.341 124.003 161.263 124.003C155.658 124.003 151.927 128.104 151.927 134.51C151.927 141.053 155.677 145.018 161.302 145.018C165.911 145.018 169.31 142.167 169.837 138.124H166.497C165.911 140.565 164.095 142.03 161.322 142.03C157.806 142.03 155.384 139.237 155.384 134.51C155.384 129.901 157.767 126.991 161.283 126.991C164.271 126.991 165.99 128.807 166.478 131.014H169.798ZM173.138 144.667H176.536V124.354H173.138V144.667ZM174.837 120.741C176.029 120.741 176.966 119.784 176.966 118.612C176.966 117.421 176.029 116.483 174.837 116.483C173.665 116.483 172.708 117.421 172.708 118.612C172.708 119.784 173.665 120.741 174.837 120.741ZM180.775 129.96C180.775 132.889 182.63 134.667 186.458 135.585L189.681 136.366C192.005 136.932 192.806 137.772 192.806 139.237C192.806 141.073 191.107 142.245 188.353 142.245C185.599 142.245 184.036 141.132 183.626 138.807H180.228C180.618 142.616 183.587 145.018 188.353 145.018C192.884 145.018 196.224 142.518 196.224 138.983C196.224 136.073 194.74 134.471 190.638 133.475L187.415 132.694C185.15 132.147 184.115 131.19 184.115 129.784C184.115 128.007 185.755 126.776 188.236 126.776C190.736 126.776 192.298 128.085 192.552 130.214H195.794C195.658 126.62 192.689 124.003 188.236 124.003C183.841 124.003 180.775 126.483 180.775 129.96ZM216.634 131.014C216.204 127.362 213.177 124.003 208.099 124.003C202.493 124.003 198.763 128.104 198.763 134.51C198.763 141.053 202.513 145.018 208.138 145.018C212.747 145.018 216.146 142.167 216.673 138.124H213.333C212.747 140.565 210.931 142.03 208.158 142.03C204.642 142.03 202.22 139.237 202.22 134.51C202.22 129.901 204.603 126.991 208.118 126.991C211.107 126.991 212.826 128.807 213.314 131.014H216.634ZM228.216 145.018C233.822 145.018 237.611 140.975 237.611 134.51C237.611 128.026 233.822 124.003 228.216 124.003C222.591 124.003 218.802 128.026 218.802 134.51C218.802 140.975 222.591 145.018 228.216 145.018ZM228.216 142.03C224.622 142.03 222.259 139.296 222.259 134.51C222.259 129.725 224.622 126.991 228.216 126.991C231.81 126.991 234.154 129.725 234.154 134.51C234.154 139.296 231.81 142.03 228.216 142.03ZM253.294 119.608H259.876C263.509 119.608 265.697 121.62 265.697 124.999C265.697 128.456 263.646 130.409 260.033 130.409H253.294V119.608ZM253.294 133.514H260.033L266.068 144.667H270.189L263.665 132.967C267.201 131.854 269.329 128.807 269.329 124.882C269.329 119.803 265.775 116.483 260.345 116.483H249.779V144.667H253.294V133.514ZM281.38 126.952C284.583 126.952 286.712 129.374 286.79 132.772H275.755C275.97 129.393 278.197 126.952 281.38 126.952ZM286.712 138.846C286.146 140.76 284.251 142.069 281.673 142.069C278.021 142.069 275.736 139.51 275.736 135.624V135.428H290.306V134.139C290.306 127.987 286.927 124.003 281.439 124.003C275.833 124.003 272.24 128.28 272.24 134.589C272.24 140.975 275.775 145.018 281.595 145.018C286.029 145.018 289.466 142.401 290.052 138.846H286.712ZM302.005 141.835C298.509 141.835 296.224 138.983 296.224 134.432C296.224 129.882 298.509 126.991 302.005 126.991C305.54 126.991 307.904 129.96 307.904 134.432C307.904 138.905 305.54 141.835 302.005 141.835ZM302.122 152.323C307.728 152.323 311.302 149.1 311.302 144.257V124.354H308.06V127.772H308.001C306.654 125.409 304.271 124.003 301.4 124.003C296.146 124.003 292.747 128.065 292.747 134.432C292.747 140.741 296.146 144.823 301.322 144.823C304.173 144.823 306.576 143.378 307.826 141.171H307.904V144.374C307.904 147.401 305.775 149.432 302.259 149.432C299.72 149.432 297.708 148.202 297.044 146.346H293.548C294.115 149.803 297.65 152.323 302.122 152.323ZM332.415 124.354H329.017V136.288C329.017 139.745 327.025 142.01 323.724 142.01C320.579 142.01 319.036 140.233 319.036 136.932V124.354H315.638V137.538C315.638 142.147 318.236 145.018 322.669 145.018C325.794 145.018 327.904 143.71 329.115 141.366H329.193V144.667H332.415V124.354ZM337.005 144.667H340.404V116.483H337.005V144.667ZM351.693 142.128C349.251 142.128 347.63 140.858 347.63 138.924C347.63 137.01 349.193 135.799 351.927 135.624L357.357 135.292V136.952C357.357 139.882 354.896 142.128 351.693 142.128ZM350.931 145.018C353.665 145.018 356.243 143.495 357.454 141.171H357.533V144.667H360.755V130.624C360.755 126.581 357.747 124.003 352.982 124.003C348.177 124.003 345.169 126.698 344.935 130.214H348.216C348.646 128.221 350.286 126.991 352.904 126.991C355.716 126.991 357.357 128.475 357.357 130.956V132.655L351.536 132.987C346.849 133.26 344.173 135.448 344.173 138.924C344.173 142.577 346.888 145.018 350.931 145.018ZM365.072 144.667H368.47V132.01C368.47 129.139 370.189 127.245 372.826 127.245C373.646 127.245 374.368 127.342 374.642 127.44V124.139C374.368 124.1 373.861 124.003 373.275 124.003C370.892 124.003 369.017 125.428 368.353 127.674H368.275V124.354H365.072V144.667Z" fill="black"/>
</g>
<defs>
<clipPath id="clip0">
<rect width="426.667" height="216.667" fill="white"/>
</clipPath>
</defs>
</svg>
