<svg width="100%" viewBox="0 0 240 125" fill="none" xmlns="http://www.w3.org/2000/svg">
<rect width="240" height="125" fill="white"/>
<path d="M1.11328 18.2656C1.23047 21.4297 3.63281 23.3398 7.46484 23.3398C11.4141 23.3398 13.8047 21.3242 13.8047 17.9844C13.8047 15.3945 12.375 13.9297 9.10547 13.2031L7.37109 12.8047C5.54297 12.4062 4.79297 11.75 4.79297 10.5547C4.79297 9.28906 5.83594 8.50391 7.51172 8.50391C9.16406 8.50391 10.2305 9.35938 10.3594 10.7539H13.5C13.3945 7.73047 11.0156 5.75 7.47656 5.75C3.82031 5.75 1.48828 7.75391 1.48828 10.9062C1.48828 13.4141 2.98828 15.0312 6.04688 15.7227L7.80469 16.1328C9.76172 16.5664 10.5117 17.1758 10.5117 18.3242C10.5117 19.6953 9.35156 20.5742 7.52344 20.5742C5.60156 20.5742 4.40625 19.7305 4.25391 18.2656H1.11328ZM20.6953 23V16.2969H27.375V13.543H20.6953V8.96094H28.043V6.08984H17.3555V23H20.6953ZM48.3164 17.4219L47.8945 10.6719H48.1406L50.8008 19.0273H53.0508L55.7109 10.6719H55.957L55.5352 17.4219V23H58.3242V6.08984H54.8789L52.0312 15.7578H51.832L48.9727 6.08984H45.5273V23H48.3164V17.4219ZM66.7617 23.2812C70.4062 23.2812 72.7031 21.0664 72.7031 17.5391V15.5469C72.7031 12.0195 70.4062 9.80469 66.7617 9.80469C63.1172 9.80469 60.8203 12.0195 60.8203 15.5469V17.5391C60.8203 21.0664 63.1172 23.2812 66.7617 23.2812ZM66.7617 12.4297C68.4844 12.4297 69.5508 13.6719 69.5508 15.6758V17.4102C69.5508 19.4023 68.4844 20.6562 66.7617 20.6562C65.0391 20.6562 63.9727 19.4023 63.9727 17.4102V15.6758C63.9727 13.6719 65.0391 12.4297 66.7617 12.4297ZM75.8438 23H79.043V15.5352C79.043 13.7422 80.1094 12.6055 81.75 12.6055C83.3789 12.6055 84.1406 13.5078 84.1406 15.4062V23H87.3516V14.6445C87.3516 11.4922 85.8516 9.80469 83.0391 9.80469C81.1758 9.80469 79.7812 10.6836 79.1484 12.2422H78.9492V10.0742H75.8438V23ZM96.4336 23.2812C100.078 23.2812 102.375 21.0664 102.375 17.5391V15.5469C102.375 12.0195 100.078 9.80469 96.4336 9.80469C92.7891 9.80469 90.4922 12.0195 90.4922 15.5469V17.5391C90.4922 21.0664 92.7891 23.2812 96.4336 23.2812ZM96.4336 12.4297C98.1562 12.4297 99.2227 13.6719 99.2227 15.6758V17.4102C99.2227 19.4023 98.1562 20.6562 96.4336 20.6562C94.7109 20.6562 93.6445 19.4023 93.6445 17.4102V15.6758C93.6445 13.6719 94.7109 12.4297 96.4336 12.4297ZM126.75 23C130.371 23 132.609 21.1484 132.609 18.1836C132.609 15.9922 131.004 14.293 128.754 14.1289V13.9297C130.512 13.6602 131.801 12.125 131.801 10.2969C131.801 7.66016 129.844 6.08984 126.598 6.08984H120.375V23H126.75ZM123.633 8.65625H125.695C127.477 8.65625 128.449 9.44141 128.449 10.8945C128.449 12.2539 127.395 13.0508 125.555 13.0508H123.633V8.65625ZM123.633 20.3867V15.4883H125.695C127.98 15.4883 129.141 16.2852 129.141 17.8906C129.141 19.6016 128.039 20.3867 125.719 20.3867H123.633ZM140.941 23.2812C144.586 23.2812 146.883 21.0664 146.883 17.5391V15.5469C146.883 12.0195 144.586 9.80469 140.941 9.80469C137.297 9.80469 135 12.0195 135 15.5469V17.5391C135 21.0664 137.297 23.2812 140.941 23.2812ZM140.941 12.4297C142.664 12.4297 143.73 13.6719 143.73 15.6758V17.4102C143.73 19.4023 142.664 20.6562 140.941 20.6562C139.219 20.6562 138.152 19.4023 138.152 17.4102V15.6758C138.152 13.6719 139.219 12.4297 140.941 12.4297ZM161.484 23V20.4453H157.629V5.15234H150.527V7.70703H154.418V20.4453H150.316V23H161.484ZM167.742 15.418C167.742 13.6367 168.762 12.5586 170.426 12.5586C172.078 12.5586 173.086 13.6367 173.086 15.418V17.5508C173.086 19.332 172.078 20.4219 170.426 20.4219C168.762 20.4219 167.742 19.332 167.742 17.5508V15.418ZM173.051 20.7734V23H176.355V5.15234H173.004V12.2773H172.77C172.336 10.7305 171.047 9.86328 169.184 9.86328C166.23 9.86328 164.473 11.9023 164.473 15.418V17.6445C164.473 21.1602 166.23 23.1992 169.184 23.1992C171.082 23.1992 172.359 22.3438 172.805 20.7734H173.051Z" fill="black"/>
<path d="M1.3125 50.3594C1.45312 53.4531 3.80859 55.3398 7.51172 55.3398C11.2969 55.3398 13.6406 53.3594 13.6406 50.1484C13.6406 47.582 12.2344 46.1289 8.96484 45.3672L7.33594 44.9805C5.35547 44.5234 4.53516 43.7852 4.53516 42.4844C4.53516 41.0195 5.67188 40.1406 7.54688 40.1406C9.32812 40.1406 10.4883 41.0547 10.6406 42.6016H13.3359C13.2305 39.6719 10.9219 37.75 7.52344 37.75C3.97266 37.75 1.69922 39.6953 1.69922 42.7305C1.69922 45.2148 3.17578 46.7734 6.26953 47.5117L7.89844 47.8984C9.98438 48.3906 10.8281 49.1172 10.8281 50.3945C10.8281 51.9531 9.55078 52.9492 7.55859 52.9492C5.49609 52.9492 4.18359 51.9883 4.01953 50.3594H1.3125ZM20.3789 55V48.0156H27.2695V45.6484H20.3789V40.5625H27.9375V38.0898H17.543V55H20.3789ZM48 49.0469L47.707 42.25H47.9062L50.918 51.0273H52.9336L55.9453 42.25H56.1445L55.8516 49.0469V55H58.2656V38.0898H55.2773L52.0195 48.0977H51.8438L48.5625 38.0898H45.5859V55H48V49.0469ZM66.7617 55.2578C70.3008 55.2578 72.5391 53.0547 72.5391 49.5625V47.6055C72.5391 44.1133 70.3008 41.9102 66.7617 41.9102C63.2227 41.9102 60.9844 44.1133 60.9844 47.6055V49.5625C60.9844 53.0547 63.2227 55.2578 66.7617 55.2578ZM66.7617 44.1719C68.6602 44.1719 69.8438 45.543 69.8438 47.7578V49.4102C69.8438 51.625 68.6602 52.9961 66.7617 52.9961C64.8633 52.9961 63.6797 51.625 63.6797 49.4102V47.7578C63.6797 45.543 64.8633 44.1719 66.7617 44.1719ZM76.0547 55H78.7852V47.5234C78.7852 45.5781 79.9805 44.3008 81.8086 44.3008C83.5664 44.3008 84.4102 45.2852 84.4102 47.3477V55H87.1406V46.6797C87.1406 43.5742 85.6289 41.9102 82.8398 41.9102C80.9531 41.9102 79.5352 42.7891 78.8789 44.3594H78.6914V42.168H76.0547V55ZM96.4336 55.2578C99.9727 55.2578 102.211 53.0547 102.211 49.5625V47.6055C102.211 44.1133 99.9727 41.9102 96.4336 41.9102C92.8945 41.9102 90.6562 44.1133 90.6562 47.6055V49.5625C90.6562 53.0547 92.8945 55.2578 96.4336 55.2578ZM96.4336 44.1719C98.332 44.1719 99.5156 45.543 99.5156 47.7578V49.4102C99.5156 51.625 98.332 52.9961 96.4336 52.9961C94.5352 52.9961 93.3516 51.625 93.3516 49.4102V47.7578C93.3516 45.543 94.5352 44.1719 96.4336 44.1719ZM120 50.3594C120.141 53.4531 122.496 55.3398 126.199 55.3398C129.984 55.3398 132.328 53.3594 132.328 50.1484C132.328 47.582 130.922 46.1289 127.652 45.3672L126.023 44.9805C124.043 44.5234 123.223 43.7852 123.223 42.4844C123.223 41.0195 124.359 40.1406 126.234 40.1406C128.016 40.1406 129.176 41.0547 129.328 42.6016H132.023C131.918 39.6719 129.609 37.75 126.211 37.75C122.66 37.75 120.387 39.6953 120.387 42.7305C120.387 45.2148 121.863 46.7734 124.957 47.5117L126.586 47.8984C128.672 48.3906 129.516 49.1172 129.516 50.3945C129.516 51.9531 128.238 52.9492 126.246 52.9492C124.184 52.9492 122.871 51.9883 122.707 50.3594H120ZM141.082 44.0664C142.875 44.0664 143.953 45.332 143.953 47.418H138.141C138.141 45.3203 139.242 44.0664 141.082 44.0664ZM143.988 51.5195C143.719 52.4688 142.629 53.0898 141.211 53.0898C139.348 53.0898 138.141 51.8242 138.141 49.8672V49.2461H146.602V47.6875C146.602 44.125 144.504 41.9102 141.129 41.9102C137.719 41.9102 135.457 44.1367 135.457 47.5V49.5039C135.457 53.1602 137.566 55.2578 141.223 55.2578C144.094 55.2578 146.273 53.7227 146.578 51.5195H143.988ZM162.141 45.25C162.141 43.0703 161.262 41.9102 159.598 41.9102C158.344 41.9102 157.395 42.707 157.102 44.0195H156.809C156.539 42.6719 155.719 41.9102 154.523 41.9102C153.293 41.9102 152.391 42.6953 152.098 44.0898H151.805V42.168H149.414V55H151.758V46.2461C151.758 45.0391 152.344 44.2773 153.258 44.2773C154.137 44.2773 154.629 44.9336 154.629 46.1172V55H156.961V46.2461C156.961 45.0391 157.523 44.2773 158.426 44.2773C159.293 44.2773 159.797 44.9453 159.797 46.1172V55H162.141V45.25ZM170.812 39.3203C171.984 39.3203 172.805 38.5586 172.805 37.457C172.805 36.3555 171.984 35.5938 170.812 35.5938C169.652 35.5938 168.832 36.3555 168.832 37.457C168.832 38.5586 169.652 39.3203 170.812 39.3203ZM176.262 55V52.8203H172.23V42.168H165.48V44.3477H169.57V52.8203H165.34V55H176.262ZM186.633 55.1992C189.586 55.1992 191.402 53.1367 191.402 49.7148V47.4297C191.402 44.0195 189.586 41.9453 186.633 41.9453C184.781 41.9453 183.469 42.7773 182.988 44.2656H182.754V37.2109H179.93V55H182.707V52.8906H182.941C183.469 54.3906 184.77 55.1992 186.633 55.1992ZM185.66 52.8203C183.832 52.8203 182.684 51.5664 182.684 49.5508V47.5469C182.684 45.5195 183.832 44.2656 185.66 44.2656C187.488 44.2656 188.637 45.5312 188.637 47.5469V49.5508C188.637 51.5664 187.488 52.8203 185.66 52.8203ZM200.285 55.2578C203.824 55.2578 206.062 53.0547 206.062 49.5625V47.6055C206.062 44.1133 203.824 41.9102 200.285 41.9102C196.746 41.9102 194.508 44.1133 194.508 47.6055V49.5625C194.508 53.0547 196.746 55.2578 200.285 55.2578ZM200.285 44.1719C202.184 44.1719 203.367 45.543 203.367 47.7578V49.4102C203.367 51.625 202.184 52.9961 200.285 52.9961C198.387 52.9961 197.203 51.625 197.203 49.4102V47.7578C197.203 45.543 198.387 44.1719 200.285 44.1719ZM220.77 55V52.8203H216.773V37.2109H209.988V39.3906H214.055V52.8203H209.848V55H220.77ZM226.781 47.5469C226.781 45.5312 227.918 44.2656 229.758 44.2656C231.586 44.2656 232.723 45.5195 232.723 47.5469V49.5508C232.723 51.5664 231.586 52.8203 229.758 52.8203C227.918 52.8203 226.781 51.5664 226.781 49.5508V47.5469ZM232.711 52.8906V55H235.477V37.2109H232.664V44.2656H232.43C231.949 42.7773 230.625 41.9453 228.773 41.9453C225.832 41.9453 224.004 44.0195 224.004 47.4297V49.7148C224.004 53.1367 225.832 55.1992 228.773 55.1992C230.637 55.1992 231.938 54.3906 232.477 52.8906H232.711Z" fill="black"/>
<path d="M1.81641 114.605C2.01562 117.523 4.25391 119.352 7.61719 119.352C11.0156 119.352 13.2539 117.453 13.2539 114.57C13.2539 112.039 11.8945 110.633 8.60156 109.777L7.23047 109.414C4.88672 108.805 3.87891 107.867 3.87891 106.285C3.87891 104.352 5.27344 103.203 7.61719 103.203C9.73828 103.203 11.1211 104.316 11.3555 106.227H12.9609C12.7969 103.508 10.6875 101.738 7.61719 101.738C4.35938 101.738 2.23828 103.531 2.23828 106.285C2.23828 108.711 3.63281 110.152 6.80859 110.984L8.13281 111.324C10.5469 111.945 11.6133 112.953 11.6133 114.57C11.6133 116.574 10.0312 117.887 7.61719 117.887C5.25 117.887 3.64453 116.633 3.42188 114.605H1.81641ZM19.582 119V111.324H27.0117V109.895H19.582V103.543H27.6914V102.09H17.9766V119H19.582ZM47.2266 119V105.207H47.3438L51.2344 115.027H52.6172L56.5078 105.207H56.625V119H58.125V102.09H56.2734L51.9961 112.918H51.8672L47.5664 102.09H45.7266V119H47.2266ZM66.7617 119.211C70.0195 119.211 72.1055 117.031 72.1055 113.633V111.758C72.1055 108.359 70.0195 106.18 66.7617 106.18C63.5039 106.18 61.418 108.359 61.418 111.758V113.633C61.418 117.031 63.5039 119.211 66.7617 119.211ZM66.7617 107.551C69.1055 107.551 70.5703 109.227 70.5703 111.957V113.434C70.5703 116.164 69.1055 117.84 66.7617 117.84C64.418 117.84 62.9531 116.164 62.9531 113.434V111.957C62.9531 109.227 64.418 107.551 66.7617 107.551ZM76.6055 119H78.1406V111.5C78.1406 109.156 79.6758 107.551 81.9375 107.551C84.0586 107.551 85.0547 108.711 85.0547 111.184V119H86.5898V110.797C86.5898 107.797 85.1016 106.168 82.3477 106.168C80.3906 106.168 78.9141 107.059 78.2227 108.652H78.0703V106.379H76.6055V119ZM96.4336 119.211C99.6914 119.211 101.777 117.031 101.777 113.633V111.758C101.777 108.359 99.6914 106.18 96.4336 106.18C93.1758 106.18 91.0898 108.359 91.0898 111.758V113.633C91.0898 117.031 93.1758 119.211 96.4336 119.211ZM96.4336 107.551C98.7773 107.551 100.242 109.227 100.242 111.957V113.434C100.242 116.164 98.7773 117.84 96.4336 117.84C94.0898 117.84 92.625 116.164 92.625 113.434V111.957C92.625 109.227 94.0898 107.551 96.4336 107.551ZM131.742 117.547H123.504V102.09H121.91V119H131.742V117.547ZM141.176 103.039C141.973 103.039 142.629 102.383 142.629 101.586C142.629 100.789 141.973 100.133 141.176 100.133C140.379 100.133 139.723 100.789 139.723 101.586C139.723 102.383 140.379 103.039 141.176 103.039ZM146.438 119V117.758H142.113V106.379H136.113V107.621H140.578V117.758H136.137V119H146.438ZM151.711 113.539V111.852C151.711 109.25 153.176 107.551 155.438 107.551C157.688 107.551 159.152 109.238 159.152 111.852V113.539C159.152 116.152 157.688 117.84 155.438 117.84C153.176 117.84 151.711 116.141 151.711 113.539ZM155.402 123.734C158.719 123.734 160.652 121.988 160.652 119V106.379H159.117V108.242H158.906C158.309 106.918 156.926 106.168 155.098 106.168C152.168 106.168 150.176 108.324 150.176 111.477V113.902C150.176 117.055 152.168 119.211 155.098 119.211C156.914 119.211 158.297 118.473 158.906 117.184H159.117V118.918C159.117 121.145 157.793 122.387 155.426 122.387C153.633 122.387 152.262 121.625 151.98 120.477H150.445C150.727 122.492 152.613 123.734 155.402 123.734ZM165.621 119H167.156V111.5C167.156 109.156 168.691 107.551 170.953 107.551C173.074 107.551 174.07 108.711 174.07 111.184V119H175.605V110.797C175.605 107.797 174.117 106.168 171.363 106.168C169.406 106.168 167.93 107.059 167.238 108.652H167.086V101.352H165.621V119ZM183.469 103.098V106.379H180.07V107.68H183.469V115.355C183.469 117.84 184.969 119.07 188.004 119.07C188.73 119.07 189.914 119 190.289 118.93V117.617C189.879 117.676 188.953 117.711 188.086 117.711C186.082 117.711 185.004 116.867 185.004 115.309V107.68H190.289V106.379H185.004V103.098H183.469Z" fill="black"/>
<path d="M1.62891 82.5C1.80469 85.5 4.08984 87.3516 7.58203 87.3516C11.1211 87.3516 13.4062 85.418 13.4062 82.3828C13.4062 79.8398 12.0234 78.4102 8.74219 77.6016L7.26562 77.2266C5.0625 76.6758 4.125 75.832 4.125 74.3672C4.125 72.6445 5.42578 71.6133 7.59375 71.6133C9.58594 71.6133 10.875 72.6445 11.0859 74.3906H13.1016C12.9609 71.5781 10.7695 69.7383 7.58203 69.7383C4.20703 69.7383 2.03906 71.6016 2.03906 74.4844C2.03906 76.9336 3.45703 78.4219 6.59766 79.2188L8.05078 79.582C10.3359 80.1445 11.3203 81.0234 11.3203 82.4883C11.3203 84.3047 9.84375 85.4766 7.59375 85.4766C5.34375 85.4766 3.85547 84.3516 3.64453 82.5H1.62891ZM19.8867 87V79.6289H27.1055V77.7891H19.8867V71.9883H27.7852V70.0898H17.8125V87H19.8867ZM47.5195 80.5195L47.4023 73.6641H47.5547L51.1172 83.0273H52.7344L56.2969 73.6641H56.4492L56.332 80.5195V87H58.1836V70.0898H55.8984L52.0078 80.5547H51.8555L47.9531 70.0898H45.668V87H47.5195V80.5195ZM66.7617 87.2344C70.125 87.2344 72.2695 85.043 72.2695 81.6094V79.6875C72.2695 76.2539 70.125 74.0625 66.7617 74.0625C63.3984 74.0625 61.2539 76.2539 61.2539 79.6875V81.6094C61.2539 85.043 63.3984 87.2344 66.7617 87.2344ZM66.7617 75.8203C68.9414 75.8203 70.3008 77.3672 70.3008 79.8633V81.4219C70.3008 83.9297 68.9414 85.4648 66.7617 85.4648C64.582 85.4648 63.2227 83.9297 63.2227 81.4219V79.8633C63.2227 77.3672 64.582 75.8203 66.7617 75.8203ZM76.3945 87H78.3867V79.5117C78.3867 77.3438 79.793 75.8789 81.8906 75.8789C83.8711 75.8789 84.8086 76.957 84.8086 79.2539V87H86.8008V78.75C86.8008 75.7031 85.3008 74.0508 82.5352 74.0508C80.6016 74.0508 79.1484 74.9414 78.4688 76.5234H78.3047V74.2852H76.3945V87ZM96.4336 87.2344C99.7969 87.2344 101.941 85.043 101.941 81.6094V79.6875C101.941 76.2539 99.7969 74.0625 96.4336 74.0625C93.0703 74.0625 90.9258 76.2539 90.9258 79.6875V81.6094C90.9258 85.043 93.0703 87.2344 96.4336 87.2344ZM96.4336 75.8203C98.6133 75.8203 99.9727 77.3672 99.9727 79.8633V81.4219C99.9727 83.9297 98.6133 85.4648 96.4336 85.4648C94.2539 85.4648 92.8945 83.9297 92.8945 81.4219V79.8633C92.8945 77.3672 94.2539 75.8203 96.4336 75.8203ZM122.859 71.9297H126.305C128.566 71.9297 129.855 73.125 129.855 75.2227C129.855 77.332 128.543 78.5156 126.211 78.5156H122.859V71.9297ZM126.75 80.2617L129.902 87H132.234L128.789 79.8398C130.711 79.207 131.941 77.3906 131.941 75.1758C131.941 72.0352 129.844 70.0898 126.492 70.0898H120.82V87H122.859V80.2617H126.75ZM141.082 75.7617C143.133 75.7617 144.375 77.2266 144.375 79.6523H137.684C137.684 77.2148 138.961 75.7617 141.082 75.7617ZM144.375 83.7188C144.023 84.832 142.84 85.5117 141.234 85.5117C139.066 85.5117 137.684 84.0117 137.684 81.6797V81.1641H146.344V79.9219C146.344 76.2422 144.398 74.0508 141.094 74.0508C137.859 74.0508 135.715 76.2539 135.715 79.6055V81.5156C135.715 85.1367 137.742 87.2344 141.234 87.2344C143.906 87.2344 145.922 85.8164 146.309 83.7188H144.375ZM151.992 81.457V79.7109C151.992 77.3789 153.352 75.8672 155.461 75.8672C157.559 75.8672 158.906 77.3672 158.906 79.7109V81.457C158.906 83.8008 157.559 85.3125 155.461 85.3125C153.352 85.3125 151.992 83.7891 151.992 81.457ZM155.402 91.7695C158.848 91.7695 160.887 89.9883 160.887 87V74.2852H158.918V76.2539H158.695C158.145 74.8828 156.75 74.0742 154.91 74.0742C151.934 74.0742 149.988 76.1836 149.988 79.4531V81.7383C149.988 84.9961 151.922 87.1172 154.863 87.1172C156.715 87.1172 158.121 86.3086 158.684 84.9727H158.895V86.9531C158.895 88.9922 157.664 90.1172 155.438 90.1172C153.738 90.1172 152.461 89.4258 152.203 88.3711H150.234C150.492 90.4805 152.461 91.7695 155.402 91.7695ZM175.816 74.2852H173.824V81.7734C173.824 83.9414 172.418 85.4062 170.32 85.4062C168.34 85.4062 167.402 84.3281 167.402 82.0312V74.2852H165.41V82.5352C165.41 85.582 166.91 87.2344 169.676 87.2344C171.609 87.2344 173.062 86.3438 173.742 84.7617H173.906V87H175.816V74.2852ZM191.004 87V85.3477H186.809V69.293H180.504V70.9453H184.816V85.3477H180.469V87H191.004ZM198.996 87.2227C200.848 87.2227 202.23 86.4609 202.84 85.1016H203.039V87.0117H204.938V78.3047C204.938 75.6562 203.227 74.1328 200.238 74.1328C197.637 74.1328 195.668 75.5273 195.434 77.5664H197.391C197.719 76.4766 198.75 75.8555 200.215 75.8555C201.984 75.8555 202.957 76.7344 202.957 78.3281V79.4766L199.465 79.6523C196.57 79.8047 194.953 81.1406 194.953 83.3906C194.953 85.6992 196.57 87.2227 198.996 87.2227ZM199.57 85.4766C197.965 85.4766 196.969 84.6562 196.969 83.3203C196.969 81.9961 197.906 81.2344 199.688 81.1523L202.957 81V82.5C202.957 84.1992 201.492 85.4766 199.57 85.4766ZM214.594 77.5312V74.2852H209.848V75.8789H212.672V85.4062H210.105V87H218.555V85.4062H214.617V81.3047C214.617 78.0703 216.281 76.125 219.094 76.125C219.785 76.125 220.605 76.2656 221.191 76.4766V74.2383C220.77 74.0625 220.078 73.957 219.352 73.957C216.902 73.957 215.32 75.1758 214.852 77.5312H214.594Z" fill="black"/>
</svg>
