<svg width="300" height="215" viewBox="0 0 300 215" fill="none" xmlns="http://www.w3.org/2000/svg">
<rect width="300" height="215" fill="white"/>
<path d="M14.04 37.56C12.0933 37.56 10.4133 37.2933 8.99999 36.76C7.58665 36.2 6.41332 35.44 5.47999 34.48C4.57332 33.4933 3.89332 32.3333 3.43999 31C3.01332 29.64 2.79999 28.1467 2.79999 26.52V9.27999H9.03999V26C9.03999 27.12 9.15999 28.08 9.39999 28.88C9.66665 29.6533 10.0133 30.2933 10.44 30.8C10.8933 31.28 11.4267 31.6267 12.04 31.84C12.68 32.0533 13.3733 32.16 14.12 32.16C15.64 32.16 16.8667 31.6933 17.8 30.76C18.76 29.8267 19.24 28.24 19.24 26V9.27999H25.48V26.52C25.48 28.1467 25.2533 29.64 24.8 31C24.3467 32.36 23.6533 33.5333 22.72 34.52C21.7867 35.48 20.6 36.2267 19.16 36.76C17.72 37.2933 16.0133 37.56 14.04 37.56Z" fill="black"/>
<path d="M44.5612 26.32C44.5612 22.48 43.1479 20.56 40.3212 20.56C39.7079 20.56 39.0946 20.64 38.4812 20.8C37.8946 20.96 37.4146 21.16 37.0412 21.4V32.24C37.3346 32.2933 37.7079 32.3467 38.1612 32.4C38.6146 32.4267 39.1079 32.44 39.6412 32.44C41.2679 32.44 42.4946 31.88 43.3212 30.76C44.1479 29.64 44.5612 28.16 44.5612 26.32ZM50.6412 26.48C50.6412 28.16 50.3879 29.68 49.8812 31.04C49.4012 32.4 48.6946 33.56 47.7612 34.52C46.8279 35.48 45.6812 36.2267 44.3212 36.76C42.9612 37.2667 41.4146 37.52 39.6812 37.52C38.9612 37.52 38.2012 37.48 37.4012 37.4C36.6279 37.3467 35.8546 37.2667 35.0812 37.16C34.3346 37.0533 33.6146 36.9333 32.9212 36.8C32.2279 36.64 31.6146 36.48 31.0812 36.32V6.91999L37.0412 5.95999V16.44C37.7079 16.1467 38.4012 15.92 39.1212 15.76C39.8412 15.6 40.6146 15.52 41.4412 15.52C42.9346 15.52 44.2546 15.7867 45.4012 16.32C46.5479 16.8267 47.5079 17.56 48.2812 18.52C49.0546 19.48 49.6412 20.64 50.0412 22C50.4412 23.3333 50.6412 24.8267 50.6412 26.48Z" fill="black"/>
<path d="M73.1819 36.28C72.1685 36.5733 70.8619 36.84 69.2619 37.08C67.6619 37.3467 65.9819 37.48 64.2219 37.48C62.4352 37.48 60.9419 37.24 59.7419 36.76C58.5685 36.28 57.6352 35.6133 56.9419 34.76C56.2485 33.88 55.7552 32.84 55.4619 31.64C55.1685 30.44 55.0219 29.12 55.0219 27.68V15.96H60.9819V26.96C60.9819 28.88 61.2352 30.2667 61.7419 31.12C62.2485 31.9733 63.1952 32.4 64.5819 32.4C65.0085 32.4 65.4619 32.3867 65.9419 32.36C66.4219 32.3067 66.8485 32.2533 67.2219 32.2V15.96H73.1819V36.28Z" fill="black"/>
<path d="M78.7766 16.68C79.7899 16.3867 81.0965 16.12 82.6965 15.88C84.2965 15.6133 85.9765 15.48 87.7365 15.48C89.5232 15.48 91.0032 15.72 92.1766 16.2C93.3765 16.6533 94.3232 17.3067 95.0165 18.16C95.7099 19.0133 96.2032 20.0267 96.4966 21.2C96.7899 22.3733 96.9365 23.68 96.9365 25.12V37H90.9765V25.84C90.9765 23.92 90.7232 22.56 90.2165 21.76C89.7099 20.96 88.7632 20.56 87.3765 20.56C86.9499 20.56 86.4966 20.5867 86.0165 20.64C85.5365 20.6667 85.1099 20.7067 84.7365 20.76V37H78.7766V16.68Z" fill="black"/>
<path d="M102.131 10.72L108.091 9.75999V15.96H115.251V20.92H108.091V28.32C108.091 29.5733 108.305 30.5733 108.731 31.32C109.185 32.0667 110.078 32.44 111.411 32.44C112.051 32.44 112.705 32.3867 113.371 32.28C114.065 32.1467 114.691 31.9733 115.251 31.76L116.091 36.4C115.371 36.6933 114.571 36.9467 113.691 37.16C112.811 37.3733 111.731 37.48 110.451 37.48C108.825 37.48 107.478 37.2667 106.411 36.84C105.345 36.3867 104.491 35.7733 103.851 35C103.211 34.2 102.758 33.24 102.491 32.12C102.251 31 102.131 29.76 102.131 28.4V10.72Z" fill="black"/>
<path d="M138.065 36.28C137.051 36.5733 135.745 36.84 134.145 37.08C132.545 37.3467 130.865 37.48 129.105 37.48C127.318 37.48 125.825 37.24 124.625 36.76C123.451 36.28 122.518 35.6133 121.825 34.76C121.131 33.88 120.638 32.84 120.345 31.64C120.051 30.44 119.905 29.12 119.905 27.68V15.96H125.865V26.96C125.865 28.88 126.118 30.2667 126.625 31.12C127.131 31.9733 128.078 32.4 129.465 32.4C129.891 32.4 130.345 32.3867 130.825 32.36C131.305 32.3067 131.731 32.2533 132.105 32.2V15.96H138.065V36.28Z" fill="black"/>
<path d="M162.909 37.36C161.389 37.36 159.869 37.3067 158.349 37.2C156.855 37.12 155.295 36.9067 153.669 36.56V9.67999C154.949 9.43999 156.349 9.26666 157.869 9.15999C159.389 9.02666 160.802 8.95999 162.109 8.95999C163.869 8.95999 165.482 9.09332 166.949 9.35999C168.442 9.59999 169.722 10.0267 170.789 10.64C171.855 11.2533 172.682 12.0667 173.269 13.08C173.882 14.0667 174.189 15.2933 174.189 16.76C174.189 18.9733 173.122 20.72 170.989 22C172.749 22.6667 173.949 23.5733 174.589 24.72C175.229 25.8667 175.549 27.16 175.549 28.6C175.549 31.5067 174.482 33.6933 172.349 35.16C170.242 36.6267 167.095 37.36 162.909 37.36ZM159.749 24.92V32.08C160.202 32.1333 160.695 32.1733 161.229 32.2C161.762 32.2267 162.349 32.24 162.989 32.24C164.855 32.24 166.362 31.9733 167.509 31.44C168.655 30.9067 169.229 29.92 169.229 28.48C169.229 27.2 168.749 26.2933 167.789 25.76C166.829 25.2 165.455 24.92 163.669 24.92H159.749ZM159.749 20.16H162.789C164.709 20.16 166.082 19.92 166.909 19.44C167.735 18.9333 168.149 18.1333 168.149 17.04C168.149 15.92 167.722 15.1333 166.869 14.68C166.015 14.2267 164.762 14 163.109 14C162.575 14 162.002 14.0133 161.389 14.04C160.775 14.04 160.229 14.0667 159.749 14.12V20.16Z" fill="black"/>
<path d="M199.824 26.44C199.824 28.0933 199.584 29.6133 199.104 31C198.624 32.36 197.93 33.5333 197.024 34.52C196.117 35.48 195.024 36.2267 193.744 36.76C192.49 37.2933 191.077 37.56 189.504 37.56C187.957 37.56 186.544 37.2933 185.264 36.76C184.01 36.2267 182.93 35.48 182.024 34.52C181.117 33.5333 180.41 32.36 179.904 31C179.397 29.6133 179.144 28.0933 179.144 26.44C179.144 24.7867 179.397 23.28 179.904 21.92C180.437 20.56 181.157 19.4 182.064 18.44C182.997 17.48 184.09 16.7333 185.344 16.2C186.624 15.6667 188.01 15.4 189.504 15.4C191.024 15.4 192.41 15.6667 193.664 16.2C194.944 16.7333 196.037 17.48 196.944 18.44C197.85 19.4 198.557 20.56 199.064 21.92C199.57 23.28 199.824 24.7867 199.824 26.44ZM193.744 26.44C193.744 24.6 193.37 23.16 192.624 22.12C191.904 21.0533 190.864 20.52 189.504 20.52C188.144 20.52 187.09 21.0533 186.344 22.12C185.597 23.16 185.224 24.6 185.224 26.44C185.224 28.28 185.597 29.7467 186.344 30.84C187.09 31.9067 188.144 32.44 189.504 32.44C190.864 32.44 191.904 31.9067 192.624 30.84C193.37 29.7467 193.744 28.28 193.744 26.44Z" fill="black"/>
<path d="M212.841 37.4C211.107 37.3733 209.694 37.1867 208.601 36.84C207.534 36.4933 206.681 36.0133 206.041 35.4C205.427 34.76 205.001 34 204.761 33.12C204.547 32.2133 204.441 31.2 204.441 30.08V6.91999L210.401 5.95999V28.88C210.401 29.4133 210.441 29.8933 210.521 30.32C210.601 30.7467 210.747 31.1067 210.961 31.4C211.201 31.6933 211.534 31.9333 211.961 32.12C212.387 32.3067 212.961 32.4267 213.681 32.48L212.841 37.4Z" fill="black"/>
<path d="M222.177 26.32C222.177 28.16 222.59 29.64 223.417 30.76C224.244 31.88 225.47 32.44 227.097 32.44C227.63 32.44 228.124 32.4267 228.577 32.4C229.03 32.3467 229.404 32.2933 229.697 32.24V21.4C229.324 21.16 228.83 20.96 228.217 20.8C227.63 20.64 227.03 20.56 226.417 20.56C223.59 20.56 222.177 22.48 222.177 26.32ZM235.657 36.32C235.124 36.48 234.51 36.64 233.817 36.8C233.124 36.9333 232.39 37.0533 231.617 37.16C230.87 37.2667 230.097 37.3467 229.297 37.4C228.524 37.48 227.777 37.52 227.057 37.52C225.324 37.52 223.777 37.2667 222.417 36.76C221.057 36.2533 219.91 35.5333 218.977 34.6C218.044 33.64 217.324 32.4933 216.817 31.16C216.337 29.8 216.097 28.28 216.097 26.6C216.097 24.8933 216.31 23.36 216.737 22C217.164 20.6133 217.777 19.44 218.577 18.48C219.377 17.52 220.35 16.7867 221.497 16.28C222.67 15.7733 224.004 15.52 225.497 15.52C226.324 15.52 227.057 15.6 227.697 15.76C228.364 15.92 229.03 16.1467 229.697 16.44V6.91999L235.657 5.95999V36.32Z" fill="black"/>
<path d="M14 90.9333C12.1067 90.9333 10.48 90.6667 9.12 90.1333C7.76 89.5733 6.62666 88.8 5.72 87.8133C4.84 86.8267 4.18666 85.6667 3.76 84.3333C3.33333 83 3.12 81.5333 3.12 79.9333V62.6133H8.2V79.4533C8.2 80.7067 8.33333 81.7867 8.6 82.6933C8.89333 83.5733 9.29333 84.2933 9.8 84.8533C10.3333 85.4133 10.9467 85.8267 11.64 86.0933C12.36 86.36 13.16 86.4933 14.04 86.4933C14.92 86.4933 15.72 86.36 16.44 86.0933C17.16 85.8267 17.7733 85.4133 18.28 84.8533C18.8133 84.2933 19.2133 83.5733 19.48 82.6933C19.7733 81.7867 19.92 80.7067 19.92 79.4533V62.6133H25V79.9333C25 81.5333 24.7733 83 24.32 84.3333C23.8933 85.6667 23.2267 86.8267 22.32 87.8133C21.44 88.8 20.3067 89.5733 18.92 90.1333C17.5333 90.6667 15.8933 90.9333 14 90.9333Z" fill="black"/>
<path d="M45.085 79.8133C45.085 77.76 44.6717 76.1333 43.845 74.9333C43.045 73.7333 41.765 73.1333 40.005 73.1333C39.205 73.1333 38.445 73.2533 37.725 73.4933C37.0317 73.7333 36.4717 74 36.045 74.2933V86.3333C36.3917 86.4133 36.8317 86.4933 37.365 86.5733C37.925 86.6267 38.5917 86.6533 39.365 86.6533C41.1517 86.6533 42.5517 86.0533 43.565 84.8533C44.5783 83.6267 45.085 81.9467 45.085 79.8133ZM50.045 79.8933C50.045 81.5733 49.7917 83.0933 49.285 84.4533C48.805 85.7867 48.0983 86.9333 47.165 87.8933C46.2583 88.8533 45.1517 89.5867 43.845 90.0933C42.5383 90.6 41.0583 90.8533 39.405 90.8533C37.805 90.8533 36.2717 90.7333 34.805 90.4933C33.365 90.2533 32.165 89.9867 31.205 89.6933V60.0933L36.045 59.2933V70.1333C36.605 69.84 37.285 69.5733 38.085 69.3333C38.9117 69.0933 39.8183 68.9733 40.805 68.9733C42.2717 68.9733 43.5783 69.24 44.725 69.7733C45.8983 70.28 46.8717 71.0133 47.645 71.9733C48.4183 72.9333 49.005 74.0933 49.405 75.4533C49.8317 76.7867 50.045 78.2667 50.045 79.8933Z" fill="black"/>
<path d="M72.1931 89.6933C71.2598 89.9333 70.0464 90.1733 68.5531 90.4133C67.0598 90.68 65.4198 90.8133 63.6331 90.8133C61.9531 90.8133 60.5398 90.5733 59.3931 90.0933C58.2731 89.6133 57.3665 88.9467 56.6731 88.0933C56.0065 87.24 55.5265 86.2267 55.2331 85.0533C54.9398 83.8533 54.7931 82.5467 54.7931 81.1333V69.4133H59.6331V80.3733C59.6331 82.6133 59.9531 84.2133 60.5931 85.1733C61.2598 86.1333 62.4065 86.6133 64.0331 86.6133C64.6198 86.6133 65.2331 86.5867 65.8731 86.5333C66.5398 86.48 67.0331 86.4133 67.3531 86.3333V69.4133H72.1931V89.6933Z" fill="black"/>
<path d="M78.3534 70.0933C79.2868 69.8267 80.5001 69.5733 81.9934 69.3333C83.4868 69.0933 85.1401 68.9733 86.9534 68.9733C88.6601 68.9733 90.0868 69.2133 91.2334 69.6933C92.3801 70.1467 93.2868 70.8 93.9534 71.6533C94.6468 72.48 95.1268 73.4933 95.3934 74.6933C95.6868 75.8667 95.8334 77.16 95.8334 78.5733V90.3333H90.9934V79.3333C90.9934 78.2133 90.9134 77.2667 90.7534 76.4933C90.6201 75.6933 90.3801 75.0533 90.0334 74.5733C89.7134 74.0667 89.2601 73.7067 88.6734 73.4933C88.1134 73.2533 87.4201 73.1333 86.5934 73.1333C85.9801 73.1333 85.3401 73.1733 84.6734 73.2533C84.0068 73.3333 83.5134 73.4 83.1934 73.4533V90.3333H78.3534V70.0933Z" fill="black"/>
<path d="M101.512 63.8933L106.352 63.0933V69.4133H113.792V73.4533H106.352V81.9733C106.352 83.6533 106.619 84.8533 107.152 85.5733C107.685 86.2933 108.592 86.6533 109.872 86.6533C110.752 86.6533 111.525 86.56 112.192 86.3733C112.885 86.1867 113.432 86.0133 113.832 85.8533L114.632 89.6933C114.072 89.9333 113.339 90.1733 112.432 90.4133C111.525 90.68 110.459 90.8133 109.232 90.8133C107.739 90.8133 106.485 90.6133 105.472 90.2133C104.485 89.8133 103.699 89.24 103.112 88.4933C102.525 87.72 102.112 86.8 101.872 85.7333C101.632 84.64 101.512 83.4 101.512 82.0133V63.8933Z" fill="black"/>
<path d="M135.631 89.6933C134.697 89.9333 133.484 90.1733 131.991 90.4133C130.497 90.68 128.857 90.8133 127.071 90.8133C125.391 90.8133 123.977 90.5733 122.831 90.0933C121.711 89.6133 120.804 88.9467 120.111 88.0933C119.444 87.24 118.964 86.2267 118.671 85.0533C118.377 83.8533 118.231 82.5467 118.231 81.1333V69.4133H123.071V80.3733C123.071 82.6133 123.391 84.2133 124.031 85.1733C124.697 86.1333 125.844 86.6133 127.471 86.6133C128.057 86.6133 128.671 86.5867 129.311 86.5333C129.977 86.48 130.471 86.4133 130.791 86.3333V69.4133H135.631V89.6933Z" fill="black"/>
<path d="M157.407 62.6133C157.994 63.6267 158.647 64.8667 159.367 66.3333C160.087 67.8 160.82 69.3467 161.567 70.9733C162.314 72.5733 163.047 74.2133 163.767 75.8933C164.514 77.5467 165.194 79.08 165.807 80.4933C166.42 79.08 167.087 77.5467 167.807 75.8933C168.527 74.2133 169.26 72.5733 170.007 70.9733C170.754 69.3467 171.487 67.8 172.207 66.3333C172.927 64.8667 173.58 63.6267 174.167 62.6133H178.727C178.967 64.64 179.194 66.8 179.407 69.0933C179.62 71.36 179.807 73.6933 179.967 76.0933C180.154 78.4667 180.314 80.8667 180.447 83.2933C180.607 85.6933 180.74 88.04 180.847 90.3333H175.887C175.78 87.1067 175.647 83.7867 175.487 80.3733C175.354 76.96 175.14 73.6533 174.847 70.4533C174.554 71.0667 174.207 71.8 173.807 72.6533C173.407 73.5067 172.98 74.44 172.527 75.4533C172.074 76.44 171.607 77.4667 171.127 78.5333C170.674 79.6 170.22 80.64 169.767 81.6533C169.34 82.64 168.94 83.5733 168.567 84.4533C168.194 85.3067 167.874 86.04 167.607 86.6533H163.847C163.58 86.04 163.26 85.2933 162.887 84.4133C162.514 83.5333 162.1 82.6 161.647 81.6133C161.22 80.6 160.767 79.56 160.287 78.4933C159.834 77.4267 159.38 76.4 158.927 75.4133C158.474 74.4267 158.047 73.5067 157.647 72.6533C157.247 71.7733 156.9 71.04 156.607 70.4533C156.314 73.6533 156.087 76.96 155.927 80.3733C155.794 83.7867 155.674 87.1067 155.567 90.3333H150.607C150.714 88.04 150.834 85.6667 150.967 83.2133C151.127 80.76 151.287 78.3333 151.447 75.9333C151.634 73.5067 151.834 71.16 152.047 68.8933C152.26 66.6267 152.487 64.5333 152.727 62.6133H157.407Z" fill="black"/>
<path d="M185.318 79.9733C185.318 78.1333 185.585 76.52 186.118 75.1333C186.678 73.7467 187.412 72.6 188.318 71.6933C189.225 70.76 190.265 70.0667 191.438 69.6133C192.612 69.1333 193.812 68.8933 195.038 68.8933C197.918 68.8933 200.158 69.7867 201.758 71.5733C203.385 73.36 204.198 76.0267 204.198 79.5733C204.198 79.84 204.185 80.1467 204.158 80.4933C204.158 80.8133 204.145 81.1067 204.118 81.3733H190.318C190.452 83.0533 191.038 84.36 192.078 85.2933C193.145 86.2 194.678 86.6533 196.678 86.6533C197.852 86.6533 198.918 86.5467 199.878 86.3333C200.865 86.12 201.638 85.8933 202.198 85.6533L202.838 89.6133C202.572 89.7467 202.198 89.8933 201.718 90.0533C201.265 90.1867 200.732 90.3067 200.118 90.4133C199.532 90.5467 198.892 90.6533 198.198 90.7333C197.505 90.8133 196.798 90.8533 196.078 90.8533C194.238 90.8533 192.638 90.5867 191.278 90.0533C189.918 89.4933 188.798 88.7333 187.918 87.7733C187.038 86.7867 186.385 85.64 185.958 84.3333C185.532 83 185.318 81.5467 185.318 79.9733ZM199.358 77.8133C199.358 77.1467 199.265 76.52 199.078 75.9333C198.892 75.32 198.612 74.8 198.238 74.3733C197.892 73.92 197.452 73.5733 196.918 73.3333C196.412 73.0667 195.798 72.9333 195.078 72.9333C194.332 72.9333 193.678 73.08 193.118 73.3733C192.558 73.64 192.078 74 191.678 74.4533C191.305 74.9067 191.012 75.4267 190.798 76.0133C190.585 76.6 190.438 77.2 190.358 77.8133H199.358Z" fill="black"/>
<path d="M213.13 79.8133C213.13 81.9467 213.637 83.6267 214.65 84.8533C215.663 86.0533 217.063 86.6533 218.85 86.6533C219.623 86.6533 220.277 86.6267 220.81 86.5733C221.37 86.4933 221.823 86.4133 222.17 86.3333V74.3333C221.743 74.04 221.17 73.7733 220.45 73.5333C219.757 73.2667 219.01 73.1333 218.21 73.1333C216.45 73.1333 215.157 73.7333 214.33 74.9333C213.53 76.1333 213.13 77.76 213.13 79.8133ZM227.01 89.6933C226.05 89.9867 224.837 90.2533 223.37 90.4933C221.93 90.7333 220.41 90.8533 218.81 90.8533C217.157 90.8533 215.677 90.6 214.37 90.0933C213.063 89.5867 211.943 88.8667 211.01 87.9333C210.103 86.9733 209.397 85.8267 208.89 84.4933C208.41 83.1333 208.17 81.6133 208.17 79.9333C208.17 78.28 208.37 76.7867 208.77 75.4533C209.197 74.0933 209.81 72.9333 210.61 71.9733C211.41 71.0133 212.383 70.28 213.53 69.7733C214.677 69.24 215.997 68.9733 217.49 68.9733C218.503 68.9733 219.397 69.0933 220.17 69.3333C220.943 69.5733 221.61 69.84 222.17 70.1333V60.0933L227.01 59.2933V89.6933Z" fill="black"/>
<path d="M238.038 90.3333H233.198V69.4133H238.038V90.3333ZM238.558 63.2933C238.558 64.2 238.265 64.92 237.678 65.4533C237.091 65.9867 236.398 66.2533 235.598 66.2533C234.771 66.2533 234.065 65.9867 233.478 65.4533C232.891 64.92 232.598 64.2 232.598 63.2933C232.598 62.36 232.891 61.6267 233.478 61.0933C234.065 60.56 234.771 60.2933 235.598 60.2933C236.398 60.2933 237.091 60.56 237.678 61.0933C238.265 61.6267 238.558 62.36 238.558 63.2933Z" fill="black"/>
<path d="M261.373 89.6933C260.439 89.9333 259.226 90.1733 257.733 90.4133C256.239 90.68 254.599 90.8133 252.813 90.8133C251.133 90.8133 249.719 90.5733 248.573 90.0933C247.453 89.6133 246.546 88.9467 245.853 88.0933C245.186 87.24 244.706 86.2267 244.413 85.0533C244.119 83.8533 243.973 82.5467 243.973 81.1333V69.4133H248.813V80.3733C248.813 82.6133 249.133 84.2133 249.773 85.1733C250.439 86.1333 251.586 86.6133 253.213 86.6133C253.799 86.6133 254.413 86.5867 255.053 86.5333C255.719 86.48 256.213 86.4133 256.533 86.3333V69.4133H261.373V89.6933Z" fill="black"/>
<path d="M279.453 79.3333C279.453 77.1467 279.173 75.5733 278.613 74.6133C278.08 73.6267 277.066 73.1333 275.573 73.1333C275.04 73.1333 274.453 73.1733 273.813 73.2533C273.173 73.3333 272.693 73.4 272.373 73.4533V90.3333H267.533V70.0933C268.466 69.8267 269.68 69.5733 271.173 69.3333C272.693 69.0933 274.293 68.9733 275.973 68.9733C277.413 68.9733 278.586 69.16 279.493 69.5333C280.426 69.9067 281.2 70.4 281.813 71.0133C282.106 70.8 282.48 70.5733 282.933 70.3333C283.386 70.0933 283.893 69.88 284.453 69.6933C285.013 69.48 285.6 69.3067 286.213 69.1733C286.853 69.04 287.493 68.9733 288.133 68.9733C289.76 68.9733 291.093 69.2133 292.133 69.6933C293.2 70.1467 294.026 70.8 294.613 71.6533C295.226 72.48 295.64 73.4933 295.853 74.6933C296.093 75.8667 296.213 77.16 296.213 78.5733V90.3333H291.373V79.3333C291.373 77.1467 291.106 75.5733 290.573 74.6133C290.04 73.6267 289.013 73.1333 287.493 73.1333C286.72 73.1333 285.986 73.2667 285.293 73.5333C284.6 73.7733 284.08 74.0133 283.733 74.2533C283.946 74.92 284.093 75.6267 284.173 76.3733C284.253 77.12 284.293 77.92 284.293 78.7733V90.3333H279.453V79.3333Z" fill="black"/>
<path d="M13.6 197.6C11.76 197.6 10.1866 197.32 8.87998 196.76C7.59998 196.2 6.55998 195.427 5.75998 194.44C4.95998 193.453 4.37331 192.307 3.99998 191C3.65331 189.667 3.47998 188.24 3.47998 186.72V169.28H6.19998V186.36C6.19998 187.88 6.37331 189.2 6.71998 190.32C7.09331 191.413 7.59998 192.32 8.23998 193.04C8.87998 193.76 9.65331 194.293 10.56 194.64C11.4666 194.987 12.48 195.16 13.6 195.16C14.72 195.16 15.7333 194.987 16.64 194.64C17.5466 194.293 18.32 193.76 18.96 193.04C19.6 192.32 20.0933 191.413 20.44 190.32C20.8133 189.2 21 187.88 21 186.36V169.28H23.72V186.72C23.72 188.24 23.5333 189.667 23.16 191C22.8133 192.307 22.24 193.453 21.44 194.44C20.64 195.427 19.5866 196.2 18.28 196.76C17 197.32 15.44 197.6 13.6 197.6Z" fill="black"/>
<path d="M33.2275 177.56C33.6808 177.213 34.4008 176.853 35.3875 176.48C36.4008 176.08 37.5875 175.88 38.9475 175.88C40.4408 175.88 41.7608 176.147 42.9075 176.68C44.0808 177.213 45.0675 177.96 45.8675 178.92C46.6675 179.88 47.2675 181.027 47.6675 182.36C48.0941 183.667 48.3075 185.107 48.3075 186.68C48.3075 188.36 48.0541 189.867 47.5475 191.2C47.0675 192.533 46.3741 193.667 45.4675 194.6C44.5875 195.533 43.5208 196.253 42.2675 196.76C41.0408 197.24 39.6675 197.48 38.1475 197.48C36.3075 197.48 34.7875 197.36 33.5875 197.12C32.3875 196.88 31.4008 196.627 30.6275 196.36V166.44L33.2275 165.96V177.56ZM33.2275 194.56C33.6275 194.693 34.2141 194.827 34.9875 194.96C35.7875 195.067 36.8275 195.12 38.1075 195.12C40.3475 195.12 42.1475 194.4 43.5075 192.96C44.8675 191.493 45.5475 189.4 45.5475 186.68C45.5475 185.533 45.4275 184.453 45.1875 183.44C44.9475 182.4 44.5608 181.507 44.0275 180.76C43.4941 179.987 42.7875 179.373 41.9075 178.92C41.0541 178.467 39.9875 178.24 38.7075 178.24C38.0941 178.24 37.5075 178.307 36.9475 178.44C36.3875 178.547 35.8675 178.693 35.3875 178.88C34.9075 179.067 34.4808 179.267 34.1075 179.48C33.7608 179.693 33.4675 179.893 33.2275 180.08V194.56Z" fill="black"/>
<path d="M69.8278 196.28C69.0545 196.493 68.0145 196.733 66.7078 197C65.4011 197.267 63.8011 197.4 61.9078 197.4C60.3611 197.4 59.0678 197.173 58.0278 196.72C56.9878 196.267 56.1478 195.627 55.5078 194.8C54.8678 193.973 54.4011 192.973 54.1078 191.8C53.8411 190.627 53.7078 189.333 53.7078 187.92V176.32H56.3078V187.08C56.3078 188.547 56.4145 189.787 56.6278 190.8C56.8411 191.813 57.1878 192.64 57.6678 193.28C58.1478 193.893 58.7611 194.347 59.5078 194.64C60.2811 194.907 61.2145 195.04 62.3078 195.04C63.5345 195.04 64.6011 194.973 65.5078 194.84C66.4145 194.707 66.9878 194.587 67.2278 194.48V176.32H69.8278V196.28Z" fill="black"/>
<path d="M76.7212 177.04C77.4946 176.827 78.5346 176.587 79.8412 176.32C81.1479 176.053 82.7479 175.92 84.6412 175.92C86.2146 175.92 87.5212 176.147 88.5612 176.6C89.6279 177.053 90.4679 177.707 91.0812 178.56C91.7212 179.387 92.1746 180.387 92.4412 181.56C92.7079 182.733 92.8412 184.027 92.8412 185.44V197H90.2412V186.28C90.2412 184.813 90.1346 183.573 89.9212 182.56C89.7346 181.547 89.4012 180.72 88.9212 180.08C88.4679 179.44 87.8546 178.987 87.0812 178.72C86.3346 178.427 85.3879 178.28 84.2412 178.28C83.0146 178.28 81.9479 178.347 81.0412 178.48C80.1612 178.613 79.5879 178.733 79.3212 178.84V197H76.7212V177.04Z" fill="black"/>
<path d="M101.935 176.32H110.175V178.52H101.935V189.52C101.935 190.693 102.028 191.653 102.215 192.4C102.428 193.12 102.721 193.68 103.095 194.08C103.468 194.48 103.921 194.747 104.455 194.88C104.988 195.013 105.575 195.08 106.215 195.08C107.308 195.08 108.188 194.96 108.855 194.72C109.521 194.453 110.041 194.213 110.415 194L111.055 196.16C110.681 196.4 110.028 196.68 109.095 197C108.161 197.293 107.148 197.44 106.055 197.44C104.775 197.44 103.695 197.28 102.815 196.96C101.961 196.613 101.268 196.107 100.735 195.44C100.228 194.747 99.868 193.893 99.6547 192.88C99.4413 191.867 99.3347 190.667 99.3347 189.28V170.24L101.935 169.76V176.32Z" fill="black"/>
<path d="M130.843 196.28C130.07 196.493 129.03 196.733 127.723 197C126.417 197.267 124.817 197.4 122.923 197.4C121.377 197.4 120.083 197.173 119.043 196.72C118.003 196.267 117.163 195.627 116.523 194.8C115.883 193.973 115.417 192.973 115.123 191.8C114.857 190.627 114.723 189.333 114.723 187.92V176.32H117.323V187.08C117.323 188.547 117.43 189.787 117.643 190.8C117.857 191.813 118.203 192.64 118.683 193.28C119.163 193.893 119.777 194.347 120.523 194.64C121.297 194.907 122.23 195.04 123.323 195.04C124.55 195.04 125.617 194.973 126.523 194.84C127.43 194.707 128.003 194.587 128.243 194.48V176.32H130.843V196.28Z" fill="black"/>
<path d="M162.758 194.64V197H146.998V169.28H149.718V194.64H162.758Z" fill="black"/>
<path d="M169.517 197H166.917V176.32H169.517V197ZM170.117 170.08C170.117 170.693 169.93 171.187 169.557 171.56C169.183 171.907 168.73 172.08 168.197 172.08C167.663 172.08 167.21 171.907 166.837 171.56C166.463 171.187 166.277 170.693 166.277 170.08C166.277 169.467 166.463 168.987 166.837 168.64C167.21 168.267 167.663 168.08 168.197 168.08C168.73 168.08 169.183 168.267 169.557 168.64C169.93 168.987 170.117 169.467 170.117 170.08Z" fill="black"/>
<path d="M189.889 194.6C189.729 194.733 189.489 194.893 189.169 195.08C188.849 195.24 188.449 195.413 187.969 195.6C187.515 195.787 186.982 195.947 186.369 196.08C185.782 196.187 185.115 196.24 184.369 196.24C183.169 196.24 182.009 196.053 180.889 195.68C179.769 195.307 178.782 194.72 177.929 193.92C177.102 193.12 176.435 192.093 175.929 190.84C175.422 189.56 175.169 188.013 175.169 186.2C175.169 184.733 175.395 183.373 175.849 182.12C176.302 180.867 176.942 179.787 177.769 178.88C178.622 177.947 179.649 177.227 180.849 176.72C182.075 176.187 183.449 175.92 184.969 175.92C186.889 175.92 188.422 176.053 189.569 176.32C190.742 176.56 191.702 176.8 192.449 177.04V195.92C192.449 199.013 191.649 201.213 190.049 202.52C188.449 203.853 186.035 204.52 182.809 204.52C181.475 204.52 180.262 204.413 179.169 204.2C178.102 204.013 177.182 203.787 176.409 203.52L176.929 201.16C177.569 201.453 178.435 201.707 179.529 201.92C180.649 202.133 181.769 202.24 182.889 202.24C185.342 202.24 187.115 201.76 188.209 200.8C189.329 199.867 189.889 198.253 189.889 195.96V194.6ZM189.849 178.84C189.395 178.707 188.809 178.587 188.089 178.48C187.369 178.347 186.342 178.28 185.009 178.28C183.889 178.28 182.889 178.48 182.009 178.88C181.155 179.253 180.422 179.8 179.809 180.52C179.195 181.213 178.729 182.053 178.409 183.04C178.089 184 177.929 185.067 177.929 186.24C177.929 187.6 178.115 188.773 178.489 189.76C178.862 190.72 179.342 191.507 179.929 192.12C180.542 192.733 181.235 193.187 182.009 193.48C182.782 193.747 183.569 193.88 184.369 193.88C185.542 193.88 186.609 193.707 187.569 193.36C188.555 193.013 189.315 192.613 189.849 192.16V178.84Z" fill="black"/>
<path d="M199.338 197V166.44L201.938 165.96V176.92C202.792 176.6 203.658 176.36 204.538 176.2C205.418 176.013 206.298 175.92 207.178 175.92C208.778 175.92 210.112 176.147 211.178 176.6C212.245 177.053 213.098 177.707 213.738 178.56C214.378 179.387 214.818 180.387 215.058 181.56C215.325 182.733 215.458 184.027 215.458 185.44V197H212.858V186.28C212.858 184.813 212.752 183.573 212.538 182.56C212.352 181.547 212.018 180.72 211.538 180.08C211.085 179.44 210.472 178.987 209.698 178.72C208.925 178.427 207.952 178.28 206.778 178.28C206.325 178.28 205.832 178.32 205.298 178.4C204.792 178.48 204.312 178.573 203.858 178.68C203.405 178.76 202.992 178.853 202.618 178.96C202.272 179.067 202.045 179.147 201.938 179.2V197H199.338Z" fill="black"/>
<path d="M224.552 176.32H232.792V178.52H224.552V189.52C224.552 190.693 224.645 191.653 224.832 192.4C225.045 193.12 225.339 193.68 225.712 194.08C226.085 194.48 226.539 194.747 227.072 194.88C227.605 195.013 228.192 195.08 228.832 195.08C229.925 195.08 230.805 194.96 231.472 194.72C232.139 194.453 232.659 194.213 233.032 194L233.672 196.16C233.299 196.4 232.645 196.68 231.712 197C230.779 197.293 229.765 197.44 228.672 197.44C227.392 197.44 226.312 197.28 225.432 196.96C224.579 196.613 223.885 196.107 223.352 195.44C222.845 194.747 222.485 193.893 222.272 192.88C222.059 191.867 221.952 190.667 221.952 189.28V170.24L224.552 169.76V176.32Z" fill="black"/>
<path d="M13.76 144.267C11.9467 144.267 10.3733 143.987 9.03999 143.427C7.70666 142.867 6.61332 142.107 5.75999 141.147C4.90666 140.16 4.26666 139 3.83999 137.667C3.43999 136.333 3.23999 134.893 3.23999 133.347V115.947H7.11999V132.907C7.11999 135.68 7.73332 137.693 8.95999 138.947C10.1867 140.2 11.7867 140.827 13.76 140.827C14.7467 140.827 15.64 140.68 16.44 140.387C17.2667 140.067 17.9733 139.587 18.56 138.947C19.1467 138.307 19.6 137.493 19.92 136.507C20.24 135.493 20.4 134.293 20.4 132.907V115.947H24.28V133.347C24.28 134.893 24.0667 136.333 23.64 137.667C23.24 139 22.6 140.16 21.72 141.147C20.8667 142.107 19.7733 142.867 18.44 143.427C17.1333 143.987 15.5733 144.267 13.76 144.267Z" fill="black"/>
<path d="M34.4591 123.787C34.9124 123.493 35.5924 123.187 36.4991 122.867C37.4324 122.547 38.4991 122.387 39.6991 122.387C41.1924 122.387 42.5124 122.653 43.6591 123.187C44.8324 123.72 45.8191 124.467 46.6191 125.427C47.4191 126.387 48.0191 127.533 48.4191 128.867C48.8457 130.2 49.0591 131.667 49.0591 133.267C49.0591 134.947 48.8057 136.467 48.2991 137.827C47.8191 139.16 47.1257 140.293 46.2191 141.227C45.3124 142.16 44.2191 142.88 42.9391 143.387C41.6591 143.893 40.2191 144.147 38.6191 144.147C36.8857 144.147 35.3524 144.027 34.0191 143.787C32.6857 143.547 31.5924 143.307 30.7391 143.067V113.267L34.4591 112.627V123.787ZM34.4591 140.427C34.8324 140.533 35.3524 140.64 36.0191 140.747C36.7124 140.827 37.5657 140.867 38.5791 140.867C40.5791 140.867 42.1791 140.213 43.3791 138.907C44.5791 137.573 45.1791 135.693 45.1791 133.267C45.1791 132.2 45.0724 131.2 44.8591 130.267C44.6457 129.333 44.299 128.533 43.819 127.867C43.3391 127.173 42.7124 126.64 41.9391 126.267C41.1924 125.867 40.2857 125.667 39.2191 125.667C38.2057 125.667 37.2724 125.84 36.4191 126.187C35.5657 126.533 34.9124 126.893 34.4591 127.267V140.427Z" fill="black"/>
<path d="M70.8537 143.067C70.0004 143.28 68.8671 143.507 67.4537 143.747C66.0671 143.987 64.4537 144.107 62.6137 144.107C61.0137 144.107 59.6671 143.88 58.5737 143.427C57.4804 142.947 56.6004 142.28 55.9337 141.427C55.2671 140.573 54.7871 139.573 54.4937 138.427C54.2004 137.253 54.0537 135.96 54.0537 134.547V122.867H57.7737V133.747C57.7737 136.28 58.1737 138.093 58.9737 139.187C59.7737 140.28 61.1204 140.827 63.0137 140.827C63.4137 140.827 63.8271 140.813 64.2537 140.787C64.6804 140.76 65.0804 140.733 65.4537 140.707C65.8271 140.653 66.1604 140.613 66.4537 140.587C66.7737 140.533 67.0004 140.48 67.1337 140.427V122.867H70.8537V143.067Z" fill="black"/>
<path d="M77.2625 123.467C78.1158 123.253 79.2492 123.027 80.6625 122.787C82.0758 122.547 83.7025 122.427 85.5425 122.427C87.1958 122.427 88.5692 122.667 89.6625 123.147C90.7558 123.6 91.6225 124.253 92.2625 125.107C92.9292 125.933 93.3958 126.933 93.6625 128.107C93.9292 129.28 94.0625 130.573 94.0625 131.987V143.667H90.3425V132.787C90.3425 131.507 90.2492 130.413 90.0625 129.507C89.9025 128.6 89.6225 127.867 89.2225 127.307C88.8225 126.747 88.2892 126.347 87.6225 126.107C86.9558 125.84 86.1292 125.707 85.1425 125.707C84.7425 125.707 84.3292 125.72 83.9025 125.747C83.4758 125.773 83.0625 125.813 82.6625 125.867C82.2892 125.893 81.9425 125.933 81.6225 125.987C81.3292 126.04 81.1158 126.08 80.9825 126.107V143.667H77.2625V123.467Z" fill="black"/>
<path d="M103.711 122.867H111.591V125.987H103.711V135.587C103.711 136.627 103.791 137.493 103.951 138.187C104.111 138.853 104.351 139.387 104.671 139.787C104.991 140.16 105.391 140.427 105.871 140.587C106.351 140.747 106.911 140.827 107.551 140.827C108.671 140.827 109.565 140.707 110.231 140.467C110.925 140.2 111.405 140.013 111.671 139.907L112.391 142.987C112.018 143.173 111.365 143.4 110.431 143.667C109.498 143.96 108.431 144.107 107.231 144.107C105.818 144.107 104.645 143.933 103.711 143.587C102.805 143.213 102.071 142.667 101.511 141.947C100.951 141.227 100.551 140.347 100.311 139.307C100.098 138.24 99.9912 137.013 99.9912 135.627V117.067L103.711 116.427V122.867Z" fill="black"/>
<path d="M132.885 143.067C132.032 143.28 130.898 143.507 129.485 143.747C128.098 143.987 126.485 144.107 124.645 144.107C123.045 144.107 121.698 143.88 120.605 143.427C119.512 142.947 118.632 142.28 117.965 141.427C117.298 140.573 116.818 139.573 116.525 138.427C116.232 137.253 116.085 135.96 116.085 134.547V122.867H119.805V133.747C119.805 136.28 120.205 138.093 121.005 139.187C121.805 140.28 123.152 140.827 125.045 140.827C125.445 140.827 125.858 140.813 126.285 140.787C126.712 140.76 127.112 140.733 127.485 140.707C127.858 140.653 128.192 140.613 128.485 140.587C128.805 140.533 129.032 140.48 129.165 140.427V122.867H132.885V143.067Z" fill="black"/>
<path d="M162.352 132.067C162.778 132.6 163.312 133.307 163.952 134.187C164.618 135.04 165.298 136 165.992 137.067C166.685 138.107 167.365 139.2 168.032 140.347C168.725 141.493 169.312 142.6 169.792 143.667H165.552C165.018 142.653 164.432 141.627 163.792 140.587C163.178 139.547 162.552 138.56 161.912 137.627C161.272 136.667 160.632 135.773 159.992 134.947C159.378 134.12 158.818 133.4 158.312 132.787C157.965 132.813 157.605 132.827 157.232 132.827C156.885 132.827 156.525 132.827 156.152 132.827H152.672V143.667H148.792V116.347C149.885 116.08 151.098 115.907 152.432 115.827C153.792 115.72 155.032 115.667 156.152 115.667C160.045 115.667 163.005 116.4 165.032 117.867C167.085 119.333 168.112 121.52 168.112 124.427C168.112 126.267 167.618 127.84 166.632 129.147C165.672 130.453 164.245 131.427 162.352 132.067ZM156.472 119.067C154.818 119.067 153.552 119.107 152.672 119.187V129.627H155.432C156.765 129.627 157.965 129.56 159.032 129.427C160.098 129.293 160.992 129.04 161.712 128.667C162.458 128.293 163.032 127.773 163.432 127.107C163.832 126.413 164.032 125.507 164.032 124.387C164.032 123.347 163.832 122.48 163.432 121.787C163.032 121.093 162.485 120.547 161.792 120.147C161.125 119.747 160.325 119.467 159.392 119.307C158.485 119.147 157.512 119.067 156.472 119.067Z" fill="black"/>
<path d="M172.548 133.307C172.548 131.467 172.814 129.867 173.348 128.507C173.881 127.12 174.588 125.973 175.468 125.067C176.348 124.16 177.361 123.48 178.508 123.027C179.654 122.573 180.828 122.347 182.028 122.347C184.828 122.347 186.974 123.227 188.468 124.987C189.961 126.72 190.708 129.373 190.708 132.947C190.708 133.107 190.708 133.32 190.708 133.587C190.708 133.827 190.694 134.053 190.668 134.267H176.428C176.588 136.427 177.214 138.067 178.308 139.187C179.401 140.307 181.108 140.867 183.428 140.867C184.734 140.867 185.828 140.76 186.708 140.547C187.614 140.307 188.294 140.08 188.748 139.867L189.268 142.987C188.814 143.227 188.014 143.48 186.868 143.747C185.748 144.013 184.468 144.147 183.028 144.147C181.214 144.147 179.641 143.88 178.308 143.347C177.001 142.787 175.921 142.027 175.068 141.067C174.214 140.107 173.574 138.973 173.148 137.667C172.748 136.333 172.548 134.88 172.548 133.307ZM186.828 131.267C186.854 129.587 186.428 128.213 185.548 127.147C184.694 126.053 183.508 125.507 181.988 125.507C181.134 125.507 180.374 125.68 179.708 126.027C179.068 126.347 178.521 126.773 178.068 127.307C177.614 127.84 177.254 128.453 176.988 129.147C176.748 129.84 176.588 130.547 176.508 131.267H186.828Z" fill="black"/>
<path d="M209.092 141.587C208.772 141.8 208.145 142.08 207.212 142.427C206.305 142.747 205.238 142.907 204.012 142.907C202.758 142.907 201.572 142.707 200.452 142.307C199.358 141.907 198.398 141.293 197.572 140.467C196.745 139.613 196.092 138.56 195.612 137.307C195.132 136.053 194.892 134.56 194.892 132.827C194.892 131.307 195.118 129.92 195.572 128.667C196.025 127.387 196.678 126.293 197.532 125.387C198.412 124.453 199.478 123.733 200.732 123.227C201.985 122.693 203.398 122.427 204.972 122.427C206.705 122.427 208.212 122.56 209.492 122.827C210.798 123.067 211.892 123.293 212.772 123.507V142.067C212.772 145.267 211.945 147.587 210.292 149.027C208.638 150.467 206.132 151.187 202.772 151.187C201.465 151.187 200.225 151.08 199.052 150.867C197.905 150.653 196.905 150.4 196.052 150.107L196.732 146.867C197.478 147.16 198.385 147.413 199.452 147.627C200.545 147.867 201.678 147.987 202.852 147.987C205.065 147.987 206.652 147.547 207.612 146.667C208.598 145.787 209.092 144.387 209.092 142.467V141.587ZM209.052 126.147C208.678 126.04 208.172 125.947 207.532 125.867C206.918 125.76 206.078 125.707 205.012 125.707C203.012 125.707 201.465 126.36 200.372 127.667C199.305 128.973 198.772 130.707 198.772 132.867C198.772 134.067 198.918 135.093 199.212 135.947C199.532 136.8 199.945 137.507 200.452 138.067C200.985 138.627 201.585 139.04 202.252 139.307C202.945 139.573 203.652 139.707 204.372 139.707C205.358 139.707 206.265 139.573 207.092 139.307C207.918 139.013 208.572 138.68 209.052 138.307V126.147Z" fill="black"/>
<path d="M235.737 143.067C234.883 143.28 233.75 143.507 232.337 143.747C230.95 143.987 229.337 144.107 227.497 144.107C225.897 144.107 224.55 143.88 223.457 143.427C222.363 142.947 221.483 142.28 220.817 141.427C220.15 140.573 219.67 139.573 219.377 138.427C219.083 137.253 218.937 135.96 218.937 134.547V122.867H222.657V133.747C222.657 136.28 223.057 138.093 223.857 139.187C224.657 140.28 226.003 140.827 227.897 140.827C228.297 140.827 228.71 140.813 229.137 140.787C229.563 140.76 229.963 140.733 230.337 140.707C230.71 140.653 231.043 140.613 231.337 140.587C231.657 140.533 231.883 140.48 232.017 140.427V122.867H235.737V143.067Z" fill="black"/>
<path d="M248.385 144.067C246.092 144.013 244.465 143.52 243.505 142.587C242.545 141.653 242.065 140.2 242.065 138.227V113.267L245.785 112.627V137.627C245.785 138.24 245.839 138.747 245.945 139.147C246.052 139.547 246.225 139.867 246.465 140.107C246.705 140.347 247.025 140.533 247.425 140.667C247.825 140.773 248.319 140.867 248.905 140.947L248.385 144.067Z" fill="black"/>
<path d="M260.123 140.987C261.003 140.987 261.776 140.973 262.443 140.947C263.136 140.893 263.709 140.813 264.163 140.707V134.507C263.896 134.373 263.456 134.267 262.843 134.187C262.256 134.08 261.536 134.027 260.683 134.027C260.123 134.027 259.523 134.067 258.883 134.147C258.269 134.227 257.696 134.4 257.163 134.667C256.656 134.907 256.229 135.253 255.883 135.707C255.536 136.133 255.363 136.707 255.363 137.427C255.363 138.76 255.789 139.693 256.643 140.227C257.496 140.733 258.656 140.987 260.123 140.987ZM259.803 122.347C261.296 122.347 262.549 122.547 263.563 122.947C264.603 123.32 265.429 123.867 266.043 124.587C266.683 125.28 267.136 126.12 267.403 127.107C267.669 128.067 267.803 129.133 267.803 130.307V143.307C267.483 143.36 267.029 143.44 266.443 143.547C265.883 143.627 265.243 143.707 264.523 143.787C263.803 143.867 263.016 143.933 262.163 143.987C261.336 144.067 260.509 144.107 259.683 144.107C258.509 144.107 257.429 143.987 256.443 143.747C255.456 143.507 254.603 143.133 253.883 142.627C253.163 142.093 252.603 141.4 252.203 140.547C251.803 139.693 251.603 138.667 251.603 137.467C251.603 136.32 251.829 135.333 252.283 134.507C252.763 133.68 253.403 133.013 254.203 132.507C255.003 132 255.936 131.627 257.003 131.387C258.069 131.147 259.189 131.027 260.363 131.027C260.736 131.027 261.123 131.053 261.523 131.107C261.923 131.133 262.296 131.187 262.643 131.267C263.016 131.32 263.336 131.373 263.603 131.427C263.869 131.48 264.056 131.52 264.163 131.547V130.507C264.163 129.893 264.096 129.293 263.963 128.707C263.829 128.093 263.59 127.56 263.243 127.107C262.896 126.627 262.416 126.253 261.803 125.987C261.216 125.693 260.443 125.547 259.483 125.547C258.256 125.547 257.176 125.64 256.243 125.827C255.336 125.987 254.656 126.16 254.203 126.347L253.763 123.267C254.243 123.053 255.043 122.853 256.163 122.667C257.283 122.453 258.496 122.347 259.803 122.347Z" fill="black"/>
<path d="M281.661 122.427C281.981 122.427 282.341 122.453 282.741 122.507C283.168 122.533 283.581 122.587 283.981 122.667C284.381 122.72 284.741 122.787 285.061 122.867C285.408 122.92 285.661 122.973 285.821 123.027L285.181 126.267C284.888 126.16 284.395 126.04 283.701 125.907C283.035 125.747 282.168 125.667 281.101 125.667C280.408 125.667 279.715 125.747 279.021 125.907C278.355 126.04 277.915 126.133 277.701 126.187V143.667H273.981V123.747C274.861 123.427 275.955 123.133 277.261 122.867C278.568 122.573 280.035 122.427 281.661 122.427Z" fill="black"/>
</svg>
