<svg width="100%" viewBox="0 0 180 129" fill="none" xmlns="http://www.w3.org/2000/svg">
<rect width="180" height="129" fill="white"/>
<path d="M8.424 22.336C7.256 22.336 6.248 22.176 5.4 21.856C4.552 21.52 3.848 21.064 3.288 20.488C2.744 19.896 2.336 19.2 2.064 18.4C1.808 17.584 1.68 16.688 1.68 15.712V5.368H5.424V15.4C5.424 16.072 5.496 16.648 5.64 17.128C5.8 17.592 6.008 17.976 6.264 18.28C6.536 18.568 6.856 18.776 7.224 18.904C7.608 19.032 8.024 19.096 8.472 19.096C9.384 19.096 10.12 18.816 10.68 18.256C11.256 17.696 11.544 16.744 11.544 15.4V5.368H15.288V15.712C15.288 16.688 15.152 17.584 14.88 18.4C14.608 19.216 14.192 19.92 13.632 20.512C13.072 21.088 12.36 21.536 11.496 21.856C10.632 22.176 9.608 22.336 8.424 22.336ZM26.7368 15.592C26.7368 13.288 25.8888 12.136 24.1928 12.136C23.8248 12.136 23.4568 12.184 23.0888 12.28C22.7368 12.376 22.4488 12.496 22.2248 12.64V19.144C22.4008 19.176 22.6248 19.208 22.8968 19.24C23.1688 19.256 23.4648 19.264 23.7848 19.264C24.7608 19.264 25.4968 18.928 25.9928 18.256C26.4888 17.584 26.7368 16.696 26.7368 15.592ZM30.3848 15.688C30.3848 16.696 30.2328 17.608 29.9288 18.424C29.6408 19.24 29.2168 19.936 28.6568 20.512C28.0968 21.088 27.4088 21.536 26.5928 21.856C25.7768 22.16 24.8488 22.312 23.8088 22.312C23.3768 22.312 22.9208 22.288 22.4408 22.24C21.9768 22.208 21.5128 22.16 21.0488 22.096C20.6008 22.032 20.1688 21.96 19.7528 21.88C19.3368 21.784 18.9688 21.688 18.6488 21.592V3.952L22.2248 3.376V9.664C22.6248 9.488 23.0408 9.352 23.4728 9.256C23.9048 9.16 24.3688 9.112 24.8648 9.112C25.7608 9.112 26.5528 9.272 27.2408 9.592C27.9288 9.896 28.5048 10.336 28.9688 10.912C29.4328 11.488 29.7848 12.184 30.0248 13C30.2648 13.8 30.3848 14.696 30.3848 15.688ZM43.9091 21.568C43.3011 21.744 42.5171 21.904 41.5571 22.048C40.5971 22.208 39.5891 22.288 38.5331 22.288C37.4611 22.288 36.5651 22.144 35.8451 21.856C35.1411 21.568 34.5811 21.168 34.1651 20.656C33.7491 20.128 33.4531 19.504 33.2771 18.784C33.1011 18.064 33.0131 17.272 33.0131 16.408V9.376H36.5891V15.976C36.5891 17.128 36.7411 17.96 37.0451 18.472C37.3491 18.984 37.9171 19.24 38.7491 19.24C39.0051 19.24 39.2771 19.232 39.5651 19.216C39.8531 19.184 40.1091 19.152 40.3331 19.12V9.376H43.9091V21.568ZM47.2659 9.808C47.8739 9.632 48.6579 9.472 49.6179 9.328C50.5779 9.168 51.5859 9.088 52.6419 9.088C53.7139 9.088 54.6019 9.232 55.3059 9.52C56.0259 9.792 56.5939 10.184 57.0099 10.696C57.4259 11.208 57.7219 11.816 57.8979 12.52C58.0739 13.224 58.1619 14.008 58.1619 14.872V22H54.5859V15.304C54.5859 14.152 54.4339 13.336 54.1299 12.856C53.8259 12.376 53.2579 12.136 52.4259 12.136C52.1699 12.136 51.8979 12.152 51.6099 12.184C51.3219 12.2 51.0659 12.224 50.8419 12.256V22H47.2659V9.808ZM61.2788 6.232L64.8548 5.656V9.376H69.1508V12.352H64.8548V16.792C64.8548 17.544 64.9828 18.144 65.2388 18.592C65.5108 19.04 66.0468 19.264 66.8468 19.264C67.2308 19.264 67.6228 19.232 68.0228 19.168C68.4388 19.088 68.8148 18.984 69.1508 18.856L69.6548 21.64C69.2228 21.816 68.7428 21.968 68.2148 22.096C67.6868 22.224 67.0388 22.288 66.2708 22.288C65.2948 22.288 64.4868 22.16 63.8468 21.904C63.2068 21.632 62.6948 21.264 62.3108 20.8C61.9268 20.32 61.6548 19.744 61.4948 19.072C61.3508 18.4 61.2788 17.656 61.2788 16.84V6.232ZM82.8388 21.568C82.2308 21.744 81.4468 21.904 80.4868 22.048C79.5268 22.208 78.5188 22.288 77.4628 22.288C76.3908 22.288 75.4948 22.144 74.7748 21.856C74.0708 21.568 73.5108 21.168 73.0948 20.656C72.6788 20.128 72.3828 19.504 72.2068 18.784C72.0308 18.064 71.9428 17.272 71.9428 16.408V9.376H75.5188V15.976C75.5188 17.128 75.6708 17.96 75.9748 18.472C76.2788 18.984 76.8468 19.24 77.6788 19.24C77.9348 19.24 78.2068 19.232 78.4948 19.216C78.7828 19.184 79.0388 19.152 79.2628 19.12V9.376H82.8388V21.568ZM97.7453 22.216C96.8333 22.216 95.9213 22.184 95.0093 22.12C94.1133 22.072 93.1773 21.944 92.2013 21.736V5.608C92.9693 5.464 93.8093 5.36 94.7213 5.296C95.6333 5.216 96.4813 5.176 97.2653 5.176C98.3213 5.176 99.2893 5.256 100.169 5.416C101.065 5.56 101.833 5.816 102.473 6.184C103.113 6.552 103.609 7.04 103.961 7.648C104.329 8.24 104.513 8.976 104.513 9.856C104.513 11.184 103.873 12.232 102.593 13C103.649 13.4 104.369 13.944 104.753 14.632C105.137 15.32 105.329 16.096 105.329 16.96C105.329 18.704 104.689 20.016 103.409 20.896C102.145 21.776 100.257 22.216 97.7453 22.216ZM95.8493 14.752V19.048C96.1213 19.08 96.4173 19.104 96.7373 19.12C97.0573 19.136 97.4093 19.144 97.7933 19.144C98.9133 19.144 99.8173 18.984 100.505 18.664C101.193 18.344 101.537 17.752 101.537 16.888C101.537 16.12 101.249 15.576 100.673 15.256C100.097 14.92 99.2733 14.752 98.2013 14.752H95.8493ZM95.8493 11.896H97.6733C98.8253 11.896 99.6493 11.752 100.145 11.464C100.641 11.16 100.889 10.68 100.889 10.024C100.889 9.352 100.633 8.88 100.121 8.608C99.6093 8.336 98.8573 8.2 97.8653 8.2C97.5453 8.2 97.2013 8.208 96.8333 8.224C96.4653 8.224 96.1373 8.24 95.8493 8.272V11.896ZM119.894 15.664C119.894 16.656 119.75 17.568 119.462 18.4C119.174 19.216 118.758 19.92 118.214 20.512C117.67 21.088 117.014 21.536 116.246 21.856C115.494 22.176 114.646 22.336 113.702 22.336C112.774 22.336 111.926 22.176 111.158 21.856C110.406 21.536 109.758 21.088 109.214 20.512C108.67 19.92 108.246 19.216 107.942 18.4C107.638 17.568 107.486 16.656 107.486 15.664C107.486 14.672 107.638 13.768 107.942 12.952C108.262 12.136 108.694 11.44 109.238 10.864C109.798 10.288 110.454 9.84 111.206 9.52C111.974 9.2 112.806 9.04 113.702 9.04C114.614 9.04 115.446 9.2 116.198 9.52C116.966 9.84 117.622 10.288 118.166 10.864C118.71 11.44 119.134 12.136 119.438 12.952C119.742 13.768 119.894 14.672 119.894 15.664ZM116.246 15.664C116.246 14.56 116.022 13.696 115.574 13.072C115.142 12.432 114.518 12.112 113.702 12.112C112.886 12.112 112.254 12.432 111.806 13.072C111.358 13.696 111.134 14.56 111.134 15.664C111.134 16.768 111.358 17.648 111.806 18.304C112.254 18.944 112.886 19.264 113.702 19.264C114.518 19.264 115.142 18.944 115.574 18.304C116.022 17.648 116.246 16.768 116.246 15.664ZM127.704 22.24C126.664 22.224 125.816 22.112 125.16 21.904C124.52 21.696 124.008 21.408 123.624 21.04C123.256 20.656 123 20.2 122.856 19.672C122.728 19.128 122.664 18.52 122.664 17.848V3.952L126.24 3.376V17.128C126.24 17.448 126.264 17.736 126.312 17.992C126.36 18.248 126.448 18.464 126.576 18.64C126.72 18.816 126.92 18.96 127.176 19.072C127.432 19.184 127.776 19.256 128.208 19.288L127.704 22.24ZM133.306 15.592C133.306 16.696 133.554 17.584 134.05 18.256C134.546 18.928 135.282 19.264 136.258 19.264C136.578 19.264 136.874 19.256 137.146 19.24C137.418 19.208 137.642 19.176 137.818 19.144V12.64C137.594 12.496 137.298 12.376 136.93 12.28C136.578 12.184 136.218 12.136 135.85 12.136C134.154 12.136 133.306 13.288 133.306 15.592ZM141.394 21.592C141.074 21.688 140.706 21.784 140.29 21.88C139.874 21.96 139.434 22.032 138.97 22.096C138.522 22.16 138.058 22.208 137.578 22.24C137.114 22.288 136.666 22.312 136.234 22.312C135.194 22.312 134.266 22.16 133.45 21.856C132.634 21.552 131.946 21.12 131.386 20.56C130.826 19.984 130.394 19.296 130.09 18.496C129.802 17.68 129.658 16.768 129.658 15.76C129.658 14.736 129.786 13.816 130.042 13C130.298 12.168 130.666 11.464 131.146 10.888C131.626 10.312 132.21 9.872 132.898 9.568C133.602 9.264 134.402 9.112 135.298 9.112C135.794 9.112 136.234 9.16 136.618 9.256C137.018 9.352 137.418 9.488 137.818 9.664V3.952L141.394 3.376V21.592Z" fill="black"/>
<path d="M8.4 54.36C7.264 54.36 6.288 54.2 5.472 53.88C4.656 53.544 3.976 53.08 3.432 52.488C2.904 51.896 2.512 51.2 2.256 50.4C2 49.6 1.872 48.72 1.872 47.76V37.368H4.92V47.472C4.92 48.224 5 48.872 5.16 49.416C5.336 49.944 5.576 50.376 5.88 50.712C6.2 51.048 6.568 51.296 6.984 51.456C7.416 51.616 7.896 51.696 8.424 51.696C8.952 51.696 9.432 51.616 9.864 51.456C10.296 51.296 10.664 51.048 10.968 50.712C11.288 50.376 11.528 49.944 11.688 49.416C11.864 48.872 11.952 48.224 11.952 47.472V37.368H15V47.76C15 48.72 14.864 49.6 14.592 50.4C14.336 51.2 13.936 51.896 13.392 52.488C12.864 53.08 12.184 53.544 11.352 53.88C10.52 54.2 9.536 54.36 8.4 54.36ZM27.051 47.688C27.051 46.456 26.803 45.48 26.307 44.76C25.827 44.04 25.059 43.68 24.003 43.68C23.523 43.68 23.067 43.752 22.635 43.896C22.219 44.04 21.883 44.2 21.627 44.376V51.6C21.835 51.648 22.099 51.696 22.419 51.744C22.755 51.776 23.155 51.792 23.619 51.792C24.691 51.792 25.531 51.432 26.139 50.712C26.747 49.976 27.051 48.968 27.051 47.688ZM30.027 47.736C30.027 48.744 29.875 49.656 29.571 50.472C29.283 51.272 28.859 51.96 28.299 52.536C27.755 53.112 27.091 53.552 26.307 53.856C25.523 54.16 24.635 54.312 23.643 54.312C22.683 54.312 21.763 54.24 20.883 54.096C20.019 53.952 19.299 53.792 18.723 53.616V35.856L21.627 35.376V41.88C21.963 41.704 22.371 41.544 22.851 41.4C23.347 41.256 23.891 41.184 24.483 41.184C25.363 41.184 26.147 41.344 26.835 41.664C27.539 41.968 28.123 42.408 28.587 42.984C29.051 43.56 29.403 44.256 29.643 45.072C29.899 45.872 30.027 46.76 30.027 47.736ZM43.3159 53.616C42.7559 53.76 42.0279 53.904 41.1319 54.048C40.2359 54.208 39.2519 54.288 38.1799 54.288C37.1719 54.288 36.3239 54.144 35.6359 53.856C34.9639 53.568 34.4199 53.168 34.0039 52.656C33.6039 52.144 33.3159 51.536 33.1399 50.832C32.9639 50.112 32.8759 49.328 32.8759 48.48V41.448H35.7799V48.024C35.7799 49.368 35.9719 50.328 36.3559 50.904C36.7559 51.48 37.4439 51.768 38.4199 51.768C38.7719 51.768 39.1399 51.752 39.5239 51.72C39.9239 51.688 40.2199 51.648 40.4119 51.6V41.448H43.3159V53.616ZM47.0121 41.856C47.5721 41.696 48.3001 41.544 49.1961 41.4C50.0921 41.256 51.0841 41.184 52.1721 41.184C53.1961 41.184 54.0521 41.328 54.7401 41.616C55.4281 41.888 55.9721 42.28 56.3721 42.792C56.7881 43.288 57.0761 43.896 57.2361 44.616C57.4121 45.32 57.5001 46.096 57.5001 46.944V54H54.5961V47.4C54.5961 46.728 54.5481 46.16 54.4521 45.696C54.3721 45.216 54.2281 44.832 54.0201 44.544C53.8281 44.24 53.5561 44.024 53.2041 43.896C52.8681 43.752 52.4521 43.68 51.9561 43.68C51.5881 43.68 51.2041 43.704 50.8041 43.752C50.4041 43.8 50.1081 43.84 49.9161 43.872V54H47.0121V41.856ZM60.9071 38.136L63.8111 37.656V41.448H68.2751V43.872H63.8111V48.984C63.8111 49.992 63.9711 50.712 64.2911 51.144C64.6111 51.576 65.1551 51.792 65.9231 51.792C66.4511 51.792 66.9151 51.736 67.3151 51.624C67.7311 51.512 68.0591 51.408 68.2991 51.312L68.7791 53.616C68.4431 53.76 68.0031 53.904 67.4591 54.048C66.9151 54.208 66.2751 54.288 65.5391 54.288C64.6431 54.288 63.8911 54.168 63.2831 53.928C62.6911 53.688 62.2191 53.344 61.8671 52.896C61.5151 52.432 61.2671 51.88 61.1231 51.24C60.9791 50.584 60.9071 49.84 60.9071 49.008V38.136ZM81.3784 53.616C80.8184 53.76 80.0904 53.904 79.1944 54.048C78.2984 54.208 77.3144 54.288 76.2424 54.288C75.2344 54.288 74.3864 54.144 73.6984 53.856C73.0264 53.568 72.4824 53.168 72.0664 52.656C71.6664 52.144 71.3784 51.536 71.2024 50.832C71.0264 50.112 70.9384 49.328 70.9384 48.48V41.448H73.8424V48.024C73.8424 49.368 74.0344 50.328 74.4184 50.904C74.8184 51.48 75.5064 51.768 76.4824 51.768C76.8344 51.768 77.2024 51.752 77.5864 51.72C77.9864 51.688 78.2824 51.648 78.4744 51.6V41.448H81.3784V53.616ZM94.4441 37.368C94.7961 37.976 95.1881 38.72 95.6201 39.6C96.0521 40.48 96.4921 41.408 96.9401 42.384C97.3881 43.344 97.8281 44.328 98.2601 45.336C98.7081 46.328 99.1161 47.248 99.4841 48.096C99.8521 47.248 100.252 46.328 100.684 45.336C101.116 44.328 101.556 43.344 102.004 42.384C102.452 41.408 102.892 40.48 103.324 39.6C103.756 38.72 104.148 37.976 104.5 37.368H107.236C107.38 38.584 107.516 39.88 107.644 41.256C107.772 42.616 107.884 44.016 107.98 45.456C108.092 46.88 108.188 48.32 108.268 49.776C108.364 51.216 108.444 52.624 108.508 54H105.532C105.468 52.064 105.388 50.072 105.292 48.024C105.212 45.976 105.084 43.992 104.908 42.072C104.732 42.44 104.524 42.88 104.284 43.392C104.044 43.904 103.788 44.464 103.516 45.072C103.244 45.664 102.964 46.28 102.676 46.92C102.404 47.56 102.132 48.184 101.86 48.792C101.604 49.384 101.364 49.944 101.14 50.472C100.916 50.984 100.724 51.424 100.564 51.792H98.3081C98.1481 51.424 97.9561 50.976 97.7321 50.448C97.5081 49.92 97.2601 49.36 96.9881 48.768C96.7321 48.16 96.4601 47.536 96.1721 46.896C95.9001 46.256 95.6281 45.64 95.3561 45.048C95.0841 44.456 94.8281 43.904 94.5881 43.392C94.3481 42.864 94.1401 42.424 93.9641 42.072C93.7881 43.992 93.6521 45.976 93.5561 48.024C93.4761 50.072 93.4041 52.064 93.3401 54H90.3641C90.4281 52.624 90.5001 51.2 90.5801 49.728C90.6761 48.256 90.7721 46.8 90.8681 45.36C90.9801 43.904 91.1001 42.496 91.2281 41.136C91.3561 39.776 91.4921 38.52 91.6361 37.368H94.4441ZM111.191 47.784C111.191 46.68 111.351 45.712 111.671 44.88C112.007 44.048 112.447 43.36 112.991 42.816C113.535 42.256 114.159 41.84 114.863 41.568C115.567 41.28 116.287 41.136 117.023 41.136C118.751 41.136 120.095 41.672 121.055 42.744C122.031 43.816 122.519 45.416 122.519 47.544C122.519 47.704 122.511 47.888 122.495 48.096C122.495 48.288 122.487 48.464 122.471 48.624H114.191C114.271 49.632 114.623 50.416 115.247 50.976C115.887 51.52 116.807 51.792 118.007 51.792C118.711 51.792 119.351 51.728 119.927 51.6C120.519 51.472 120.983 51.336 121.319 51.192L121.703 53.568C121.543 53.648 121.319 53.736 121.031 53.832C120.759 53.912 120.439 53.984 120.071 54.048C119.719 54.128 119.335 54.192 118.919 54.24C118.503 54.288 118.079 54.312 117.647 54.312C116.543 54.312 115.583 54.152 114.767 53.832C113.951 53.496 113.279 53.04 112.751 52.464C112.223 51.872 111.831 51.184 111.575 50.4C111.319 49.6 111.191 48.728 111.191 47.784ZM119.615 46.488C119.615 46.088 119.559 45.712 119.447 45.36C119.335 44.992 119.167 44.68 118.943 44.424C118.735 44.152 118.471 43.944 118.151 43.8C117.847 43.64 117.479 43.56 117.047 43.56C116.599 43.56 116.207 43.648 115.871 43.824C115.535 43.984 115.247 44.2 115.007 44.472C114.783 44.744 114.607 45.056 114.479 45.408C114.351 45.76 114.263 46.12 114.215 46.488H119.615ZM127.878 47.688C127.878 48.968 128.182 49.976 128.79 50.712C129.398 51.432 130.238 51.792 131.31 51.792C131.774 51.792 132.166 51.776 132.486 51.744C132.822 51.696 133.094 51.648 133.302 51.6V44.4C133.046 44.224 132.702 44.064 132.27 43.92C131.854 43.76 131.406 43.68 130.926 43.68C129.87 43.68 129.094 44.04 128.598 44.76C128.118 45.48 127.878 46.456 127.878 47.688ZM136.206 53.616C135.63 53.792 134.902 53.952 134.022 54.096C133.158 54.24 132.246 54.312 131.286 54.312C130.294 54.312 129.406 54.16 128.622 53.856C127.838 53.552 127.166 53.12 126.606 52.56C126.062 51.984 125.638 51.296 125.334 50.496C125.046 49.68 124.902 48.768 124.902 47.76C124.902 46.768 125.022 45.872 125.262 45.072C125.518 44.256 125.886 43.56 126.366 42.984C126.846 42.408 127.43 41.968 128.118 41.664C128.806 41.344 129.598 41.184 130.494 41.184C131.102 41.184 131.638 41.256 132.102 41.4C132.566 41.544 132.966 41.704 133.302 41.88V35.856L136.206 35.376V53.616ZM142.823 54H139.919V41.448H142.823V54ZM143.135 37.776C143.135 38.32 142.959 38.752 142.607 39.072C142.255 39.392 141.839 39.552 141.359 39.552C140.863 39.552 140.439 39.392 140.087 39.072C139.735 38.752 139.559 38.32 139.559 37.776C139.559 37.216 139.735 36.776 140.087 36.456C140.439 36.136 140.863 35.976 141.359 35.976C141.839 35.976 142.255 36.136 142.607 36.456C142.959 36.776 143.135 37.216 143.135 37.776ZM156.824 53.616C156.264 53.76 155.536 53.904 154.64 54.048C153.744 54.208 152.76 54.288 151.688 54.288C150.68 54.288 149.832 54.144 149.144 53.856C148.472 53.568 147.928 53.168 147.512 52.656C147.112 52.144 146.824 51.536 146.648 50.832C146.472 50.112 146.384 49.328 146.384 48.48V41.448H149.288V48.024C149.288 49.368 149.48 50.328 149.864 50.904C150.264 51.48 150.952 51.768 151.928 51.768C152.28 51.768 152.648 51.752 153.032 51.72C153.432 51.688 153.728 51.648 153.92 51.6V41.448H156.824V53.616ZM167.672 47.4C167.672 46.088 167.504 45.144 167.168 44.568C166.848 43.976 166.24 43.68 165.344 43.68C165.024 43.68 164.672 43.704 164.288 43.752C163.904 43.8 163.616 43.84 163.424 43.872V54H160.52V41.856C161.08 41.696 161.808 41.544 162.704 41.4C163.616 41.256 164.576 41.184 165.584 41.184C166.448 41.184 167.152 41.296 167.696 41.52C168.256 41.744 168.72 42.04 169.088 42.408C169.264 42.28 169.488 42.144 169.76 42C170.032 41.856 170.336 41.728 170.672 41.616C171.008 41.488 171.36 41.384 171.728 41.304C172.112 41.224 172.496 41.184 172.88 41.184C173.856 41.184 174.656 41.328 175.28 41.616C175.92 41.888 176.416 42.28 176.768 42.792C177.136 43.288 177.384 43.896 177.512 44.616C177.656 45.32 177.728 46.096 177.728 46.944V54H174.824V47.4C174.824 46.088 174.664 45.144 174.344 44.568C174.024 43.976 173.408 43.68 172.496 43.68C172.032 43.68 171.592 43.76 171.176 43.92C170.76 44.064 170.448 44.208 170.24 44.352C170.368 44.752 170.456 45.176 170.504 45.624C170.552 46.072 170.576 46.552 170.576 47.064V54H167.672V47.4Z" fill="black"/>
<path d="M8.16 118.36C7.056 118.36 6.112 118.192 5.328 117.856C4.56 117.52 3.936 117.056 3.456 116.464C2.976 115.872 2.624 115.184 2.4 114.4C2.192 113.6 2.088 112.744 2.088 111.832V101.368H3.72V111.616C3.72 112.528 3.824 113.32 4.032 113.992C4.256 114.648 4.56 115.192 4.944 115.624C5.328 116.056 5.792 116.376 6.336 116.584C6.88 116.792 7.488 116.896 8.16 116.896C8.832 116.896 9.44 116.792 9.984 116.584C10.528 116.376 10.992 116.056 11.376 115.624C11.76 115.192 12.056 114.648 12.264 113.992C12.488 113.32 12.6 112.528 12.6 111.616V101.368H14.232V111.832C14.232 112.744 14.12 113.6 13.896 114.4C13.688 115.184 13.344 115.872 12.864 116.464C12.384 117.056 11.752 117.52 10.968 117.856C10.2 118.192 9.264 118.36 8.16 118.36ZM19.9365 106.336C20.2085 106.128 20.6405 105.912 21.2325 105.688C21.8405 105.448 22.5525 105.328 23.3685 105.328C24.2645 105.328 25.0565 105.488 25.7445 105.808C26.4485 106.128 27.0405 106.576 27.5205 107.152C28.0005 107.728 28.3605 108.416 28.6005 109.216C28.8565 110 28.9845 110.864 28.9845 111.808C28.9845 112.816 28.8325 113.72 28.5285 114.52C28.2405 115.32 27.8245 116 27.2805 116.56C26.7525 117.12 26.1125 117.552 25.3605 117.856C24.6245 118.144 23.8005 118.288 22.8885 118.288C21.7845 118.288 20.8725 118.216 20.1525 118.072C19.4325 117.928 18.8405 117.776 18.3765 117.616V99.664L19.9365 99.376V106.336ZM19.9365 116.536C20.1765 116.616 20.5285 116.696 20.9925 116.776C21.4725 116.84 22.0965 116.872 22.8645 116.872C24.2085 116.872 25.2885 116.44 26.1045 115.576C26.9205 114.696 27.3285 113.44 27.3285 111.808C27.3285 111.12 27.2565 110.472 27.1125 109.864C26.9685 109.24 26.7365 108.704 26.4165 108.256C26.0965 107.792 25.6725 107.424 25.1445 107.152C24.6325 106.88 23.9925 106.744 23.2245 106.744C22.8565 106.744 22.5045 106.784 22.1685 106.864C21.8325 106.928 21.5205 107.016 21.2325 107.128C20.9445 107.24 20.6885 107.36 20.4645 107.488C20.2565 107.616 20.0805 107.736 19.9365 107.848V116.536ZM41.8967 117.568C41.4327 117.696 40.8087 117.84 40.0247 118C39.2407 118.16 38.2807 118.24 37.1447 118.24C36.2167 118.24 35.4407 118.104 34.8167 117.832C34.1927 117.56 33.6887 117.176 33.3047 116.68C32.9207 116.184 32.6407 115.584 32.4647 114.88C32.3047 114.176 32.2247 113.4 32.2247 112.552V105.592H33.7847V112.048C33.7847 112.928 33.8487 113.672 33.9767 114.28C34.1047 114.888 34.3127 115.384 34.6007 115.768C34.8887 116.136 35.2567 116.408 35.7047 116.584C36.1687 116.744 36.7287 116.824 37.3847 116.824C38.1207 116.824 38.7607 116.784 39.3047 116.704C39.8487 116.624 40.1927 116.552 40.3367 116.488V105.592H41.8967V117.568ZM46.0328 106.024C46.4968 105.896 47.1208 105.752 47.9048 105.592C48.6888 105.432 49.6488 105.352 50.7848 105.352C51.7288 105.352 52.5128 105.488 53.1368 105.76C53.7768 106.032 54.2808 106.424 54.6488 106.936C55.0328 107.432 55.3048 108.032 55.4648 108.736C55.6248 109.44 55.7048 110.216 55.7048 111.064V118H54.1448V111.568C54.1448 110.688 54.0808 109.944 53.9528 109.336C53.8408 108.728 53.6408 108.232 53.3528 107.848C53.0808 107.464 52.7128 107.192 52.2488 107.032C51.8008 106.856 51.2328 106.768 50.5448 106.768C49.8088 106.768 49.1688 106.808 48.6248 106.888C48.0968 106.968 47.7528 107.04 47.5928 107.104V118H46.0328V106.024ZM61.1608 105.592H66.1048V106.912H61.1608V113.512C61.1608 114.216 61.2168 114.792 61.3288 115.24C61.4568 115.672 61.6328 116.008 61.8568 116.248C62.0808 116.488 62.3528 116.648 62.6728 116.728C62.9928 116.808 63.3448 116.848 63.7288 116.848C64.3848 116.848 64.9128 116.776 65.3128 116.632C65.7128 116.472 66.0248 116.328 66.2488 116.2L66.6328 117.496C66.4088 117.64 66.0168 117.808 65.4568 118C64.8968 118.176 64.2888 118.264 63.6328 118.264C62.8648 118.264 62.2168 118.168 61.6888 117.976C61.1768 117.768 60.7608 117.464 60.4408 117.064C60.1368 116.648 59.9208 116.136 59.7928 115.528C59.6648 114.92 59.6008 114.2 59.6008 113.368V101.944L61.1608 101.656V105.592ZM78.5061 117.568C78.0421 117.696 77.4181 117.84 76.6341 118C75.8501 118.16 74.8901 118.24 73.7541 118.24C72.8261 118.24 72.0501 118.104 71.4261 117.832C70.8021 117.56 70.2981 117.176 69.9141 116.68C69.5301 116.184 69.2501 115.584 69.0741 114.88C68.9141 114.176 68.8341 113.4 68.8341 112.552V105.592H70.3941V112.048C70.3941 112.928 70.4581 113.672 70.5861 114.28C70.7141 114.888 70.9221 115.384 71.2101 115.768C71.4981 116.136 71.8661 116.408 72.3141 116.584C72.7781 116.744 73.3381 116.824 73.9941 116.824C74.7301 116.824 75.3701 116.784 75.9141 116.704C76.4581 116.624 76.8021 116.552 76.9461 116.488V105.592H78.5061V117.568ZM97.6551 116.584V118H88.1991V101.368H89.8311V116.584H97.6551ZM101.71 118H100.15V105.592H101.71V118ZM102.07 101.848C102.07 102.216 101.958 102.512 101.734 102.736C101.51 102.944 101.238 103.048 100.918 103.048C100.598 103.048 100.326 102.944 100.102 102.736C99.8779 102.512 99.7659 102.216 99.7659 101.848C99.7659 101.48 99.8779 101.192 100.102 100.984C100.326 100.76 100.598 100.648 100.918 100.648C101.238 100.648 101.51 100.76 101.734 100.984C101.958 101.192 102.07 101.48 102.07 101.848ZM113.933 116.56C113.837 116.64 113.693 116.736 113.501 116.848C113.309 116.944 113.069 117.048 112.781 117.16C112.509 117.272 112.189 117.368 111.821 117.448C111.469 117.512 111.069 117.544 110.621 117.544C109.901 117.544 109.205 117.432 108.533 117.208C107.861 116.984 107.269 116.632 106.757 116.152C106.261 115.672 105.861 115.056 105.557 114.304C105.253 113.536 105.101 112.608 105.101 111.52C105.101 110.64 105.237 109.824 105.509 109.072C105.781 108.32 106.165 107.672 106.661 107.128C107.173 106.568 107.789 106.136 108.509 105.832C109.245 105.512 110.069 105.352 110.981 105.352C112.133 105.352 113.053 105.432 113.741 105.592C114.445 105.736 115.021 105.88 115.469 106.024V117.352C115.469 119.208 114.989 120.528 114.029 121.312C113.069 122.112 111.621 122.512 109.685 122.512C108.885 122.512 108.157 122.448 107.501 122.32C106.861 122.208 106.309 122.072 105.845 121.912L106.157 120.496C106.541 120.672 107.061 120.824 107.717 120.952C108.389 121.08 109.061 121.144 109.733 121.144C111.205 121.144 112.269 120.856 112.925 120.28C113.597 119.72 113.933 118.752 113.933 117.376V116.56ZM113.909 107.104C113.637 107.024 113.285 106.952 112.853 106.888C112.421 106.808 111.805 106.768 111.005 106.768C110.333 106.768 109.733 106.888 109.205 107.128C108.693 107.352 108.253 107.68 107.885 108.112C107.517 108.528 107.237 109.032 107.045 109.624C106.853 110.2 106.757 110.84 106.757 111.544C106.757 112.36 106.869 113.064 107.093 113.656C107.317 114.232 107.605 114.704 107.957 115.072C108.325 115.44 108.741 115.712 109.205 115.888C109.669 116.048 110.141 116.128 110.621 116.128C111.325 116.128 111.965 116.024 112.541 115.816C113.133 115.608 113.589 115.368 113.909 115.096V107.104ZM119.603 118V99.664L121.163 99.376V105.952C121.675 105.76 122.195 105.616 122.723 105.52C123.251 105.408 123.779 105.352 124.307 105.352C125.267 105.352 126.067 105.488 126.707 105.76C127.347 106.032 127.859 106.424 128.243 106.936C128.627 107.432 128.891 108.032 129.035 108.736C129.195 109.44 129.275 110.216 129.275 111.064V118H127.715V111.568C127.715 110.688 127.651 109.944 127.523 109.336C127.411 108.728 127.211 108.232 126.923 107.848C126.651 107.464 126.283 107.192 125.819 107.032C125.355 106.856 124.771 106.768 124.067 106.768C123.795 106.768 123.499 106.792 123.179 106.84C122.875 106.888 122.587 106.944 122.315 107.008C122.043 107.056 121.795 107.112 121.571 107.176C121.363 107.24 121.227 107.288 121.163 107.32V118H119.603ZM134.731 105.592H139.675V106.912H134.731V113.512C134.731 114.216 134.787 114.792 134.899 115.24C135.027 115.672 135.203 116.008 135.427 116.248C135.651 116.488 135.923 116.648 136.243 116.728C136.563 116.808 136.915 116.848 137.299 116.848C137.955 116.848 138.483 116.776 138.883 116.632C139.283 116.472 139.595 116.328 139.819 116.2L140.203 117.496C139.979 117.64 139.587 117.808 139.027 118C138.467 118.176 137.859 118.264 137.203 118.264C136.435 118.264 135.787 118.168 135.259 117.976C134.747 117.768 134.331 117.464 134.011 117.064C133.707 116.648 133.491 116.136 133.363 115.528C133.235 114.92 133.171 114.2 133.171 113.368V101.944L134.731 101.656V105.592Z" fill="black"/>
<path d="M8.256 86.36C7.168 86.36 6.224 86.192 5.424 85.856C4.624 85.52 3.968 85.064 3.456 84.488C2.944 83.896 2.56 83.2 2.304 82.4C2.064 81.6 1.944 80.736 1.944 79.808V69.368H4.272V79.544C4.272 81.208 4.64 82.416 5.376 83.168C6.112 83.92 7.072 84.296 8.256 84.296C8.848 84.296 9.384 84.208 9.864 84.032C10.36 83.84 10.784 83.552 11.136 83.168C11.488 82.784 11.76 82.296 11.952 81.704C12.144 81.096 12.24 80.376 12.24 79.544V69.368H14.568V79.808C14.568 80.736 14.44 81.6 14.184 82.4C13.944 83.2 13.56 83.896 13.032 84.488C12.52 85.064 11.864 85.52 11.064 85.856C10.28 86.192 9.344 86.36 8.256 86.36ZM20.6754 74.072C20.9474 73.896 21.3554 73.712 21.8994 73.52C22.4594 73.328 23.0994 73.232 23.8194 73.232C24.7154 73.232 25.5074 73.392 26.1954 73.712C26.8994 74.032 27.4914 74.48 27.9714 75.056C28.4514 75.632 28.8114 76.32 29.0514 77.12C29.3074 77.92 29.4354 78.8 29.4354 79.76C29.4354 80.768 29.2834 81.68 28.9794 82.496C28.6914 83.296 28.2754 83.976 27.7314 84.536C27.1874 85.096 26.5314 85.528 25.7634 85.832C24.9954 86.136 24.1314 86.288 23.1714 86.288C22.1314 86.288 21.2114 86.216 20.4114 86.072C19.6114 85.928 18.9554 85.784 18.4434 85.64V67.76L20.6754 67.376V74.072ZM20.6754 84.056C20.8994 84.12 21.2114 84.184 21.6114 84.248C22.0274 84.296 22.5394 84.32 23.1474 84.32C24.3474 84.32 25.3074 83.928 26.0274 83.144C26.7474 82.344 27.1074 81.216 27.1074 79.76C27.1074 79.12 27.0434 78.52 26.9154 77.96C26.7874 77.4 26.5794 76.92 26.2914 76.52C26.0034 76.104 25.6274 75.784 25.1634 75.56C24.7154 75.32 24.1714 75.2 23.5314 75.2C22.9234 75.2 22.3634 75.304 21.8514 75.512C21.3394 75.72 20.9474 75.936 20.6754 76.16V84.056ZM42.5123 85.64C42.0003 85.768 41.3203 85.904 40.4723 86.048C39.6403 86.192 38.6723 86.264 37.5683 86.264C36.6083 86.264 35.8003 86.128 35.1443 85.856C34.4883 85.568 33.9603 85.168 33.5603 84.656C33.1603 84.144 32.8723 83.544 32.6963 82.856C32.5203 82.152 32.4323 81.376 32.4323 80.528V73.52H34.6643V80.048C34.6643 81.568 34.9043 82.656 35.3843 83.312C35.8643 83.968 36.6723 84.296 37.8083 84.296C38.0483 84.296 38.2963 84.288 38.5523 84.272C38.8083 84.256 39.0483 84.24 39.2723 84.224C39.4963 84.192 39.6963 84.168 39.8723 84.152C40.0643 84.12 40.2003 84.088 40.2803 84.056V73.52H42.5123V85.64ZM46.3575 73.88C46.8695 73.752 47.5495 73.616 48.3975 73.472C49.2455 73.328 50.2215 73.256 51.3255 73.256C52.3175 73.256 53.1415 73.4 53.7975 73.688C54.4535 73.96 54.9735 74.352 55.3575 74.864C55.7575 75.36 56.0375 75.96 56.1975 76.664C56.3575 77.368 56.4375 78.144 56.4375 78.992V86H54.2055V79.472C54.2055 78.704 54.1495 78.048 54.0375 77.504C53.9415 76.96 53.7735 76.52 53.5335 76.184C53.2935 75.848 52.9735 75.608 52.5735 75.464C52.1735 75.304 51.6775 75.224 51.0855 75.224C50.8455 75.224 50.5975 75.232 50.3415 75.248C50.0855 75.264 49.8375 75.288 49.5975 75.32C49.3735 75.336 49.1655 75.36 48.9735 75.392C48.7975 75.424 48.6695 75.448 48.5895 75.464V86H46.3575V73.88ZM62.2268 73.52H66.9548V75.392H62.2268V81.152C62.2268 81.776 62.2748 82.296 62.3708 82.712C62.4668 83.112 62.6108 83.432 62.8028 83.672C62.9948 83.896 63.2348 84.056 63.5228 84.152C63.8108 84.248 64.1468 84.296 64.5308 84.296C65.2028 84.296 65.7388 84.224 66.1388 84.08C66.5548 83.92 66.8428 83.808 67.0028 83.744L67.4348 85.592C67.2108 85.704 66.8188 85.84 66.2588 86C65.6988 86.176 65.0588 86.264 64.3388 86.264C63.4908 86.264 62.7868 86.16 62.2268 85.952C61.6828 85.728 61.2428 85.4 60.9068 84.968C60.5708 84.536 60.3308 84.008 60.1868 83.384C60.0588 82.744 59.9948 82.008 59.9948 81.176V70.04L62.2268 69.656V73.52ZM79.731 85.64C79.219 85.768 78.539 85.904 77.691 86.048C76.859 86.192 75.891 86.264 74.787 86.264C73.827 86.264 73.019 86.128 72.363 85.856C71.707 85.568 71.179 85.168 70.779 84.656C70.379 84.144 70.091 83.544 69.915 82.856C69.739 82.152 69.651 81.376 69.651 80.528V73.52H71.883V80.048C71.883 81.568 72.123 82.656 72.603 83.312C73.083 83.968 73.891 84.296 75.027 84.296C75.267 84.296 75.515 84.288 75.771 84.272C76.027 84.256 76.267 84.24 76.491 84.224C76.715 84.192 76.915 84.168 77.091 84.152C77.283 84.12 77.419 84.088 77.499 84.056V73.52H79.731V85.64ZM97.4109 79.04C97.6669 79.36 97.9869 79.784 98.3709 80.312C98.7709 80.824 99.1789 81.4 99.5949 82.04C100.011 82.664 100.419 83.32 100.819 84.008C101.235 84.696 101.587 85.36 101.875 86H99.3309C99.0109 85.392 98.6589 84.776 98.2749 84.152C97.9069 83.528 97.5309 82.936 97.1469 82.376C96.7629 81.8 96.3789 81.264 95.9949 80.768C95.6269 80.272 95.2909 79.84 94.9869 79.472C94.7789 79.488 94.5629 79.496 94.3389 79.496C94.1309 79.496 93.9149 79.496 93.6909 79.496H91.6029V86H89.2749V69.608C89.9309 69.448 90.6589 69.344 91.4589 69.296C92.2749 69.232 93.0189 69.2 93.6909 69.2C96.0269 69.2 97.8029 69.64 99.0189 70.52C100.251 71.4 100.867 72.712 100.867 74.456C100.867 75.56 100.571 76.504 99.9789 77.288C99.4029 78.072 98.5469 78.656 97.4109 79.04ZM93.8829 71.24C92.8909 71.24 92.1309 71.264 91.6029 71.312V77.576H93.2589C94.0589 77.576 94.7789 77.536 95.4189 77.456C96.0589 77.376 96.5949 77.224 97.0269 77C97.4749 76.776 97.8189 76.464 98.0589 76.064C98.2989 75.648 98.4189 75.104 98.4189 74.432C98.4189 73.808 98.2989 73.288 98.0589 72.872C97.8189 72.456 97.4909 72.128 97.0749 71.888C96.6749 71.648 96.1949 71.48 95.6349 71.384C95.0909 71.288 94.5069 71.24 93.8829 71.24ZM103.529 79.784C103.529 78.68 103.689 77.72 104.009 76.904C104.329 76.072 104.753 75.384 105.281 74.84C105.809 74.296 106.417 73.888 107.105 73.616C107.793 73.344 108.497 73.208 109.217 73.208C110.897 73.208 112.185 73.736 113.081 74.792C113.977 75.832 114.425 77.424 114.425 79.568C114.425 79.664 114.425 79.792 114.425 79.952C114.425 80.096 114.417 80.232 114.401 80.36H105.857C105.953 81.656 106.329 82.64 106.985 83.312C107.641 83.984 108.665 84.32 110.057 84.32C110.841 84.32 111.497 84.256 112.025 84.128C112.569 83.984 112.977 83.848 113.249 83.72L113.561 85.592C113.289 85.736 112.809 85.888 112.121 86.048C111.449 86.208 110.681 86.288 109.817 86.288C108.729 86.288 107.785 86.128 106.985 85.808C106.201 85.472 105.553 85.016 105.041 84.44C104.529 83.864 104.145 83.184 103.889 82.4C103.649 81.6 103.529 80.728 103.529 79.784ZM112.097 78.56C112.113 77.552 111.857 76.728 111.329 76.088C110.817 75.432 110.105 75.104 109.193 75.104C108.681 75.104 108.225 75.208 107.825 75.416C107.441 75.608 107.113 75.864 106.841 76.184C106.569 76.504 106.353 76.872 106.193 77.288C106.049 77.704 105.953 78.128 105.905 78.56H112.097ZM125.455 84.752C125.263 84.88 124.887 85.048 124.327 85.256C123.783 85.448 123.143 85.544 122.407 85.544C121.655 85.544 120.943 85.424 120.271 85.184C119.615 84.944 119.039 84.576 118.543 84.08C118.047 83.568 117.655 82.936 117.367 82.184C117.079 81.432 116.935 80.536 116.935 79.496C116.935 78.584 117.071 77.752 117.343 77C117.615 76.232 118.007 75.576 118.519 75.032C119.047 74.472 119.687 74.04 120.439 73.736C121.191 73.416 122.039 73.256 122.983 73.256C124.023 73.256 124.927 73.336 125.695 73.496C126.479 73.64 127.135 73.776 127.663 73.904V85.04C127.663 86.96 127.167 88.352 126.175 89.216C125.183 90.08 123.679 90.512 121.663 90.512C120.879 90.512 120.135 90.448 119.431 90.32C118.743 90.192 118.143 90.04 117.631 89.864L118.039 87.92C118.487 88.096 119.031 88.248 119.671 88.376C120.327 88.52 121.007 88.592 121.711 88.592C123.039 88.592 123.991 88.328 124.567 87.8C125.159 87.272 125.455 86.432 125.455 85.28V84.752ZM125.431 75.488C125.207 75.424 124.903 75.368 124.519 75.32C124.151 75.256 123.647 75.224 123.007 75.224C121.807 75.224 120.879 75.616 120.223 76.4C119.583 77.184 119.263 78.224 119.263 79.52C119.263 80.24 119.351 80.856 119.527 81.368C119.719 81.88 119.967 82.304 120.271 82.64C120.591 82.976 120.951 83.224 121.351 83.384C121.767 83.544 122.191 83.624 122.623 83.624C123.215 83.624 123.759 83.544 124.255 83.384C124.751 83.208 125.143 83.008 125.431 82.784V75.488ZM141.442 85.64C140.93 85.768 140.25 85.904 139.402 86.048C138.57 86.192 137.602 86.264 136.498 86.264C135.538 86.264 134.73 86.128 134.074 85.856C133.418 85.568 132.89 85.168 132.49 84.656C132.09 84.144 131.802 83.544 131.626 82.856C131.45 82.152 131.362 81.376 131.362 80.528V73.52H133.594V80.048C133.594 81.568 133.834 82.656 134.314 83.312C134.794 83.968 135.602 84.296 136.738 84.296C136.978 84.296 137.226 84.288 137.482 84.272C137.738 84.256 137.978 84.24 138.202 84.224C138.426 84.192 138.626 84.168 138.802 84.152C138.994 84.12 139.13 84.088 139.21 84.056V73.52H141.442V85.64ZM149.031 86.24C147.655 86.208 146.679 85.912 146.103 85.352C145.527 84.792 145.239 83.92 145.239 82.736V67.76L147.471 67.376V82.376C147.471 82.744 147.503 83.048 147.567 83.288C147.631 83.528 147.735 83.72 147.879 83.864C148.023 84.008 148.215 84.12 148.455 84.2C148.695 84.264 148.991 84.32 149.343 84.368L149.031 86.24ZM156.074 84.392C156.602 84.392 157.066 84.384 157.466 84.368C157.882 84.336 158.226 84.288 158.498 84.224V80.504C158.338 80.424 158.074 80.36 157.706 80.312C157.354 80.248 156.922 80.216 156.41 80.216C156.074 80.216 155.714 80.24 155.33 80.288C154.962 80.336 154.618 80.44 154.298 80.6C153.994 80.744 153.738 80.952 153.53 81.224C153.322 81.48 153.218 81.824 153.218 82.256C153.218 83.056 153.474 83.616 153.986 83.936C154.498 84.24 155.194 84.392 156.074 84.392ZM155.882 73.208C156.778 73.208 157.53 73.328 158.138 73.568C158.762 73.792 159.258 74.12 159.626 74.552C160.01 74.968 160.282 75.472 160.442 76.064C160.602 76.64 160.682 77.28 160.682 77.984V85.784C160.49 85.816 160.218 85.864 159.866 85.928C159.53 85.976 159.146 86.024 158.714 86.072C158.282 86.12 157.81 86.16 157.298 86.192C156.802 86.24 156.306 86.264 155.81 86.264C155.106 86.264 154.458 86.192 153.866 86.048C153.274 85.904 152.762 85.68 152.33 85.376C151.898 85.056 151.562 84.64 151.322 84.128C151.082 83.616 150.962 83 150.962 82.28C150.962 81.592 151.098 81 151.37 80.504C151.658 80.008 152.042 79.608 152.522 79.304C153.002 79 153.562 78.776 154.202 78.632C154.842 78.488 155.514 78.416 156.218 78.416C156.442 78.416 156.674 78.432 156.914 78.464C157.154 78.48 157.378 78.512 157.586 78.56C157.81 78.592 158.002 78.624 158.162 78.656C158.322 78.688 158.434 78.712 158.498 78.728V78.104C158.498 77.736 158.458 77.376 158.378 77.024C158.298 76.656 158.154 76.336 157.946 76.064C157.738 75.776 157.45 75.552 157.082 75.392C156.73 75.216 156.266 75.128 155.69 75.128C154.954 75.128 154.306 75.184 153.746 75.296C153.202 75.392 152.794 75.496 152.522 75.608L152.258 73.76C152.546 73.632 153.026 73.512 153.698 73.4C154.37 73.272 155.098 73.208 155.882 73.208ZM168.997 73.256C169.189 73.256 169.405 73.272 169.645 73.304C169.901 73.32 170.149 73.352 170.389 73.4C170.629 73.432 170.845 73.472 171.037 73.52C171.245 73.552 171.397 73.584 171.493 73.616L171.109 75.56C170.933 75.496 170.637 75.424 170.221 75.344C169.821 75.248 169.301 75.2 168.661 75.2C168.245 75.2 167.829 75.248 167.413 75.344C167.013 75.424 166.749 75.48 166.621 75.512V86H164.389V74.048C164.917 73.856 165.573 73.68 166.357 73.52C167.141 73.344 168.021 73.256 168.997 73.256Z" fill="black"/>
</svg>
