<svg width="350" height="150" viewBox="0 0 350 150" fill="none" xmlns="http://www.w3.org/2000/svg">
<rect width="350" height="150" fill="white"/>
<path d="M54.424 35.336C53.256 35.336 52.248 35.176 51.4 34.856C50.552 34.52 49.848 34.064 49.288 33.488C48.744 32.896 48.336 32.2 48.064 31.4C47.808 30.584 47.68 29.688 47.68 28.712V18.368H51.424V28.4C51.424 29.072 51.496 29.648 51.64 30.128C51.8 30.592 52.008 30.976 52.264 31.28C52.536 31.568 52.856 31.776 53.224 31.904C53.608 32.032 54.024 32.096 54.472 32.096C55.384 32.096 56.12 31.816 56.68 31.256C57.256 30.696 57.544 29.744 57.544 28.4V18.368H61.288V28.712C61.288 29.688 61.152 30.584 60.88 31.4C60.608 32.216 60.192 32.92 59.632 33.512C59.072 34.088 58.36 34.536 57.496 34.856C56.632 35.176 55.608 35.336 54.424 35.336ZM72.7368 28.592C72.7368 26.288 71.8888 25.136 70.1928 25.136C69.8248 25.136 69.4568 25.184 69.0888 25.28C68.7368 25.376 68.4488 25.496 68.2248 25.64V32.144C68.4008 32.176 68.6248 32.208 68.8968 32.24C69.1688 32.256 69.4648 32.264 69.7848 32.264C70.7608 32.264 71.4968 31.928 71.9928 31.256C72.4888 30.584 72.7368 29.696 72.7368 28.592ZM76.3848 28.688C76.3848 29.696 76.2328 30.608 75.9288 31.424C75.6408 32.24 75.2168 32.936 74.6568 33.512C74.0968 34.088 73.4088 34.536 72.5928 34.856C71.7768 35.16 70.8488 35.312 69.8088 35.312C69.3768 35.312 68.9208 35.288 68.4408 35.24C67.9768 35.208 67.5128 35.16 67.0488 35.096C66.6008 35.032 66.1688 34.96 65.7528 34.88C65.3368 34.784 64.9688 34.688 64.6488 34.592V16.952L68.2248 16.376V22.664C68.6248 22.488 69.0408 22.352 69.4728 22.256C69.9048 22.16 70.3688 22.112 70.8648 22.112C71.7608 22.112 72.5528 22.272 73.2408 22.592C73.9288 22.896 74.5048 23.336 74.9688 23.912C75.4328 24.488 75.7848 25.184 76.0248 26C76.2648 26.8 76.3848 27.696 76.3848 28.688ZM89.9091 34.568C89.3011 34.744 88.5171 34.904 87.5571 35.048C86.5971 35.208 85.5891 35.288 84.5331 35.288C83.4611 35.288 82.5651 35.144 81.8451 34.856C81.1411 34.568 80.5811 34.168 80.1651 33.656C79.7491 33.128 79.4531 32.504 79.2771 31.784C79.1011 31.064 79.0131 30.272 79.0131 29.408V22.376H82.5891V28.976C82.5891 30.128 82.7411 30.96 83.0451 31.472C83.3491 31.984 83.9171 32.24 84.7491 32.24C85.0051 32.24 85.2771 32.232 85.5651 32.216C85.8531 32.184 86.1091 32.152 86.3331 32.12V22.376H89.9091V34.568ZM93.2659 22.808C93.8739 22.632 94.6579 22.472 95.6179 22.328C96.5779 22.168 97.5859 22.088 98.6419 22.088C99.7139 22.088 100.602 22.232 101.306 22.52C102.026 22.792 102.594 23.184 103.01 23.696C103.426 24.208 103.722 24.816 103.898 25.52C104.074 26.224 104.162 27.008 104.162 27.872V35H100.586V28.304C100.586 27.152 100.434 26.336 100.13 25.856C99.8259 25.376 99.2579 25.136 98.4259 25.136C98.1699 25.136 97.8979 25.152 97.6099 25.184C97.3219 25.2 97.0659 25.224 96.8419 25.256V35H93.2659V22.808ZM107.279 19.232L110.855 18.656V22.376H115.151V25.352H110.855V29.792C110.855 30.544 110.983 31.144 111.239 31.592C111.511 32.04 112.047 32.264 112.847 32.264C113.231 32.264 113.623 32.232 114.023 32.168C114.439 32.088 114.815 31.984 115.151 31.856L115.655 34.64C115.223 34.816 114.743 34.968 114.215 35.096C113.687 35.224 113.039 35.288 112.271 35.288C111.295 35.288 110.487 35.16 109.847 34.904C109.207 34.632 108.695 34.264 108.311 33.8C107.927 33.32 107.655 32.744 107.495 32.072C107.351 31.4 107.279 30.656 107.279 29.84V19.232ZM128.839 34.568C128.231 34.744 127.447 34.904 126.487 35.048C125.527 35.208 124.519 35.288 123.463 35.288C122.391 35.288 121.495 35.144 120.775 34.856C120.071 34.568 119.511 34.168 119.095 33.656C118.679 33.128 118.383 32.504 118.207 31.784C118.031 31.064 117.943 30.272 117.943 29.408V22.376H121.519V28.976C121.519 30.128 121.671 30.96 121.975 31.472C122.279 31.984 122.847 32.24 123.679 32.24C123.935 32.24 124.207 32.232 124.495 32.216C124.783 32.184 125.039 32.152 125.263 32.12V22.376H128.839V34.568ZM143.745 35.216C142.833 35.216 141.921 35.184 141.009 35.12C140.113 35.072 139.177 34.944 138.201 34.736V18.608C138.969 18.464 139.809 18.36 140.721 18.296C141.633 18.216 142.481 18.176 143.265 18.176C144.321 18.176 145.289 18.256 146.169 18.416C147.065 18.56 147.833 18.816 148.473 19.184C149.113 19.552 149.609 20.04 149.961 20.648C150.329 21.24 150.513 21.976 150.513 22.856C150.513 24.184 149.873 25.232 148.593 26C149.649 26.4 150.369 26.944 150.753 27.632C151.137 28.32 151.329 29.096 151.329 29.96C151.329 31.704 150.689 33.016 149.409 33.896C148.145 34.776 146.257 35.216 143.745 35.216ZM141.849 27.752V32.048C142.121 32.08 142.417 32.104 142.737 32.12C143.057 32.136 143.409 32.144 143.793 32.144C144.913 32.144 145.817 31.984 146.505 31.664C147.193 31.344 147.537 30.752 147.537 29.888C147.537 29.12 147.249 28.576 146.673 28.256C146.097 27.92 145.273 27.752 144.201 27.752H141.849ZM141.849 24.896H143.673C144.825 24.896 145.649 24.752 146.145 24.464C146.641 24.16 146.889 23.68 146.889 23.024C146.889 22.352 146.633 21.88 146.121 21.608C145.609 21.336 144.857 21.2 143.865 21.2C143.545 21.2 143.201 21.208 142.833 21.224C142.465 21.224 142.137 21.24 141.849 21.272V24.896ZM165.894 28.664C165.894 29.656 165.75 30.568 165.462 31.4C165.174 32.216 164.758 32.92 164.214 33.512C163.67 34.088 163.014 34.536 162.246 34.856C161.494 35.176 160.646 35.336 159.702 35.336C158.774 35.336 157.926 35.176 157.158 34.856C156.406 34.536 155.758 34.088 155.214 33.512C154.67 32.92 154.246 32.216 153.942 31.4C153.638 30.568 153.486 29.656 153.486 28.664C153.486 27.672 153.638 26.768 153.942 25.952C154.262 25.136 154.694 24.44 155.238 23.864C155.798 23.288 156.454 22.84 157.206 22.52C157.974 22.2 158.806 22.04 159.702 22.04C160.614 22.04 161.446 22.2 162.198 22.52C162.966 22.84 163.622 23.288 164.166 23.864C164.71 24.44 165.134 25.136 165.438 25.952C165.742 26.768 165.894 27.672 165.894 28.664ZM162.246 28.664C162.246 27.56 162.022 26.696 161.574 26.072C161.142 25.432 160.518 25.112 159.702 25.112C158.886 25.112 158.254 25.432 157.806 26.072C157.358 26.696 157.134 27.56 157.134 28.664C157.134 29.768 157.358 30.648 157.806 31.304C158.254 31.944 158.886 32.264 159.702 32.264C160.518 32.264 161.142 31.944 161.574 31.304C162.022 30.648 162.246 29.768 162.246 28.664ZM173.704 35.24C172.664 35.224 171.816 35.112 171.16 34.904C170.52 34.696 170.008 34.408 169.624 34.04C169.256 33.656 169 33.2 168.856 32.672C168.728 32.128 168.664 31.52 168.664 30.848V16.952L172.24 16.376V30.128C172.24 30.448 172.264 30.736 172.312 30.992C172.36 31.248 172.448 31.464 172.576 31.64C172.72 31.816 172.92 31.96 173.176 32.072C173.432 32.184 173.776 32.256 174.208 32.288L173.704 35.24ZM179.306 28.592C179.306 29.696 179.554 30.584 180.05 31.256C180.546 31.928 181.282 32.264 182.258 32.264C182.578 32.264 182.874 32.256 183.146 32.24C183.418 32.208 183.642 32.176 183.818 32.144V25.64C183.594 25.496 183.298 25.376 182.93 25.28C182.578 25.184 182.218 25.136 181.85 25.136C180.154 25.136 179.306 26.288 179.306 28.592ZM187.394 34.592C187.074 34.688 186.706 34.784 186.29 34.88C185.874 34.96 185.434 35.032 184.97 35.096C184.522 35.16 184.058 35.208 183.578 35.24C183.114 35.288 182.666 35.312 182.234 35.312C181.194 35.312 180.266 35.16 179.45 34.856C178.634 34.552 177.946 34.12 177.386 33.56C176.826 32.984 176.394 32.296 176.09 31.496C175.802 30.68 175.658 29.768 175.658 28.76C175.658 27.736 175.786 26.816 176.042 26C176.298 25.168 176.666 24.464 177.146 23.888C177.626 23.312 178.21 22.872 178.898 22.568C179.602 22.264 180.402 22.112 181.298 22.112C181.794 22.112 182.234 22.16 182.618 22.256C183.018 22.352 183.418 22.488 183.818 22.664V16.952L187.394 16.376V34.592Z" fill="black"/>
<path d="M54.4 67.36C53.264 67.36 52.288 67.2 51.472 66.88C50.656 66.544 49.976 66.08 49.432 65.488C48.904 64.896 48.512 64.2 48.256 63.4C48 62.6 47.872 61.72 47.872 60.76V50.368H50.92V60.472C50.92 61.224 51 61.872 51.16 62.416C51.336 62.944 51.576 63.376 51.88 63.712C52.2 64.048 52.568 64.296 52.984 64.456C53.416 64.616 53.896 64.696 54.424 64.696C54.952 64.696 55.432 64.616 55.864 64.456C56.296 64.296 56.664 64.048 56.968 63.712C57.288 63.376 57.528 62.944 57.688 62.416C57.864 61.872 57.952 61.224 57.952 60.472V50.368H61V60.76C61 61.72 60.864 62.6 60.592 63.4C60.336 64.2 59.936 64.896 59.392 65.488C58.864 66.08 58.184 66.544 57.352 66.88C56.52 67.2 55.536 67.36 54.4 67.36ZM73.051 60.688C73.051 59.456 72.803 58.48 72.307 57.76C71.827 57.04 71.059 56.68 70.003 56.68C69.523 56.68 69.067 56.752 68.635 56.896C68.219 57.04 67.883 57.2 67.627 57.376V64.6C67.835 64.648 68.099 64.696 68.419 64.744C68.755 64.776 69.155 64.792 69.619 64.792C70.691 64.792 71.531 64.432 72.139 63.712C72.747 62.976 73.051 61.968 73.051 60.688ZM76.027 60.736C76.027 61.744 75.875 62.656 75.571 63.472C75.283 64.272 74.859 64.96 74.299 65.536C73.755 66.112 73.091 66.552 72.307 66.856C71.523 67.16 70.635 67.312 69.643 67.312C68.683 67.312 67.763 67.24 66.883 67.096C66.019 66.952 65.299 66.792 64.723 66.616V48.856L67.627 48.376V54.88C67.963 54.704 68.371 54.544 68.851 54.4C69.347 54.256 69.891 54.184 70.483 54.184C71.363 54.184 72.147 54.344 72.835 54.664C73.539 54.968 74.123 55.408 74.587 55.984C75.051 56.56 75.403 57.256 75.643 58.072C75.899 58.872 76.027 59.76 76.027 60.736ZM89.3159 66.616C88.7559 66.76 88.0279 66.904 87.1319 67.048C86.2359 67.208 85.2519 67.288 84.1799 67.288C83.1719 67.288 82.3239 67.144 81.6359 66.856C80.9639 66.568 80.4199 66.168 80.0039 65.656C79.6039 65.144 79.3159 64.536 79.1399 63.832C78.9639 63.112 78.8759 62.328 78.8759 61.48V54.448H81.7799V61.024C81.7799 62.368 81.9719 63.328 82.3559 63.904C82.7559 64.48 83.4439 64.768 84.4199 64.768C84.7719 64.768 85.1399 64.752 85.5239 64.72C85.9239 64.688 86.2199 64.648 86.4119 64.6V54.448H89.3159V66.616ZM93.0121 54.856C93.5721 54.696 94.3001 54.544 95.1961 54.4C96.0921 54.256 97.0841 54.184 98.1721 54.184C99.1961 54.184 100.052 54.328 100.74 54.616C101.428 54.888 101.972 55.28 102.372 55.792C102.788 56.288 103.076 56.896 103.236 57.616C103.412 58.32 103.5 59.096 103.5 59.944V67H100.596V60.4C100.596 59.728 100.548 59.16 100.452 58.696C100.372 58.216 100.228 57.832 100.02 57.544C99.8281 57.24 99.5561 57.024 99.2041 56.896C98.8681 56.752 98.4521 56.68 97.9561 56.68C97.5881 56.68 97.2041 56.704 96.8041 56.752C96.4041 56.8 96.1081 56.84 95.9161 56.872V67H93.0121V54.856ZM106.907 51.136L109.811 50.656V54.448H114.275V56.872H109.811V61.984C109.811 62.992 109.971 63.712 110.291 64.144C110.611 64.576 111.155 64.792 111.923 64.792C112.451 64.792 112.915 64.736 113.315 64.624C113.731 64.512 114.059 64.408 114.299 64.312L114.779 66.616C114.443 66.76 114.003 66.904 113.459 67.048C112.915 67.208 112.275 67.288 111.539 67.288C110.643 67.288 109.891 67.168 109.283 66.928C108.691 66.688 108.219 66.344 107.867 65.896C107.515 65.432 107.267 64.88 107.123 64.24C106.979 63.584 106.907 62.84 106.907 62.008V51.136ZM127.378 66.616C126.818 66.76 126.09 66.904 125.194 67.048C124.298 67.208 123.314 67.288 122.242 67.288C121.234 67.288 120.386 67.144 119.698 66.856C119.026 66.568 118.482 66.168 118.066 65.656C117.666 65.144 117.378 64.536 117.202 63.832C117.026 63.112 116.938 62.328 116.938 61.48V54.448H119.842V61.024C119.842 62.368 120.034 63.328 120.418 63.904C120.818 64.48 121.506 64.768 122.482 64.768C122.834 64.768 123.202 64.752 123.586 64.72C123.986 64.688 124.282 64.648 124.474 64.6V54.448H127.378V66.616ZM140.444 50.368C140.796 50.976 141.188 51.72 141.62 52.6C142.052 53.48 142.492 54.408 142.94 55.384C143.388 56.344 143.828 57.328 144.26 58.336C144.708 59.328 145.116 60.248 145.484 61.096C145.852 60.248 146.252 59.328 146.684 58.336C147.116 57.328 147.556 56.344 148.004 55.384C148.452 54.408 148.892 53.48 149.324 52.6C149.756 51.72 150.148 50.976 150.5 50.368H153.236C153.38 51.584 153.516 52.88 153.644 54.256C153.772 55.616 153.884 57.016 153.98 58.456C154.092 59.88 154.188 61.32 154.268 62.776C154.364 64.216 154.444 65.624 154.508 67H151.532C151.468 65.064 151.388 63.072 151.292 61.024C151.212 58.976 151.084 56.992 150.908 55.072C150.732 55.44 150.524 55.88 150.284 56.392C150.044 56.904 149.788 57.464 149.516 58.072C149.244 58.664 148.964 59.28 148.676 59.92C148.404 60.56 148.132 61.184 147.86 61.792C147.604 62.384 147.364 62.944 147.14 63.472C146.916 63.984 146.724 64.424 146.564 64.792H144.308C144.148 64.424 143.956 63.976 143.732 63.448C143.508 62.92 143.26 62.36 142.988 61.768C142.732 61.16 142.46 60.536 142.172 59.896C141.9 59.256 141.628 58.64 141.356 58.048C141.084 57.456 140.828 56.904 140.588 56.392C140.348 55.864 140.14 55.424 139.964 55.072C139.788 56.992 139.652 58.976 139.556 61.024C139.476 63.072 139.404 65.064 139.34 67H136.364C136.428 65.624 136.5 64.2 136.58 62.728C136.676 61.256 136.772 59.8 136.868 58.36C136.98 56.904 137.1 55.496 137.228 54.136C137.356 52.776 137.492 51.52 137.636 50.368H140.444ZM157.191 60.784C157.191 59.68 157.351 58.712 157.671 57.88C158.007 57.048 158.447 56.36 158.991 55.816C159.535 55.256 160.159 54.84 160.863 54.568C161.567 54.28 162.287 54.136 163.023 54.136C164.751 54.136 166.095 54.672 167.055 55.744C168.031 56.816 168.519 58.416 168.519 60.544C168.519 60.704 168.511 60.888 168.495 61.096C168.495 61.288 168.487 61.464 168.471 61.624H160.191C160.271 62.632 160.623 63.416 161.247 63.976C161.887 64.52 162.807 64.792 164.007 64.792C164.711 64.792 165.351 64.728 165.927 64.6C166.519 64.472 166.983 64.336 167.319 64.192L167.703 66.568C167.543 66.648 167.319 66.736 167.031 66.832C166.759 66.912 166.439 66.984 166.071 67.048C165.719 67.128 165.335 67.192 164.919 67.24C164.503 67.288 164.079 67.312 163.647 67.312C162.543 67.312 161.583 67.152 160.767 66.832C159.951 66.496 159.279 66.04 158.751 65.464C158.223 64.872 157.831 64.184 157.575 63.4C157.319 62.6 157.191 61.728 157.191 60.784ZM165.615 59.488C165.615 59.088 165.559 58.712 165.447 58.36C165.335 57.992 165.167 57.68 164.943 57.424C164.735 57.152 164.471 56.944 164.151 56.8C163.847 56.64 163.479 56.56 163.047 56.56C162.599 56.56 162.207 56.648 161.871 56.824C161.535 56.984 161.247 57.2 161.007 57.472C160.783 57.744 160.607 58.056 160.479 58.408C160.351 58.76 160.263 59.12 160.215 59.488H165.615ZM173.878 60.688C173.878 61.968 174.182 62.976 174.79 63.712C175.398 64.432 176.238 64.792 177.31 64.792C177.774 64.792 178.166 64.776 178.486 64.744C178.822 64.696 179.094 64.648 179.302 64.6V57.4C179.046 57.224 178.702 57.064 178.27 56.92C177.854 56.76 177.406 56.68 176.926 56.68C175.87 56.68 175.094 57.04 174.598 57.76C174.118 58.48 173.878 59.456 173.878 60.688ZM182.206 66.616C181.63 66.792 180.902 66.952 180.022 67.096C179.158 67.24 178.246 67.312 177.286 67.312C176.294 67.312 175.406 67.16 174.622 66.856C173.838 66.552 173.166 66.12 172.606 65.56C172.062 64.984 171.638 64.296 171.334 63.496C171.046 62.68 170.902 61.768 170.902 60.76C170.902 59.768 171.022 58.872 171.262 58.072C171.518 57.256 171.886 56.56 172.366 55.984C172.846 55.408 173.43 54.968 174.118 54.664C174.806 54.344 175.598 54.184 176.494 54.184C177.102 54.184 177.638 54.256 178.102 54.4C178.566 54.544 178.966 54.704 179.302 54.88V48.856L182.206 48.376V66.616ZM188.823 67H185.919V54.448H188.823V67ZM189.135 50.776C189.135 51.32 188.959 51.752 188.607 52.072C188.255 52.392 187.839 52.552 187.359 52.552C186.863 52.552 186.439 52.392 186.087 52.072C185.735 51.752 185.559 51.32 185.559 50.776C185.559 50.216 185.735 49.776 186.087 49.456C186.439 49.136 186.863 48.976 187.359 48.976C187.839 48.976 188.255 49.136 188.607 49.456C188.959 49.776 189.135 50.216 189.135 50.776ZM202.824 66.616C202.264 66.76 201.536 66.904 200.64 67.048C199.744 67.208 198.76 67.288 197.688 67.288C196.68 67.288 195.832 67.144 195.144 66.856C194.472 66.568 193.928 66.168 193.512 65.656C193.112 65.144 192.824 64.536 192.648 63.832C192.472 63.112 192.384 62.328 192.384 61.48V54.448H195.288V61.024C195.288 62.368 195.48 63.328 195.864 63.904C196.264 64.48 196.952 64.768 197.928 64.768C198.28 64.768 198.648 64.752 199.032 64.72C199.432 64.688 199.728 64.648 199.92 64.6V54.448H202.824V66.616ZM213.672 60.4C213.672 59.088 213.504 58.144 213.168 57.568C212.848 56.976 212.24 56.68 211.344 56.68C211.024 56.68 210.672 56.704 210.288 56.752C209.904 56.8 209.616 56.84 209.424 56.872V67H206.52V54.856C207.08 54.696 207.808 54.544 208.704 54.4C209.616 54.256 210.576 54.184 211.584 54.184C212.448 54.184 213.152 54.296 213.696 54.52C214.256 54.744 214.72 55.04 215.088 55.408C215.264 55.28 215.488 55.144 215.76 55C216.032 54.856 216.336 54.728 216.672 54.616C217.008 54.488 217.36 54.384 217.728 54.304C218.112 54.224 218.496 54.184 218.88 54.184C219.856 54.184 220.656 54.328 221.28 54.616C221.92 54.888 222.416 55.28 222.768 55.792C223.136 56.288 223.384 56.896 223.512 57.616C223.656 58.32 223.728 59.096 223.728 59.944V67H220.824V60.4C220.824 59.088 220.664 58.144 220.344 57.568C220.024 56.976 219.408 56.68 218.496 56.68C218.032 56.68 217.592 56.76 217.176 56.92C216.76 57.064 216.448 57.208 216.24 57.352C216.368 57.752 216.456 58.176 216.504 58.624C216.552 59.072 216.576 59.552 216.576 60.064V67H213.672V60.4Z" fill="black"/>
<path d="M54.16 131.36C53.056 131.36 52.112 131.192 51.328 130.856C50.56 130.52 49.936 130.056 49.456 129.464C48.976 128.872 48.624 128.184 48.4 127.4C48.192 126.6 48.088 125.744 48.088 124.832V114.368H49.72V124.616C49.72 125.528 49.824 126.32 50.032 126.992C50.256 127.648 50.56 128.192 50.944 128.624C51.328 129.056 51.792 129.376 52.336 129.584C52.88 129.792 53.488 129.896 54.16 129.896C54.832 129.896 55.44 129.792 55.984 129.584C56.528 129.376 56.992 129.056 57.376 128.624C57.76 128.192 58.056 127.648 58.264 126.992C58.488 126.32 58.6 125.528 58.6 124.616V114.368H60.232V124.832C60.232 125.744 60.12 126.6 59.896 127.4C59.688 128.184 59.344 128.872 58.864 129.464C58.384 130.056 57.752 130.52 56.968 130.856C56.2 131.192 55.264 131.36 54.16 131.36ZM65.9365 119.336C66.2085 119.128 66.6405 118.912 67.2325 118.688C67.8405 118.448 68.5525 118.328 69.3685 118.328C70.2645 118.328 71.0565 118.488 71.7445 118.808C72.4485 119.128 73.0405 119.576 73.5205 120.152C74.0005 120.728 74.3605 121.416 74.6005 122.216C74.8565 123 74.9845 123.864 74.9845 124.808C74.9845 125.816 74.8325 126.72 74.5285 127.52C74.2405 128.32 73.8245 129 73.2805 129.56C72.7525 130.12 72.1125 130.552 71.3605 130.856C70.6245 131.144 69.8005 131.288 68.8885 131.288C67.7845 131.288 66.8725 131.216 66.1525 131.072C65.4325 130.928 64.8405 130.776 64.3765 130.616V112.664L65.9365 112.376V119.336ZM65.9365 129.536C66.1765 129.616 66.5285 129.696 66.9925 129.776C67.4725 129.84 68.0965 129.872 68.8645 129.872C70.2085 129.872 71.2885 129.44 72.1045 128.576C72.9205 127.696 73.3285 126.44 73.3285 124.808C73.3285 124.12 73.2565 123.472 73.1125 122.864C72.9685 122.24 72.7365 121.704 72.4165 121.256C72.0965 120.792 71.6725 120.424 71.1445 120.152C70.6325 119.88 69.9925 119.744 69.2245 119.744C68.8565 119.744 68.5045 119.784 68.1685 119.864C67.8325 119.928 67.5205 120.016 67.2325 120.128C66.9445 120.24 66.6885 120.36 66.4645 120.488C66.2565 120.616 66.0805 120.736 65.9365 120.848V129.536ZM87.8967 130.568C87.4327 130.696 86.8087 130.84 86.0247 131C85.2407 131.16 84.2807 131.24 83.1447 131.24C82.2167 131.24 81.4407 131.104 80.8167 130.832C80.1927 130.56 79.6887 130.176 79.3047 129.68C78.9207 129.184 78.6407 128.584 78.4647 127.88C78.3047 127.176 78.2247 126.4 78.2247 125.552V118.592H79.7847V125.048C79.7847 125.928 79.8487 126.672 79.9767 127.28C80.1047 127.888 80.3127 128.384 80.6007 128.768C80.8887 129.136 81.2567 129.408 81.7047 129.584C82.1687 129.744 82.7287 129.824 83.3847 129.824C84.1207 129.824 84.7607 129.784 85.3047 129.704C85.8487 129.624 86.1927 129.552 86.3367 129.488V118.592H87.8967V130.568ZM92.0328 119.024C92.4968 118.896 93.1208 118.752 93.9048 118.592C94.6888 118.432 95.6488 118.352 96.7848 118.352C97.7288 118.352 98.5128 118.488 99.1368 118.76C99.7768 119.032 100.281 119.424 100.649 119.936C101.033 120.432 101.305 121.032 101.465 121.736C101.625 122.44 101.705 123.216 101.705 124.064V131H100.145V124.568C100.145 123.688 100.081 122.944 99.9528 122.336C99.8408 121.728 99.6408 121.232 99.3528 120.848C99.0808 120.464 98.7128 120.192 98.2488 120.032C97.8008 119.856 97.2328 119.768 96.5448 119.768C95.8088 119.768 95.1688 119.808 94.6248 119.888C94.0968 119.968 93.7528 120.04 93.5928 120.104V131H92.0328V119.024ZM107.161 118.592H112.105V119.912H107.161V126.512C107.161 127.216 107.217 127.792 107.329 128.24C107.457 128.672 107.633 129.008 107.857 129.248C108.081 129.488 108.353 129.648 108.673 129.728C108.993 129.808 109.345 129.848 109.729 129.848C110.385 129.848 110.913 129.776 111.313 129.632C111.713 129.472 112.025 129.328 112.249 129.2L112.633 130.496C112.409 130.64 112.017 130.808 111.457 131C110.897 131.176 110.289 131.264 109.633 131.264C108.865 131.264 108.217 131.168 107.689 130.976C107.177 130.768 106.761 130.464 106.441 130.064C106.137 129.648 105.921 129.136 105.793 128.528C105.665 127.92 105.601 127.2 105.601 126.368V114.944L107.161 114.656V118.592ZM124.506 130.568C124.042 130.696 123.418 130.84 122.634 131C121.85 131.16 120.89 131.24 119.754 131.24C118.826 131.24 118.05 131.104 117.426 130.832C116.802 130.56 116.298 130.176 115.914 129.68C115.53 129.184 115.25 128.584 115.074 127.88C114.914 127.176 114.834 126.4 114.834 125.552V118.592H116.394V125.048C116.394 125.928 116.458 126.672 116.586 127.28C116.714 127.888 116.922 128.384 117.21 128.768C117.498 129.136 117.866 129.408 118.314 129.584C118.778 129.744 119.338 129.824 119.994 129.824C120.73 129.824 121.37 129.784 121.914 129.704C122.458 129.624 122.802 129.552 122.946 129.488V118.592H124.506V130.568ZM143.655 129.584V131H134.199V114.368H135.831V129.584H143.655ZM147.71 131H146.15V118.592H147.71V131ZM148.07 114.848C148.07 115.216 147.958 115.512 147.734 115.736C147.51 115.944 147.238 116.048 146.918 116.048C146.598 116.048 146.326 115.944 146.102 115.736C145.878 115.512 145.766 115.216 145.766 114.848C145.766 114.48 145.878 114.192 146.102 113.984C146.326 113.76 146.598 113.648 146.918 113.648C147.238 113.648 147.51 113.76 147.734 113.984C147.958 114.192 148.07 114.48 148.07 114.848ZM159.933 129.56C159.837 129.64 159.693 129.736 159.501 129.848C159.309 129.944 159.069 130.048 158.781 130.16C158.509 130.272 158.189 130.368 157.821 130.448C157.469 130.512 157.069 130.544 156.621 130.544C155.901 130.544 155.205 130.432 154.533 130.208C153.861 129.984 153.269 129.632 152.757 129.152C152.261 128.672 151.861 128.056 151.557 127.304C151.253 126.536 151.101 125.608 151.101 124.52C151.101 123.64 151.237 122.824 151.509 122.072C151.781 121.32 152.165 120.672 152.661 120.128C153.173 119.568 153.789 119.136 154.509 118.832C155.245 118.512 156.069 118.352 156.981 118.352C158.133 118.352 159.053 118.432 159.741 118.592C160.445 118.736 161.021 118.88 161.469 119.024V130.352C161.469 132.208 160.989 133.528 160.029 134.312C159.069 135.112 157.621 135.512 155.685 135.512C154.885 135.512 154.157 135.448 153.501 135.32C152.861 135.208 152.309 135.072 151.845 134.912L152.157 133.496C152.541 133.672 153.061 133.824 153.717 133.952C154.389 134.08 155.061 134.144 155.733 134.144C157.205 134.144 158.269 133.856 158.925 133.28C159.597 132.72 159.933 131.752 159.933 130.376V129.56ZM159.909 120.104C159.637 120.024 159.285 119.952 158.853 119.888C158.421 119.808 157.805 119.768 157.005 119.768C156.333 119.768 155.733 119.888 155.205 120.128C154.693 120.352 154.253 120.68 153.885 121.112C153.517 121.528 153.237 122.032 153.045 122.624C152.853 123.2 152.757 123.84 152.757 124.544C152.757 125.36 152.869 126.064 153.093 126.656C153.317 127.232 153.605 127.704 153.957 128.072C154.325 128.44 154.741 128.712 155.205 128.888C155.669 129.048 156.141 129.128 156.621 129.128C157.325 129.128 157.965 129.024 158.541 128.816C159.133 128.608 159.589 128.368 159.909 128.096V120.104ZM165.603 131V112.664L167.163 112.376V118.952C167.675 118.76 168.195 118.616 168.723 118.52C169.251 118.408 169.779 118.352 170.307 118.352C171.267 118.352 172.067 118.488 172.707 118.76C173.347 119.032 173.859 119.424 174.243 119.936C174.627 120.432 174.891 121.032 175.035 121.736C175.195 122.44 175.275 123.216 175.275 124.064V131H173.715V124.568C173.715 123.688 173.651 122.944 173.523 122.336C173.411 121.728 173.211 121.232 172.923 120.848C172.651 120.464 172.283 120.192 171.819 120.032C171.355 119.856 170.771 119.768 170.067 119.768C169.795 119.768 169.499 119.792 169.179 119.84C168.875 119.888 168.587 119.944 168.315 120.008C168.043 120.056 167.795 120.112 167.571 120.176C167.363 120.24 167.227 120.288 167.163 120.32V131H165.603ZM180.731 118.592H185.675V119.912H180.731V126.512C180.731 127.216 180.787 127.792 180.899 128.24C181.027 128.672 181.203 129.008 181.427 129.248C181.651 129.488 181.923 129.648 182.243 129.728C182.563 129.808 182.915 129.848 183.299 129.848C183.955 129.848 184.483 129.776 184.883 129.632C185.283 129.472 185.595 129.328 185.819 129.2L186.203 130.496C185.979 130.64 185.587 130.808 185.027 131C184.467 131.176 183.859 131.264 183.203 131.264C182.435 131.264 181.787 131.168 181.259 130.976C180.747 130.768 180.331 130.464 180.011 130.064C179.707 129.648 179.491 129.136 179.363 128.528C179.235 127.92 179.171 127.2 179.171 126.368V114.944L180.731 114.656V118.592Z" fill="black"/>
<path d="M54.256 99.36C53.168 99.36 52.224 99.192 51.424 98.856C50.624 98.52 49.968 98.064 49.456 97.488C48.944 96.896 48.56 96.2 48.304 95.4C48.064 94.6 47.944 93.736 47.944 92.808V82.368H50.272V92.544C50.272 94.208 50.64 95.416 51.376 96.168C52.112 96.92 53.072 97.296 54.256 97.296C54.848 97.296 55.384 97.208 55.864 97.032C56.36 96.84 56.784 96.552 57.136 96.168C57.488 95.784 57.76 95.296 57.952 94.704C58.144 94.096 58.24 93.376 58.24 92.544V82.368H60.568V92.808C60.568 93.736 60.44 94.6 60.184 95.4C59.944 96.2 59.56 96.896 59.032 97.488C58.52 98.064 57.864 98.52 57.064 98.856C56.28 99.192 55.344 99.36 54.256 99.36ZM66.6754 87.072C66.9474 86.896 67.3554 86.712 67.8994 86.52C68.4594 86.328 69.0994 86.232 69.8194 86.232C70.7154 86.232 71.5074 86.392 72.1954 86.712C72.8994 87.032 73.4914 87.48 73.9714 88.056C74.4514 88.632 74.8114 89.32 75.0514 90.12C75.3074 90.92 75.4354 91.8 75.4354 92.76C75.4354 93.768 75.2834 94.68 74.9794 95.496C74.6914 96.296 74.2754 96.976 73.7314 97.536C73.1874 98.096 72.5314 98.528 71.7634 98.832C70.9954 99.136 70.1314 99.288 69.1714 99.288C68.1314 99.288 67.2114 99.216 66.4114 99.072C65.6114 98.928 64.9554 98.784 64.4434 98.64V80.76L66.6754 80.376V87.072ZM66.6754 97.056C66.8994 97.12 67.2114 97.184 67.6114 97.248C68.0274 97.296 68.5394 97.32 69.1474 97.32C70.3474 97.32 71.3074 96.928 72.0274 96.144C72.7474 95.344 73.1074 94.216 73.1074 92.76C73.1074 92.12 73.0434 91.52 72.9154 90.96C72.7874 90.4 72.5794 89.92 72.2914 89.52C72.0034 89.104 71.6274 88.784 71.1634 88.56C70.7154 88.32 70.1714 88.2 69.5314 88.2C68.9234 88.2 68.3634 88.304 67.8514 88.512C67.3394 88.72 66.9474 88.936 66.6754 89.16V97.056ZM88.5123 98.64C88.0003 98.768 87.3203 98.904 86.4723 99.048C85.6403 99.192 84.6723 99.264 83.5683 99.264C82.6083 99.264 81.8003 99.128 81.1443 98.856C80.4883 98.568 79.9603 98.168 79.5603 97.656C79.1603 97.144 78.8723 96.544 78.6963 95.856C78.5203 95.152 78.4323 94.376 78.4323 93.528V86.52H80.6643V93.048C80.6643 94.568 80.9043 95.656 81.3843 96.312C81.8643 96.968 82.6723 97.296 83.8083 97.296C84.0483 97.296 84.2963 97.288 84.5523 97.272C84.8083 97.256 85.0483 97.24 85.2723 97.224C85.4963 97.192 85.6963 97.168 85.8723 97.152C86.0643 97.12 86.2003 97.088 86.2803 97.056V86.52H88.5123V98.64ZM92.3575 86.88C92.8695 86.752 93.5495 86.616 94.3975 86.472C95.2455 86.328 96.2215 86.256 97.3255 86.256C98.3175 86.256 99.1415 86.4 99.7975 86.688C100.454 86.96 100.974 87.352 101.358 87.864C101.758 88.36 102.038 88.96 102.198 89.664C102.358 90.368 102.438 91.144 102.438 91.992V99H100.206V92.472C100.206 91.704 100.15 91.048 100.038 90.504C99.9415 89.96 99.7735 89.52 99.5335 89.184C99.2935 88.848 98.9735 88.608 98.5735 88.464C98.1735 88.304 97.6775 88.224 97.0855 88.224C96.8455 88.224 96.5975 88.232 96.3415 88.248C96.0855 88.264 95.8375 88.288 95.5975 88.32C95.3735 88.336 95.1655 88.36 94.9735 88.392C94.7975 88.424 94.6695 88.448 94.5895 88.464V99H92.3575V86.88ZM108.227 86.52H112.955V88.392H108.227V94.152C108.227 94.776 108.275 95.296 108.371 95.712C108.467 96.112 108.611 96.432 108.803 96.672C108.995 96.896 109.235 97.056 109.523 97.152C109.811 97.248 110.147 97.296 110.531 97.296C111.203 97.296 111.739 97.224 112.139 97.08C112.555 96.92 112.843 96.808 113.003 96.744L113.435 98.592C113.211 98.704 112.819 98.84 112.259 99C111.699 99.176 111.059 99.264 110.339 99.264C109.491 99.264 108.787 99.16 108.227 98.952C107.683 98.728 107.243 98.4 106.907 97.968C106.571 97.536 106.331 97.008 106.187 96.384C106.059 95.744 105.995 95.008 105.995 94.176V83.04L108.227 82.656V86.52ZM125.731 98.64C125.219 98.768 124.539 98.904 123.691 99.048C122.859 99.192 121.891 99.264 120.787 99.264C119.827 99.264 119.019 99.128 118.363 98.856C117.707 98.568 117.179 98.168 116.779 97.656C116.379 97.144 116.091 96.544 115.915 95.856C115.739 95.152 115.651 94.376 115.651 93.528V86.52H117.883V93.048C117.883 94.568 118.123 95.656 118.603 96.312C119.083 96.968 119.891 97.296 121.027 97.296C121.267 97.296 121.515 97.288 121.771 97.272C122.027 97.256 122.267 97.24 122.491 97.224C122.715 97.192 122.915 97.168 123.091 97.152C123.283 97.12 123.419 97.088 123.499 97.056V86.52H125.731V98.64ZM143.411 92.04C143.667 92.36 143.987 92.784 144.371 93.312C144.771 93.824 145.179 94.4 145.595 95.04C146.011 95.664 146.419 96.32 146.819 97.008C147.235 97.696 147.587 98.36 147.875 99H145.331C145.011 98.392 144.659 97.776 144.275 97.152C143.907 96.528 143.531 95.936 143.147 95.376C142.763 94.8 142.379 94.264 141.995 93.768C141.627 93.272 141.291 92.84 140.987 92.472C140.779 92.488 140.563 92.496 140.339 92.496C140.131 92.496 139.915 92.496 139.691 92.496H137.603V99H135.275V82.608C135.931 82.448 136.659 82.344 137.459 82.296C138.275 82.232 139.019 82.2 139.691 82.2C142.027 82.2 143.803 82.64 145.019 83.52C146.251 84.4 146.867 85.712 146.867 87.456C146.867 88.56 146.571 89.504 145.979 90.288C145.403 91.072 144.547 91.656 143.411 92.04ZM139.883 84.24C138.891 84.24 138.131 84.264 137.603 84.312V90.576H139.259C140.059 90.576 140.779 90.536 141.419 90.456C142.059 90.376 142.595 90.224 143.027 90C143.475 89.776 143.819 89.464 144.059 89.064C144.299 88.648 144.419 88.104 144.419 87.432C144.419 86.808 144.299 86.288 144.059 85.872C143.819 85.456 143.491 85.128 143.075 84.888C142.675 84.648 142.195 84.48 141.635 84.384C141.091 84.288 140.507 84.24 139.883 84.24ZM149.529 92.784C149.529 91.68 149.689 90.72 150.009 89.904C150.329 89.072 150.753 88.384 151.281 87.84C151.809 87.296 152.417 86.888 153.105 86.616C153.793 86.344 154.497 86.208 155.217 86.208C156.897 86.208 158.185 86.736 159.081 87.792C159.977 88.832 160.425 90.424 160.425 92.568C160.425 92.664 160.425 92.792 160.425 92.952C160.425 93.096 160.417 93.232 160.401 93.36H151.857C151.953 94.656 152.329 95.64 152.985 96.312C153.641 96.984 154.665 97.32 156.057 97.32C156.841 97.32 157.497 97.256 158.025 97.128C158.569 96.984 158.977 96.848 159.249 96.72L159.561 98.592C159.289 98.736 158.809 98.888 158.121 99.048C157.449 99.208 156.681 99.288 155.817 99.288C154.729 99.288 153.785 99.128 152.985 98.808C152.201 98.472 151.553 98.016 151.041 97.44C150.529 96.864 150.145 96.184 149.889 95.4C149.649 94.6 149.529 93.728 149.529 92.784ZM158.097 91.56C158.113 90.552 157.857 89.728 157.329 89.088C156.817 88.432 156.105 88.104 155.193 88.104C154.681 88.104 154.225 88.208 153.825 88.416C153.441 88.608 153.113 88.864 152.841 89.184C152.569 89.504 152.353 89.872 152.193 90.288C152.049 90.704 151.953 91.128 151.905 91.56H158.097ZM171.455 97.752C171.263 97.88 170.887 98.048 170.327 98.256C169.783 98.448 169.143 98.544 168.407 98.544C167.655 98.544 166.943 98.424 166.271 98.184C165.615 97.944 165.039 97.576 164.543 97.08C164.047 96.568 163.655 95.936 163.367 95.184C163.079 94.432 162.935 93.536 162.935 92.496C162.935 91.584 163.071 90.752 163.343 90C163.615 89.232 164.007 88.576 164.519 88.032C165.047 87.472 165.687 87.04 166.439 86.736C167.191 86.416 168.039 86.256 168.983 86.256C170.023 86.256 170.927 86.336 171.695 86.496C172.479 86.64 173.135 86.776 173.663 86.904V98.04C173.663 99.96 173.167 101.352 172.175 102.216C171.183 103.08 169.679 103.512 167.663 103.512C166.879 103.512 166.135 103.448 165.431 103.32C164.743 103.192 164.143 103.04 163.631 102.864L164.039 100.92C164.487 101.096 165.031 101.248 165.671 101.376C166.327 101.52 167.007 101.592 167.711 101.592C169.039 101.592 169.991 101.328 170.567 100.8C171.159 100.272 171.455 99.432 171.455 98.28V97.752ZM171.431 88.488C171.207 88.424 170.903 88.368 170.519 88.32C170.151 88.256 169.647 88.224 169.007 88.224C167.807 88.224 166.879 88.616 166.223 89.4C165.583 90.184 165.263 91.224 165.263 92.52C165.263 93.24 165.351 93.856 165.527 94.368C165.719 94.88 165.967 95.304 166.271 95.64C166.591 95.976 166.951 96.224 167.351 96.384C167.767 96.544 168.191 96.624 168.623 96.624C169.215 96.624 169.759 96.544 170.255 96.384C170.751 96.208 171.143 96.008 171.431 95.784V88.488ZM187.442 98.64C186.93 98.768 186.25 98.904 185.402 99.048C184.57 99.192 183.602 99.264 182.498 99.264C181.538 99.264 180.73 99.128 180.074 98.856C179.418 98.568 178.89 98.168 178.49 97.656C178.09 97.144 177.802 96.544 177.626 95.856C177.45 95.152 177.362 94.376 177.362 93.528V86.52H179.594V93.048C179.594 94.568 179.834 95.656 180.314 96.312C180.794 96.968 181.602 97.296 182.738 97.296C182.978 97.296 183.226 97.288 183.482 97.272C183.738 97.256 183.978 97.24 184.202 97.224C184.426 97.192 184.626 97.168 184.802 97.152C184.994 97.12 185.13 97.088 185.21 97.056V86.52H187.442V98.64ZM195.031 99.24C193.655 99.208 192.679 98.912 192.103 98.352C191.527 97.792 191.239 96.92 191.239 95.736V80.76L193.471 80.376V95.376C193.471 95.744 193.503 96.048 193.567 96.288C193.631 96.528 193.735 96.72 193.879 96.864C194.023 97.008 194.215 97.12 194.455 97.2C194.695 97.264 194.991 97.32 195.343 97.368L195.031 99.24ZM202.074 97.392C202.602 97.392 203.066 97.384 203.466 97.368C203.882 97.336 204.226 97.288 204.498 97.224V93.504C204.338 93.424 204.074 93.36 203.706 93.312C203.354 93.248 202.922 93.216 202.41 93.216C202.074 93.216 201.714 93.24 201.33 93.288C200.962 93.336 200.618 93.44 200.298 93.6C199.994 93.744 199.738 93.952 199.53 94.224C199.322 94.48 199.218 94.824 199.218 95.256C199.218 96.056 199.474 96.616 199.986 96.936C200.498 97.24 201.194 97.392 202.074 97.392ZM201.882 86.208C202.778 86.208 203.53 86.328 204.138 86.568C204.762 86.792 205.258 87.12 205.626 87.552C206.01 87.968 206.282 88.472 206.442 89.064C206.602 89.64 206.682 90.28 206.682 90.984V98.784C206.49 98.816 206.218 98.864 205.866 98.928C205.53 98.976 205.146 99.024 204.714 99.072C204.282 99.12 203.81 99.16 203.298 99.192C202.802 99.24 202.306 99.264 201.81 99.264C201.106 99.264 200.458 99.192 199.866 99.048C199.274 98.904 198.762 98.68 198.33 98.376C197.898 98.056 197.562 97.64 197.322 97.128C197.082 96.616 196.962 96 196.962 95.28C196.962 94.592 197.098 94 197.37 93.504C197.658 93.008 198.042 92.608 198.522 92.304C199.002 92 199.562 91.776 200.202 91.632C200.842 91.488 201.514 91.416 202.218 91.416C202.442 91.416 202.674 91.432 202.914 91.464C203.154 91.48 203.378 91.512 203.586 91.56C203.81 91.592 204.002 91.624 204.162 91.656C204.322 91.688 204.434 91.712 204.498 91.728V91.104C204.498 90.736 204.458 90.376 204.378 90.024C204.298 89.656 204.154 89.336 203.946 89.064C203.738 88.776 203.45 88.552 203.082 88.392C202.73 88.216 202.266 88.128 201.69 88.128C200.954 88.128 200.306 88.184 199.746 88.296C199.202 88.392 198.794 88.496 198.522 88.608L198.258 86.76C198.546 86.632 199.026 86.512 199.698 86.4C200.37 86.272 201.098 86.208 201.882 86.208ZM214.997 86.256C215.189 86.256 215.405 86.272 215.645 86.304C215.901 86.32 216.149 86.352 216.389 86.4C216.629 86.432 216.845 86.472 217.037 86.52C217.245 86.552 217.397 86.584 217.493 86.616L217.109 88.56C216.933 88.496 216.637 88.424 216.221 88.344C215.821 88.248 215.301 88.2 214.661 88.2C214.245 88.2 213.829 88.248 213.413 88.344C213.013 88.424 212.749 88.48 212.621 88.512V99H210.389V87.048C210.917 86.856 211.573 86.68 212.357 86.52C213.141 86.344 214.021 86.256 214.997 86.256Z" fill="black"/>
</svg>
